{"asset":{"version":"2.0","generator":"BasiliskChessPiece r2"},"scenes":[{"name":"AuxScene","nodes":[0]}],"scene":0,"nodes":[{"mesh":0}],"bufferViews":[{"buffer":0,"byteOffset":0,"byteLength":42888,"target":34962,"byteStride":12},{"buffer":0,"byteOffset":42888,"byteLength":28592,"target":34962,"byteStride":8},{"buffer":0,"byteOffset":71480,"byteLength":42888,"target":34962,"byteStride":12},{"buffer":0,"byteOffset":114368,"byteLength":42648,"target":34963}],"buffers":[{"byteLength":157016,"uri":"data:application/octet-stream;base64,"}],"accessors":[{"bufferView":0,"componentType":5126,"count":3574,"max":[0.76,2.487649787660758,0.76],"min":[-0.76,0.02,-0.76],"type":"VEC3"},{"bufferView":1,"componentType":5126,"count":3574,"max":[1.0,1.0],"min":[0.0,0.0],"type":"VEC2"},{"bufferView":2,"componentType":5126,"count":3574,"max":[1.0,1.0,1.0],"min":[-1.0,-1.0,-1.0],"type":"VEC3"},{"bufferView":3,"componentType":5123,"count":21324,"max":[3573],"min":[0],"type":"SCALAR"}],"materials":[{"pbrMetallicRoughness":{"metallicFactor":0.1,"roughnessFactor":0.8}}],"meshes":[{"primitives":[{"mode":4,"attributes":{"POSITION":0,"TEXCOORD_0":1,"NORMAL":2},"indices":3,"material":0}]}]}