{
  "asset": {
    "version": "2.0",
    "generator": "THREE.GLTFExporter r181"
  },
  "scenes": [
    {
      "name": "AuxScene",
      "nodes": [
        0
      ]
    }
  ],
  "scene": 0,
  "nodes": [
    {
      "mesh": 0
    }
  ],
  "bufferViews": [
    {
      "buffer": 0,
      "byteOffset": 0,
      "byteLength": 13824,
      "target": 34962,
      "byteStride": 12
    },
    {
      "buffer": 0,
      "byteOffset": 13824,
      "byteLength": 17856,
      "target": 34962,
      "byteStride": 8
    },
    {
      "buffer": 0,
      "byteOffset": 31680,
      "byteLength": 13824,
      "target": 34962,
      "byteStride": 12
    },
    {
      "buffer": 0,
      "byteOffset": 45504,
      "byteLength": 13392,
      "target": 34963
    }
  ],
  "buffers": [
    {
      "byteLength": 58896,
      "uri": "data:application/octet-stream;base64,"
    }
  ],
  "accessors": [
    {
      "bufferView": 0,
      "componentType": 5126,
      "count": 1152,
      "max": [
        0.8300880193710327,
        2.4353699684143066,
        0.8300880193710327
      ],
      "min": [
        -0.8300880193710327,
        0.010218500159680843,
        -0.8300880193710327
      ],
      "type": "VEC3"
    },
    {
      "bufferView": 1,
      "componentType": 5126,
      "count": 2232,
      "max": [
        1.0006599426269531,
        1.0066800117492676
      ],
      "min": [
        0.003719999920576811,
        0.008702999912202358
      ],
      "type": "VEC2"
    },
    {
      "bufferView": 2,
      "componentType": 5126,
      "count": 1152,
      "max": [
        0.9980003237724304,
        0.9978087544441223,
        0.9978097677230835
      ],
      "min": [
        -0.9980003237724304,
        -0.998887300491333,
        -0.9978097677230835
      ],
      "type": "VEC3"
    },
    {
      "bufferView": 3,
      "componentType": 5123,
      "count": 6696,
      "max": [
        1151
      ],
      "min": [
        0
      ],
      "type": "SCALAR"
    }
  ],
  "materials": [
    {
      "pbrMetallicRoughness": {
        "metallicFactor": 0.1,
        "roughnessFactor": 0.8
      }
    }
  ],
  "meshes": [
    {
      "primitives": [
        {
          "mode": 4,
          "attributes": {
            "POSITION": 0,
            "TEXCOORD_0": 1,
            "NORMAL": 2
          },
          "indices": 3,
          "material": 0
        }
      ]
    }
  ]
}