<svg xmlns="http://www.w3.org/2000/svg" xmlns:xlink="http://www.w3.org/1999/xlink" viewBox="0 0 468 332" width="468pt" height="332pt">
<g class="graph" id="graph1" transform="scale(1) rotate(0) translate(4 328)">
<title>arrange</title>
<polygon fill="white" stroke="white" points="-4,5 -4,-328 465,-328 465,5 -4,5" />
<!-- Tic&#45;Tac&#45;Toe -->
<g class="node" id="node1"><title>Tic-Tac-Toe</title>
<ellipse fill="lightblue" stroke="black" cx="230" cy="-306" rx="59.2368" ry="18" />
<text font-family="Times,serif" font-size="14" text-anchor="middle" x="230" y="-301.8">Tic-Tac-Toe</text>
</g>
<!-- Renju -->
<g class="node" id="node2"><title>Renju</title>
<a xlink:href="../renju/renju.htm">
<ellipse fill="red" stroke="black" cx="154" cy="-234" rx="34.1562" ry="18" />
<text font-family="Times,serif" font-size="14" text-anchor="middle" x="154" y="-229.8">Renju</text>
</a>
</g>
<!-- Tic&#45;Tac&#45;Toe&#45;&gt;Renju -->
<g class="edge" id="edge2"><title>Tic-Tac-Toe-&gt;Renju</title>
<path fill="none" stroke="black" d="M 212.373 -288.765 C 202.041 -279.248 188.856 -267.104 177.632 -256.766" />
<polygon fill="black" stroke="black" points="179.961,-254.153 170.234,-249.952 175.218,-259.302 179.961,-254.153" />
</g>
<!-- Three Men&#39;s Morris -->
<g class="node" id="node5"><title>Three Men's Morris</title>
<a xlink:href="../morris/three-man.htm">
<ellipse fill="lightblue" stroke="black" cx="307" cy="-234" rx="88.9988" ry="18" />
<text font-family="Times,serif" font-size="14" text-anchor="middle" x="307" y="-229.8">Three Men's Morris</text>
</a>
</g>
<!-- Tic&#45;Tac&#45;Toe&#45;&gt;Three Men&#39;s Morris -->
<g class="edge" id="edge6"><title>Tic-Tac-Toe-&gt;Three Men's Morris</title>
<path fill="none" stroke="black" d="M 247.859 -288.765 C 257.726 -279.795 270.161 -268.49 281.079 -258.564" />
<polygon fill="black" stroke="black" points="283.658,-260.95 288.703,-251.633 278.949,-255.77 283.658,-260.95" />
</g>
<!-- Ninuki Renju -->
<g class="node" id="node3"><title>Ninuki Renju</title>
<a xlink:href="../renju/ninuki-renju.htm">
<ellipse fill="red" stroke="black" cx="63" cy="-162" rx="63.0144" ry="18" />
<text font-family="Times,serif" font-size="14" text-anchor="middle" x="63" y="-157.8">Ninuki Renju</text>
</a>
</g>
<!-- Renju&#45;&gt;Ninuki Renju -->
<g class="edge" id="edge4"><title>Renju-&gt;Ninuki Renju</title>
<path fill="none" stroke="black" d="M 135.585 -218.834 C 123.082 -209.217 106.288 -196.299 92.0036 -185.31" />
<polygon fill="black" stroke="black" points="93.9946,-182.426 83.9343,-179.103 89.7266,-187.975 93.9946,-182.426" />
</g>
<!-- Fang Qi -->
<g class="node" id="node10"><title>Fang Qi</title>
<a xlink:href="ningxia-fangqi-board.htm">
<ellipse fill="yellow" stroke="black" cx="154" cy="-18" rx="42.1271" ry="18" />
<text font-family="Times,serif" font-size="14" text-anchor="middle" x="154" y="-13.8">Fang Qi</text>
</a>
</g>
<!-- Renju&#45;&gt;Fang Qi -->
<g class="edge" id="edge22"><title>Renju-&gt;Fang Qi</title>
<path fill="none" stroke="black" stroke-dasharray="1,5" d="M 154 -215.849 C 154 -178.832 154 -91.1809 154 -46.3863" />
<polygon fill="black" stroke="black" points="157.5,-46.2324 154,-36.2325 150.5,-46.2325 157.5,-46.2324" />
</g>
<!-- Les Pendus -->
<g class="node" id="node4"><title>Les Pendus</title>
<a xlink:href="../morris/les-pendus.htm">
<ellipse fill="lightblue" stroke="black" cx="237" cy="-162" rx="54.9341" ry="18" />
<text font-family="Times,serif" font-size="14" text-anchor="middle" x="237" y="-157.8">Les Pendus</text>
</a>
</g>
<!-- Nine Men&#39;s Morris -->
<g class="node" id="node6"><title>Nine Men's Morris</title>
<a xlink:href="../morris/nine-man-morris.htm">
<ellipse fill="lightblue" stroke="black" cx="272" cy="-90" rx="85.3791" ry="18" />
<text font-family="Times,serif" font-size="14" text-anchor="middle" x="272" y="-85.8">Nine Men's Morris</text>
</a>
</g>
<!-- Les Pendus&#45;&gt;Nine Men&#39;s Morris -->
<g class="edge" id="edge10"><title>Les Pendus-&gt;Nine Men's Morris</title>
<path fill="none" stroke="black" stroke-dasharray="1,5" d="M 245.473 -144.055 C 249.497 -136.007 254.398 -126.205 258.887 -117.226" />
<polygon fill="black" stroke="black" points="262.021,-118.785 263.362,-108.275 255.76,-115.654 262.021,-118.785" />
</g>
<!-- Three Men&#39;s Morris&#45;&gt;Les Pendus -->
<g class="edge" id="edge12"><title>Three Men's Morris-&gt;Les Pendus</title>
<path fill="none" stroke="black" d="M 290.055 -216.055 C 281.156 -207.156 270.112 -196.112 260.408 -186.408" />
<polygon fill="black" stroke="black" points="262.853,-183.903 253.307,-179.307 257.903,-188.853 262.853,-183.903" />
</g>
<!-- Three Men&#39;s Morris&#45;&gt;Nine Men&#39;s Morris -->
<g class="edge" id="edge8"><title>Three Men's Morris-&gt;Nine Men's Morris</title>
<path fill="none" stroke="black" d="M 308 -215.891 C 308.571 -197.687 308.073 -168.232 301 -144 C 298.237 -134.535 293.594 -124.876 288.823 -116.44" />
<polygon fill="black" stroke="black" points="291.814,-114.622 283.679,-107.834 285.805,-118.213 291.814,-114.622" />
</g>
<!-- Shisima -->
<g class="node" id="node8"><title>Shisima</title>
<a xlink:href="shisima.htm">
<ellipse fill="chocolate" stroke="black" cx="390" cy="-162" rx="42.2329" ry="18" />
<text font-family="Times,serif" font-size="14" text-anchor="middle" x="390" y="-157.8">Shisima</text>
</a>
</g>
<!-- Three Men&#39;s Morris&#45;&gt;Shisima -->
<g class="edge" id="edge14"><title>Three Men's Morris-&gt;Shisima</title>
<path fill="none" stroke="black" d="M 326.67 -216.411 C 337.809 -207.016 351.883 -195.147 363.932 -184.985" />
<polygon fill="black" stroke="black" points="366.502,-187.397 371.889,-178.274 361.989,-182.045 366.502,-187.397" />
</g>
<!-- Morabaraba -->
<g class="node" id="node7"><title>Morabaraba</title>
<a xlink:href="../morris/morabaraba.htm">
<ellipse fill="chocolate" stroke="black" cx="272" cy="-18" rx="57.5232" ry="18" />
<text font-family="Times,serif" font-size="14" text-anchor="middle" x="272" y="-13.8">Morabaraba</text>
</a>
</g>
<!-- Nine Men&#39;s Morris&#45;&gt;Morabaraba -->
<g class="edge" id="edge16"><title>Nine Men's Morris-&gt;Morabaraba</title>
<path fill="none" stroke="black" d="M 272 -71.6966 C 272 -63.9827 272 -54.7125 272 -46.1124" />
<polygon fill="black" stroke="black" points="275.5,-46.1043 272,-36.1043 268.5,-46.1044 275.5,-46.1043" />
</g>
<!-- Bolotoudou -->
<g class="node" id="node9"><title>Bolotoudou</title>
<a xlink:href="bolotoudou.htm">
<ellipse fill="chocolate" stroke="black" cx="404" cy="-18" rx="56.4646" ry="18" />
<text font-family="Times,serif" font-size="14" text-anchor="middle" x="404" y="-13.8">Bolotoudou</text>
</a>
</g>
<!-- Nine Men&#39;s Morris&#45;&gt;Bolotoudou -->
<g class="edge" id="edge18"><title>Nine Men's Morris-&gt;Bolotoudou</title>
<path fill="none" stroke="black" stroke-dasharray="1,5" d="M 301.953 -73.1159 C 321.214 -62.9016 346.384 -49.5541 366.906 -38.6708" />
<polygon fill="black" stroke="black" points="368.776,-41.6411 375.971,-33.8639 365.496,-35.4569 368.776,-41.6411" />
</g>
<!-- Nine Men&#39;s Morris&#45;&gt;Fang Qi -->
<g class="edge" id="edge20"><title>Nine Men's Morris-&gt;Fang Qi</title>
<path fill="none" stroke="black" stroke-dasharray="1,5" d="M 244.632 -72.7646 C 227.276 -62.4685 204.734 -49.0965 186.474 -38.2641" />
<polygon fill="black" stroke="black" points="188.017,-35.1102 177.631,-33.0183 184.446,-41.1306 188.017,-35.1102" />
</g>
</g>
</svg>