<svg height='300px' width='300px'  fill="#0D47A1" xmlns="http://www.w3.org/2000/svg" xmlns:xlink="http://www.w3.org/1999/xlink" version="1.1" x="0px" y="0px" viewBox="0 0 100 100" enable-background="new 0 0 100 100" xml:space="preserve"><g><g><path d="M27.291,71.879H7.56c-0.198,0-0.359-0.16-0.359-0.359V24.58c0-0.198,0.161-0.359,0.359-0.359h26.476    c0.198,0,0.359,0.161,0.359,0.359v26.915h1.884V19.196c0-2.181-1.768-3.949-3.949-3.949h-0.902    c-0.057-0.123-0.18-0.209-0.324-0.209h-3.44c-0.144,0-0.267,0.087-0.324,0.209H9.175c-2.181,0-3.949,1.768-3.949,3.949v5.102    c-0.123,0.058-0.209,0.18-0.209,0.324v1.305c0,0.144,0.086,0.267,0.209,0.324v1.517c-0.123,0.057-0.209,0.18-0.209,0.324v1.305    c0,0.144,0.086,0.267,0.209,0.323v47.064c0,2.182,1.768,3.949,3.949,3.949h18.115V71.879z M20.634,17.79    c0.33,0,0.598,0.268,0.598,0.598c0,0.33-0.268,0.599-0.598,0.599c-0.331,0-0.599-0.269-0.599-0.599    C20.036,18.057,20.304,17.79,20.634,17.79z M18.54,20.602h4.488c0.198,0,0.359,0.161,0.359,0.359s-0.161,0.358-0.359,0.358H18.54    c-0.198,0-0.359-0.16-0.359-0.358S18.341,20.602,18.54,20.602z M20.993,79.237c-1.715,0-3.111-1.395-3.111-3.111    c0-1.715,1.396-3.111,3.111-3.111c1.716,0,3.111,1.396,3.111,3.111C24.104,77.843,22.709,79.237,20.993,79.237z"></path><path d="M21.007,73.703c-1.32,0-2.394,1.074-2.394,2.393c0,1.32,1.074,2.395,2.394,2.395s2.393-1.074,2.393-2.395    C23.4,74.777,22.327,73.703,21.007,73.703z"></path></g><g><circle cx="33.692" cy="68.917" r="2.394"></circle><path d="M94.572,75.265V57.1c0-2.182-1.768-3.948-3.949-3.948h-5.102c-0.057-0.124-0.18-0.209-0.323-0.209h-1.307    c-0.144,0-0.267,0.085-0.322,0.209h-1.519c-0.058-0.124-0.18-0.209-0.324-0.209h-1.304c-0.146,0-0.268,0.085-0.325,0.209H33.034    c-2.181,0-3.949,1.767-3.949,3.948v23.155c0,2.181,1.768,3.949,3.949,3.949h57.589c2.182,0,3.949-1.769,3.949-3.949v-0.901    c0.123-0.058,0.209-0.18,0.209-0.325v-3.44C94.781,75.444,94.695,75.321,94.572,75.265z M33.692,72.028    c-1.715,0-3.111-1.395-3.111-3.111c0-1.716,1.396-3.111,3.111-3.111s3.111,1.396,3.111,3.111    C36.803,70.634,35.407,72.028,33.692,72.028z M85.598,81.96c0,0.199-0.161,0.358-0.359,0.358H38.299    c-0.198,0-0.359-0.159-0.359-0.358V55.484c0-0.198,0.161-0.359,0.359-0.359h46.939c0.198,0,0.359,0.161,0.359,0.359V81.96z     M89.218,70.951c0,0.198-0.161,0.359-0.359,0.359s-0.359-0.161-0.359-0.359v-4.487c0-0.197,0.161-0.358,0.359-0.358    s0.359,0.161,0.359,0.358V70.951z M91.431,69.156c-0.33,0-0.598-0.267-0.598-0.598s0.268-0.599,0.598-0.599    c0.331,0,0.599,0.268,0.599,0.599S91.762,69.156,91.431,69.156z"></path></g><path d="M63.517,44.91l-1.689,1.824c-0.959-9.565-6.532-14.115-11.134-16.253c-5.123-2.383-10.028-2.34-10.234-2.34l-0.529,0.008   v1.435l0.548-0.007c0.046-0.004,4.825-0.033,9.654,2.227c6.056,2.833,9.495,7.841,10.247,14.894l-1.727-1.601l0.079,2.065   l2.524,2.34l2.34-2.525L63.517,44.91z"></path></g></svg>