<?xml version="1.0" encoding="UTF-8"?>
<svg id="Layer_2" data-name="Layer 2" xmlns="http://www.w3.org/2000/svg" xmlns:xlink="http://www.w3.org/1999/xlink" width="337" height="409" viewBox="0 0 350.43 450.26">
  <defs>
    <style>
      .cls-1 {
        fill: #2e1b10;
      }

      .cls-2 {
        fill: #3b2314;
      }

      .cls-3 {
        fill: url(#linear-gradient);
      }
    </style>
    <linearGradient id="linear-gradient" x1="-3587.34" y1="246.2" x2="-3586.34" y2="246.2" gradientTransform="translate(1212070.13 -82957.51) scale(337.87)" gradientUnits="userSpaceOnUse">
      <stop offset="0" stop-color="#fbcdab"/>
      <stop offset="1" stop-color="#fde4d9"/>
    </linearGradient>
  </defs>
  <g id="Crane">
    <g id="north_Crane_JAP" data-name="north Crane JAP">
      <g id="piece">
        <path class="cls-1" d="M174.83,.2h156.83c20.63,0,17.88,20.37,17.88,20.37,0,0,1.65,282.83-32.19,343.65-33.84,60.82-121.06,85.46-142.52,85.46s-108.68-24.63-142.52-85.46C-1.53,303.4,.12,20.57,.12,20.57,.12,20.57-2.63,.2,18,.2H174.83Z"/>
        <path class="cls-3" d="M347.43,20.87c0,1.39-.12,2.27-.12,2.27,0,0,1.6,279.54-31.1,339.66-32.7,60.12-116.98,84.46-137.71,84.46s-105.01-24.35-137.71-84.46C8.09,302.68,9.68,23.14,9.68,23.14c0,0-.13-.96-.12-2.46h0c.04-5.39,1.82-17.68,17.4-17.68H330.04c15.53,0,17.35,12.21,17.4,17.61v.26Z"/>
        <path class="cls-2" d="M347.43,20.87h-3c0,.61-.03,1.1-.05,1.44-.01,.17-.02,.29-.03,.37v.08s-.01,.01-.01,.01l1.33,.16-1.33-.17h0s1.33,.17,1.33,.17l-1.33-.17-.03,.2v.2s0,.55,0,1.61c0,1.06,0,2.62,0,4.66,0,20.81-.33,90.43-4.38,161.61-2.02,35.59-4.98,71.58-9.28,102.01-2.15,15.21-4.63,29.04-7.48,40.7-2.85,11.66-6.09,21.16-9.61,27.62-7.96,14.63-19.09,27.15-31.69,37.69-18.89,15.82-41.06,27.17-60.39,34.53-9.66,3.68-18.62,6.36-26.08,8.11-3.73,.88-7.08,1.52-9.95,1.94-2.86,.42-5.25,.62-6.98,.62-2.31,0-5.77-.35-10-1.12-7.42-1.33-17.26-3.9-28.23-7.81-16.46-5.86-35.5-14.74-52.99-26.97-17.5-12.23-33.43-27.81-43.86-47-3.52-6.46-6.77-15.96-9.61-27.62-5-20.41-8.84-47.43-11.77-76.96C13.24,168.13,12.67,56.73,12.67,29.42c0-2.03,0-3.6,0-4.66,0-1.06,0-1.6,0-1.61v-.21s-.03-.2-.03-.2h0c-.01-.1-.09-.82-.09-1.91v-.1s0-.02,0-.02v-.03c0-1.19,.12-2.77,.47-4.41,.27-1.23,.68-2.5,1.27-3.69,.9-1.78,2.16-3.35,4.09-4.54,1.93-1.18,4.62-2.04,8.57-2.04H330.04c3.49,0,6.01,.68,7.87,1.65,1.4,.73,2.46,1.64,3.32,2.68,1.28,1.55,2.09,3.42,2.57,5.28,.48,1.86,.62,3.69,.63,5.03v.23h0s3,0,3,0h3v-.29h0c-.01-1.5-.15-3.47-.62-5.64-.36-1.63-.91-3.36-1.78-5.08-1.29-2.57-3.32-5.11-6.32-6.94C338.72,1.08,334.84,0,330.04,0,320.07,0,282.18,0,246.79,0,229.1,0,212.02,0,199.37,0,193.05,0,187.83,0,184.19,0,180.56,0,178.51,0,178.5,0,178.5,0,46.9,0,26.96,0c-4.28,0-7.83,.85-10.68,2.35-2.13,1.12-3.85,2.58-5.17,4.2-1.99,2.43-3.11,5.14-3.74,7.63-.63,2.49-.79,4.78-.81,6.47v.03h3l-3-.06c0,.1,0,.17,0,.21,0,1.58,.13,2.6,.14,2.7l2.97-.39-3-.02s-.01,2.22-.01,6.3c0,20.88,.33,90.57,4.39,161.96,2.03,35.7,4.99,71.81,9.32,102.51,2.17,15.35,4.68,29.35,7.6,41.29,2.93,11.95,6.24,21.82,10.17,29.06,8.4,15.43,20.06,28.5,33.11,39.43,19.58,16.39,42.29,27.99,62.11,35.53,9.91,3.77,19.1,6.53,26.84,8.35,3.87,.91,7.38,1.59,10.44,2.04,3.07,.45,5.69,.68,7.85,.68,2.88,0,6.59-.41,11.06-1.21,7.82-1.41,17.92-4.05,29.18-8.06,16.89-6.01,36.36-15.09,54.41-27.71,18.04-12.62,34.68-28.8,45.7-49.05,3.93-7.24,7.24-17.11,10.17-29.06,5.11-20.89,8.97-48.1,11.91-77.8,8.83-89.07,9.4-200.54,9.4-227.95,0-4.07-.01-6.29-.01-6.29l-3,.02,2.98,.38c.01-.1,.14-1.1,.14-2.65h0s-3,0-3,0Z"/>
      </g>
      <polygon id="moves" class="cls-1" points="162.59 92.28 120.47 50.17 126.91 43.74 168.7 85.53 177.01 85.53 177.01 22.67 186.11 22.67 186.11 85.53 194.42 85.53 236.65 43.3 243.08 49.73 200.52 92.29 200.52 117.35 243.08 159.92 236.65 166.35 193.76 123.46 186.11 123.46 186.11 186.97 177.01 186.97 177.01 123.46 169.36 123.46 126.91 165.91 120.47 159.48 162.59 117.36 162.59 92.28"/>
      <path id="title" class="cls-1" d="M147.38,226.76c-.17,7.44,1.01,18.76,2.7,27.38l11.15-1.69c-1.69-8.79-2.54-20.11-2.2-27.55l-11.66,1.86Zm-17.24,7.61c.84,5.92,3.21,15.04,5.92,21.97l9.97-2.37c-2.53-7.1-4.73-16.39-5.24-22.48l-10.65,2.87Zm25.69,90.93h-31.27v-6.93h31.27v6.93Zm-31.27,12h31.27v6.93h-31.27v-6.93Zm90.25-83.66v-9.46h11.83v9.46h-11.83Zm-20.62,74.87l9.13,2.54c1.35-4.23,3.21-9.8,5.41-14.87h9.63c-4.06,7.61-7.27,15.72-9.8,24h-14.37v-11.66Zm32.45-60.17v8.96h-11.83v-8.96h11.83Zm0,23.66v8.45h-11.83v-8.45h11.83Zm-130.47,6.42h59.66v6.25h-49.01v53.24h26.2c-1.35,3.21-2.54,6.42-3.55,9.13-2.37,0-3.89,.68-4.23,2.2l23.66,4.39c.68-4.56,2.03-10.48,3.55-15.72h21.13v-94.81h-58.14c.34-6.76,.68-12.34,1.01-16.9,1.69,4.39,4.06,9.63,6.59,13.86l9.13-3.21c-2.87-5.58-6.08-13.01-7.27-17.92l-7.94,2.87c.84-10.14,1.52-14.37,7.44-14.37,2.2,0,6.59,0,11.66,.51-2.03-3.72-3.72-9.63-3.89-14.03-19.44-.51-22.82,1.52-26.03,5.75-3.89,4.73-5.58,17.92-7.1,52.56-.17,1.69-.34,3.55-.34,4.73l8.79,.85,3.55-.17h44.79v6.76h-59.66v14.03Zm84.5-54.25h17.58v9.46h-16.73v14.7h16.73v8.96h-16.73v14.7h16.73v8.45h-18.08v15.72h12.34c-1.52,2.7-2.87,5.58-4.06,7.77-2.2,.17-3.55,.84-4.06,1.86l.68,.17h-6.93v30.59h26.37c-.68,3.55-1.35,7.27-1.86,10.82-2.37,.17-3.72,1.18-3.89,2.7l22.48,3.21c.51-5.58,1.35-11.15,2.37-16.73h29.24v-30.59h-15.55v14.2h-9.46c5.58-16.73,14.7-31.6,29.91-40.73-2.7-3.72-6.76-11.32-8.45-16.06l-5.58,3.55v-68.79h-17.07v9.46h-40.05c.51-.84,1.01-1.52,1.52-2.2l-13.69-7.6c-7.1,9.13-9.8,23.66-11.49,37.35l14.37,3.72c.68-6.08,1.52-12.17,3.21-17.75h.17v3.04Z"/>
    </g>
  </g>
</svg>