<?xml version="1.0" encoding="UTF-8"?>
<svg id="Layer_2" data-name="Layer 2" xmlns="http://www.w3.org/2000/svg" xmlns:xlink="http://www.w3.org/1999/xlink" width="337" height="409" viewBox="0 0 350.43 450.26">
  <defs>
    <style>
      .cls-1 {
        fill: #2e1b10;
      }

      .cls-2 {
        fill: #3b2314;
      }

      .cls-3 {
        fill: url(#linear-gradient);
      }
    </style>
    <linearGradient id="linear-gradient" x1="-1831.34" y1="242.2" x2="-1830.34" y2="242.2" gradientTransform="translate(618768.07 82056.32) scale(337.87 -337.87)" gradientUnits="userSpaceOnUse">
      <stop offset="0" stop-color="#fbcdab"/>
      <stop offset="1" stop-color="#fde4d9"/>
    </linearGradient>
  </defs>
  <g id="Falcon">
    <g id="north_Falcon_JAP" data-name="north Falcon JAP">
      <g id="piece">
        <path class="cls-1" d="M174.83,.2h156.83c20.63,0,17.88,20.37,17.88,20.37,0,0,1.65,282.83-32.19,343.65-33.84,60.82-121.06,85.46-142.52,85.46s-108.68-24.63-142.52-85.46C-1.53,303.4,.12,20.57,.12,20.57,.12,20.57-2.63,.2,18,.2H174.83Z"/>
        <path class="cls-3" d="M347.43,20.87c0,1.39-.12,2.27-.12,2.27,0,0,1.6,279.54-31.1,339.66-32.7,60.12-116.98,84.46-137.71,84.46s-105.01-24.35-137.71-84.46C8.09,302.68,9.68,23.14,9.68,23.14c0,0-.13-.96-.12-2.46h0c.04-5.39,1.82-17.68,17.4-17.68H330.04c15.53,0,17.35,12.21,17.4,17.61v.26Z"/>
        <path class="cls-2" d="M347.43,20.87h-3c0,.61-.03,1.1-.05,1.44-.01,.17-.02,.29-.03,.37v.08s-.01,.01-.01,.01l1.33,.16-1.33-.17h0s1.33,.17,1.33,.17l-1.33-.17-.03,.2v.2s0,.55,0,1.61c0,1.06,0,2.62,0,4.66,0,20.81-.33,90.43-4.38,161.61-2.02,35.59-4.98,71.58-9.28,102.01-2.15,15.21-4.63,29.04-7.48,40.7-2.85,11.66-6.09,21.16-9.61,27.62-7.96,14.63-19.09,27.15-31.69,37.69-18.89,15.82-41.06,27.17-60.39,34.53-9.66,3.68-18.62,6.36-26.08,8.11-3.73,.88-7.08,1.52-9.95,1.94-2.86,.42-5.25,.62-6.97,.62-2.31,0-5.77-.35-10-1.12-7.42-1.33-17.26-3.9-28.23-7.81-16.46-5.86-35.5-14.74-52.99-26.97-17.5-12.23-33.43-27.81-43.87-47-3.52-6.46-6.77-15.96-9.61-27.62-5-20.41-8.85-47.43-11.77-76.97C13.24,168.13,12.67,56.73,12.67,29.42c0-2.03,0-3.6,0-4.66,0-1.06,0-1.6,0-1.61v-.21s-.03-.2-.03-.2h0c-.01-.1-.09-.82-.09-1.91v-.12h0v-.03c0-1.19,.12-2.77,.47-4.41,.27-1.23,.68-2.5,1.27-3.69,.9-1.78,2.16-3.35,4.09-4.54,1.93-1.18,4.62-2.04,8.57-2.04H330.04c3.49,0,6.01,.68,7.87,1.65,1.4,.73,2.46,1.64,3.32,2.68,1.28,1.55,2.09,3.42,2.57,5.28,.48,1.86,.62,3.69,.63,5.03v.23h0s3,0,3,0h3v-.29h0c-.01-1.5-.15-3.47-.62-5.64-.36-1.63-.91-3.36-1.78-5.08-1.29-2.57-3.32-5.11-6.32-6.94C338.72,1.08,334.84,0,330.04,0,320.07,0,282.18,0,246.79,0,229.1,0,212.02,0,199.37,0,193.05,0,187.83,0,184.19,0,180.56,0,178.51,0,178.5,0,178.5,0,46.9,0,26.96,0c-4.28,0-7.83,.85-10.68,2.35-2.13,1.12-3.85,2.58-5.17,4.2-1.99,2.43-3.11,5.14-3.74,7.63-.63,2.49-.79,4.78-.81,6.47v.03h3l-3-.03v.19c0,1.58,.13,2.59,.14,2.7l2.97-.39-3-.02s-.01,2.22-.01,6.3c0,20.88,.33,90.57,4.39,161.96,2.03,35.7,4.99,71.81,9.32,102.51,2.17,15.35,4.68,29.35,7.6,41.29,2.93,11.95,6.24,21.82,10.17,29.06,8.4,15.43,20.06,28.5,33.11,39.43,19.58,16.39,42.29,27.99,62.11,35.53,9.91,3.77,19.1,6.53,26.84,8.35,3.87,.91,7.38,1.59,10.44,2.04,3.07,.45,5.69,.68,7.85,.68,2.88,0,6.59-.41,11.06-1.21,7.82-1.41,17.92-4.05,29.18-8.06,16.89-6.01,36.36-15.09,54.41-27.71,18.04-12.62,34.68-28.8,45.7-49.05,3.93-7.24,7.24-17.11,10.17-29.06,5.11-20.89,8.97-48.1,11.91-77.8,8.83-89.07,9.4-200.54,9.4-227.95,0-4.07-.01-6.29-.01-6.29l-3,.02,2.98,.38c.01-.1,.14-1.1,.14-2.65h0s-3,0-3,0Z"/>
      </g>
      <polygon id="moves" class="cls-1" points="263.7 88.74 263.7 79.64 200.79 79.64 200.79 71.66 243.35 29.1 236.92 22.66 194.69 64.9 168.96 64.9 127.17 23.11 120.74 29.54 162.86 71.66 162.86 79.64 100.12 79.64 100.12 88.74 162.86 88.74 162.86 96.72 120.74 138.84 127.17 145.27 169.62 102.82 177.28 102.82 177.28 166.34 186.37 166.34 186.37 102.82 194.03 102.82 236.92 145.71 243.35 139.28 200.79 96.72 200.79 88.74 263.7 88.74"/>
      <path id="title" class="cls-1" d="M178.82,219.58c.68,4.39,3.04,10.99,5.75,15.89l14.03-3.21c-2.37-5.24-4.39-12-5.07-16.73l-14.7,4.06Zm-25.01,1.18c1.35,4.23,4.56,10.65,7.94,15.04l13.35-3.89c-3.21-4.9-6.25-11.49-7.27-15.89l-14.03,4.73Zm63.04-6.76c-6.42,4.9-10.65,12.34-14.03,19.27,.34,.17,.68,.34,14.7,6.08,2.7-6.08,8.11-13.52,14.03-17.75l-14.7-7.61Zm-97.18,22.98c1.18-10.31,2.54-11.66,6.42-11.66,.68-.17,4.06,0,4.73,0,1.86,3.72,5.24,8.11,8.79,11.66h-19.94Zm80.28,110.36c5.75-8.11,14.2-16.22,22.82-21.97v21.97h-22.82Zm-7.1-73.35h-59.32v-4.39h59.32v4.39Zm-59.32,6.59h59.32v4.23h-59.32v-4.23Zm26.53,24.67v4.56h-15.04v-4.56h15.04Zm-4.23,33.97l-2.03,3.38c-2.03-.34-3.38,.34-4.06,1.35l9.97,3.38h-19.94c1.18-2.37,2.87-5.41,4.56-8.11h11.49Zm4.23-22.98v4.39h-15.04v-4.39h15.04Zm0,10.99v4.39h-15.04v-4.39h15.04Zm-63.38-69.46h96.16v4.56H115.27v29.75h54.42l-1.69,2.7h-7.94v2.03h-61.86v8.45h30.25v4.56h-22.14v6.42h22.14v4.39h-22.14v6.59h22.14v4.39h-26.03v7.6h24.34l-2.2,2.7c-2.2,0-3.38,.68-4.06,1.86l14.53,3.55h-37.86v15.55h61.69v6.59c-3.21,.68-4.39,1.69-4.56,3.38l25.69,1.35v-11.32h61.18v-50.19c0-25.69,1.18-61.69,14.87-86.53-4.06-2.03-12.17-7.94-15.38-11.32-15.38,27.04-17.91,69.8-17.91,97.85v5.07c-2.2-2.2-4.39-4.73-5.75-6.25-2.87,1.86-5.75,3.89-8.62,6.08v-20.96h-16.22v32.11c-2.54,.17-3.72,1.35-4.06,2.7l4.39,.84c-2.54,2.7-5.07,5.58-7.1,8.45-2.03,0-3.38,.51-4.06,1.69l13.35,4.9h-25.69c5.07-8.96,12.68-17.91,20.28-23.49-3.38-2.2-8.79-7.1-11.32-9.8l-1.86,1.52v-14.37l7.94,1.69c.85-3.04,2.37-7.27,3.89-10.82h22.82v-55.1h-69.29l10.65-4.06c-3.72-4.06-7.61-9.97-9.13-13.86l-9.13,3.89c-1.01-2.7-1.86-5.75-2.03-7.61-4.23-.34-8.28-.51-11.49-.51-15.89,0-18.59,5.07-20.62,25.52-.34,1.69-.68,2.54-.85,4.06l11.32,1.52,4.23-.51h78.42v4.22H96.68v8.11Z"/>
    </g>
  </g>
</svg>