<?xml version="1.0" encoding="UTF-8"?>
<svg id="Layer_2" data-name="Layer 2" xmlns="http://www.w3.org/2000/svg" xmlns:xlink="http://www.w3.org/1999/xlink" width="337" height="409" viewBox="0 0 350.43 450.26">
  <defs>
    <style>
      .cls-1 {
        fill: #007a72;
      }

      .cls-2 {
        fill: #2e1b10;
      }

      .cls-3 {
        fill: #00aeb7;
      }

      .cls-4 {
        fill: #3b2314;
      }

      .cls-5 {
        fill: url(#linear-gradient);
      }
    </style>
    <linearGradient id="linear-gradient" x1="-2708.34" y1="246.2" x2="-2707.34" y2="246.2" gradientTransform="translate(915081.12 -82957.51) scale(337.87)" gradientUnits="userSpaceOnUse">
      <stop offset="0" stop-color="#fbcdab"/>
      <stop offset="1" stop-color="#fde4d9"/>
    </linearGradient>
  </defs>
  <g id="Mountain_Hawk_Eagle" data-name="Mountain Hawk Eagle">
    <g id="north_Mountain_Hawk_Eagle_JAP" data-name="north Mountain Hawk Eagle JAP">
      <g id="piece">
        <path class="cls-2" d="M174.83,.2h156.83c20.63,0,17.88,20.37,17.88,20.37,0,0,1.65,282.83-32.19,343.65-33.84,60.82-121.06,85.46-142.52,85.46s-108.68-24.63-142.52-85.46C-1.53,303.4,.12,20.57,.12,20.57,.12,20.57-2.63,.2,18,.2H174.83Z"/>
        <path class="cls-5" d="M347.43,20.87c0,1.39-.12,2.27-.12,2.27,0,0,1.6,279.54-31.1,339.66-32.7,60.12-116.98,84.46-137.71,84.46s-105.01-24.35-137.71-84.46C8.09,302.68,9.68,23.14,9.68,23.14c0,0-.13-.96-.12-2.46h0c.04-5.39,1.82-17.68,17.4-17.68H330.04c15.53,0,17.35,12.21,17.4,17.61v.26Z"/>
        <path class="cls-4" d="M347.43,20.87h-3c0,.61-.03,1.1-.05,1.44-.01,.17-.02,.29-.03,.37v.08s-.01,.01-.01,.01l1.34,.16-1.34-.17h0s1.34,.17,1.34,.17l-1.34-.17-.03,.2v.2s0,.55,0,1.61c0,1.06,0,2.62,0,4.66,0,20.81-.33,90.43-4.38,161.61-2.02,35.59-4.98,71.58-9.28,102.01-2.15,15.21-4.63,29.04-7.48,40.7-2.85,11.66-6.09,21.16-9.61,27.62-7.96,14.63-19.09,27.15-31.69,37.69-18.89,15.82-41.06,27.17-60.39,34.53-9.66,3.68-18.62,6.36-26.08,8.11-3.73,.88-7.08,1.52-9.95,1.94-2.86,.42-5.25,.62-6.98,.62-2.31,0-5.77-.35-10-1.12-7.42-1.33-17.26-3.9-28.23-7.81-16.46-5.86-35.5-14.74-52.99-26.97-17.5-12.23-33.43-27.81-43.86-47-3.52-6.46-6.77-15.96-9.61-27.62-5-20.41-8.84-47.43-11.77-76.96C13.24,168.13,12.67,56.73,12.67,29.42c0-2.03,0-3.6,0-4.66,0-1.06,0-1.6,0-1.61v-.21s-.03-.2-.03-.2h0c-.01-.1-.09-.82-.09-1.91v-.1s0-.03,0-.03v-.02c0-1.19,.12-2.77,.47-4.41,.27-1.23,.68-2.5,1.27-3.69,.9-1.78,2.16-3.35,4.09-4.54,1.93-1.18,4.62-2.04,8.57-2.04H330.04c3.49,0,6.01,.68,7.87,1.65,1.4,.73,2.46,1.64,3.32,2.68,1.28,1.55,2.09,3.42,2.57,5.28,.48,1.86,.62,3.69,.63,5.03v.23h0s3,0,3,0h3v-.29h0c-.01-1.5-.15-3.47-.62-5.64-.36-1.63-.91-3.36-1.78-5.08-1.29-2.57-3.32-5.11-6.32-6.94C338.72,1.08,334.84,0,330.04,0,320.07,0,282.18,0,246.79,0,229.1,0,212.02,0,199.37,0,193.05,0,187.83,0,184.19,0,180.56,0,178.51,0,178.5,0,178.5,0,46.9,0,26.96,0c-4.28,0-7.83,.85-10.68,2.35-2.13,1.12-3.85,2.58-5.17,4.2-1.99,2.43-3.11,5.14-3.74,7.63-.63,2.49-.79,4.78-.81,6.47v.03h3l-3-.06c0,.1,0,.17,0,.21,0,1.58,.13,2.6,.14,2.7l2.97-.39-3-.02s-.01,2.22-.01,6.3c0,20.88,.33,90.57,4.39,161.96,2.03,35.7,4.99,71.81,9.32,102.51,2.17,15.35,4.68,29.35,7.6,41.29,2.93,11.95,6.24,21.82,10.17,29.06,8.4,15.43,20.06,28.5,33.11,39.43,19.58,16.39,42.29,27.99,62.11,35.53,9.91,3.77,19.1,6.53,26.84,8.35,3.87,.91,7.38,1.59,10.44,2.04,3.07,.45,5.69,.68,7.85,.68,2.88,0,6.59-.41,11.06-1.21,7.82-1.41,17.92-4.05,29.18-8.06,16.89-6.01,36.36-15.09,54.41-27.71,18.04-12.62,34.68-28.8,45.7-49.05,3.93-7.24,7.24-17.11,10.17-29.06,5.11-20.89,8.97-48.1,11.91-77.8,8.83-89.07,9.4-200.54,9.4-227.95,0-4.07-.01-6.29-.01-6.29l-3,.02,2.98,.38c.01-.1,.14-1.1,.14-2.65h0s-3,0-3,0Z"/>
      </g>
      <g id="moves">
        <rect class="cls-3" x="148.61" y="85.41" width="14.25" height="14.25"/>
        <polygon class="cls-1" points="148.61 99.66 149.11 99.66 149.11 85.91 162.36 85.91 162.36 99.16 148.61 99.16 148.61 99.66 149.11 99.66 148.61 99.66 148.61 100.16 163.36 100.16 163.36 84.91 148.11 84.91 148.11 100.16 148.61 100.16 148.61 99.66"/>
        <rect class="cls-3" x="134.36" y="71.16" width="14.25" height="14.25"/>
        <polygon class="cls-1" points="134.36 85.41 134.86 85.41 134.86 71.66 148.11 71.66 148.11 84.91 134.36 84.91 134.36 85.41 134.86 85.41 134.36 85.41 134.36 85.91 149.11 85.91 149.11 70.66 133.86 70.66 133.86 85.91 134.36 85.91 134.36 85.41"/>
        <rect class="cls-3" x="215.04" y="71.16" width="14.25" height="14.25"/>
        <polygon class="cls-1" points="229.29 85.41 229.29 84.91 215.54 84.91 215.54 71.66 228.79 71.66 228.79 85.41 229.29 85.41 229.29 84.91 229.29 85.41 229.79 85.41 229.79 70.66 214.54 70.66 214.54 85.91 229.79 85.91 229.79 85.41 229.29 85.41"/>
        <rect class="cls-3" x="200.79" y="85.41" width="14.25" height="14.25"/>
        <polygon class="cls-1" points="200.79 99.66 201.29 99.66 201.29 85.91 214.54 85.91 214.54 99.16 200.79 99.16 200.79 99.66 201.29 99.66 200.79 99.66 200.79 100.16 215.54 100.16 215.54 84.91 200.29 84.91 200.29 100.16 200.79 100.16 200.79 99.66"/>
        <polygon class="cls-3" points="162.86 114.41 162.86 99.66 177.28 99.66 177.28 49.59 166.04 49.59 181.29 23.17 196.54 49.59 186.38 49.59 186.38 99.66 200.79 99.66 200.79 114.41 263.7 114.41 263.7 123.5 200.79 123.5 200.79 131.49 233.86 164.56 241.91 156.51 249.8 185.97 220.33 178.08 227.43 170.99 194.03 137.59 186.38 137.59 186.38 201.1 177.28 201.1 177.28 137.59 169.63 137.59 136.4 170.82 144.18 178.61 114.71 186.5 122.61 157.03 129.96 164.39 162.86 131.49 162.86 123.5 100.12 123.5 100.12 114.41 162.86 114.41"/>
        <polygon class="cls-1" points="162.86 114.41 163.36 114.41 163.36 100.16 177.78 100.16 177.78 49.09 166.9 49.09 181.29 24.17 195.67 49.09 185.88 49.09 185.88 100.16 200.29 100.16 200.29 114.91 263.2 114.91 263.2 123 200.29 123 200.29 131.69 233.86 165.26 241.65 157.47 249.09 185.26 221.29 177.82 228.13 170.99 194.23 137.09 185.88 137.09 185.88 200.6 177.78 200.6 177.78 137.09 169.42 137.09 135.69 170.82 143.21 178.35 115.41 185.79 122.87 157.99 129.96 165.09 163.36 131.69 163.36 123 100.62 123 100.62 114.91 163.36 114.91 163.36 114.41 162.86 114.41 162.86 113.91 99.62 113.91 99.62 124 162.36 124 162.36 131.28 129.96 163.68 122.35 156.06 114 187.2 145.14 178.87 137.1 170.82 169.83 138.09 176.78 138.09 176.78 201.6 186.88 201.6 186.88 138.09 193.82 138.09 226.72 170.99 219.36 178.33 250.5 186.67 242.17 155.54 233.86 163.85 201.29 131.28 201.29 124 264.2 124 264.2 113.91 201.29 113.91 201.29 99.16 186.88 99.16 186.88 50.09 197.4 50.09 181.29 22.17 165.17 50.09 176.78 50.09 176.78 99.16 162.36 99.16 162.36 114.41 162.86 114.41 162.86 113.91 162.86 114.41"/>
      </g>
      <g id="title">
        <path class="cls-3" d="M149.24,250.03c0,7.44,1.35,18.93,3.38,27.72l7.44-1.01c-1.86-8.96-3.04-20.28-2.87-27.89l-7.94,1.18Zm-17.91,7.77c1.35,6.08,4.9,15.38,8.62,22.48,.85-.17,1.86-.51,6.59-1.86-3.38-7.1-6.76-16.56-8.11-22.99l-7.1,2.37Zm2.03,23.66c-4.23-5.07-8.96-12.17-11.15-16.9l-6.08,3.21c2.2,4.56,6.93,11.32,11.49,16.39l5.75-2.7Zm99.21,45.8h-12.68v-14.7h-8.62v14.7h-14.03v8.62h14.03v12.68h-13.35v8.62h13.35v10.65c-2.03,.34-2.7,1.01-2.87,2.03l11.49,.84v-13.52h12.17v-8.62h-12.17v-12.68h12.68v-8.62Zm14.53,57.46v-67.94c0-23.15,.84-53.58,10.82-75.04-2.2-.84-6.42-3.38-8.11-4.9-10.65,22.14-12,55.77-12,80.11v57.8h-45.8v-123.54c0-3.38,.84-3.38,7.77-3.38,3.38,0,8.11,0,13.01,.34-1.52-3.04-3.21-7.94-3.72-10.82-10.14-.17-17.24,.17-21.46,2.03-2.87,1.35-4.39,3.38-5.07,6.76l-6.25-3.72c-6.93,7.44-9.97,20.45-11.66,32.45l8.28,2.2c1.35-10.31,4.23-21.13,9.3-28.22v135.88h64.9Zm-40.05-109.52h16.9v24.17h-16.9v-24.17Zm-7.44,32.79h31.6v-51.72h-7.27v10.31h-24.34v41.41Zm-38.2,41.58h-40.56v-12.17h40.56v12.17Zm-40.56,8.28h40.56v11.83h-40.56v-11.83Zm-21.46-39.55h62.03v10.48h-51.04v49.52h31.27c-1.86,3.72-3.55,7.94-4.9,10.99-1.86,0-3.04,.51-3.38,1.69l13.52,3.38c1.01-4.39,3.38-10.99,5.58-16.06h19.44v-88.9h-57.97c1.86-28.22,3.38-38.87,6.08-41.91,1.18-1.52,2.7-1.69,5.24-1.69,2.37,0,8.79,.17,15.89,.68-1.52-2.37-2.37-6.25-2.54-8.96-4.56-.34-8.96-.51-12.51-.51-6.08,0-10.65,0-14.37,4.22-4.06,4.56-6.08,17.41-7.94,53.41-.17,1.18-.17,2.2-.34,3.21l5.58,.85,2.2-.17h50.19v10.65h-62.03v9.13Z"/>
        <path class="cls-1" d="M149.24,250.03h-2.5c0,7.72,1.37,19.26,3.44,28.28l.51,2.22,12.35-1.68-.54-2.62c-1.71-8.2-2.84-18.59-2.84-25.89,0-.49,0-.97,.01-1.44l.06-2.96-13,1.93v2.15h2.5l.37,2.47,7.94-1.18-.37-2.47-2.5-.05c-.01,.5-.02,1.01-.02,1.54,0,7.79,1.16,18.32,2.94,26.9l2.45-.51-.34-2.48-7.44,1.01,.34,2.48,2.44-.56c-1.98-8.56-3.32-20-3.32-27.16h-2.5l.37,2.47-.37-2.47Zm-17.91,7.77l-2.44,.54c1.44,6.43,5.02,15.77,8.85,23.1l.87,1.66,1.84-.37c1.13-.23,2.06-.56,6.79-1.91l2.84-.81-1.27-2.67c-3.29-6.9-6.65-16.31-7.92-22.43l-.58-2.74-11.9,3.97,.49,2.2,2.44-.54,.79,2.37,7.1-2.37-.79-2.37-2.45,.52c1.43,6.73,4.83,16.25,8.3,23.54l2.26-1.08-.69-2.4c-4.73,1.35-5.83,1.71-6.39,1.81l.49,2.45,2.21-1.16c-3.61-6.87-7.13-16.12-8.39-21.86l-2.44,.54,.79,2.37-.79-2.37Zm2.03,23.66l1.92-1.6c-4.08-4.88-8.78-11.96-10.81-16.35l-1.11-2.38-10.54,5.56,1.05,2.17c2.38,4.92,7.16,11.71,11.89,16.98l1.24,1.38,10.35-4.87-2.07-2.48-1.92,1.6-1.06-2.26-5.75,2.7,1.06,2.26,1.86-1.67c-4.4-4.87-9.09-11.6-11.1-15.81l-2.25,1.08,1.17,2.21,6.08-3.21-1.17-2.21-2.27,1.05c2.37,5.07,7.13,12.19,11.5,17.45l1.92-1.6-1.06-2.26,1.06,2.26Zm99.21,45.8v-2.5h-10.18v-14.7h-13.62v14.7h-14.03v13.62h14.03v7.68h-13.35v13.62h13.35v8.15s2.5,0,2.5,0l-.41-2.47c-1.23,.21-2.28,.52-3.24,1.24-.97,.7-1.57,1.91-1.69,2.85l-.45,2.7,16.91,1.24v-13.71h12.17v-13.62h-12.17v-7.68h12.68v-13.62h-2.5v2.5h-2.5v6.12h-12.68s0,17.67,0,17.67h12.17v3.62h-12.17s0,13.33,0,13.33l-8.81-.65-.18,2.49,2.47,.41-.37-.06,.32,.18,.05-.12-.37-.06,.32,.18-.6-.34,.47,.5,.13-.17-.6-.34,.47,.5-.14-.15,.1,.17,.03-.03-.14-.15,.1,.17s.36-.18,1.03-.29l2.09-.35v-15.27h-13.35v-3.62s13.35,0,13.35,0v-17.68h-14.03v-3.62h14.03v-14.7h3.62s0,14.7,0,14.7h15.18v-2.5h0Zm14.53,57.46h2.5v-67.94c-.03-23.07,.92-53.28,10.58-73.99l1.13-2.42-2.5-.96c-1.72-.62-6.1-3.26-7.34-4.43l-2.48-2.23-1.45,3.01c-10.98,22.93-12.21,56.74-12.25,81.19v55.3h-40.8v-121.04c0-.37,.01-.66,.03-.83,.02-.16,.04-.21,.04-.21l-.75-.26,.43,.64c.14-.07,.33-.37,.32-.39l-.75-.26,.43,.64-.16-.24,.11,.27,.05-.03-.16-.24,.11,.27c.13-.14,2.13-.29,5.57-.25,3.38,0,8.05,0,12.84,.33l4.36,.3-1.95-3.91c-1.39-2.74-3.07-7.66-3.49-10.13l-.36-2.03-2.06-.04c-1.49-.02-2.91-.04-4.27-.04-8.02,.02-13.91,.41-18.24,2.28h-.03s-.03,.03-.03,.03c-3.5,1.54-5.77,4.64-6.46,8.53l2.45,.49,1.28-2.15-7.99-4.75-1.37,1.47c-7.62,8.28-10.55,21.65-12.31,33.8l-.31,2.2,13.18,3.5,.37-2.82c1.3-10.08,4.19-20.62,8.85-27.1l-2.03-1.45h-2.5v138.38h69.9v-2.5h-2.5v-2.5h-62.4V241.05s-4.53,6.35-4.53,6.35c-5.48,7.72-8.34,18.81-9.74,29.35l2.48,.32,.64-2.42-8.28-2.2-.64,2.42,2.48,.35c1.62-11.84,4.77-24.5,11.01-31.09l-1.83-1.71-1.28,2.15,9.29,5.52,.69-3.46c.67-2.87,1.43-3.83,3.68-4.99l-1.06-2.26,1.01,2.29c2.89-1.31,8.42-1.88,16.23-1.85,1.33,0,2.73,.01,4.19,.04l.04-2.5-2.46,.44c.6,3.28,2.29,8.16,3.94,11.5l2.24-1.12,.17-2.49c-5.01-.35-9.8-.34-13.19-.34-3.5,.04-5.39-.11-7.4,.59-1.02,.34-2.09,1.35-2.46,2.41-.39,1.05-.4,1.93-.41,2.87v126.04h50.8v-60.3c-.03-24.22,1.43-57.68,11.75-79.02l-2.25-1.08-1.67,1.86c2.15,1.88,6.21,4.31,8.89,5.38l.9-2.33-2.27-1.05c-10.28,22.22-11.02,52.86-11.05,76.09v67.94h2.5v0Zm-40.05-109.52v2.5h14.4v19.17h-11.9s0-21.67,0-21.67h-2.5v0h-2.5v26.67h21.9v-29.17h-21.9v2.5h2.5Zm-7.44,32.79v2.5h34.1v-56.71h-12.27v10.31h-24.34s0,46.4,0,46.4h2.5v-2.5h2.5v-38.91h24.34v-10.31h2.27v46.72h-29.1s0,2.5,0,2.5h0Zm-38.2,41.58v-2.5h-38.06v-7.17h35.56v9.67h2.5v0h2.5v-14.67h-45.56v17.17h45.56v-2.5h-2.5Zm-40.56,8.28v2.5h38.06v6.83h-35.56v-9.33h-2.5v0h-2.5v14.33h45.56v-16.83h-45.56v2.5h2.5Zm-21.46-39.55v2.5h59.53v5.48h-51.04v54.52h33.77v-2.5l-2.24-1.12c-1.92,3.85-3.63,8.12-4.95,11.09l2.28,1.02v-2.5c-1.15,0-2.25,.13-3.34,.65-1.09,.49-2.11,1.59-2.44,2.85l-.71,2.49,18.5,4.62,.57-2.48c.95-4.12,3.29-10.69,5.44-15.62l-2.29-.99v2.5h21.94v-93.9h-60.47v2.5l2.49,.16c.93-14.08,1.77-23.77,2.71-30.21,.87-6.42,2.11-9.64,2.75-10.21l.06-.06,.05-.06c.32-.37,.38-.4,.8-.54,.42-.12,1.25-.19,2.46-.19,2.27,0,8.69,.17,15.71,.67l4.98,.36-2.7-4.2c-1.14-1.68-2.03-5.42-2.14-7.76l-.14-2.17-2.18-.16c-4.62-.34-9.06-.51-12.69-.51-3.04,0-5.85-.02-8.61,.59-2.75,.59-5.45,1.97-7.63,4.48-2.63,3.05-4.09,7.76-5.39,16.2-1.27,8.45-2.24,20.7-3.17,38.73l2.5,.13-2.47-.35c-.19,1.39-.2,2.42-.33,3.15l-.42,2.5,8.37,1.27,2.39-.18h47.6v5.65h-62.03v14.13h2.5v-2.5h2.5v-6.63h62.03v-15.65h-52.79l-2.01,.15-5.3-.8-.38,2.47,2.47,.41c.21-1.29,.2-2.29,.35-3.27l.02-.11v-.11c.93-17.96,1.91-30.13,3.13-38.25,1.19-8.13,2.78-12.12,4.19-13.63,1.54-1.72,2.99-2.45,4.97-2.92,1.97-.45,4.48-.47,7.53-.47,3.47,0,7.82,.17,12.32,.5l.18-2.49-2.5,.16c.22,3.07,1.02,7.11,2.93,10.15l2.1-1.35,.18-2.49c-7.17-.51-13.61-.68-16.06-.68-1.32,0-2.52,.02-3.79,.36-1.27,.32-2.56,1.14-3.42,2.29l1.97,1.54-1.87-1.66c-2.06,2.47-2.93,6.1-3.96,12.82-.97,6.7-1.81,16.45-2.75,30.59l-.17,2.66h58.14v83.9h-18.58s-.65,1.51-.65,1.51c-2.25,5.2-4.64,11.82-5.72,16.49l2.44,.56,.61-2.43-13.52-3.38-.61,2.43,2.4,.69-.5-.14,.39,.34,.11-.2-.5-.14,.39,.34-.3-.26,.21,.34,.09-.08-.3-.26,.21,.34s.39-.17,1.18-.16h1.62l.66-1.48c1.38-3.11,3.06-7.29,4.85-10.88l1.81-3.62h-32.81v-44.52h51.04v-15.48H99.38v2.5h0Z"/>
      </g>
    </g>
  </g>
</svg>