<?xml version="1.0" encoding="UTF-8"?>
<svg id="Layer_2" data-name="Layer 2" xmlns="http://www.w3.org/2000/svg" xmlns:xlink="http://www.w3.org/1999/xlink" width="337" height="409" viewBox="0 0 350.43 450.26">
  <defs>
    <style>
      .cls-1 {
        fill: #2e1b10;
      }

      .cls-2 {
        fill: #3b2314;
      }

      .cls-3 {
        fill: url(#linear-gradient);
      }
    </style>
    <linearGradient id="linear-gradient" x1="-920.34" y1="236.2" x2="-919.34" y2="236.2" gradientTransform="translate(310967.06 -79578.83) scale(337.87)" gradientUnits="userSpaceOnUse">
      <stop offset="0" stop-color="#fbcdab"/>
      <stop offset="1" stop-color="#fde4d9"/>
    </linearGradient>
  </defs>
  <g id="Phoenix">
    <g id="north_Phoenix_JAP" data-name="north Phoenix JAP">
      <g id="piece">
        <path class="cls-1" d="M174.83,.2h156.83c20.63,0,17.88,20.37,17.88,20.37,0,0,1.65,282.83-32.19,343.65-33.84,60.82-121.06,85.46-142.52,85.46s-108.68-24.63-142.52-85.46C-1.53,303.4,.12,20.57,.12,20.57,.12,20.57-2.63,.2,18,.2H174.83Z"/>
        <path class="cls-3" d="M347.32,23.14s1.6,279.54-31.1,339.66c-32.7,60.12-116.98,84.46-137.71,84.46s-105.01-24.35-137.71-84.46C8.09,302.68,9.68,23.14,9.68,23.14c0,0-.13-.96-.12-2.46h0c.04-5.39,1.82-17.68,17.4-17.68H330.04c15.53,0,17.35,12.21,17.4,17.61v.25c0,1.39-.12,2.27-.12,2.27Z"/>
        <path class="cls-2" d="M347.32,23.14l-3,.02s0,.55,0,1.61c0,1.06,0,2.62,0,4.66,0,20.81-.33,90.43-4.38,161.61-2.02,35.59-4.98,71.58-9.28,102.01-2.15,15.21-4.63,29.04-7.48,40.7-2.85,11.66-6.09,21.16-9.61,27.62-7.96,14.63-19.09,27.15-31.69,37.69-18.89,15.82-41.06,27.17-60.39,34.53-9.67,3.68-18.62,6.36-26.08,8.11-3.73,.88-7.08,1.52-9.95,1.94-2.86,.42-5.25,.62-6.97,.62-2.31,0-5.77-.35-10-1.12-7.42-1.33-17.26-3.9-28.23-7.81-16.46-5.86-35.5-14.74-52.99-26.97-17.5-12.23-33.43-27.81-43.87-47-3.52-6.46-6.77-15.96-9.61-27.62-5-20.41-8.85-47.43-11.77-76.97C13.24,168.13,12.67,56.73,12.67,29.42c0-2.03,0-3.6,0-4.66s0-1.6,0-1.61v-.21s-.03-.2-.03-.2h0c-.01-.1-.09-.82-.09-1.91v-.13s0-.02,0-.02v0c0-1.19,.12-2.77,.47-4.41,.27-1.23,.68-2.5,1.27-3.69,.9-1.78,2.16-3.35,4.09-4.54,1.93-1.18,4.62-2.04,8.57-2.04H330.04c3.49,0,6.01,.68,7.87,1.65,1.4,.73,2.46,1.64,3.32,2.68,1.28,1.55,2.09,3.42,2.57,5.28,.48,1.86,.62,3.69,.63,5.03v.23h0c0,.61-.03,1.11-.05,1.44-.01,.17-.02,.29-.03,.37v.08s0,.01,0,.01l1.33,.16-1.33-.17h0s1.33,.17,1.33,.17l-1.33-.17-.03,.2v.2s3-.02,3-.02l2.98,.38c.01-.1,.14-1.1,.14-2.65v-.28h0c-.01-1.51-.15-3.48-.62-5.65-.36-1.63-.91-3.36-1.78-5.08-1.29-2.57-3.32-5.11-6.32-6.94C338.72,1.08,334.84,0,330.04,0,320.07,0,282.18,0,246.79,0,229.1,0,212.02,0,199.37,0,193.05,0,187.83,0,184.19,0,180.56,0,178.51,0,178.5,0,178.5,0,46.9,0,26.96,0c-4.28,0-7.83,.85-10.68,2.35-2.13,1.12-3.85,2.58-5.17,4.2-1.99,2.43-3.11,5.14-3.74,7.63-.63,2.49-.79,4.78-.81,6.47h0v0s0,.18,0,.18c0,1.58,.13,2.59,.14,2.7l2.97-.39-3-.02s-.01,2.22-.01,6.3c0,20.88,.33,90.57,4.39,161.96,2.03,35.7,4.99,71.81,9.32,102.51,2.17,15.35,4.68,29.35,7.6,41.29,2.93,11.95,6.24,21.82,10.17,29.06,8.4,15.43,20.06,28.5,33.11,39.43,19.58,16.39,42.29,27.99,62.11,35.53,9.91,3.77,19.1,6.53,26.84,8.35,3.87,.91,7.38,1.59,10.44,2.04,3.07,.45,5.69,.68,7.85,.68,2.88,0,6.59-.41,11.06-1.21,7.82-1.41,17.92-4.05,29.18-8.06,16.89-6.01,36.36-15.09,54.41-27.71,18.04-12.62,34.68-28.8,45.7-49.05,3.93-7.24,7.24-17.11,10.17-29.06,5.11-20.89,8.97-48.1,11.91-77.8,8.83-89.07,9.4-200.54,9.4-227.95,0-4.07-.01-6.29-.01-6.29l-3,.02,2.98,.38-2.98-.38Z"/>
      </g>
      <polygon id="moves" class="cls-1" points="162.86 100.28 162.86 92.29 120.74 50.17 127.18 43.74 168.97 85.53 177.28 85.53 177.28 22.67 186.38 22.67 186.38 85.53 194.69 85.53 236.92 43.3 243.35 49.73 200.79 92.3 200.79 100.28 263.7 100.28 263.7 109.37 200.79 109.37 200.79 117.35 243.35 159.92 236.92 166.35 194.03 123.46 186.38 123.46 186.38 186.97 177.28 186.97 177.28 123.46 169.63 123.46 127.18 165.91 120.74 159.48 162.86 117.36 162.86 109.37 100.12 109.37 100.12 100.28 162.86 100.28"/>
      <path id="title" class="cls-1" d="M213.13,362.12V229.45c0-11.83,3.72-15.72,20.62-15.72,.51,3.72,2.37,10.14,4.06,13.86-10.82-.51-10.82,0-10.82,2.03v37.35h8.62c1.18-20.11,3.89-41.41,10.14-57.29,2.7,2.2,8.96,5.58,12.34,6.93-8.96,23.49-9.63,57.12-9.63,81.8v63.72h-35.32Zm21.63-63.72c0-4.9,0-10.31,.17-15.89h-7.94v24.84h7.77v-8.96Zm-7.77,47.83h7.77v-24h-7.77v24Zm-56.62,15.89V223.2c-3.55,8.11-4.73,19.61-5.41,31.1l-12.17-2.54c.68-14.2,2.03-28.9,8.11-38.03l9.97,5.75c2.03-9.13,10.31-9.8,20.45-9.8,.34,3.89,2.2,10.65,4.23,14.54-4.06-.17-7.61-.17-9.13-.17-1.35,0-1.86,.51-1.86,2.2v40.73h8.96c.85-20.28,3.38-42.42,9.63-58.14,2.7,2.03,9.13,4.9,12.84,6.08-8.62,21.29-9.13,52.73-9.13,76.22v70.98h-36.51Zm14.2-15.89h8.45v-24h-8.45v24Zm8.45-63.72h-8.45v24.84h8.45v-24.84Zm-97.01-2.54h51.72v-6.76h-38.37l-3.38,.17-8.45-.84,.51-4.56c1.69-34.98,3.38-48.17,7.1-52.73,3.21-4.06,7.1-5.41,16.56-5.41,2.37,0,4.9,0,7.44,.17,.17,3.89,1.52,9.46,3.55,13.01-4.56-.34-8.45-.51-10.48-.51-1.86,0-3.04,.17-4.23,1.86-1.18,1.52-2.2,5.41-3.04,13.18l4.73-1.86c1.18,4.39,4.22,11.32,7.1,16.39l-8.11,3.04c-1.52-2.54-3.21-5.41-4.56-8.28-.17,3.38-.51,7.27-.68,11.83h51.04v94.81h-19.44c-1.52,5.24-2.7,11.15-3.38,15.72l-21.97-4.06c.51-1.35,1.86-2.03,4.22-2.2,.85-2.87,2.03-6.08,3.38-9.46h-22.31v-53.24h42.76v-6.25h-51.72v-14.03Zm53.41-58.98c-.17,7.44,.68,18.76,2.37,27.55l-9.46,1.52c-1.86-8.79-2.87-20.11-2.87-27.38l9.97-1.69Zm-27.72,118.81h26.03v-6.93h-26.03v6.93Zm26.03-25.86h-26.03v6.93h26.03v-6.93Zm-14.2-86.7c.51,6.08,2.87,15.38,5.41,22.48l-8.96,2.03c-2.7-6.93-5.07-16.06-5.92-21.97l9.46-2.54Z"/>
    </g>
  </g>
</svg>