<?xml version="1.0" encoding="UTF-8"?>
<svg id="Layer_2" data-name="Layer 2" xmlns="http://www.w3.org/2000/svg" xmlns:xlink="http://www.w3.org/1999/xlink" width="337" height="409" viewBox="0 0 350.43 450.26">
  <defs>
    <style>
      .cls-1 {
        fill: #2e1b10;
      }

      .cls-2 {
        fill: #3b2314;
      }

      .cls-3 {
        fill: url(#linear-gradient);
      }
    </style>
    <linearGradient id="linear-gradient" x1="-5352.34" y1="246.2" x2="-5351.34" y2="246.2" gradientTransform="translate(1808413.26 -82957.51) scale(337.87)" gradientUnits="userSpaceOnUse">
      <stop offset="0" stop-color="#fbcdab"/>
      <stop offset="1" stop-color="#fde4d9"/>
    </linearGradient>
  </defs>
  <g id="Quail_left_" data-name="Quail (left)">
    <g id="north_Quail_left_JAP" data-name="north Quail (left) JAP">
      <g id="piece">
        <path class="cls-1" d="M174.83,.2h156.83c20.63,0,17.88,20.37,17.88,20.37,0,0,1.65,282.83-32.19,343.65-33.84,60.82-121.06,85.46-142.52,85.46s-108.68-24.63-142.52-85.46C-1.53,303.4,.12,20.57,.12,20.57,.12,20.57-2.63,.2,18,.2H174.83Z"/>
        <path class="cls-3" d="M347.43,20.87c0,1.39-.12,2.27-.12,2.27,0,0,1.6,279.54-31.1,339.66-32.7,60.12-116.98,84.46-137.71,84.46s-105.01-24.35-137.71-84.46C8.09,302.68,9.68,23.14,9.68,23.14c0,0-.13-.96-.12-2.46h0c.04-5.39,1.82-17.68,17.4-17.68H330.04c15.53,0,17.35,12.21,17.4,17.61v.26Z"/>
        <path class="cls-2" d="M347.43,20.87h-3c0,.61-.03,1.1-.05,1.44-.01,.17-.02,.29-.03,.37v.08s0,.01,0,.01l1.34,.16-1.34-.17h0s1.34,.17,1.34,.17l-1.34-.17-.03,.2v.2s0,.55,0,1.6c0,1.06,0,2.62,0,4.65,0,20.81-.33,90.42-4.38,161.61-2.02,35.59-4.98,71.58-9.28,102.01-2.15,15.21-4.63,29.04-7.48,40.7-2.85,11.66-6.09,21.16-9.61,27.62-7.96,14.63-19.09,27.15-31.69,37.69-18.89,15.82-41.06,27.17-60.39,34.53-9.67,3.68-18.62,6.36-26.08,8.11-3.73,.88-7.08,1.52-9.95,1.94-2.86,.42-5.25,.62-6.97,.62-2.31,0-5.77-.35-10-1.12-7.42-1.33-17.26-3.9-28.23-7.81-16.46-5.86-35.5-14.74-52.99-26.97-17.5-12.23-33.43-27.81-43.86-47-3.52-6.46-6.77-15.96-9.61-27.62-5-20.41-8.85-47.43-11.77-76.96C13.24,168.13,12.67,56.73,12.67,29.42c0-2.03,0-3.6,0-4.66,0-1.06,0-1.6,0-1.61v-.21s-.03-.2-.03-.2h0c-.01-.1-.09-.82-.09-1.91v-.07h0s-.43-.02-.43-.02h.43s0,0,0,0h-.43s.43,0,.43,0v-.04s0-.06,0-.06v.02c0-1.19,.12-2.77,.47-4.41,.27-1.23,.68-2.5,1.27-3.69,.9-1.78,2.16-3.35,4.09-4.54,1.93-1.18,4.62-2.04,8.57-2.04H330.04c3.49,0,6.01,.68,7.87,1.65,1.4,.73,2.46,1.64,3.32,2.68,1.28,1.55,2.09,3.42,2.57,5.28,.48,1.86,.62,3.69,.63,5.03v.23h0s3,0,3,0h3v-.28c-.01-1.51-.15-3.48-.62-5.65-.36-1.63-.91-3.36-1.78-5.08-1.29-2.57-3.32-5.11-6.32-6.94C338.72,1.08,334.84,0,330.04,0,320.07,0,282.18,0,246.79,0,229.1,0,212.02,0,199.37,0,193.05,0,187.83,0,184.19,0,180.56,0,178.51,0,178.5,0,178.5,0,46.9,0,26.96,0c-4.28,0-7.83,.85-10.68,2.35-2.13,1.12-3.85,2.58-5.17,4.2-1.99,2.43-3.11,5.14-3.74,7.63-.63,2.49-.79,4.78-.81,6.47v.03h3l-3-.08c0,.13,0,.21,0,.24,0,1.58,.13,2.59,.14,2.7l2.97-.39-3-.02s-.01,2.22-.01,6.3c0,20.88,.33,90.57,4.39,161.96,2.03,35.7,4.99,71.81,9.33,102.51,2.17,15.35,4.68,29.35,7.6,41.29,2.93,11.95,6.24,21.82,10.17,29.06,8.4,15.43,20.06,28.5,33.11,39.43,19.58,16.39,42.29,27.99,62.11,35.53,9.91,3.77,19.1,6.53,26.84,8.35,3.87,.91,7.38,1.59,10.44,2.04,3.07,.45,5.69,.68,7.85,.68,2.88,0,6.59-.41,11.06-1.21,7.82-1.41,17.92-4.05,29.18-8.06,16.89-6.01,36.36-15.09,54.41-27.71,18.04-12.62,34.68-28.8,45.7-49.05,3.93-7.24,7.24-17.11,10.17-29.06,5.11-20.89,8.97-48.1,11.92-77.8,8.83-89.07,9.4-200.54,9.4-227.95,0-4.07-.01-6.29-.01-6.29l-3,.02,2.98,.38c.01-.1,.14-1.1,.14-2.65h0s-3,0-3,0Z"/>
      </g>
      <polygon id="moves" class="cls-1" points="149.94 17.35 142.59 24.71 175.49 57.61 201.21 57.61 243.44 15.38 249.87 21.81 207.31 64.38 207.31 95.54 192.9 95.54 192.9 145.84 204.04 145.84 188.79 172.26 173.54 145.84 183.8 145.84 183.8 95.54 169.38 95.54 169.38 64.37 136.15 31.14 128.37 38.93 120.47 9.46 149.94 17.35"/>
      <path id="title" class="cls-1" d="M150.09,226.85c0,7.27,1.18,18.59,3.21,27.21,.34,0,.68,0,11.15-1.69-1.69-8.79-2.87-20.11-2.54-27.55l-11.83,2.03Zm-17.24,7.61c.85,5.92,3.38,15.04,6.42,21.97l9.97-2.54c-2.54-7.1-5.07-16.39-5.75-22.48l-10.65,3.04Zm50.2,30.08l26.2-1.69v2.7c-8.45,6.42-17.24,14.37-23.15,20.96-1.52,.17-2.87,.68-3.55,1.69l13.18,8.45,2.7-1.01h52.73v-14.7h-37.52c2.37-2.37,4.9-4.56,7.27-6.59l6.76,.34v-12.84c11.49-.68,21.8-1.35,30.08-1.69l-4.73-19.1c-1.35,.17-2.7,1.01-2.87,2.37-6.25,.51-14.03,1.01-22.48,1.86v-12.34c0-2.2,.68-2.2,6.93-2.2,2.87,0,6.59,.17,10.31,.34-2.37-4.9-4.9-12-5.58-17.07-27.04-.51-30.08,5.24-30.08,18.59v14.37l-26.03,2.37-.17,15.21Zm25.69,92.95v11.49c-3.04,.51-4.23,1.52-4.39,3.04l23.15,1.35v-15.89h28.73v-15.38h-74.02v15.38h26.53Zm-3.38-33.8v-9.3h26.53v9.3h-26.53Zm-18.08,13.18h61.52v-35.83h-61.52v35.83Zm-6.25-78.08c1.52-12.51,4.9-25.52,11.49-33.46l-13.52-7.77c-7.61,9.13-10.65,23.66-12.34,37.35l14.37,3.89Zm-20.45,66.42h-32.79v-6.93h32.79v6.93Zm-32.79,12h32.79v6.93h-32.79v-6.93Zm-30.08-38.87h62.87v6.25h-50.87v53.24h27.72c-1.35,3.21-2.54,6.42-3.55,9.13-2.37,0-3.72,.68-4.23,2.2l23.66,4.39c.68-4.56,2.03-10.48,3.55-15.72h21.97v-94.81h-61.35c.34-7.1,.85-12.84,1.35-17.58,1.69,4.56,4.39,10.31,7.27,14.7l9.29-3.38c-3.21-5.58-6.42-13.01-7.77-17.92l-8.45,3.21c1.86-13.35,3.38-14.2,7.94-14.2,2.2,0,6.93,0,12.34,.68-2.2-3.89-3.72-9.97-4.06-14.54-30.42-.84-31.6-.84-34.81,57.97l-.51,4.9,9.3,1.01,3.72-.34h47.49v6.76h-62.87v14.03Z"/>
    </g>
  </g>
</svg>