<?xml version="1.0" encoding="UTF-8"?>
<svg id="Layer_2" data-name="Layer 2" xmlns="http://www.w3.org/2000/svg" xmlns:xlink="http://www.w3.org/1999/xlink" width="337" height="409" viewBox="0 0 350.43 450.26">
  <defs>
    <style>
      .cls-1 {
        fill: #2e1b10;
      }

      .cls-2 {
        fill: #3b2314;
      }

      .cls-3 {
        fill: url(#linear-gradient);
      }
    </style>
    <linearGradient id="linear-gradient" x1="-7127.34" y1="249.2" x2="-7126.34" y2="249.2" gradientTransform="translate(2408135.1 -83971.13) scale(337.87)" gradientUnits="userSpaceOnUse">
      <stop offset="0" stop-color="#fbcdab"/>
      <stop offset="1" stop-color="#fde4d9"/>
    </linearGradient>
  </defs>
  <g id="Swallow">
    <g id="north_Swallow_JAP" data-name="north Swallow JAP">
      <g id="piece">
        <path class="cls-1" d="M174.83,.2h156.83c20.63,0,17.88,20.37,17.88,20.37,0,0,1.65,282.83-32.19,343.65-33.84,60.82-121.06,85.46-142.52,85.46s-108.68-24.63-142.52-85.46C-1.53,303.4,.12,20.57,.12,20.57,.12,20.57-2.63,.2,18,.2H174.83Z"/>
        <path class="cls-3" d="M347.43,20.87c0,1.39-.12,2.27-.12,2.27,0,0,1.6,279.54-31.1,339.66-32.7,60.12-116.98,84.46-137.71,84.46s-105.01-24.35-137.71-84.46C8.09,302.68,9.68,23.14,9.68,23.14c0,0-.13-.96-.12-2.46h0c.04-5.39,1.82-17.68,17.4-17.68H330.04c15.53,0,17.35,12.21,17.4,17.61v.26Z"/>
        <path class="cls-2" d="M347.43,20.87h-3c0,.61-.03,1.1-.05,1.44-.01,.17-.02,.29-.03,.37v.08s0,.01,0,.01l1.34,.16-1.34-.17h0s1.34,.17,1.34,.17l-1.34-.17-.03,.2v.2s0,.55,0,1.6c0,1.06,0,2.62,0,4.65,0,20.81-.33,90.42-4.38,161.61-2.02,35.59-4.98,71.58-9.28,102.01-2.15,15.21-4.63,29.04-7.48,40.7-2.85,11.66-6.09,21.16-9.61,27.62-7.96,14.63-19.09,27.15-31.69,37.69-18.89,15.82-41.06,27.17-60.39,34.53-9.67,3.68-18.62,6.36-26.08,8.11-3.73,.88-7.08,1.52-9.95,1.94-2.86,.42-5.25,.62-6.97,.62-2.31,0-5.77-.35-10-1.12-7.42-1.33-17.26-3.9-28.23-7.81-16.46-5.86-35.5-14.74-52.99-26.97-17.5-12.23-33.43-27.81-43.86-47-3.52-6.46-6.77-15.96-9.61-27.62-5-20.41-8.85-47.43-11.77-76.96C13.24,168.13,12.67,56.73,12.67,29.42c0-2.03,0-3.6,0-4.66,0-1.06,0-1.6,0-1.61v-.21s-.03-.2-.03-.2h0c-.01-.1-.09-.82-.09-1.91v-.07h0s-.43-.02-.43-.02h.43s0,0,0,0h-.43s.43,0,.43,0v-.05s0-.05,0-.05v.02c0-1.19,.12-2.77,.47-4.41,.27-1.23,.68-2.5,1.27-3.69,.9-1.78,2.16-3.35,4.09-4.54,1.93-1.18,4.62-2.04,8.57-2.04H330.04c3.49,0,6.01,.68,7.87,1.65,1.4,.73,2.46,1.64,3.32,2.68,1.28,1.55,2.09,3.42,2.57,5.28,.48,1.86,.62,3.69,.63,5.03v.23h0s3,0,3,0h3v-.28c-.01-1.51-.15-3.48-.62-5.65-.36-1.63-.91-3.36-1.78-5.08-1.29-2.57-3.32-5.11-6.32-6.94C338.72,1.08,334.84,0,330.04,0,320.07,0,282.18,0,246.79,0,229.1,0,212.02,0,199.37,0,193.05,0,187.83,0,184.19,0,180.56,0,178.51,0,178.5,0,178.5,0,46.9,0,26.96,0c-4.28,0-7.83,.85-10.68,2.35-2.13,1.12-3.85,2.58-5.17,4.2-1.99,2.43-3.11,5.14-3.74,7.63-.63,2.49-.79,4.78-.81,6.47v.03h3l-3-.08c0,.13,0,.21,0,.24,0,1.58,.13,2.59,.14,2.7l2.97-.39-3-.02s-.01,2.22-.01,6.3c0,20.88,.33,90.57,4.39,161.96,2.03,35.7,4.99,71.81,9.33,102.51,2.17,15.35,4.68,29.35,7.6,41.29,2.93,11.95,6.24,21.82,10.17,29.06,8.4,15.43,20.06,28.5,33.11,39.43,19.58,16.39,42.29,27.99,62.11,35.53,9.91,3.77,19.1,6.53,26.84,8.35,3.87,.91,7.38,1.59,10.44,2.04,3.07,.45,5.69,.68,7.85,.68,2.88,0,6.59-.41,11.06-1.21,7.82-1.41,17.92-4.05,29.18-8.06,16.89-6.01,36.36-15.09,54.41-27.71,18.04-12.62,34.68-28.8,45.7-49.05,3.93-7.24,7.24-17.11,10.17-29.06,5.11-20.89,8.97-48.1,11.92-77.8,8.83-89.07,9.4-200.54,9.4-227.95,0-4.07-.01-6.29-.01-6.29l-3,.02,2.98,.38c.01-.1,.14-1.1,.14-2.65h0s-3,0-3,0Z"/>
      </g>
      <polygon id="moves" class="cls-1" points="163.03 60.56 163.03 22.63 200.96 22.63 200.96 60.56 186.55 60.56 186.55 124.11 177.45 124.11 177.45 60.56 163.03 60.56"/>
      <path id="title" class="cls-1" d="M184.73,216.74c.17,8.11,2.2,21.63,4.39,31.94l18.76-2.2c-1.86-10.48-3.21-24.34-3.21-32.62l-19.94,2.87Zm-39.72,.84c1.52,8.45,5.75,21.8,9.97,31.77l19.1-3.21c-3.89-10.48-7.77-24.17-8.79-32.45l-20.28,3.89Zm93.46,34.82c3.72-12.34,11.15-25.52,18.76-32.62l-19.44-7.94c-8.28,8.96-15.21,22.82-19.1,35.83l19.77,4.73Zm-139.26-33.46c4.39,9.46,13.86,23.83,21.63,34.31l19.44-6.25c-7.61-10.82-16.56-25.86-20.28-34.98l-20.79,6.93Zm25.69,54.42c2.54,0,2.87,.51,2.87,5.41v14.53c-8.62,3.55-17.58,7.94-23.66,11.66-1.69-.34-3.21,.17-3.72,.68l13.01,14.87c3.89-3.21,8.96-6.93,14.37-10.31v15.04c-2.87,.51-4.06,1.52-4.23,3.04l22.48,1.35v-51.04c0-16.06-3.21-21.13-17.75-21.13h-11.83c-11.15,0-15.55,5.58-17.24,24.51,4.9,1.18,12.17,3.89,15.55,6.76,.51-13.18,1.01-15.38,3.72-15.38h6.42Zm45.97,21.8v-18.59h16.9v18.59h-16.9Zm-17.41,14.7h50.7v-48h-50.7v48Zm13.69,23.15h25.86v10.14h-25.86v-10.14Zm-18.25,10.14h-45.12v16.56h45.12v7.6c-2.87,.51-4.23,1.52-4.39,3.04l22.65,1.18v-11.83h25.86v7.6c-2.87,.51-4.06,1.52-4.23,3.04l21.8,1.18v-11.83h44.11v-16.56h-44.11v-14.7l21.13,1.18v-11.32h22.31v-17.07h-22.31v-14.87c9.97-2.7,19.27-5.07,26.37-6.76l-8.11-18.93c-1.18,.34-2.03,1.52-2.2,3.04-4.23,1.52-9.97,3.89-16.06,6.25v-14.03h-18.08v69.63c-1.35,.17-2.37,.51-3.04,1.01v-8.28h-61.69v24.84Z"/>
    </g>
  </g>
</svg>