<?xml version="1.0" encoding="UTF-8"?>
<svg id="Layer_2" data-name="Layer 2" xmlns="http://www.w3.org/2000/svg" xmlns:xlink="http://www.w3.org/1999/xlink" width="337" height="409" viewBox="0 0 350.43 450.26">
  <defs>
    <style>
      .cls-1 {
        fill: #007a72;
      }

      .cls-2 {
        fill: #f20000;
      }

      .cls-3 {
        fill: #2e1b10;
      }

      .cls-4 {
        fill: #00aeb7;
      }

      .cls-5 {
        fill: #3b2314;
      }

      .cls-6 {
        fill: url(#linear-gradient);
      }
    </style>
    <linearGradient id="linear-gradient" x1="-8053.34" y1="246.2" x2="-8052.34" y2="246.2" gradientTransform="translate(2721004.08 -82957.51) scale(337.87)" gradientUnits="userSpaceOnUse">
      <stop offset="0" stop-color="#fbcdab"/>
      <stop offset="1" stop-color="#fde4d9"/>
    </linearGradient>
  </defs>
  <g id="Wild_goose" data-name="Wild goose">
    <g id="north_Wild_goose_JAP" data-name="north Wild goose JAP">
      <g id="piece">
        <path class="cls-3" d="M174.83,.2h156.83c20.63,0,17.88,20.37,17.88,20.37,0,0,1.65,282.83-32.19,343.65-33.84,60.82-121.06,85.46-142.52,85.46s-108.68-24.63-142.52-85.46C-1.53,303.4,.12,20.57,.12,20.57,.12,20.57-2.63,.2,18,.2H174.83Z"/>
        <path class="cls-6" d="M347.44,20.87c0,1.39-.12,2.27-.12,2.27,0,0,1.6,279.54-31.1,339.66-32.7,60.12-116.98,84.46-137.71,84.46s-105.01-24.35-137.71-84.46C8.09,302.68,9.68,23.14,9.68,23.14c0,0-.13-.96-.12-2.46h0c.04-5.39,1.82-17.68,17.4-17.68H330.04c15.53,0,17.35,12.21,17.4,17.61v.26Z"/>
        <path class="cls-5" d="M347.44,20.87h-3c0,.61-.03,1.1-.05,1.44-.01,.17-.02,.29-.03,.37v.08s-.01,.01-.01,.01l1.33,.16-1.32-.17h0s1.33,.17,1.33,.17l-1.32-.17-.03,.19v.2s0,.55,0,1.61,0,2.63,0,4.66c0,20.82-.33,90.43-4.38,161.62-2.02,35.59-4.98,71.58-9.27,102.01-2.15,15.21-4.63,29.04-7.48,40.7-2.85,11.66-6.09,21.16-9.61,27.62-7.96,14.63-19.09,27.15-31.69,37.69-18.89,15.82-41.06,27.17-60.39,34.53-9.67,3.68-18.62,6.36-26.08,8.11-3.73,.88-7.08,1.52-9.95,1.94-2.86,.42-5.25,.62-6.97,.62-2.31,0-5.77-.35-10-1.12-7.42-1.33-17.26-3.9-28.23-7.81-16.46-5.86-35.5-14.74-52.99-26.97-17.5-12.23-33.43-27.81-43.87-47-3.52-6.46-6.77-15.96-9.61-27.62-5-20.41-8.84-47.43-11.77-76.96C13.24,168.14,12.67,56.73,12.67,29.42c0-2.03,0-3.6,0-4.66s0-1.6,0-1.61v-.21s-.03-.2-.03-.2h0c-.01-.1-.09-.82-.09-1.91v-.07h0s-.43-.02-.43-.02h.43s0,0,0,0h-.43s.43,0,.43,0v-.02s0-.07,0-.07v.02c0-1.19,.12-2.77,.47-4.41,.27-1.23,.68-2.5,1.27-3.69,.9-1.78,2.16-3.35,4.09-4.54,1.93-1.18,4.62-2.04,8.57-2.04H330.04c3.49,0,6,.68,7.87,1.65,1.4,.73,2.46,1.64,3.32,2.68,1.28,1.55,2.09,3.42,2.57,5.28,.48,1.86,.62,3.69,.63,5.03v.23h0s3,0,3,0h3v-.28c-.01-1.51-.15-3.48-.62-5.65-.36-1.63-.91-3.36-1.78-5.08-1.29-2.57-3.32-5.11-6.32-6.94C338.72,1.08,334.84,0,330.04,0,320.07,0,282.18,0,246.79,0,229.1,0,212.02,0,199.37,0,193.05,0,187.83,0,184.19,0,180.56,0,178.5,0,178.5,0,178.5,0,46.9,0,26.96,0c-4.28,0-7.83,.85-10.68,2.35-2.13,1.12-3.85,2.58-5.17,4.2-1.99,2.43-3.11,5.14-3.74,7.63-.63,2.49-.79,4.78-.81,6.47v.03h3l-3-.08c0,.13,0,.21,0,.24,0,1.58,.13,2.59,.14,2.7l2.97-.39-3-.02s-.01,2.22-.01,6.3c0,20.88,.33,90.57,4.39,161.96,2.03,35.7,4.99,71.81,9.32,102.51,2.17,15.35,4.68,29.35,7.6,41.29,2.93,11.95,6.24,21.82,10.17,29.06,8.4,15.43,20.06,28.5,33.11,39.43,19.58,16.39,42.29,27.99,62.11,35.53,9.91,3.77,19.1,6.53,26.84,8.35,3.87,.91,7.38,1.59,10.44,2.04,3.07,.45,5.69,.68,7.85,.68,2.88,0,6.59-.41,11.06-1.21,7.82-1.41,17.92-4.05,29.18-8.06,16.89-6.01,36.36-15.09,54.41-27.71,18.04-12.62,34.68-28.8,45.7-49.05,3.93-7.24,7.24-17.11,10.17-29.06,5.11-20.89,8.97-48.1,11.91-77.8,8.83-89.07,9.4-200.54,9.4-227.95,0-4.08-.01-6.29-.01-6.3l-3,.02,2.98,.38c.01-.1,.14-1.1,.14-2.64h0s-3,0-3,0Z"/>
      </g>
      <g id="moves">
        <rect class="cls-2" x="252.65" y="179.76" width="14.25" height="14.25" transform="translate(-56.06 238.43) rotate(-45)"/>
        <rect class="cls-2" x="97" y="179.84" width="14.25" height="14.25" transform="translate(-101.71 128.39) rotate(-45)"/>
        <rect class="cls-2" x="174.42" y="20.15" width="14.25" height="14.25" transform="translate(33.89 136.36) rotate(-45)"/>
        <rect class="cls-4" x="162.95" y="90.13" width="37.93" height="37.93"/>
        <polygon class="cls-1" points="200.88 128.06 200.88 127.56 163.45 127.56 163.45 90.63 200.38 90.63 200.38 128.06 200.88 128.06 200.88 127.56 200.88 128.06 201.38 128.06 201.38 89.63 162.45 89.63 162.45 128.56 201.38 128.56 201.38 128.06 200.88 128.06"/>
      </g>
      <g id="title">
        <path class="cls-4" d="M157.2,242.93c.17,6.76,2.03,17.41,4.9,25.52l7.27-1.01c-2.7-8.11-4.56-18.76-4.39-25.69l-7.77,1.18Zm25.69,25.86c1.35-10.65,4.9-20.79,12.17-26.53l-6.93-4.73c-8.28,6.42-11.49,17.92-13.18,29.41l7.94,1.86Zm-44.62-20.79c1.01,6.08,4.56,15.38,8.96,22.31l6.59-1.86c-4.06-7.1-7.61-16.39-8.45-22.65l-7.1,2.2Zm.34,22.48c-4.56-5.07-9.13-12.51-10.99-17.41l-6.42,3.04c2.03,4.9,6.59,12,11.32,17.07l6.08-2.7Zm89.57,103.94H99.4v10.14H239.17v-50.36c0-27.21,1.18-65.07,15.55-92.28-2.87-1.18-7.6-3.89-9.63-5.75-8.96,17.07-13.18,38.87-15.21,59.66-2.03-1.86-4.23-4.23-5.41-5.58-5.07,6.25-9.8,13.86-14.2,22.31v-76.56h-10.48v95.15c-2.03,.17-3.04,1.01-3.38,2.03l3.89,1.35c-4.23,10.48-7.77,21.63-10.65,32.62-2.2,0-3.38,.68-3.72,1.86l13.69,3.55c6.42-26.87,17.07-53.74,29.75-70.81-1.01,11.66-1.18,22.82-1.18,32.45v40.22Zm-57.8-42.25h-44.62v-10.48h44.62v10.48Zm-44.62,7.27h44.62v10.31h-44.62v-10.31Zm-28.22-35.32h72.84v9.63h-55.27v43.94h31.6c-2.03,3.72-3.72,7.61-5.07,10.48-1.86,0-3.04,.68-3.38,1.69l13.18,3.38c1.18-4.39,3.38-10.65,5.58-15.55h23.83v-80.45H113.09c2.2-20.45,4.56-28.9,7.27-31.6,1.18-1.18,2.37-1.52,4.56-1.52,2.03,0,7.1,0,12.84,.68-1.35-2.2-2.37-5.92-2.54-8.28-3.72-.34-7.27-.51-10.31-.51-6.42,0-9.8,.34-13.01,3.72-4.23,4.06-6.93,14.7-9.46,42.08-.34,1.01-.51,2.03-.68,3.04l6.08,1.18,2.2-.17h60.34v9.8H97.55v8.45Z"/>
        <path class="cls-1" d="M157.2,242.93l-2.5,.06c.19,7.13,2.07,17.85,5.04,26.29l.68,1.92,12.26-1.71-.95-2.85c-2.51-7.48-4.29-17.48-4.28-24,0-.28,0-.56,0-.85l.06-2.97-12.89,1.96,.05,2.2,2.5-.06,.38,2.47,7.77-1.18-.38-2.47-2.5-.05c0,.31,0,.62,0,.95,.01,7.34,1.86,17.52,4.53,25.58l2.37-.79-.34-2.48-7.27,1.01,.34,2.48,2.36-.83c-2.77-7.78-4.61-18.35-4.76-24.75l-2.5,.06,.38,2.47-.38-2.47Zm25.69,25.86l2.48,.31c1.29-10.34,4.79-19.85,11.24-24.89l2.67-2.11-11.24-7.68-1.44,1.12c-9.19,7.21-12.38,19.36-14.12,31.02l-.33,2.27,12.88,3.01,.35-2.75-2.48-.31,.57-2.43-7.94-1.86-.57,2.43,2.47,.36c1.63-11.32,4.87-22.16,12.24-27.8l-1.53-1.98-1.41,2.07,6.93,4.73,1.41-2.07-1.55-1.96c-8.09,6.45-11.68,17.22-13.1,28.18l2.48,.31,.57-2.43-.57,2.43Zm-44.62-20.79l-2.47,.41c1.12,6.57,4.72,15.95,9.31,23.24l1,1.57,11.46-3.24-1.59-2.78c-3.91-6.81-7.4-16.03-8.14-21.74l-.39-2.93-12.01,3.72,.36,2.15,2.47-.41,.74,2.39,7.1-2.2-.74-2.39-2.48,.33c.94,6.8,4.56,16.17,8.76,23.55l2.17-1.24-.68-2.41-6.59,1.86,.68,2.41,2.11-1.34c-4.19-6.58-7.69-15.78-8.6-21.38l-2.47,.41,.74,2.39-.74-2.39Zm.34,22.48l1.86-1.67c-4.32-4.77-8.83-12.15-10.51-16.62l-.96-2.53-11.02,5.22,.91,2.2c2.21,5.3,6.84,12.47,11.81,17.82l1.22,1.3,10.86-4.83-2.3-2.56-1.86,1.67-1.02-2.28-6.08,2.7,1.02,2.28,1.83-1.71c-4.49-4.79-9-11.82-10.84-16.32l-2.31,.96,1.07,2.26,6.42-3.04-1.07-2.26-2.34,.89c2.05,5.33,6.66,12.82,11.46,18.19l1.86-1.67-1.02-2.28,1.02,2.28Zm89.57,103.94v-2.5H96.9v15.14H241.67v-52.86c-.03-27.12,1.27-64.7,15.26-91.11l1.28-2.43-2.54-1.05c-2.54-1.02-7.34-3.81-8.9-5.28l-2.39-2.19-1.51,2.88c-9.2,17.56-13.43,39.62-15.48,60.58l2.49,.24,1.69-1.84c-1.92-1.75-4.09-4.09-5.22-5.38l-1.95-2.23-1.87,2.3c-5.21,6.43-10.02,14.17-14.47,22.73l2.22,1.15h2.5v-79.06h-15.48v97.65h2.5l-.21-2.49c-1.32,.11-2.5,.45-3.48,1.1-.99,.63-1.73,1.61-2.06,2.63l-.78,2.34,6.22,2.16,.82-2.36-2.32-.93c-4.27,10.6-7.85,21.85-10.75,32.92l2.42,.63v-2.5c-1.35,0-2.57,.19-3.71,.77-1.13,.55-2.09,1.68-2.42,2.91l-.71,2.46,18.64,4.83,.59-2.48c6.35-26.63,16.97-53.3,29.32-69.9l-2.01-1.49-2.49-.22c-1.02,11.77-1.19,23-1.19,32.67v40.22h2.5v0h2.5v-40.22c0-9.6,.17-20.68,1.17-32.23l.77-8.8-5.26,7.09c-13,17.53-23.67,44.6-30.17,71.72l2.43,.58,.63-2.42-13.69-3.55-.63,2.42,2.4,.69-.35-.1,.27,.23,.07-.13-.35-.1,.27,.23-.15-.13,.11,.17,.04-.04-.15-.13,.11,.17s.47-.23,1.43-.22h1.93l.49-1.87c2.85-10.9,6.37-21.96,10.55-32.32l.98-2.43-6.37-2.22-.82,2.36,2.37,.79-.07-.02,.06,.04v-.02s-.06-.02-.06-.02l.06,.04s.02-.04,.19-.12c.17-.08,.51-.19,1.04-.23l2.29-.19v-94.95h5.48v84.29l4.72-9.07c4.34-8.34,9-15.81,13.92-21.89l-1.94-1.57-1.88,1.65c1.24,1.41,3.46,3.81,5.6,5.77l3.69,3.38,.49-4.98c2-20.62,6.22-42.16,14.94-58.74l-2.21-1.16-1.69,1.84c2.5,2.25,7.17,4.86,10.37,6.21l.95-2.31-2.21-1.17c-14.74,28.01-15.81,66.14-15.84,93.44v47.86H101.9v-5.14H230.69v-2.5h-2.5Zm-57.8-42.25v-2.5h-42.12v-5.48h39.62v7.98h2.5v0h2.5v-12.98h-49.62v15.48h49.62v-2.5h-2.5Zm-44.62,7.27v2.5h42.12v5.31h-39.62v-7.81h-2.5v0h-2.5v12.81h49.62v-15.31h-49.62v2.5h2.5Zm-28.22-35.32v2.5h70.34v4.63h-55.27s0,48.94,0,48.94h34.1v-2.5l-2.19-1.2c-2.1,3.84-3.81,7.79-5.14,10.61l2.26,1.06v-2.5c-1.23,0-2.38,.21-3.41,.75-1.03,.52-1.95,1.46-2.34,2.65l-.85,2.55,18.18,4.66,.64-2.38c1.14-4.23,3.31-10.43,5.45-15.18l-2.28-1.02v2.5h26.33v-85.45H113.09v2.5l2.49,.27c1.09-10.16,2.23-17.31,3.39-22.14,1.13-4.83,2.43-7.31,3.16-7.96,.39-.38,.57-.48,.9-.59,.33-.11,.92-.2,1.89-.2,2.01,0,6.97,0,12.55,.66l5.12,.6-2.7-4.4c-1.04-1.61-2.07-5.27-2.17-7.15l-.15-2.12-2.12-.19c-3.79-.34-7.4-.52-10.54-.52-3.25,0-5.87,.07-8.31,.66-2.44,.58-4.65,1.84-6.51,3.83l1.81,1.72-1.73-1.8c-2.71,2.65-4.49,6.76-6.07,13.54-1.57,6.79-2.88,16.37-4.15,30.12l2.49,.23-2.37-.79c-.42,1.25-.6,2.41-.77,3.42l-.4,2.4,8.8,1.71,2.44-.19h57.74v4.8H95.05s0,13.45,0,13.45h2.5v-2.5h2.5v-5.95h72.84v-14.8h-62.94l-1.95,.15-5.75-1.12-.48,2.45,2.47,.41c.17-1.02,.32-1.89,.58-2.66l.09-.28,.03-.28c1.26-13.63,2.57-23.07,4.04-29.46,1.46-6.41,3.15-9.64,4.66-11.05l.04-.04,.04-.05c1.35-1.39,2.44-1.99,4.09-2.42,1.65-.42,3.94-.52,7.11-.52,2.95,0,6.43,.17,10.08,.5l.23-2.49-2.49,.18c.24,2.86,1.24,6.63,2.9,9.41l2.13-1.31,.29-2.48c-5.91-.69-11.09-.69-13.14-.69-1.22,0-2.33,.08-3.43,.44-1.1,.35-2.11,1.01-2.9,1.81-1.98,2.05-3.21,5.15-4.49,10.33-1.25,5.19-2.39,12.49-3.5,22.77l-.3,2.77h68.05v75.45h-22.95s-.66,1.48-.66,1.48c-2.26,5.06-4.48,11.36-5.71,15.92l2.41,.65,.62-2.42-13.18-3.38-.62,2.42,2.37,.79-.53-.18,.41,.38,.11-.2-.53-.18,.41,.38-.07-.06,.05,.08,.02-.02-.07-.06,.05,.08s.43-.21,1.14-.2h1.59l.67-1.44c1.38-2.93,3.04-6.75,5-10.35l2.02-3.7h-33.32v-38.94h55.27v-14.63H97.55v2.5h0Z"/>
      </g>
    </g>
  </g>
</svg>