<?xml version="1.0" encoding="UTF-8"?>
<svg id="Layer_2" data-name="Layer 2" xmlns="http://www.w3.org/2000/svg" xmlns:xlink="http://www.w3.org/1999/xlink" width="337" height="409" viewBox="0 0 350.43 450.68">
  <defs>
    <style>
      .cls-1 {
        fill: #2e1b10;
      }

      .cls-2 {
        fill: #3b2314;
      }

      .cls-3 {
        fill: url(#linear-gradient);
      }
    </style>
    <linearGradient id="linear-gradient" x1="-3587.34" y1="-233.8" x2="-3586.34" y2="-233.8" gradientTransform="translate(1212070.13 -78770.53) scale(337.87 -337.87)" gradientUnits="userSpaceOnUse">
      <stop offset="0" stop-color="#fbcdab"/>
      <stop offset="1" stop-color="#fde4d9"/>
    </linearGradient>
  </defs>
  <g id="Crane">
    <g id="south_Crane_JAP" data-name="south Crane JAP">
      <g id="piece">
        <path class="cls-1" d="M174.83,450.68h156.83c20.63,0,17.88-20.37,17.88-20.37,0,0,1.65-282.83-32.19-343.65C283.51,25.83,196.29,1.2,174.83,1.2S66.15,25.83,32.31,86.65C-1.53,147.48,.12,430.3,.12,430.3c0,0-2.75,20.37,17.88,20.37H174.83Z"/>
        <path class="cls-3" d="M347.43,429.39c0-1.39-.12-2.27-.12-2.27,0,0,1.6-279.54-31.1-339.66C283.51,27.35,199.24,3,178.5,3S73.49,27.35,40.79,87.46C8.09,147.58,9.68,427.12,9.68,427.12c0,0-.13,.96-.12,2.46h0c.04,5.39,1.82,17.68,17.4,17.68H330.04c15.53,0,17.35-12.21,17.4-17.61v-.26Z"/>
        <path class="cls-2" d="M347.43,429.39h3c0-1.55-.13-2.56-.14-2.65l-2.98,.38,3,.02s.01-2.22,.01-6.29c0-20.88-.33-90.57-4.39-161.96-2.03-35.7-4.99-71.81-9.32-102.51-2.17-15.35-4.68-29.35-7.6-41.29-2.93-11.95-6.24-21.82-10.17-29.06-8.4-15.43-20.06-28.5-33.11-39.43-19.58-16.39-42.29-27.99-62.11-35.53-9.91-3.77-19.1-6.53-26.84-8.35-3.87-.91-7.38-1.59-10.44-2.04-3.07-.45-5.69-.68-7.85-.68-2.88,0-6.59,.41-11.06,1.21-7.82,1.41-17.92,4.05-29.18,8.06-16.89,6.01-36.36,15.09-54.41,27.71-18.04,12.62-34.68,28.8-45.7,49.05-3.93,7.24-7.24,17.11-10.17,29.06-5.11,20.89-8.97,48.1-11.92,77.8-8.83,89.07-9.4,200.54-9.4,227.95,0,4.08,.01,6.29,.01,6.3l3-.02-2.97-.39c-.01,.1-.14,1.12-.14,2.7,0,.04,0,.11,0,.21l3-.06h-3v.03c.01,1.5,.14,3.48,.61,5.65,.36,1.63,.9,3.37,1.76,5.09,1.28,2.58,3.31,5.13,6.31,6.97,3,1.85,6.89,2.94,11.71,2.93H330.04c4.27,0,7.81-.85,10.65-2.33,2.13-1.11,3.85-2.57,5.17-4.18,1.99-2.42,3.11-5.12,3.75-7.61,.64-2.49,.81-4.78,.82-6.47v-.28h0s-3,0-3,0h-3v.23c0,1.19-.12,2.77-.48,4.41-.27,1.23-.68,2.5-1.28,3.67-.9,1.77-2.16,3.33-4.09,4.52-1.93,1.18-4.62,2.03-8.55,2.03-9.97,0-47.85,0-83.25,0-17.7,0-34.77,0-47.42,0-6.32,0-11.54,0-15.18,0-3.64,0-5.69,0-5.69,0,0,0-131.6,0-151.54,0-3.5,0-6.02-.68-7.89-1.66-1.4-.74-2.47-1.65-3.32-2.69-1.28-1.55-2.09-3.43-2.56-5.3-.48-1.86-.61-3.7-.62-5.03h0s0-.03,0-.03v-.02s0-.1,0-.1c0-.62,.03-1.13,.05-1.46,.01-.17,.02-.29,.03-.37v-.08s0,0,0,0l.03-.2v-.21s0-.55,0-1.61,0-2.63,0-4.66c0-20.82,.33-90.43,4.38-161.62,2.02-35.59,4.98-71.58,9.28-102.01,2.15-15.21,4.63-29.04,7.48-40.7,2.85-11.66,6.09-21.16,9.61-27.62,7.95-14.63,19.09-27.15,31.69-37.69,18.89-15.82,41.06-27.17,60.39-34.53,9.67-3.68,18.62-6.36,26.08-8.11,3.73-.88,7.08-1.52,9.95-1.94,2.86-.42,5.25-.62,6.98-.62,2.31,0,5.77,.35,10,1.12,7.42,1.33,17.26,3.9,28.23,7.81,16.46,5.86,35.5,14.74,52.99,26.97,17.5,12.23,33.43,27.81,43.87,47,3.52,6.46,6.77,15.96,9.61,27.62,5,20.41,8.84,47.43,11.77,76.97,8.79,88.64,9.37,200.05,9.37,227.36,0,2.03,0,3.6,0,4.66,0,1.06,0,1.6,0,1.61v.2s.02,.2,.02,.2l1.33-.17-1.33,.16h0s1.33-.16,1.33-.16l-1.33,.16s.09,.75,.09,1.9h0s3,0,3,0Z"/>
      </g>
      <polygon class="cls-1" points="200.96 358.36 243.08 400.47 236.64 406.9 194.85 365.11 186.54 365.11 186.54 427.97 177.44 427.97 177.44 365.11 169.13 365.11 126.9 407.34 120.47 400.91 163.03 358.35 163.03 333.29 120.47 290.72 126.9 284.29 169.79 327.18 177.44 327.18 177.44 263.67 186.54 263.67 186.54 327.18 194.19 327.18 236.64 284.73 243.08 291.16 200.96 333.28 200.96 358.36"/>
      <path id="title" class="cls-1" d="M206.54,202.7c.17-7.44-1.01-18.76-2.7-27.38l-11.15,1.69c1.69,8.79,2.54,20.11,2.2,27.55l11.66-1.86Zm17.24-7.61c-.84-5.92-3.21-15.04-5.92-21.97l-9.97,2.37c2.53,7.1,4.73,16.39,5.24,22.48l10.65-2.87Zm-25.69-90.93h31.27v6.93h-31.27v-6.93Zm31.27-12h-31.27v-6.93h31.27v6.93Zm-90.25,83.66v9.46h-11.83v-9.46h11.83Zm20.62-74.87l-9.13-2.54c-1.35,4.23-3.21,9.8-5.41,14.87h-9.63c4.06-7.61,7.27-15.72,9.8-24h14.37v11.66Zm-32.45,60.17v-8.96h11.83v8.96h-11.83Zm0-23.66v-8.45h11.83v8.45h-11.83Zm130.47-6.42h-59.66v-6.25h49.01v-53.24h-26.2c1.35-3.21,2.54-6.42,3.55-9.13,2.37,0,3.89-.68,4.23-2.2l-23.66-4.39c-.68,4.56-2.03,10.48-3.55,15.72h-21.13v94.81h58.14c-.34,6.76-.68,12.34-1.01,16.9-1.69-4.39-4.06-9.63-6.59-13.86l-9.13,3.21c2.87,5.58,6.08,13.01,7.27,17.92l7.94-2.87c-.84,10.14-1.52,14.37-7.44,14.37-2.2,0-6.59,0-11.66-.51,2.03,3.72,3.72,9.63,3.89,14.03,19.44,.51,22.82-1.52,26.03-5.75,3.89-4.73,5.58-17.92,7.1-52.56,.17-1.69,.34-3.55,.34-4.73l-8.79-.85-3.55,.17h-44.79v-6.76h59.66v-14.03Zm-84.5,54.25h-17.58v-9.46h16.73v-14.7h-16.73v-8.96h16.73v-14.7h-16.73v-8.45h18.08v-15.72h-12.34c1.52-2.7,2.87-5.58,4.06-7.77,2.2-.17,3.55-.84,4.06-1.86l-.68-.17h6.93v-30.59h-26.37c.68-3.55,1.35-7.27,1.86-10.82,2.37-.17,3.72-1.18,3.89-2.7l-22.48-3.21c-.51,5.58-1.35,11.15-2.37,16.73h-29.24v30.59h15.55v-14.2h9.46c-5.58,16.73-14.7,31.6-29.91,40.73,2.7,3.72,6.76,11.32,8.45,16.06l5.58-3.55v68.79h17.07v-9.46h40.05c-.51,.84-1.01,1.52-1.52,2.2l13.69,7.6c7.1-9.13,9.8-23.66,11.49-37.35l-14.37-3.72c-.68,6.08-1.52,12.17-3.21,17.75h-.17v-3.04Z"/>
    </g>
  </g>
</svg>