<?xml version="1.0" encoding="UTF-8"?>
<svg id="Layer_2" data-name="Layer 2" xmlns="http://www.w3.org/2000/svg" xmlns:xlink="http://www.w3.org/1999/xlink" width="337" height="409" viewBox="0 0 350.43 450.68">
  <defs>
    <style>
      .cls-1 {
        fill: #2e1b10;
      }

      .cls-2 {
        fill: #3b2314;
      }

      .cls-3 {
        fill: url(#linear-gradient);
      }
    </style>
    <linearGradient id="linear-gradient" x1="-1831.34" y1="-237.8" x2="-1830.34" y2="-237.8" gradientTransform="translate(618768.07 80572.31) scale(337.87)" gradientUnits="userSpaceOnUse">
      <stop offset="0" stop-color="#fbcdab"/>
      <stop offset="1" stop-color="#fde4d9"/>
    </linearGradient>
  </defs>
  <g id="Falcon">
    <g id="south_Falcon_JAP" data-name="south Falcon JAP">
      <g id="moves">
        <path class="cls-1" d="M174.83,450.68h156.83c20.63,0,17.88-20.37,17.88-20.37,0,0,1.65-282.83-32.19-343.65C283.51,25.83,196.29,1.2,174.83,1.2S66.15,25.83,32.31,86.65C-1.53,147.48,.12,430.3,.12,430.3c0,0-2.75,20.37,17.88,20.37H174.83Z"/>
        <path class="cls-3" d="M347.43,429.39c0-1.39-.12-2.27-.12-2.27,0,0,1.6-279.54-31.1-339.66C283.51,27.35,199.24,3,178.5,3S73.49,27.35,40.79,87.46C8.09,147.58,9.68,427.12,9.68,427.12c0,0-.13,.96-.12,2.46h0c.04,5.39,1.82,17.68,17.4,17.68H330.04c15.53,0,17.35-12.21,17.4-17.61v-.26Z"/>
        <path class="cls-2" d="M347.43,429.39h3c0-1.55-.13-2.56-.14-2.65l-2.98,.38,3,.02s.01-2.22,.01-6.29c0-20.88-.33-90.57-4.39-161.96-2.03-35.7-4.99-71.81-9.32-102.51-2.17-15.35-4.68-29.35-7.6-41.29-2.93-11.95-6.24-21.82-10.17-29.06-8.4-15.43-20.06-28.5-33.11-39.43-19.58-16.39-42.29-27.99-62.11-35.53-9.91-3.77-19.1-6.53-26.84-8.35-3.87-.91-7.38-1.59-10.44-2.04-3.07-.45-5.69-.68-7.85-.68-2.88,0-6.59,.41-11.06,1.21-7.82,1.41-17.92,4.05-29.18,8.06-16.89,6.01-36.36,15.09-54.41,27.71-18.04,12.62-34.68,28.8-45.7,49.05-3.93,7.24-7.24,17.11-10.17,29.06-5.11,20.89-8.97,48.1-11.92,77.8-8.83,89.07-9.4,200.54-9.4,227.95,0,4.08,.01,6.29,.01,6.3l3-.02-2.97-.39c-.01,.1-.14,1.12-.14,2.7v.19s3-.03,3-.03h-3v.03c.01,1.5,.14,3.48,.61,5.65,.36,1.63,.9,3.37,1.76,5.09,1.28,2.58,3.31,5.13,6.31,6.97,3,1.85,6.89,2.94,11.71,2.93H330.04c4.27,0,7.81-.85,10.65-2.33,2.13-1.11,3.85-2.57,5.17-4.18,1.99-2.42,3.11-5.12,3.75-7.61,.64-2.49,.81-4.78,.82-6.47v-.28h0s-3,0-3,0h-3v.23c0,1.19-.12,2.77-.48,4.41-.27,1.23-.68,2.5-1.28,3.67-.9,1.77-2.16,3.33-4.09,4.52-1.93,1.18-4.62,2.03-8.55,2.03-9.97,0-47.85,0-83.25,0-17.7,0-34.77,0-47.42,0-6.32,0-11.54,0-15.18,0-3.64,0-5.69,0-5.69,0,0,0-131.6,0-151.54,0-3.5,0-6.02-.68-7.89-1.66-1.4-.74-2.47-1.65-3.32-2.69-1.28-1.55-2.09-3.43-2.56-5.3-.48-1.86-.61-3.7-.62-5.03h0s0-.02,0-.02h0s0-.13,0-.13c0-.62,.03-1.12,.05-1.46,.01-.17,.02-.29,.03-.37v-.08s0,0,0,0l.03-.2v-.21s0-.55,0-1.61c0-1.06,0-2.62,0-4.66,0-20.81,.33-90.43,4.38-161.61,2.02-35.59,4.98-71.58,9.28-102.01,2.15-15.21,4.63-29.04,7.48-40.7,2.85-11.66,6.09-21.16,9.61-27.62,7.95-14.63,19.09-27.15,31.69-37.69,18.89-15.82,41.06-27.17,60.39-34.53,9.66-3.68,18.62-6.36,26.08-8.11,3.73-.88,7.08-1.52,9.95-1.94,2.86-.42,5.25-.62,6.98-.62,2.31,0,5.77,.35,10,1.12,7.42,1.33,17.26,3.9,28.23,7.81,16.46,5.86,35.5,14.74,52.99,26.97,17.5,12.23,33.43,27.81,43.87,47,3.52,6.46,6.77,15.96,9.61,27.62,5,20.41,8.84,47.43,11.77,76.97,8.79,88.64,9.37,200.05,9.37,227.36,0,2.03,0,3.6,0,4.66,0,1.06,0,1.6,0,1.61v.2s.02,.2,.02,.2l1.33-.17-1.33,.16h0s1.33-.16,1.33-.16l-1.33,.16s.09,.75,.09,1.9h0s3,0,3,0Z"/>
      </g>
      <polygon id="moves-2" data-name="moves" class="cls-1" points="263.7 350.36 263.7 341.26 200.95 341.26 200.95 333.28 243.07 291.16 236.64 284.73 194.19 327.18 186.54 327.18 186.54 263.66 177.44 263.66 177.44 327.18 169.79 327.18 126.9 284.29 120.46 290.72 163.02 333.28 163.02 341.26 100.12 341.26 100.12 350.36 163.02 350.36 163.02 358.34 120.46 400.91 126.9 407.34 169.13 365.11 194.85 365.11 236.64 406.9 243.07 400.46 200.95 358.34 200.95 350.36 263.7 350.36"/>
      <path id="title" class="cls-1" d="M173.92,210.65c-.68-4.39-3.04-10.99-5.75-15.89l-14.03,3.21c2.37,5.24,4.39,12,5.07,16.73l14.7-4.06Zm25.01-1.18c-1.35-4.23-4.56-10.65-7.94-15.04l-13.35,3.89c3.21,4.9,6.25,11.49,7.27,15.89l14.03-4.73Zm-63.04,6.76c6.42-4.9,10.65-12.34,14.03-19.27-.34-.17-.68-.34-14.7-6.08-2.7,6.08-8.11,13.52-14.03,17.75l14.7,7.61Zm97.18-22.98c-1.18,10.31-2.54,11.66-6.42,11.66-.68,.17-4.06,0-4.73,0-1.86-3.72-5.24-8.11-8.79-11.66h19.94Zm-80.28-110.36c-5.75,8.11-14.2,16.22-22.82,21.97v-21.97h22.82Zm7.1,73.35h59.32v4.39h-59.32v-4.39Zm59.32-6.59h-59.32v-4.23h59.32v4.23Zm-26.53-24.67v-4.56h15.04v4.56h-15.04Zm4.23-33.97l2.03-3.38c2.03,.34,3.38-.34,4.06-1.35l-9.97-3.38h19.94c-1.18,2.37-2.87,5.41-4.56,8.11h-11.49Zm-4.23,22.98v-4.39h15.04v4.39h-15.04Zm0-10.99v-4.39h15.04v4.39h-15.04Zm63.38,69.46h-96.16v-4.56h77.57v-29.75h-54.42l1.69-2.7h7.94v-2.03h61.86v-8.45h-30.25v-4.56h22.14v-6.42h-22.14v-4.39h22.14v-6.59h-22.14v-4.39h26.03v-7.6h-24.34l2.2-2.7c2.2,0,3.38-.68,4.06-1.86l-14.53-3.55h37.86v-15.55h-61.69v-6.59c3.21-.68,4.39-1.69,4.56-3.38l-25.69-1.35v11.32h-61.18v50.19c0,25.69-1.18,61.69-14.87,86.53,4.06,2.03,12.17,7.94,15.38,11.32,15.38-27.04,17.91-69.8,17.91-97.85v-5.07c2.2,2.2,4.39,4.73,5.75,6.25,2.87-1.86,5.75-3.89,8.62-6.08v20.96h16.22v-32.11c2.54-.17,3.72-1.35,4.06-2.7l-4.39-.84c2.54-2.7,5.07-5.58,7.1-8.45,2.03,0,3.38-.51,4.06-1.69l-13.35-4.9h25.69c-5.07,8.96-12.68,17.91-20.28,23.49,3.38,2.2,8.79,7.1,11.32,9.8l1.86-1.52v14.37l-7.94-1.69c-.85,3.04-2.37,7.27-3.89,10.82h-22.82v55.1h69.29l-10.65,4.06c3.72,4.06,7.61,9.97,9.13,13.86l9.13-3.89c1.01,2.7,1.86,5.75,2.03,7.61,4.23,.34,8.28,.51,11.49,.51,15.89,0,18.59-5.07,20.62-25.52,.34-1.69,.68-2.54,.85-4.06l-11.32-1.52-4.23,.51h-78.42v-4.22h96.16v-8.11Z"/>
    </g>
  </g>
</svg>