<?xml version="1.0" encoding="UTF-8"?>
<svg id="Layer_2" data-name="Layer 2" xmlns="http://www.w3.org/2000/svg" xmlns:xlink="http://www.w3.org/1999/xlink" width="337" height="409" viewBox="0 0 350.43 450.68">
  <defs>
    <style>
      .cls-1 {
        fill: #007a72;
      }

      .cls-2 {
        fill: #2e1b10;
      }

      .cls-3 {
        fill: #00aeb7;
      }

      .cls-4 {
        fill: #3b2314;
      }

      .cls-5 {
        fill: url(#linear-gradient);
      }
    </style>
    <linearGradient id="linear-gradient" x1="-2708.34" y1="-233.8" x2="-2707.34" y2="-233.8" gradientTransform="translate(915081.12 -78770.53) scale(337.87 -337.87)" gradientUnits="userSpaceOnUse">
      <stop offset="0" stop-color="#fbcdab"/>
      <stop offset="1" stop-color="#fde4d9"/>
    </linearGradient>
  </defs>
  <g id="Mountain_Hawk_Eagle" data-name="Mountain Hawk Eagle">
    <g id="south_Mountain_Hawk_Eagle_JAP" data-name="south Mountain Hawk Eagle JAP">
      <g id="piece">
        <path class="cls-2" d="M174.83,450.68h156.83c20.63,0,17.88-20.37,17.88-20.37,0,0,1.65-282.83-32.19-343.65C283.51,25.83,196.29,1.2,174.83,1.2S66.15,25.83,32.31,86.65C-1.53,147.48,.12,430.3,.12,430.3c0,0-2.75,20.37,17.88,20.37H174.83Z"/>
        <path class="cls-5" d="M347.43,429.39c0-1.39-.12-2.27-.12-2.27,0,0,1.6-279.54-31.1-339.66C283.51,27.35,199.24,3,178.5,3S73.49,27.35,40.79,87.46C8.09,147.58,9.68,427.12,9.68,427.12c0,0-.13,.96-.12,2.46h0c.04,5.39,1.82,17.68,17.4,17.68H330.04c15.53,0,17.35-12.21,17.4-17.61v-.26Z"/>
        <path class="cls-4" d="M347.43,429.39h3c0-1.55-.13-2.56-.14-2.65l-2.98,.38,3,.02s.01-2.22,.01-6.29c0-20.88-.33-90.57-4.39-161.96-2.03-35.7-4.99-71.81-9.32-102.51-2.17-15.35-4.68-29.35-7.6-41.29-2.93-11.95-6.24-21.82-10.17-29.06-8.4-15.43-20.06-28.5-33.11-39.43-19.58-16.39-42.29-27.99-62.11-35.53-9.91-3.77-19.1-6.53-26.84-8.35-3.87-.91-7.38-1.59-10.44-2.04-3.07-.45-5.69-.68-7.85-.68-2.88,0-6.59,.41-11.06,1.21-7.82,1.41-17.92,4.05-29.18,8.06-16.89,6.01-36.36,15.09-54.41,27.71-18.04,12.62-34.68,28.8-45.7,49.05-3.93,7.24-7.24,17.11-10.17,29.06-5.11,20.89-8.97,48.1-11.92,77.8-8.83,89.07-9.4,200.54-9.4,227.95,0,4.08,.01,6.29,.01,6.3l3-.02-2.97-.39c-.01,.1-.14,1.12-.14,2.7,0,.04,0,.11,0,.21l3-.06h-3v.04h0c.01,1.5,.14,3.47,.61,5.64,.36,1.63,.9,3.37,1.76,5.09,1.28,2.58,3.31,5.13,6.31,6.97,3,1.85,6.89,2.94,11.71,2.93H330.04c4.27,0,7.81-.85,10.65-2.33,2.13-1.11,3.85-2.57,5.17-4.18,1.99-2.42,3.11-5.12,3.75-7.61,.64-2.49,.81-4.78,.82-6.47v-.28h0s-3,0-3,0h-3v.23c0,1.19-.12,2.77-.48,4.41-.27,1.23-.68,2.5-1.28,3.67-.9,1.77-2.16,3.33-4.09,4.52-1.93,1.18-4.62,2.03-8.55,2.03-9.97,0-47.85,0-83.25,0-17.7,0-34.77,0-47.42,0-6.32,0-11.54,0-15.18,0-3.64,0-5.69,0-5.69,0,0,0-131.6,0-151.54,0-3.5,0-6.02-.68-7.89-1.66-1.4-.74-2.47-1.65-3.32-2.69-1.28-1.55-2.09-3.43-2.56-5.3-.48-1.86-.61-3.7-.62-5.03h0s0-.02,0-.02v-.03s0-.1,0-.1c0-.62,.03-1.13,.05-1.46,.01-.17,.02-.29,.03-.37v-.08s0,0,0,0l.03-.2v-.21s0-.55,0-1.61,0-2.63,0-4.66c0-20.82,.33-90.43,4.38-161.62,2.02-35.59,4.98-71.58,9.28-102.01,2.15-15.21,4.63-29.04,7.48-40.7,2.85-11.66,6.09-21.16,9.61-27.62,7.95-14.63,19.09-27.15,31.69-37.69,18.89-15.82,41.06-27.17,60.39-34.53,9.67-3.68,18.62-6.36,26.08-8.11,3.73-.88,7.08-1.52,9.95-1.94,2.86-.42,5.25-.62,6.98-.62,2.31,0,5.77,.35,10,1.12,7.42,1.33,17.26,3.9,28.23,7.81,16.46,5.86,35.5,14.74,52.99,26.97,17.5,12.23,33.43,27.81,43.87,47,3.52,6.46,6.77,15.96,9.61,27.62,5,20.41,8.84,47.43,11.77,76.97,8.79,88.64,9.37,200.05,9.37,227.36,0,2.03,0,3.6,0,4.66,0,1.06,0,1.6,0,1.61v.2s.02,.2,.02,.2l1.33-.17-1.33,.16h0s1.33-.16,1.33-.16l-1.33,.16s.09,.75,.09,1.9h0s3,0,3,0Z"/>
      </g>
      <g id="moves">
        <rect class="cls-3" x="200.96" y="365.11" width="14.25" height="14.25"/>
        <polygon class="cls-1" points="215.21 365.11 214.71 365.11 214.71 378.86 201.46 378.86 201.46 365.61 215.21 365.61 215.21 365.11 214.71 365.11 215.21 365.11 215.21 364.61 200.46 364.61 200.46 379.86 215.71 379.86 215.71 364.61 215.21 364.61 215.21 365.11"/>
        <rect class="cls-3" x="215.21" y="379.36" width="14.25" height="14.25"/>
        <polygon class="cls-1" points="229.46 379.36 228.96 379.36 228.96 393.11 215.71 393.11 215.71 379.86 229.46 379.86 229.46 379.36 228.96 379.36 229.46 379.36 229.46 378.86 214.71 378.86 214.71 394.11 229.96 394.11 229.96 378.86 229.46 378.86 229.46 379.36"/>
        <rect class="cls-3" x="134.53" y="379.36" width="14.25" height="14.25"/>
        <polygon class="cls-1" points="134.53 379.36 134.53 379.86 148.28 379.86 148.28 393.11 135.03 393.11 135.03 379.36 134.53 379.36 134.53 379.86 134.53 379.36 134.03 379.36 134.03 394.11 149.28 394.11 149.28 378.86 134.03 378.86 134.03 379.36 134.53 379.36"/>
        <rect class="cls-3" x="148.78" y="365.11" width="14.25" height="14.25"/>
        <polygon class="cls-1" points="163.03 365.11 162.53 365.11 162.53 378.86 149.28 378.86 149.28 365.61 163.03 365.61 163.03 365.11 162.53 365.11 163.03 365.11 163.03 364.61 148.28 364.61 148.28 379.86 163.53 379.86 163.53 364.61 163.03 364.61 163.03 365.11"/>
        <polygon class="cls-3" points="200.96 350.36 200.96 365.11 186.54 365.11 186.54 415.18 197.78 415.18 182.53 441.6 167.28 415.18 177.44 415.18 177.44 365.11 163.03 365.11 163.03 350.36 100.12 350.36 100.12 341.27 163.03 341.27 163.03 333.28 129.96 300.21 121.91 308.26 114.02 278.8 143.49 286.69 136.39 293.78 169.79 327.18 177.44 327.18 177.44 263.67 186.54 263.67 186.54 327.18 194.19 327.18 227.42 293.95 219.64 286.16 249.11 278.27 241.21 307.74 233.86 300.38 200.96 333.28 200.96 341.27 263.7 341.27 263.7 350.36 200.96 350.36"/>
        <polygon class="cls-1" points="200.96 350.36 200.46 350.36 200.46 364.61 186.04 364.61 186.04 415.68 196.91 415.68 182.53 440.6 168.14 415.68 177.94 415.68 177.94 364.61 163.53 364.61 163.53 349.86 100.62 349.86 100.62 341.77 163.53 341.77 163.53 333.07 129.96 299.5 122.17 307.29 114.72 279.5 142.52 286.94 135.68 293.78 169.58 327.68 177.94 327.68 177.94 264.17 186.04 264.17 186.04 327.68 194.39 327.68 228.12 293.95 220.6 286.42 248.4 278.97 240.95 306.77 233.86 299.67 200.46 333.07 200.46 341.77 263.2 341.77 263.2 349.86 200.46 349.86 200.46 350.36 200.96 350.36 200.96 350.86 264.2 350.86 264.2 340.77 201.46 340.77 201.46 333.48 233.86 301.08 241.47 308.7 249.81 277.56 218.67 285.9 226.71 293.95 193.98 326.68 187.04 326.68 187.04 263.17 176.94 263.17 176.94 326.68 169.99 326.68 137.1 293.78 144.45 286.43 113.31 278.09 121.65 309.22 129.96 300.91 162.53 333.48 162.53 340.77 99.62 340.77 99.62 350.86 162.53 350.86 162.53 365.61 176.94 365.61 176.94 414.68 166.41 414.68 182.53 442.6 198.64 414.68 187.04 414.68 187.04 365.61 201.46 365.61 201.46 350.36 200.96 350.36 200.96 350.86 200.96 350.36"/>
      </g>
      <g id="title">
        <path class="cls-3" d="M206.71,201.35c0-7.44-1.35-18.93-3.38-27.72l-7.44,1.01c1.86,8.96,3.04,20.28,2.87,27.89l7.94-1.18Zm17.91-7.77c-1.35-6.08-4.9-15.38-8.62-22.48-.85,.17-1.86,.51-6.59,1.86,3.38,7.1,6.76,16.56,8.11,22.99l7.1-2.37Zm-2.03-23.66c4.23,5.07,8.96,12.17,11.15,16.9l6.08-3.21c-2.2-4.56-6.93-11.32-11.49-16.39l-5.75,2.7Zm-99.21-45.8h12.68v14.7h8.62v-14.7h14.03v-8.62h-14.03v-12.68h13.35v-8.62h-13.35v-10.65c2.03-.34,2.7-1.01,2.87-2.03l-11.49-.84v13.52h-12.17v8.62h12.17v12.68h-12.68v8.62Zm-14.53-57.46v67.94c0,23.15-.84,53.58-10.82,75.04,2.2,.84,6.42,3.38,8.11,4.9,10.65-22.14,12-55.77,12-80.11v-57.8h45.8v123.54c0,3.38-.84,3.38-7.77,3.38-3.38,0-8.11,0-13.01-.34,1.52,3.04,3.21,7.94,3.72,10.82,10.14,.17,17.24-.17,21.46-2.03,2.87-1.35,4.39-3.38,5.07-6.76l6.25,3.72c6.93-7.44,9.97-20.45,11.66-32.45l-8.28-2.2c-1.35,10.31-4.23,21.13-9.3,28.22V66.65H108.85Zm40.05,109.52h-16.9v-24.17h16.9v24.17Zm7.44-32.79h-31.6v51.72h7.27v-10.31h24.34v-41.41Zm38.2-41.58h40.56v12.17h-40.56v-12.17Zm40.56-8.28h-40.56v-11.83h40.56v11.83Zm21.46,39.55h-62.03v-10.48h51.04v-49.52h-31.27c1.86-3.72,3.55-7.94,4.9-10.99,1.86,0,3.04-.51,3.38-1.69l-13.52-3.38c-1.01,4.39-3.38,10.99-5.58,16.06h-19.44v88.9h57.97c-1.86,28.22-3.38,38.87-6.08,41.91-1.18,1.52-2.7,1.69-5.24,1.69-2.37,0-8.79-.17-15.89-.68,1.52,2.37,2.37,6.25,2.54,8.96,4.56,.34,8.96,.51,12.51,.51,6.08,0,10.65,0,14.37-4.22,4.06-4.56,6.08-17.41,7.94-53.41,.17-1.18,.17-2.2,.34-3.21l-5.58-.85-2.2,.17h-50.19v-10.65h62.03v-9.13Z"/>
        <path class="cls-1" d="M206.71,201.35h2.5c0-7.72-1.37-19.26-3.44-28.28l-.51-2.22-12.35,1.68,.54,2.62c1.71,8.2,2.84,18.59,2.84,25.89,0,.49,0,.97-.01,1.44l-.06,2.96,13-1.93v-2.15h-2.5l-.37-2.47-7.94,1.18,.37,2.47,2.5,.05c.01-.5,.02-1.01,.02-1.54,0-7.79-1.16-18.32-2.94-26.9l-2.45,.51,.34,2.48,7.44-1.01-.34-2.48-2.44,.56c1.98,8.56,3.32,20,3.32,27.16h2.5l-.37-2.47,.37,2.47Zm17.91-7.77l2.44-.54c-1.44-6.43-5.02-15.77-8.85-23.1l-.87-1.66-1.84,.37c-1.13,.23-2.06,.56-6.79,1.91l-2.84,.81,1.27,2.67c3.29,6.9,6.65,16.31,7.92,22.43l.58,2.74,11.9-3.97-.49-2.2-2.44,.54-.79-2.37-7.1,2.37,.79,2.37,2.45-.52c-1.43-6.73-4.83-16.25-8.3-23.54l-2.26,1.08,.69,2.4c4.73-1.35,5.83-1.71,6.39-1.81l-.49-2.45-2.21,1.16c3.61,6.87,7.13,16.12,8.39,21.86l2.44-.54-.79-2.37,.79,2.37Zm-2.03-23.66l-1.92,1.6c4.08,4.88,8.78,11.96,10.81,16.35l1.11,2.38,10.54-5.56-1.05-2.17c-2.38-4.92-7.16-11.71-11.89-16.98l-1.24-1.38-10.35,4.87,2.07,2.48,1.92-1.6,1.06,2.26,5.75-2.7-1.06-2.26-1.86,1.67c4.4,4.87,9.09,11.6,11.1,15.81l2.25-1.08-1.17-2.21-6.08,3.21,1.17,2.21,2.27-1.05c-2.37-5.07-7.13-12.19-11.5-17.45l-1.92,1.6,1.06,2.26-1.06-2.26Zm-99.21-45.8v2.5h10.18v14.7h13.62v-14.7h14.03v-13.62h-14.03v-7.68h13.35v-13.62h-13.35v-8.15s-2.5,0-2.5,0l.41,2.47c1.23-.21,2.28-.52,3.24-1.24,.97-.7,1.57-1.91,1.69-2.85l.45-2.7-16.91-1.24v13.71h-12.17v13.62h12.17v7.68h-12.68v13.62h2.5v-2.5h2.5v-6.12h12.68s0-17.67,0-17.67h-12.17v-3.62h12.17s0-13.33,0-13.33l8.81,.65,.18-2.49-2.47-.41,.37,.06-.32-.18-.05,.12,.37,.06-.32-.18,.6,.34-.47-.5-.13,.17,.6,.34-.47-.5,.14,.15-.1-.17-.03,.03,.14,.15-.1-.17s-.36,.18-1.03,.29l-2.09,.35v15.27h13.35v3.62s-13.35,0-13.35,0v17.68h14.03v3.62h-14.03v14.7h-3.62s0-14.7,0-14.7h-15.18v2.5h0Zm-14.53-57.46h-2.5v67.94c.03,23.07-.92,53.28-10.58,73.99l-1.13,2.42,2.5,.96c1.72,.62,6.1,3.26,7.34,4.43l2.48,2.23,1.45-3.01c10.98-22.93,12.21-56.74,12.25-81.19v-55.3h40.8v121.04c0,.37-.01,.66-.03,.83-.02,.16-.04,.21-.04,.21l.75,.26-.43-.64c-.14,.07-.33,.37-.32,.39l.75,.26-.43-.64,.16,.24-.11-.27-.05,.03,.16,.24-.11-.27c-.13,.14-2.13,.29-5.57,.25-3.38,0-8.05,0-12.84-.33l-4.36-.3,1.95,3.91c1.39,2.74,3.07,7.66,3.49,10.13l.36,2.03,2.06,.04c1.49,.02,2.91,.04,4.27,.04,8.02-.02,13.91-.41,18.24-2.28h.03s.03-.03,.03-.03c3.5-1.54,5.77-4.64,6.46-8.53l-2.45-.49-1.28,2.15,7.99,4.75,1.37-1.47c7.62-8.28,10.55-21.65,12.31-33.8l.31-2.2-13.18-3.5-.37,2.82c-1.3,10.08-4.19,20.62-8.85,27.1l2.03,1.45h2.5V64.15H106.35v2.5h2.5v2.5h62.4V210.33s4.53-6.35,4.53-6.35c5.48-7.72,8.34-18.81,9.74-29.35l-2.48-.32-.64,2.42,8.28,2.2,.64-2.42-2.48-.35c-1.62,11.84-4.77,24.5-11.01,31.09l1.83,1.71,1.28-2.15-9.29-5.52-.69,3.46c-.67,2.87-1.43,3.83-3.68,4.99l1.06,2.26-1.01-2.29c-2.89,1.31-8.42,1.88-16.23,1.85-1.33,0-2.73-.01-4.19-.04l-.04,2.5,2.46-.44c-.6-3.28-2.29-8.16-3.94-11.5l-2.24,1.12-.17,2.49c5.01,.35,9.8,.34,13.19,.34,3.5-.04,5.39,.11,7.4-.59,1.02-.34,2.09-1.35,2.46-2.41,.39-1.05,.4-1.93,.41-2.87V74.12h-50.8v60.3c.03,24.22-1.43,57.68-11.75,79.02l2.25,1.08,1.67-1.86c-2.15-1.88-6.21-4.31-8.89-5.38l-.9,2.33,2.27,1.05c10.28-22.22,11.02-52.86,11.05-76.09V66.65h-2.5v0Zm40.05,109.52v-2.5h-14.4v-19.17h11.9s0,21.67,0,21.67h2.5v0h2.5v-26.67h-21.9v29.17h21.9v-2.5h-2.5Zm7.44-32.79v-2.5h-34.1v56.71h12.27v-10.31h24.34s0-46.4,0-46.4h-2.5v2.5h-2.5v38.91h-24.34v10.31h-2.27v-46.72h29.1s0-2.5,0-2.5h0Zm38.2-41.58v2.5h38.06v7.17h-35.56v-9.67h-2.5v0h-2.5v14.67h45.56v-17.17h-45.56v2.5h2.5Zm40.56-8.28v-2.5h-38.06v-6.83h35.56v9.33h2.5v0h2.5v-14.33h-45.56v16.83h45.56v-2.5h-2.5Zm21.46,39.55v-2.5h-59.53v-5.48h51.04v-54.52h-33.77v2.5l2.24,1.12c1.92-3.85,3.63-8.12,4.95-11.09l-2.28-1.02v2.5c1.15,0,2.25-.13,3.34-.65,1.09-.49,2.11-1.59,2.44-2.85l.71-2.49-18.5-4.62-.57,2.48c-.95,4.12-3.29,10.69-5.44,15.62l2.29,.99v-2.5h-21.94v93.9h60.47v-2.5l-2.49-.16c-.93,14.08-1.77,23.77-2.71,30.21-.87,6.42-2.11,9.64-2.75,10.21l-.06,.06-.05,.06c-.32,.37-.38,.4-.8,.54-.42,.12-1.25,.19-2.46,.19-2.27,0-8.69-.17-15.71-.67l-4.98-.36,2.7,4.2c1.14,1.68,2.03,5.42,2.14,7.76l.14,2.17,2.18,.16c4.62,.34,9.06,.51,12.69,.51,3.04,0,5.85,.02,8.61-.59,2.75-.59,5.45-1.97,7.63-4.48,2.63-3.05,4.09-7.76,5.39-16.2,1.27-8.45,2.24-20.7,3.17-38.73l-2.5-.13,2.47,.35c.19-1.39,.2-2.42,.33-3.15l.42-2.5-8.37-1.27-2.39,.18h-47.6v-5.65h62.03v-14.13h-2.5v2.5h-2.5v6.63h-62.03v15.65h52.79l2.01-.15,5.3,.8,.38-2.47-2.47-.41c-.21,1.29-.2,2.29-.35,3.27l-.02,.11v.11c-.93,17.96-1.91,30.13-3.13,38.25-1.19,8.13-2.78,12.12-4.19,13.63-1.54,1.72-2.99,2.45-4.97,2.92-1.97,.45-4.48,.47-7.53,.47-3.47,0-7.82-.17-12.32-.5l-.18,2.49,2.5-.16c-.22-3.07-1.02-7.11-2.93-10.15l-2.1,1.35-.18,2.49c7.17,.51,13.61,.68,16.06,.68,1.32,0,2.52-.02,3.79-.36,1.27-.32,2.56-1.14,3.42-2.29l-1.97-1.54,1.87,1.66c2.06-2.47,2.93-6.1,3.96-12.82,.97-6.7,1.81-16.45,2.75-30.59l.17-2.66h-58.14V75.57h18.58s.65-1.51,.65-1.51c2.25-5.2,4.64-11.82,5.72-16.49l-2.44-.56-.61,2.43,13.52,3.38,.61-2.43-2.4-.69,.5,.14-.39-.34-.11,.2,.5,.14-.39-.34,.3,.26-.21-.34-.09,.08,.3,.26-.21-.34s-.39,.17-1.18,.16h-1.62l-.66,1.48c-1.38,3.11-3.06,7.29-4.85,10.88l-1.81,3.62h32.81v44.52h-51.04v15.48h64.53v-2.5h0Z"/>
      </g>
    </g>
  </g>
</svg>