<?xml version="1.0" encoding="UTF-8"?>
<svg id="Layer_2" data-name="Layer 2" xmlns="http://www.w3.org/2000/svg" xmlns:xlink="http://www.w3.org/1999/xlink" width="337" height="409" viewBox="0 0 350.43 450.68">
  <defs>
    <style>
      .cls-1 {
        fill: #2e1b10;
      }

      .cls-2 {
        fill: #3b2314;
      }

      .cls-3 {
        fill: url(#linear-gradient);
      }
    </style>
    <linearGradient id="linear-gradient" x1="-920.34" y1="-243.8" x2="-919.34" y2="-243.8" gradientTransform="translate(310967.06 -82149.28) scale(337.87 -337.87)" gradientUnits="userSpaceOnUse">
      <stop offset="0" stop-color="#fbcdab"/>
      <stop offset="1" stop-color="#fde4d9"/>
    </linearGradient>
  </defs>
  <g id="Phoenix">
    <g id="south_Phoenix_JAP" data-name="south Phoenix JAP">
      <g id="piece">
        <path class="cls-1" d="M174.83,450.68h156.83c20.63,0,17.88-20.37,17.88-20.37,0,0,1.65-282.83-32.19-343.65C283.51,25.83,196.29,1.2,174.83,1.2S66.15,25.83,32.31,86.65C-1.53,147.48,.12,430.3,.12,430.3c0,0-2.75,20.37,17.88,20.37H174.83Z"/>
        <path class="cls-3" d="M347.32,427.12s1.6-279.54-31.1-339.66C283.51,27.35,199.24,3,178.5,3S73.49,27.35,40.79,87.46C8.09,147.58,9.68,427.12,9.68,427.12c0,0-.13,.96-.12,2.46h0c.04,5.39,1.82,17.68,17.4,17.68H330.04c15.53,0,17.35-12.21,17.4-17.61v-.25c0-1.39-.12-2.27-.12-2.27Z"/>
        <path class="cls-2" d="M347.32,427.12l3,.02s.01-2.22,.01-6.3c0-20.88-.33-90.57-4.39-161.96-2.03-35.7-4.99-71.81-9.32-102.51-2.17-15.35-4.68-29.35-7.6-41.29-2.93-11.95-6.24-21.82-10.17-29.06-8.4-15.43-20.06-28.5-33.11-39.43-19.58-16.39-42.29-27.99-62.11-35.53-9.91-3.77-19.1-6.53-26.84-8.35-3.87-.91-7.38-1.59-10.44-2.04-3.07-.45-5.69-.68-7.85-.68-2.88,0-6.59,.41-11.06,1.21-7.82,1.41-17.92,4.05-29.18,8.06-16.89,6.01-36.36,15.09-54.41,27.71-18.04,12.62-34.68,28.8-45.7,49.05-3.93,7.24-7.24,17.11-10.17,29.06-5.11,20.89-8.97,48.1-11.92,77.8-8.83,89.07-9.4,200.54-9.4,227.95,0,4.08,.01,6.29,.01,6.3l3-.02-2.97-.39c-.01,.1-.14,1.12-.14,2.7v.18s0-.03,0-.03h0s0,.03,0,.03c.01,1.5,.14,3.48,.61,5.65,.36,1.63,.9,3.37,1.76,5.09,1.28,2.58,3.31,5.13,6.31,6.97,3,1.85,6.89,2.94,11.71,2.93H330.04c4.27,0,7.81-.85,10.65-2.33,2.13-1.11,3.85-2.57,5.17-4.18,1.99-2.42,3.11-5.12,3.75-7.61,.64-2.49,.81-4.78,.82-6.47v-.28h0c0-1.55-.13-2.56-.14-2.66l-2.98,.38,3,.02-3-.02-2.98,.38,1.33-.17-1.33,.16h0s1.33-.16,1.33-.16l-1.33,.16s.09,.75,.09,1.9v.22c0,1.19-.12,2.77-.48,4.41-.27,1.23-.68,2.5-1.28,3.67-.9,1.77-2.16,3.33-4.09,4.52-1.93,1.18-4.62,2.03-8.55,2.03-9.97,0-47.85,0-83.25,0-17.7,0-34.77,0-47.42,0-6.32,0-11.54,0-15.18,0-3.64,0-5.69,0-5.69,0,0,0-131.6,0-151.54,0-3.5,0-6.02-.68-7.89-1.66-1.4-.74-2.47-1.65-3.32-2.69-1.28-1.55-2.09-3.43-2.56-5.3-.48-1.86-.61-3.7-.62-5.03v.02s0-.01,0-.01v-.02h0s0-.14,0-.14c0-.62,.03-1.12,.05-1.46,.01-.17,.02-.29,.03-.37v-.08s0,0,0,0l.03-.2v-.21s0-.55,0-1.61,0-2.62,0-4.66c0-20.81,.33-90.43,4.38-161.61,2.02-35.59,4.98-71.58,9.28-102.01,2.15-15.21,4.63-29.04,7.48-40.7,2.85-11.66,6.09-21.16,9.61-27.62,7.95-14.63,19.09-27.15,31.69-37.69,18.89-15.82,41.06-27.17,60.39-34.53,9.66-3.68,18.62-6.36,26.08-8.11,3.73-.88,7.08-1.52,9.95-1.94,2.86-.42,5.25-.62,6.98-.62,2.31,0,5.77,.35,10,1.12,7.42,1.33,17.26,3.9,28.23,7.81,16.46,5.86,35.5,14.74,52.99,26.97,17.5,12.23,33.43,27.81,43.87,47,3.52,6.46,6.77,15.96,9.61,27.62,5,20.41,8.84,47.43,11.77,76.97,8.79,88.64,9.37,200.05,9.37,227.36,0,2.03,0,3.6,0,4.66,0,1.06,0,1.6,0,1.61v.2s.02,.2,.02,.2l2.98-.38Z"/>
      </g>
      <polygon id="movements" class="cls-1" points="200.96 350.36 200.96 358.35 243.08 400.47 236.64 406.9 194.85 365.11 186.54 365.11 186.54 427.97 177.44 427.97 177.44 365.11 169.13 365.11 126.9 407.34 120.47 400.91 163.03 358.34 163.03 350.36 100.12 350.36 100.12 341.27 163.03 341.27 163.03 333.29 120.47 290.72 126.9 284.29 169.79 327.18 177.44 327.18 177.44 263.67 186.54 263.67 186.54 327.18 194.19 327.18 236.64 284.73 243.08 291.16 200.96 333.28 200.96 341.27 263.7 341.27 263.7 350.36 200.96 350.36"/>
      <path id="title" class="cls-1" d="M140.96,62.93V195.6c0,11.83-3.72,15.72-20.62,15.72-.51-3.72-2.37-10.14-4.06-13.86,10.82,.51,10.82,0,10.82-2.03v-37.35h-8.62c-1.18,20.11-3.89,41.41-10.14,57.29-2.7-2.2-8.96-5.58-12.34-6.93,8.96-23.49,9.63-57.12,9.63-81.8V62.93h35.32Zm-21.63,63.72c0,4.9,0,10.31-.17,15.89h7.94v-24.84h-7.77v8.96Zm7.77-47.83h-7.77v24h7.77v-24Zm56.62-15.89V201.86c3.55-8.11,4.73-19.61,5.41-31.1l12.17,2.54c-.68,14.2-2.03,28.9-8.11,38.03l-9.97-5.75c-2.03,9.13-10.31,9.8-20.45,9.8-.34-3.89-2.2-10.65-4.23-14.54,4.06,.17,7.61,.17,9.13,.17,1.35,0,1.86-.51,1.86-2.2v-40.73h-8.96c-.85,20.28-3.38,42.42-9.63,58.14-2.7-2.03-9.13-4.9-12.84-6.08,8.62-21.29,9.13-52.73,9.13-76.22V62.93h36.51Zm-14.2,15.89h-8.45v24h8.45v-24Zm-8.45,63.72h8.45v-24.84h-8.45v24.84Zm97.01,2.54h-51.72v6.76h38.37l3.38-.17,8.45,.84-.51,4.56c-1.69,34.98-3.38,48.17-7.1,52.73-3.21,4.06-7.1,5.41-16.56,5.41-2.37,0-4.9,0-7.44-.17-.17-3.89-1.52-9.46-3.55-13.01,4.56,.34,8.45,.51,10.48,.51,1.86,0,3.04-.17,4.23-1.86,1.18-1.52,2.2-5.41,3.04-13.18l-4.73,1.86c-1.18-4.39-4.22-11.32-7.1-16.39l8.11-3.04c1.52,2.54,3.21,5.41,4.56,8.28,.17-3.38,.51-7.27,.68-11.83h-51.04V71.55h19.44c1.52-5.24,2.7-11.15,3.38-15.72l21.97,4.06c-.51,1.35-1.86,2.03-4.22,2.2-.85,2.87-2.03,6.08-3.38,9.46h22.31v53.24h-42.76v6.25h51.72v14.03Zm-53.41,58.98c.17-7.44-.68-18.76-2.37-27.55l9.46-1.52c1.86,8.79,2.87,20.11,2.87,27.38l-9.97,1.69Zm27.72-118.81h-26.03v6.93h26.03v-6.93Zm-26.03,25.86h26.03v-6.93h-26.03v6.93Zm14.2,86.7c-.51-6.08-2.87-15.38-5.41-22.48l8.96-2.03c2.7,6.93,5.07,16.06,5.92,21.97l-9.46,2.54Z"/>
    </g>
  </g>
</svg>