<?xml version="1.0" encoding="UTF-8"?>
<svg id="Layer_2" data-name="Layer 2" xmlns="http://www.w3.org/2000/svg" xmlns:xlink="http://www.w3.org/1999/xlink" width="337" height="409" viewBox="0 0 350.43 450.68">
  <defs>
    <style>
      .cls-1 {
        fill: #2e1b10;
      }

      .cls-2 {
        fill: #3b2314;
      }

      .cls-3 {
        fill: url(#linear-gradient);
      }
    </style>
    <linearGradient id="linear-gradient" x1="-5352.34" y1="-233.8" x2="-5351.34" y2="-233.8" gradientTransform="translate(1808413.26 -78770.53) scale(337.87 -337.87)" gradientUnits="userSpaceOnUse">
      <stop offset="0" stop-color="#fbcdab"/>
      <stop offset="1" stop-color="#fde4d9"/>
    </linearGradient>
  </defs>
  <g id="Quail_left_" data-name="Quail (left)">
    <g id="south_Quail_left_JAP" data-name="south Quail (left) JAP">
      <g id="piece">
        <path class="cls-1" d="M174.83,450.68h156.83c20.63,0,17.88-20.37,17.88-20.37,0,0,1.65-282.83-32.19-343.65C283.51,25.83,196.29,1.2,174.83,1.2S66.15,25.83,32.31,86.65C-1.53,147.48,.12,430.3,.12,430.3c0,0-2.75,20.37,17.88,20.37H174.83Z"/>
        <path class="cls-3" d="M347.43,429.39c0-1.39-.12-2.27-.12-2.27,0,0,1.6-279.54-31.1-339.66C283.51,27.35,199.24,3,178.5,3S73.49,27.35,40.79,87.46C8.09,147.58,9.68,427.12,9.68,427.12c0,0-.13,.96-.12,2.46h0c.04,5.39,1.82,17.68,17.4,17.68H330.04c15.53,0,17.35-12.21,17.4-17.61v-.26Z"/>
        <path class="cls-2" d="M347.43,429.39h3c0-1.55-.13-2.55-.14-2.65l-2.98,.38,3,.02s.01-2.22,.01-6.29c0-20.88-.33-90.57-4.39-161.95-2.03-35.7-4.99-71.81-9.32-102.51-2.17-15.35-4.68-29.35-7.6-41.29-2.93-11.95-6.24-21.82-10.17-29.06-8.4-15.43-20.06-28.5-33.11-39.43-19.58-16.39-42.29-27.99-62.11-35.53-9.91-3.77-19.1-6.53-26.84-8.35-3.87-.91-7.38-1.59-10.44-2.04-3.07-.45-5.69-.68-7.85-.68-2.88,0-6.59,.41-11.06,1.21-7.82,1.41-17.92,4.05-29.18,8.06-16.89,6.01-36.36,15.09-54.41,27.71-18.04,12.62-34.68,28.8-45.7,49.05-3.93,7.24-7.24,17.11-10.17,29.06-5.11,20.89-8.97,48.1-11.92,77.8-8.83,89.07-9.4,200.54-9.4,227.95,0,4.08,.01,6.29,.01,6.3l3-.02-2.97-.39c-.01,.1-.14,1.12-.14,2.7,0,.03,0,.11,0,.24l3-.08h-3v.03c.01,1.5,.14,3.48,.61,5.65,.36,1.63,.9,3.37,1.76,5.09,1.28,2.58,3.31,5.13,6.31,6.97,3,1.85,6.89,2.94,11.71,2.93H330.04c4.27,0,7.81-.85,10.65-2.33,2.13-1.11,3.85-2.57,5.17-4.18,1.99-2.42,3.11-5.12,3.75-7.61,.64-2.49,.8-4.78,.82-6.47v-.28h0s-3,0-3,0h-3v.23c0,1.19-.12,2.77-.48,4.41-.27,1.23-.68,2.5-1.28,3.67-.9,1.77-2.16,3.33-4.09,4.52-1.93,1.18-4.62,2.03-8.55,2.03-9.97,0-47.85,0-83.25,0-17.7,0-34.77,0-47.42,0-6.32,0-11.54,0-15.18,0-3.64,0-5.69,0-5.69,0,0,0-131.6,0-151.54,0-3.5,0-6.02-.68-7.89-1.66-1.4-.74-2.47-1.65-3.32-2.69-1.28-1.55-2.09-3.43-2.56-5.3-.48-1.86-.61-3.7-.62-5.03v.02h0v-.1s-.42,.01-.42,.01h.42s-.42,0-.42,0h.42v-.09c0-.62,.03-1.12,.05-1.46,.01-.17,.02-.29,.03-.37v-.08s0,0,0,0l.03-.2v-.21s0-.55,0-1.61c0-1.06,0-2.62,0-4.66,0-20.81,.33-90.43,4.38-161.62,2.02-35.59,4.98-71.58,9.28-102.01,2.15-15.21,4.63-29.04,7.48-40.7,2.85-11.66,6.09-21.16,9.61-27.62,7.95-14.63,19.09-27.15,31.69-37.69,18.89-15.82,41.06-27.17,60.39-34.53,9.67-3.68,18.62-6.36,26.08-8.11,3.73-.88,7.08-1.52,9.95-1.94,2.86-.42,5.25-.62,6.98-.62,2.31,0,5.77,.35,10,1.12,7.42,1.33,17.26,3.9,28.23,7.81,16.46,5.86,35.5,14.74,52.99,26.97,17.5,12.23,33.43,27.81,43.87,47,3.52,6.46,6.77,15.96,9.61,27.62,5,20.41,8.85,47.43,11.77,76.97,8.79,88.65,9.37,200.05,9.37,227.36,0,2.03,0,3.6,0,4.65s0,1.6,0,1.6v.2s.02,.2,.02,.2l1.33-.17-1.33,.16h0s1.33-.16,1.33-.16l-1.33,.16s.09,.75,.09,1.9h0s3,0,3,0Z"/>
      </g>
      <polygon id="moves" class="cls-1" points="220.4 405.37 227.75 398.01 194.85 365.11 169.13 365.11 126.9 407.34 120.47 400.91 163.03 358.34 163.03 327.18 177.44 327.18 177.44 276.88 166.3 276.88 181.55 250.46 196.8 276.88 186.54 276.88 186.54 327.18 200.96 327.18 200.96 358.35 234.19 391.58 241.97 383.79 249.87 413.26 220.4 405.37"/>
      <path id="title" class="cls-1" d="M205.35,202.53c0-7.27-1.18-18.59-3.21-27.21-.34,0-.68,0-11.15,1.69,1.69,8.79,2.87,20.11,2.54,27.55l11.83-2.03Zm17.24-7.61c-.85-5.92-3.38-15.04-6.42-21.97l-9.97,2.54c2.54,7.1,5.07,16.39,5.75,22.48l10.65-3.04Zm-50.2-30.08l-26.2,1.69v-2.7c8.45-6.42,17.24-14.37,23.15-20.96,1.52-.17,2.87-.68,3.55-1.69l-13.18-8.45-2.7,1.01h-52.73v14.7h37.52c-2.37,2.37-4.9,4.56-7.27,6.59l-6.76-.34v12.84c-11.49,.68-21.8,1.35-30.08,1.69l4.73,19.1c1.35-.17,2.7-1.01,2.87-2.37,6.25-.51,14.03-1.01,22.48-1.86v12.34c0,2.2-.68,2.2-6.93,2.2-2.87,0-6.59-.17-10.31-.34,2.37,4.9,4.9,12,5.58,17.07,27.04,.51,30.08-5.24,30.08-18.59v-14.37l26.03-2.37,.17-15.21Zm-25.69-92.95v-11.49c3.04-.51,4.23-1.52,4.39-3.04l-23.15-1.35v15.89h-28.73v15.38h74.02v-15.38h-26.53Zm3.38,33.8v9.3h-26.53v-9.3h26.53Zm18.08-13.18h-61.52v35.83h61.52v-35.83Zm6.25,78.08c-1.52,12.51-4.9,25.52-11.49,33.46l13.52,7.77c7.61-9.13,10.65-23.66,12.34-37.35l-14.37-3.89Zm20.45-66.42h32.79v6.93h-32.79v-6.93Zm32.79-12h-32.79v-6.93h32.79v6.93Zm30.08,38.87h-62.87v-6.25h50.87v-53.24h-27.72c1.35-3.21,2.54-6.42,3.55-9.13,2.37,0,3.72-.68,4.23-2.2l-23.66-4.39c-.68,4.56-2.03,10.48-3.55,15.72h-21.97v94.81h61.35c-.34,7.1-.85,12.84-1.35,17.58-1.69-4.56-4.39-10.31-7.27-14.7l-9.29,3.38c3.21,5.58,6.42,13.01,7.77,17.92l8.45-3.21c-1.86,13.35-3.38,14.2-7.94,14.2-2.2,0-6.93,0-12.34-.68,2.2,3.89,3.72,9.97,4.06,14.54,30.42,.84,31.6,.84,34.81-57.97l.51-4.9-9.3-1.01-3.72,.34h-47.49v-6.76h62.87v-14.03Z"/>
    </g>
  </g>
</svg>