<?xml version="1.0" encoding="UTF-8"?>
<svg id="Layer_2" data-name="Layer 2" xmlns="http://www.w3.org/2000/svg" xmlns:xlink="http://www.w3.org/1999/xlink" width="337" height="409" viewBox="0 0 349.66 449.48">
  <defs>
    <style>
      .cls-1 {
        fill: #2e1b10;
      }

      .cls-2 {
        fill: url(#linear-gradient);
      }
    </style>
    <linearGradient id="linear-gradient" x1="-6229.34" y1="-232" x2="-6228.34" y2="-232" gradientTransform="translate(2104726.53 -78162.25) scale(337.87 -337.87)" gradientUnits="userSpaceOnUse">
      <stop offset="0" stop-color="#fbcdab"/>
      <stop offset="1" stop-color="#fde4d9"/>
    </linearGradient>
  </defs>
  <g id="Quail_right_" data-name="Quail (right)">
    <g id="south_Quail_right_JAP" data-name="south Quail (right) JAP">
      <g id="piece">
        <path class="cls-1" d="M174.83,449.48h156.83c20.63,0,17.88-20.37,17.88-20.37,0,0,1.65-282.83-32.19-343.65C283.51,24.63,196.29,0,174.83,0S66.15,24.63,32.31,85.46C-1.53,146.28,.12,429.11,.12,429.11c0,0-2.75,20.37,17.88,20.37H174.83Z"/>
        <path class="cls-2" d="M347.43,428.19c0-1.39-.12-2.27-.12-2.27,0,0,1.6-279.54-31.1-339.66C283.51,26.15,199.24,1.8,178.5,1.8S73.49,26.15,40.79,86.27C8.09,146.38,9.68,425.92,9.68,425.92c0,0-.13,.96-.12,2.46h0c.04,5.39,1.82,17.68,17.4,17.68H330.04c15.53,0,17.35-12.21,17.4-17.61v-.26Z"/>
      </g>
      <polygon id="moves" class="cls-1" points="243.08 399.27 236.64 405.7 194.85 363.91 169.13 363.91 136.23 396.82 144.34 404.93 114.88 412.82 122.77 383.36 129.79 390.38 163.03 357.14 163.03 325.98 177.44 325.98 177.44 275.68 166.3 275.68 181.55 249.26 196.8 275.68 186.54 275.68 186.54 325.98 200.96 325.98 200.96 357.15 243.08 399.27"/>
      <path id="title" class="cls-1" d="M205.35,201.34c0-7.27-1.18-18.59-3.21-27.21-.34,0-.68,0-11.15,1.69,1.69,8.79,2.87,20.11,2.54,27.55l11.83-2.03Zm17.24-7.61c-.85-5.92-3.38-15.04-6.42-21.97l-9.97,2.54c2.54,7.1,5.07,16.39,5.75,22.48l10.65-3.04Zm-50.2-30.08l-26.2,1.69v-2.7c8.45-6.42,17.24-14.37,23.15-20.96,1.52-.17,2.87-.68,3.55-1.69l-13.18-8.45-2.7,1.01h-52.73v14.7h37.52c-2.37,2.37-4.9,4.56-7.27,6.59l-6.76-.34v12.84c-11.49,.68-21.8,1.35-30.08,1.69l4.73,19.1c1.35-.17,2.7-1.01,2.87-2.37,6.25-.51,14.03-1.01,22.48-1.86v12.34c0,2.2-.68,2.2-6.93,2.2-2.87,0-6.59-.17-10.31-.34,2.37,4.9,4.9,12,5.58,17.07,27.04,.51,30.08-5.24,30.08-18.59v-14.37l26.03-2.37,.17-15.21Zm-25.69-92.95v-11.49c3.04-.51,4.23-1.52,4.39-3.04l-23.15-1.35v15.89h-28.73v15.38h74.02v-15.38h-26.53Zm3.38,33.8v9.3h-26.53v-9.3h26.53Zm18.08-13.18h-61.52v35.83h61.52v-35.83Zm6.25,78.08c-1.52,12.51-4.9,25.52-11.49,33.46l13.52,7.77c7.61-9.13,10.65-23.66,12.34-37.35l-14.37-3.89Zm20.45-66.42h32.79v6.93h-32.79v-6.93Zm32.79-12h-32.79v-6.93h32.79v6.93Zm30.08,38.87h-62.87v-6.25h50.87v-53.24h-27.72c1.35-3.21,2.54-6.42,3.55-9.13,2.37,0,3.72-.68,4.23-2.2l-23.66-4.39c-.68,4.56-2.03,10.48-3.55,15.72h-21.97v94.81h61.35c-.34,7.1-.85,12.84-1.35,17.58-1.69-4.56-4.39-10.31-7.27-14.7l-9.29,3.38c3.21,5.58,6.42,13.01,7.77,17.92l8.45-3.21c-1.86,13.35-3.38,14.2-7.94,14.2-2.2,0-6.93,0-12.34-.68,2.2,3.89,3.72,9.97,4.06,14.54,30.42,.84,31.6,.84,34.81-57.97l.51-4.9-9.3-1.01-3.72,.34h-47.49v-6.76h62.87v-14.03Z"/>
    </g>
  </g>
</svg>