<?xml version="1.0" encoding="UTF-8"?>
<svg id="Layer_2" data-name="Layer 2" xmlns="http://www.w3.org/2000/svg" xmlns:xlink="http://www.w3.org/1999/xlink" width="337" height="409" viewBox="0 0 350.43 450.68">
  <defs>
    <style>
      .cls-1 {
        fill: #2e1b10;
      }

      .cls-2 {
        fill: #3b2314;
      }

      .cls-3 {
        fill: url(#linear-gradient);
      }
    </style>
    <linearGradient id="linear-gradient" x1="-7127.34" y1="-230.8" x2="-7126.34" y2="-230.8" gradientTransform="translate(2408135.1 -77756.92) scale(337.87 -337.87)" gradientUnits="userSpaceOnUse">
      <stop offset="0" stop-color="#fbcdab"/>
      <stop offset="1" stop-color="#fde4d9"/>
    </linearGradient>
  </defs>
  <g id="Swallow">
    <g id="south_Swallow_JAP" data-name="south Swallow JAP">
      <g id="piece">
        <path class="cls-1" d="M174.83,450.68h156.83c20.63,0,17.88-20.37,17.88-20.37,0,0,1.65-282.83-32.19-343.65C283.51,25.83,196.29,1.2,174.83,1.2S66.15,25.83,32.31,86.65C-1.53,147.48,.12,430.3,.12,430.3c0,0-2.75,20.37,17.88,20.37H174.83Z"/>
        <path class="cls-3" d="M347.43,429.39c0-1.39-.12-2.27-.12-2.27,0,0,1.6-279.54-31.1-339.66C283.51,27.35,199.24,3,178.5,3S73.49,27.35,40.79,87.46C8.09,147.58,9.68,427.12,9.68,427.12c0,0-.13,.96-.12,2.46h0c.04,5.39,1.82,17.68,17.4,17.68H330.04c15.53,0,17.35-12.21,17.4-17.61v-.26Z"/>
        <path class="cls-2" d="M347.43,429.39h3c0-1.55-.13-2.55-.14-2.65l-2.98,.38,3,.02s.01-2.22,.01-6.29c0-20.88-.33-90.57-4.39-161.95-2.03-35.7-4.99-71.81-9.32-102.51-2.17-15.35-4.68-29.35-7.6-41.29-2.93-11.95-6.24-21.82-10.17-29.06-8.4-15.43-20.06-28.5-33.11-39.43-19.58-16.39-42.29-27.99-62.11-35.53-9.91-3.77-19.1-6.53-26.84-8.35-3.87-.91-7.38-1.59-10.44-2.04-3.07-.45-5.69-.68-7.85-.68-2.88,0-6.59,.41-11.06,1.21-7.82,1.41-17.92,4.05-29.18,8.06-16.89,6.01-36.36,15.09-54.41,27.71-18.04,12.62-34.68,28.8-45.7,49.05-3.93,7.24-7.24,17.11-10.17,29.06-5.11,20.89-8.97,48.1-11.92,77.8-8.83,89.07-9.4,200.54-9.4,227.95,0,4.08,.01,6.29,.01,6.3l3-.02-2.97-.39c-.01,.1-.14,1.12-.14,2.7,0,.03,0,.11,0,.24l3-.08h-3v.03c.01,1.5,.14,3.48,.61,5.65,.36,1.63,.9,3.37,1.76,5.09,1.28,2.58,3.31,5.13,6.31,6.97,3,1.85,6.89,2.94,11.71,2.93H330.04c4.27,0,7.81-.85,10.65-2.33,2.13-1.11,3.85-2.57,5.17-4.18,1.99-2.42,3.11-5.12,3.75-7.61,.64-2.49,.8-4.78,.82-6.47v-.28h0s-3,0-3,0h-3v.23c0,1.19-.12,2.77-.48,4.41-.27,1.23-.68,2.5-1.28,3.67-.9,1.77-2.16,3.33-4.09,4.52-1.93,1.18-4.62,2.03-8.55,2.03-9.97,0-47.85,0-83.25,0-17.7,0-34.77,0-47.42,0-6.32,0-11.54,0-15.18,0-3.64,0-5.69,0-5.69,0,0,0-131.6,0-151.54,0-3.5,0-6.02-.68-7.89-1.66-1.4-.74-2.47-1.65-3.32-2.69-1.28-1.55-2.09-3.43-2.56-5.3-.48-1.86-.61-3.7-.62-5.03v.02h0v-.1s-.42,.01-.42,.01h.42s-.42,0-.42,0h.42v-.09c0-.62,.03-1.12,.05-1.46,.01-.17,.02-.29,.03-.37v-.08s0,0,0,0l.03-.2v-.21s0-.55,0-1.61c0-1.06,0-2.62,0-4.66,0-20.81,.33-90.43,4.38-161.62,2.02-35.59,4.98-71.58,9.28-102.01,2.15-15.21,4.63-29.04,7.48-40.7,2.85-11.66,6.09-21.16,9.61-27.62,7.95-14.63,19.09-27.15,31.69-37.69,18.89-15.82,41.06-27.17,60.39-34.53,9.67-3.68,18.62-6.36,26.08-8.11,3.73-.88,7.08-1.52,9.95-1.94,2.86-.42,5.25-.62,6.98-.62,2.31,0,5.77,.35,10,1.12,7.42,1.33,17.26,3.9,28.23,7.81,16.46,5.86,35.5,14.74,52.99,26.97,17.5,12.23,33.43,27.81,43.87,47,3.52,6.46,6.77,15.96,9.61,27.62,5,20.41,8.85,47.43,11.77,76.97,8.79,88.65,9.37,200.05,9.37,227.36,0,2.03,0,3.6,0,4.65s0,1.6,0,1.6v.2s.02,.2,.02,.2l1.33-.17-1.33,.16h0s1.33-.16,1.33-.16l-1.33,.16s.09,.75,.09,1.9h0s3,0,3,0Z"/>
      </g>
      <polygon id="moves" class="cls-1" points="200.96 327.18 200.96 365.11 163.03 365.11 163.03 327.18 177.44 327.18 177.44 263.63 186.54 263.63 186.54 327.18 200.96 327.18"/>
      <path id="title" class="cls-1" d="M172.57,210.65c-.17-8.11-2.2-21.63-4.39-31.94l-18.76,2.2c1.86,10.48,3.21,24.34,3.21,32.62l19.94-2.87Zm39.72-.84c-1.52-8.45-5.75-21.8-9.97-31.77l-19.1,3.21c3.89,10.48,7.77,24.17,8.79,32.45l20.28-3.89Zm-93.46-34.82c-3.72,12.34-11.15,25.52-18.76,32.62l19.44,7.94c8.28-8.96,15.21-22.82,19.1-35.83l-19.77-4.73Zm139.26,33.46c-4.39-9.46-13.86-23.83-21.63-34.31l-19.44,6.25c7.61,10.82,16.56,25.86,20.28,34.98l20.79-6.93Zm-25.69-54.42c-2.54,0-2.87-.51-2.87-5.41v-14.53c8.62-3.55,17.58-7.94,23.66-11.66,1.69,.34,3.21-.17,3.72-.68l-13.01-14.87c-3.89,3.21-8.96,6.93-14.37,10.31v-15.04c2.87-.51,4.06-1.52,4.23-3.04l-22.48-1.35v51.04c0,16.06,3.21,21.13,17.75,21.13h11.83c11.15,0,15.55-5.58,17.24-24.51-4.9-1.18-12.17-3.89-15.55-6.76-.51,13.18-1.01,15.38-3.72,15.38h-6.42Zm-45.97-21.8v18.59h-16.9v-18.59h16.9Zm17.41-14.7h-50.7v48h50.7v-48Zm-13.69-23.15h-25.86v-10.14h25.86v10.14Zm18.25-10.14h45.12v-16.56h-45.12v-7.6c2.87-.51,4.23-1.52,4.39-3.04l-22.65-1.18v11.83h-25.86v-7.6c2.87-.51,4.06-1.52,4.23-3.04l-21.8-1.18v11.83h-44.11v16.56h44.11v14.7l-21.13-1.18v11.32h-22.31v17.07h22.31v14.87c-9.97,2.7-19.27,5.07-26.37,6.76l8.11,18.93c1.18-.34,2.03-1.52,2.2-3.04,4.23-1.52,9.97-3.89,16.06-6.25v14.03h18.08V101.81c1.35-.17,2.37-.51,3.04-1.01v8.28h61.69v-24.84Z"/>
    </g>
  </g>
</svg>