<?xml version="1.0" encoding="UTF-8"?>
<svg id="Layer_2" data-name="Layer 2" xmlns="http://www.w3.org/2000/svg" xmlns:xlink="http://www.w3.org/1999/xlink" width="337" height="409" viewBox="0 0 337.98 409.43">
  <defs>
    <style>
      .cls-1 {
        clip-path: url(#clippath-1);
      }

      .cls-2 {
        fill: #2e1b10;
      }

      .cls-3 {
        clip-path: url(#clippath);
      }

      .cls-4, .cls-5 {
        fill: none;
      }

      .cls-6 {
        fill: url(#linear-gradient);
      }

      .cls-6, .cls-5 {
        stroke: #3b2314;
        stroke-miterlimit: 10;
        stroke-width: 6px;
      }
    </style>
    <clipPath id="clippath">
      <path id="Form_big" data-name="Form big" class="cls-5" d="M166.27,3.1H19.82C.54,3.1,3.11,21.39,3.11,21.39c0,0-1.54,253.78,30.06,308.36,31.6,54.58,113.05,76.68,133.09,76.68s101.49-22.1,133.09-76.68c31.6-54.58,30.06-308.36,30.06-308.36,0,0,2.57-18.28-16.7-18.28H166.27Z"/>
    </clipPath>
    <linearGradient id="linear-gradient" x1="-1.5" y1="211.29" x2="325.03" y2="211.29" gradientTransform="translate(4.5 -14.51)" gradientUnits="userSpaceOnUse">
      <stop offset="0" stop-color="#fbcdab"/>
      <stop offset="1" stop-color="#fde4d9"/>
    </linearGradient>
    <clipPath id="clippath-1">
      <polygon class="cls-4" points="202.3 23.39 250.42 71.51 250.42 139.57 202.3 187.69 134.24 187.69 86.12 139.57 86.12 71.51 134.24 23.39 202.3 23.39"/>
    </clipPath>
  </defs>
  <g id="International_north" data-name="International north">
    <g id="Blind_Dog_copy_4" data-name="Blind Dog copy 4">
      <path id="Shadow" class="cls-2" d="M169.02,0H17.45C-2.49,0,.17,18.5,.17,18.5c0,0-1.6,256.77,31.11,311.99,32.7,55.22,116.99,77.58,137.73,77.58s105.03-22.36,137.73-77.58c32.71-55.22,31.11-311.99,31.11-311.99,0,0,2.66-18.5-17.28-18.5H169.02Z"/>
      <g>
        <g class="cls-3">
          <rect id="Color_gradient" data-name="Color gradient" class="cls-6" x="3" y="-56.19" width="326.53" height="505.92"/>
        </g>
        <path id="Form_big-2" data-name="Form big" class="cls-5" d="M166.27,3.1H19.82C.54,3.1,3.11,21.39,3.11,21.39c0,0-1.54,253.78,30.06,308.36,31.6,54.58,113.05,76.68,133.09,76.68s101.49-22.1,133.09-76.68c31.6-54.58,30.06-308.36,30.06-308.36,0,0,2.57-18.28-16.7-18.28H166.27Z"/>
      </g>
      <g id="Pieces_copy_33" data-name="Pieces copy 33">
        <g id="Blind_Dog_copy_4-2" data-name="Blind Dog copy 4">
          <g id="BD_move_copy_4" data-name="BD move copy 4">
            <g id="Lines">
              <g class="cls-1">
                <g>
                  <rect class="cls-2" x="202.83" y="85.24" width="9.1" height="119.71" transform="translate(-41.86 189.12) rotate(-45)"/>
                  <rect class="cls-2" x="68.39" y="140.48" width="119.9" height="9.1" transform="translate(-64.96 133.21) rotate(-45)"/>
                  <rect class="cls-2" x="85.95" y="100.99" width="163.75" height="9.1"/>
                  <rect class="cls-2" x="163.28" y="23.36" width="9.1" height="82.18"/>
                </g>
              </g>
            </g>
            <rect class="cls-2" x="148.86" y="86.25" width="37.93" height="37.93"/>
          </g>
          <g>
            <path class="cls-2" d="M174.82,279.47c0-1.43,.25-4.81,.76-10.13,.51-5.32,1.27-12.61,2.29-21.88,.06-3.89,.75-9,2.06-15.33,.66-1.38,2.9-2.99,6.73-4.84,3.71-1.85,6.4-2.78,8.07-2.78-.6,0,2.42,.72,9.06,2.15,7.65,1.61,14.23,2.42,19.73,2.42,6.7,0,12.82-.96,18.38-2.87,.6-.3,1.38-.58,2.33-.85,.96-.27,2.12-.55,3.5-.85v.27c0,.36-.13,.79-.4,1.3-.27,.51-.4,.91-.4,1.21l-1.26,19.55c-.48,7.47-.85,15.02-1.12,22.64-.27,7.62-.4,15.38-.4,23.27,0,10.82,.27,19.1,.81,24.84,.66,7.89,1.15,13.65,1.48,17.26,.33,3.62,.49,5.19,.49,4.71,0,1.08-2.15,2.57-6.46,4.48-3.77,1.67-6.55,2.63-8.34,2.87-.3-2.75-.58-5.26-.85-7.53-.27-2.27-.52-4.3-.76-6.1-1.37,.54-3.14,1.18-5.29,1.93-2.15,.75-4.72,1.6-7.71,2.56-1.85,.6-4.78,1.46-8.79,2.6-4,1.13-9.18,2.57-15.51,4.3-1.08,.36-2.42,.72-4.04,1.08-1.61,.36-3.47,.75-5.56,1.17,.48-1.02,1-2.29,1.57-3.81,.57-1.52,1.24-3.3,2.02-5.34,2.27-6.16,3.41-12.64,3.41-19.46,0-5.86-.81-13.03-2.42-21.52-1.55-.66-3.62-.96-6.19-.9-1.37,.06-2.54,.04-3.5-.04-.96-.09-1.7-.2-2.24-.31-.96-4.25-1.43-9.59-1.43-16.05Zm14.98-5.38c0,.6,.04,1.33,.13,2.2,.09,.87,.19,1.87,.31,3,.12,1.2,.21,2.2,.27,3,.06,.81,.09,1.45,.09,1.93,0,1.25,.06,2.06,.18,2.42,.18,.6,.73,1.11,1.66,1.52,.93,.42,1.99,.63,3.18,.63,.96,0,3.26-.36,6.9-1.08,6.58-1.25,11.42-2.63,14.53-4.12,2.15-1.14,4.27-2.26,6.37-3.36,2.09-1.11,4.16-2.23,6.19-3.36,.12-2.87,.28-6.37,.49-10.49,.21-4.12,.46-9,.76-14.62,0-2.15,.1-4.81,.31-7.98,.21-3.17,.52-6.91,.94-11.21-7.47,2.45-15.66,3.68-24.57,3.68-4.48,0-9.06-.36-13.72-1.08-2.69,20.86-4.04,33.84-4.04,38.92Zm9.24,65.2c3.65-1.56,8.07-3.17,13.27-4.84,5.2-1.67,11.24-3.44,18.11-5.29-.42-5.8-.73-11.15-.94-16.05-.21-4.9-.31-9.39-.31-13.45,0-1.14,.04-3.32,.13-6.55,.09-3.23,.19-7.56,.31-13-9.45,5.86-18.11,9.98-26.01,12.38,.66,3.59,1.15,6.92,1.48,10,.33,3.08,.49,5.96,.49,8.65,0,11.48-2.18,20.86-6.55,28.16Z"/>
            <path class="cls-2" d="M87.92,313.73c0-3.47,.08-7.79,.22-12.96,.15-5.17,.37-11.25,.67-18.25,.3-7,.52-13.08,.67-18.25,.15-5.17,.22-9.49,.22-12.96,0-1.08-.01-2.42-.04-4.04-.03-1.61-.07-3.5-.13-5.65-.18-4.3-.27-7.5-.27-9.59,0-1.14,1.91-2.6,5.74-4.39,3.95-1.85,6.79-2.9,8.52-3.14,.84,.84,1.85,1.84,3.05,3,1.2,1.17,2.57,2.53,4.12,4.08,3.59,3.05,11.51,4.57,23.76,4.57h3.95v-1.52c0-1.26,.15-2.24,.45-2.96,.6-1.32,2.75-2.78,6.46-4.39,1.79-.78,3.39-1.41,4.8-1.88,1.41-.48,2.62-.78,3.63-.9,.42,.18,.63,.39,.63,.63,0-.42-.21,.03-.63,1.34-.12,.66-.48,6.73-1.08,18.2-.9,16.92-1.34,34.08-1.34,51.47,0,19.61,1.02,32.1,3.05,37.49,1.43,4,2.15,5.95,2.15,5.83,0,1.08-2.15,2.6-6.46,4.57-3.95,1.73-6.82,2.69-8.61,2.87-2.03-2.81-3.2-8.82-3.5-18.02-4.48,1.67-10.03,3.78-16.63,6.32-6.61,2.54-14.36,5.54-23.27,9.01-4.6,1.91-7.26,2.81-7.98,2.69-1.43-3.35-2.15-14.41-2.15-33.18Zm15.16-7.17c0,5.98,.15,11.63,.45,16.95,.3,5.32,.75,10.37,1.34,15.16,.66-.18,11.69-4.3,33.09-12.38-.48-8.43-.85-15.55-1.12-21.34-.27-5.8-.4-10.37-.4-13.72,0-1.74,.13-6.7,.4-14.89,.27-8.19,.64-19.61,1.12-34.26-2.51,.48-5.13,.85-7.85,1.12-2.72,.27-5.6,.4-8.65,.4-6.4,0-11.93-.6-16.59-1.79,0,3.59-.07,8.06-.22,13.41-.15,5.35-.37,11.64-.67,18.88-.3,7.23-.52,13.54-.67,18.92-.15,5.38-.22,9.89-.22,13.54Z"/>
          </g>
        </g>
      </g>
    </g>
  </g>
</svg>