<?xml version="1.0" encoding="UTF-8"?>
<svg id="Layer_2" data-name="Layer 2" xmlns="http://www.w3.org/2000/svg" xmlns:xlink="http://www.w3.org/1999/xlink" viewBox="0 0 337.98 409.43">
  <defs>
    <style>
      .cls-1 {
        clip-path: url(#clippath-1);
      }

      .cls-2 {
        fill: #2e1b10;
      }

      .cls-3 {
        clip-path: url(#clippath);
      }

      .cls-4, .cls-5 {
        fill: none;
      }

      .cls-6 {
        fill: url(#linear-gradient);
      }

      .cls-6, .cls-7, .cls-5 {
        stroke-miterlimit: 10;
      }

      .cls-6, .cls-5 {
        stroke: #3b2314;
        stroke-width: 6px;
      }

      .cls-7 {
        fill: #00aeb7;
        stroke: #007a72;
        stroke-width: 4px;
      }
    </style>
    <clipPath id="clippath">
      <path id="Form_big" data-name="Form big" class="cls-5" d="M166.27,3.1H19.82C.54,3.1,3.11,21.39,3.11,21.39c0,0-1.54,253.78,30.06,308.36,31.6,54.58,113.05,76.68,133.09,76.68s101.49-22.1,133.09-76.68c31.6-54.58,30.06-308.36,30.06-308.36,0,0,2.57-18.28-16.7-18.28H166.27Z"/>
    </clipPath>
    <linearGradient id="linear-gradient" x1="-1.5" y1="211.29" x2="325.03" y2="211.29" gradientTransform="translate(4.5 -14.51)" gradientUnits="userSpaceOnUse">
      <stop offset="0" stop-color="#fbcdab"/>
      <stop offset="1" stop-color="#fde4d9"/>
    </linearGradient>
    <clipPath id="clippath-1">
      <polygon class="cls-4" points="202.3 23.39 250.42 71.51 250.42 139.57 202.3 187.69 134.24 187.69 86.12 139.57 86.12 71.51 134.24 23.39 202.3 23.39"/>
    </clipPath>
  </defs>
  <g id="International_north" data-name="International north">
    <g id="Tenacious_Falcon_copy_3" data-name="Tenacious Falcon copy 3">
      <path id="Shadow" class="cls-2" d="M169.02,0H17.45C-2.49,0,.17,18.5,.17,18.5c0,0-1.6,256.77,31.11,311.99,32.7,55.22,116.99,77.58,137.73,77.58s105.03-22.36,137.73-77.58c32.71-55.22,31.11-311.99,31.11-311.99,0,0,2.66-18.5-17.28-18.5H169.02Z"/>
      <g>
        <g class="cls-3">
          <rect id="Color_gradient" data-name="Color gradient" class="cls-6" x="3" y="-56.19" width="326.53" height="505.92"/>
        </g>
        <path id="Form_big-2" data-name="Form big" class="cls-5" d="M166.27,3.1H19.82C.54,3.1,3.11,21.39,3.11,21.39c0,0-1.54,253.78,30.06,308.36,31.6,54.58,113.05,76.68,133.09,76.68s101.49-22.1,133.09-76.68c31.6-54.58,30.06-308.36,30.06-308.36,0,0,2.57-18.28-16.7-18.28H166.27Z"/>
      </g>
      <g id="Pieces_copy_33" data-name="Pieces copy 33">
        <g id="Tenacious_Falcon_copy_15" data-name="Tenacious Falcon copy 15">
          <g id="FALCON_move_copy_15" data-name="FALCON move copy 15">
            <g id="Lines">
              <g class="cls-1">
                <g>
                  <rect class="cls-7" x="163.28" y="-10.24" width="9.1" height="231.58" transform="translate(-25.47 149.6) rotate(-45)"/>
                  <rect class="cls-7" x="52.04" y="101" width="231.58" height="9.1" transform="translate(-25.48 149.57) rotate(-45)"/>
                  <rect class="cls-7" x="85.95" y="100.99" width="163.75" height="9.1"/>
                  <rect class="cls-7" x="163.28" y="23.36" width="9.1" height="164.36"/>
                </g>
              </g>
            </g>
            <g id="Arrows_copy_34" data-name="Arrows copy 34">
              <polygon class="cls-7" points="227.9 143.09 235.8 172.56 206.33 164.67 227.9 143.09"/>
              <polygon class="cls-7" points="205.47 45.23 234.94 37.34 227.05 66.8 205.47 45.23"/>
              <polygon class="cls-7" points="152.03 36.18 167.29 9.76 182.54 36.18 152.03 36.18"/>
              <polygon class="cls-7" points="107.84 67.57 99.95 38.1 129.42 45.99 107.84 67.57"/>
              <polygon class="cls-7" points="130.18 165.2 100.71 173.09 108.61 143.62 130.18 165.2"/>
              <polygon class="cls-7" points="183.52 174.48 168.27 200.9 153.01 174.48 183.52 174.48"/>
            </g>
            <rect id="Center" class="cls-7" x="148.86" y="86.25" width="37.93" height="37.93"/>
          </g>
          <g>
            <path class="cls-7" d="M165.81,344.94c.84-1.14,2.36-2.24,4.57-3.32,3.89-2.27,8.37-3.71,13.45-4.3,2.51-.3,4.99-.55,7.44-.76,2.45-.21,4.93-.43,7.44-.67-.42-4.12-.73-8.16-.94-12.11-.21-3.95-.31-7.8-.31-11.57,0-10.04,.72-22.18,2.15-36.41,.6-6.1,1.2-12.17,1.79-18.2,.6-6.04,1.23-12.11,1.88-18.2,0-1.85,.36-4.43,1.08-7.71,.72-1.25,2.84-2.72,6.37-4.39,3.53-1.67,6.31-2.6,8.34-2.78,0,.18-.99,8.7-2.96,25.56-2.33,19.97-3.5,38.29-3.5,54.97,0,10.76,.45,20.5,1.35,29.23,12.85-1.25,22.51-1.88,28.97-1.88,1.25,0,2.15,.12,2.69,.36-.48,1.49-2.9,3.08-7.26,4.75-3.59,1.31-6.82,2.21-9.69,2.69v-.09c-1.55,.06-3.51,.12-5.87,.18-2.36,.06-5.16,.15-8.38,.27-1.37,1.02-3.65,2.27-6.82,3.77-3.77,1.73-6.22,2.6-7.35,2.6-.66,0-.99-1.73-.99-5.2-2.75,.3-6.16,.64-10.22,1.03-4.07,.39-8.82,.88-14.26,1.48-2.03,.24-4.99,.6-8.88,1.08l-.09-.36Z"/>
            <path class="cls-7" d="M99.09,346.82c.18-.3,.69-.81,1.52-1.53,2.81-2.57,4.63-4.81,5.47-6.73,.72-1.91,1.08-4.6,1.08-8.07s.63-6.22,1.88-7.89c1.2-1.79,3.44-3.35,6.73-4.66,3.23-1.38,6.04-2.27,8.43-2.69-.3,11-3.62,19.22-9.95,24.66,3.23-.66,7.23-1.5,12.02-2.51,4.78-1.02,10.4-2.27,16.86-3.77-.66-9.87-1.15-18.55-1.48-26.05-.33-7.5-.49-13.91-.49-19.24-10.46,2.21-23.32,3.32-38.56,3.32l-.18-.27c.66-1.08,2.84-2.57,6.55-4.48,3.59-1.79,6.22-2.69,7.89-2.69,3.23,0,6.86-.13,10.9-.4,4.04-.27,8.56-.64,13.59-1.12,.66-32.82,1.5-49.98,2.51-51.47,1.08-1.5,3.29-3.02,6.64-4.57,3.35-1.43,6.22-2.15,8.61-2.15-1.43,6.34-2.15,12.97-2.15,19.91,0,4.24-.09,10.73-.27,19.46-.12,4.36-.21,8.16-.27,11.39-.06,3.23-.09,5.89-.09,7.98,0,4.12,.45,16.38,1.35,36.77,0,1.55,.13,3.5,.4,5.83,.27,2.33,.64,5.02,1.12,8.07,1.38,4.42,2.06,6.37,2.06,5.83,0,1.08-2.15,2.57-6.46,4.48-3.77,1.61-6.58,2.51-8.43,2.69-1.67-2.21-2.63-5.47-2.87-9.77-13.81,5.08-27.59,8.34-41.34,9.77-.72-.18-1.73-.21-3.05-.09Z"/>
          </g>
        </g>
      </g>
    </g>
  </g>
</svg>