<?xml version="1.0" encoding="UTF-8"?>
<svg id="Layer_2" data-name="Layer 2" xmlns="http://www.w3.org/2000/svg" xmlns:xlink="http://www.w3.org/1999/xlink" width="337" height="409" viewBox="0 0 337.98 409.43">
  <defs>
    <style>
      .cls-1 {
        clip-path: url(#clippath-1);
      }

      .cls-2 {
        fill: #2e1b10;
      }

      .cls-3 {
        clip-path: url(#clippath);
      }

      .cls-4, .cls-5 {
        fill: none;
      }

      .cls-6 {
        fill: url(#linear-gradient);
      }

      .cls-6, .cls-5 {
        stroke: #3b2314;
        stroke-miterlimit: 10;
        stroke-width: 6px;
      }
    </style>
    <clipPath id="clippath">
      <path id="Form_big" data-name="Form big" class="cls-5" d="M166.27,3.1H19.82C.54,3.1,3.11,21.39,3.11,21.39c0,0-1.54,253.78,30.06,308.36,31.6,54.58,113.05,76.68,133.09,76.68s101.49-22.1,133.09-76.68c31.6-54.58,30.06-308.36,30.06-308.36,0,0,2.57-18.28-16.7-18.28H166.27Z"/>
    </clipPath>
    <linearGradient id="linear-gradient" x1="-1.5" y1="211.29" x2="325.03" y2="211.29" gradientTransform="translate(4.5 -14.51)" gradientUnits="userSpaceOnUse">
      <stop offset="0" stop-color="#fbcdab"/>
      <stop offset="1" stop-color="#fde4d9"/>
    </linearGradient>
    <clipPath id="clippath-1">
      <polygon class="cls-4" points="202.3 23.39 250.42 71.51 250.42 139.57 202.3 187.69 134.24 187.69 86.12 139.57 86.12 71.51 134.24 23.39 202.3 23.39"/>
    </clipPath>
  </defs>
  <g id="International_north" data-name="International north">
    <g id="Flying_Cock_copy_3" data-name="Flying Cock copy 3">
      <path id="Shadow" class="cls-2" d="M169.02,0H17.45C-2.49,0,.17,18.5,.17,18.5c0,0-1.6,256.77,31.11,311.99,32.7,55.22,116.99,77.58,137.73,77.58s105.03-22.36,137.73-77.58c32.71-55.22,31.11-311.99,31.11-311.99,0,0,2.66-18.5-17.28-18.5H169.02Z"/>
      <g>
        <g class="cls-3">
          <rect id="Color_gradient" data-name="Color gradient" class="cls-6" x="3" y="-56.19" width="326.53" height="505.92"/>
        </g>
        <path id="Form_big-2" data-name="Form big" class="cls-5" d="M166.27,3.1H19.82C.54,3.1,3.11,21.39,3.11,21.39c0,0-1.54,253.78,30.06,308.36,31.6,54.58,113.05,76.68,133.09,76.68s101.49-22.1,133.09-76.68c31.6-54.58,30.06-308.36,30.06-308.36,0,0,2.57-18.28-16.7-18.28H166.27Z"/>
      </g>
      <g id="Pieces_copy_33" data-name="Pieces copy 33">
        <g id="Flying_Cock_copy_16" data-name="Flying Cock copy 16">
          <g id="FC_move_copy_16" data-name="FC move copy 16">
            <g id="Lines">
              <g class="cls-1">
                <g>
                  <rect class="cls-2" x="203.8" y="87.58" width="9.1" height="116.97" transform="translate(-42.26 190.12) rotate(-45)"/>
                  <rect class="cls-2" x="69.27" y="142.6" width="113.9" height="9.1" transform="translate(-67.08 132.34) rotate(-45)"/>
                  <rect class="cls-2" x="85.95" y="100.99" width="163.75" height="9.1"/>
                </g>
              </g>
            </g>
            <rect id="Center" class="cls-2" x="148.86" y="86.25" width="37.93" height="37.93"/>
          </g>
          <g>
            <path class="cls-2" d="M175.54,346.82c.18-.3,.69-.81,1.53-1.53,2.81-2.57,4.63-4.81,5.47-6.73,.72-1.91,1.08-4.6,1.08-8.07s.63-6.22,1.88-7.89c1.2-1.79,3.44-3.35,6.72-4.66,3.23-1.38,6.04-2.27,8.43-2.69-.3,11-3.62,19.22-9.95,24.66,3.23-.66,7.23-1.5,12.02-2.51,4.78-1.02,10.4-2.27,16.86-3.77-.66-9.87-1.15-18.55-1.48-26.05-.33-7.5-.49-13.92-.49-19.24-10.46,2.21-23.32,3.32-38.56,3.32l-.18-.27c.66-1.08,2.84-2.57,6.55-4.48,3.59-1.79,6.22-2.69,7.89-2.69,3.23,0,6.86-.13,10.9-.4,4.04-.27,8.56-.64,13.59-1.12,.66-32.82,1.5-49.98,2.51-51.47,1.08-1.5,3.29-3.02,6.64-4.57,3.35-1.43,6.22-2.15,8.61-2.15-1.43,6.34-2.15,12.97-2.15,19.91,0,4.24-.09,10.73-.27,19.46-.12,4.36-.21,8.16-.27,11.39-.06,3.23-.09,5.89-.09,7.98,0,4.12,.45,16.38,1.34,36.77,0,1.55,.13,3.5,.4,5.83,.27,2.33,.64,5.02,1.12,8.07,1.38,4.42,2.06,6.37,2.06,5.83,0,1.08-2.15,2.57-6.46,4.48-3.77,1.61-6.58,2.51-8.43,2.69-1.67-2.21-2.63-5.47-2.87-9.77-13.81,5.08-27.59,8.34-41.34,9.77-.72-.18-1.73-.21-3.05-.09Z"/>
            <path class="cls-2" d="M98.06,241.36c0-4.6,.6-7.86,1.79-9.78,.84-1.38,3.08-2.87,6.73-4.48,3.65-1.67,6.4-2.54,8.25-2.6,3.83,4.72,9.9,7.08,18.21,7.08,3.11,0,7.35-.54,12.73-1.61,5.14-3.41,9.59-5.23,13.36-5.47,.3,.18,.45,.39,.45,.63,0-.54-.15-.15-.45,1.17-.06,.6-.42,6.69-1.08,18.29-.48,9.27-.85,17.44-1.12,24.53-.27,7.08-.4,13.23-.4,18.43,0,12.25,.18,21.58,.54,27.98,.12,2.09,.39,4.65,.81,7.67,.42,3.02,.99,6.56,1.7,10.63,.72,1.85,1.43,3.83,2.15,5.92,0,1.02-2.09,2.45-6.28,4.3-3.95,1.73-6.73,2.69-8.34,2.87-1.49-.72-2.51-3.98-3.05-9.77-10.76,4-25.44,7.26-44.03,9.77l-.63-.27c0-.12,.51-.54,1.52-1.26,3.17-2.45,5.11-4.93,5.83-7.44,.3-1.14,.54-4.01,.72-8.61,0-2.57,.69-4.87,2.06-6.91,.96-1.38,3.29-2.84,7-4.39,1.02-.42,2.21-.87,3.59-1.34,1.38-.48,2.93-.96,4.66-1.43-.06,10.82-3.38,18.98-9.96,24.48,3.29-.6,7.32-1.41,12.11-2.42,4.78-1.02,10.34-2.24,16.68-3.68-.66-9.51-1.15-17.83-1.48-24.98-.33-7.14-.49-13.17-.49-18.07,0-8.55,.16-17.35,.49-26.41,.33-9.06,.82-18.52,1.48-28.38-11.36,2.15-19.94,3.23-25.74,3.23-1.49,0-3.11-.09-4.84-.27,.18,1.67,.99,5.14,2.42,10.4,1.02,4.36,1.52,7.89,1.52,10.58,0,1.02-2.12,2.48-6.37,4.39-3.7,1.55-6.52,2.57-8.43,3.05-.12-.24-.28-1-.49-2.29-.21-1.29-.46-3.06-.76-5.34-.06-.6-.24-1.63-.54-3.09-.3-1.47-.72-3.45-1.26-5.96-.72-3.77-1.08-6.82-1.08-9.15Z"/>
          </g>
        </g>
      </g>
    </g>
  </g>
</svg>