<?xml version="1.0" encoding="UTF-8"?>
<svg id="Layer_2" data-name="Layer 2" xmlns="http://www.w3.org/2000/svg" xmlns:xlink="http://www.w3.org/1999/xlink" viewBox="0 0 337.98 409.43">
  <defs>
    <style>
      .cls-1 {
        clip-path: url(#clippath-1);
      }

      .cls-2 {
        fill: #2e1b10;
      }

      .cls-3 {
        clip-path: url(#clippath);
      }

      .cls-4, .cls-5 {
        fill: none;
      }

      .cls-6 {
        fill: url(#linear-gradient);
      }

      .cls-6, .cls-7, .cls-5 {
        stroke-miterlimit: 10;
      }

      .cls-6, .cls-5 {
        stroke: #3b2314;
        stroke-width: 6px;
      }

      .cls-7 {
        fill: #00aeb7;
        stroke: #007a72;
        stroke-width: 4px;
      }
    </style>
    <clipPath id="clippath">
      <path id="Form_big" data-name="Form big" class="cls-5" d="M166.27,3.1H19.82C.54,3.1,3.11,21.39,3.11,21.39c0,0-1.54,253.78,30.06,308.36,31.6,54.58,113.05,76.68,133.09,76.68s101.49-22.1,133.09-76.68c31.6-54.58,30.06-308.36,30.06-308.36,0,0,2.57-18.28-16.7-18.28H166.27Z"/>
    </clipPath>
    <linearGradient id="linear-gradient" x1="-1.5" y1="211.29" x2="325.03" y2="211.29" gradientTransform="translate(4.5 -14.51)" gradientUnits="userSpaceOnUse">
      <stop offset="0" stop-color="#fbcdab"/>
      <stop offset="1" stop-color="#fde4d9"/>
    </linearGradient>
    <clipPath id="clippath-1">
      <polygon class="cls-4" points="202.3 23.39 250.42 71.51 250.42 139.57 202.3 187.69 134.24 187.69 86.12 139.57 86.12 71.51 134.24 23.39 202.3 23.39"/>
    </clipPath>
  </defs>
  <g id="International_north" data-name="International north">
    <g id="Gliding_Swallow_copy_3" data-name="Gliding Swallow copy 3">
      <path id="Shadow" class="cls-2" d="M169.02,0H17.45C-2.49,0,.17,18.5,.17,18.5c0,0-1.6,256.77,31.11,311.99,32.7,55.22,116.99,77.58,137.73,77.58s105.03-22.36,137.73-77.58c32.71-55.22,31.11-311.99,31.11-311.99,0,0,2.66-18.5-17.28-18.5H169.02Z"/>
      <g>
        <g class="cls-3">
          <rect id="Color_gradient" data-name="Color gradient" class="cls-6" x="3" y="-56.19" width="326.53" height="505.92"/>
        </g>
        <path id="Form_big-2" data-name="Form big" class="cls-5" d="M166.27,3.1H19.82C.54,3.1,3.11,21.39,3.11,21.39c0,0-1.54,253.78,30.06,308.36,31.6,54.58,113.05,76.68,133.09,76.68s101.49-22.1,133.09-76.68c31.6-54.58,30.06-308.36,30.06-308.36,0,0,2.57-18.28-16.7-18.28H166.27Z"/>
      </g>
      <g id="Pieces_copy_33" data-name="Pieces copy 33">
        <g id="Gliding_Swallow_copy_11" data-name="Gliding Swallow copy 11">
          <g id="GS_move_copy_11" data-name="GS move copy 11">
            <g id="Lines">
              <g class="cls-1">
                <g>
                  <rect class="cls-7" x="85.95" y="100.99" width="163.75" height="9.1"/>
                  <rect class="cls-7" x="163.28" y="23.36" width="9.1" height="164.36"/>
                </g>
              </g>
            </g>
            <g id="Arrows_copy_26" data-name="Arrows copy 26">
              <polygon class="cls-7" points="237.09 89.52 263.51 104.77 237.09 120.03 237.09 89.52"/>
              <polygon class="cls-7" points="152.03 36.18 167.29 9.76 182.54 36.18 152.03 36.18"/>
              <polygon class="cls-7" points="98.79 121.01 72.37 105.75 98.79 90.5 98.79 121.01"/>
              <polygon class="cls-7" points="183.52 174.48 168.27 200.9 153.01 174.48 183.52 174.48"/>
            </g>
            <rect id="Center" class="cls-7" x="148.86" y="86.25" width="37.93" height="37.93"/>
          </g>
          <g>
            <path class="cls-7" d="M174.01,269.07c.84-1.2,2.09-2.21,3.77-3.05-.3-3.47-.52-6.64-.67-9.51-.15-2.87-.22-5.44-.22-7.71,0-8.49,1.02-14.05,3.05-16.68,.9-1.38,2.99-2.9,6.28-4.57,1.67-.84,3.15-1.52,4.44-2.06,1.29-.54,2.41-.87,3.36-.99,.36,.12,1.37,1.08,3.05,2.87,3.29,3.29,8.61,4.93,15.96,4.93,2.87,0,7.14-.57,12.82-1.7,5.38-3.59,9.83-5.62,13.36-6.1,.06,.3,.09,.57,.09,.81v.54c0-.42-.07-.17-.22,.76-.15,.93-.37,2.53-.67,4.8-.06,1.55-.12,3.47-.18,5.74-.06,2.27-.15,4.93-.27,7.98-.72,18.17-1.08,30.7-1.08,37.58,0,2.45,.04,5.23,.13,8.34,.09,3.11,.19,6.58,.31,10.4,.3,5.2,.51,9.36,.63,12.46,.12,3.11,.21,5.23,.27,6.37-.06,3.11,.3,7.71,1.08,13.81,.24,.6,.55,1.36,.94,2.29,.39,.93,.91,2.05,1.57,3.36-.54,1.31-2.63,2.78-6.28,4.39-3.59,1.67-6.46,2.6-8.61,2.78-1.55-2.09-2.51-5.44-2.87-10.04-18.29,6.69-32.58,10.04-42.87,10.04-.54,0-1.04-.18-1.52-.54,.12-.12,.3-.3,.54-.54,.24-.24,.57-.54,.99-.9,4.19-3.59,6.28-8.07,6.28-13.45v-2.15c0-5.32,2.99-9.24,8.97-11.75,3.29-1.38,6.07-2.3,8.34-2.78-.24,11-3.56,19.25-9.95,24.75,3.23-.6,7.22-1.42,11.97-2.47,4.75-1.05,10.36-2.32,16.81-3.81-1.25-15.6-1.88-29.77-1.88-42.51,0-18.29,.63-36.35,1.88-54.16-11.54,2.15-19.76,3.23-24.66,3.23-1.2,0-2.39-.04-3.59-.13-1.2-.09-2.36-.25-3.5-.49v3.23c0,2.33,.27,5.8,.81,10.4,.24,2.33,.42,4.36,.54,6.1,.12,1.73,.18,3.17,.18,4.3,1.73,.6,4.07,1.34,7,2.24,2.93,.9,6.52,1.97,10.76,3.23-.9,1.14-3.08,2.6-6.55,4.39-3.47,1.85-5.98,2.78-7.53,2.78-1.13,0-8.82-2.27-23.05-6.82Z"/>
            <path class="cls-7" d="M93.93,257.14c0-13.81,1.26-22.45,3.77-25.92,.84-1.2,3.08-2.63,6.72-4.3,3.59-1.61,6.31-2.42,8.16-2.42,3.05,4.78,8.7,7.17,16.95,7.17,1.32,0,2.66-.04,4.04-.13,1.38-.09,2.81-.26,4.3-.49,.3-1.2,2.36-2.54,6.19-4.04,3.77-1.5,6.64-2.33,8.61-2.51,0,.6-.04,1.36-.13,2.29-.09,.93-.19,2.05-.31,3.36-.12,1.31-.22,2.45-.31,3.41-.09,.96-.13,1.76-.13,2.42,0,1.13,.33,2.87,.99,5.2,.66,2.33,.99,4.06,.99,5.2,0,.84-2.15,2.21-6.46,4.12-1.91,.78-3.57,1.4-4.98,1.88-1.4,.48-2.52,.78-3.36,.9-1.37-2.75-2.06-6.13-2.06-10.13,0-1.73,.18-4.04,.54-6.9-10.04,1.97-17.4,2.96-22.06,2.96-.96,0-1.9-.05-2.83-.13-.93-.09-1.87-.19-2.83-.31-.24,2.09-.4,4.23-.49,6.41-.09,2.18-.13,4.41-.13,6.68,0,2.87,.04,5.95,.13,9.24,.09,3.29,.25,6.82,.49,10.58,3.11,2.45,8.55,3.68,16.32,3.68,2.87,0,5.81-.09,8.83-.27,3.02-.18,6.14-.42,9.37-.72,3.53-1.56,6.49-2.57,8.88-3.05v.18c0,.66-.07,1.88-.22,3.68-.15,1.79-.37,4.18-.67,7.17-.42,4.13-.73,8.15-.94,12.06-.21,3.92-.31,7.76-.31,11.52,0,9.8,.51,17.16,1.52,22.06,.06,.72,.69,2.66,1.88,5.83,.84,2.51,1.25,4.42,1.25,5.74,0,.84-2,2.27-6.01,4.3-4,2.03-6.66,3.05-7.98,3.05-1.91,0-3.29-3.2-4.12-9.59-20.09,6.4-33.54,9.59-40.36,9.59-.78,0-1.4-.09-1.88-.27,.12-.12,.3-.3,.54-.54,.24-.24,.57-.51,.99-.81,3.89-3.17,6.04-6.99,6.46-11.48,.18-5.8,.9-9.63,2.15-11.48,1.02-1.55,3.26-3.05,6.73-4.48,.96-.42,2.11-.87,3.45-1.35,1.34-.48,2.95-.96,4.8-1.43-.18,11.06-3.5,19.34-9.95,24.84,3.05-.66,6.82-1.48,11.3-2.47,4.48-.99,9.71-2.17,15.69-3.54-.48-4.66-.84-8.64-1.08-11.93-.24-3.29-.36-5.95-.36-7.98,0-7.59,.72-18.59,2.15-33-3.29,.6-7.01,1.04-11.16,1.34-4.15,.3-8.8,.45-13.95,.45-7.47,0-13.54-.96-18.2-2.87,0-1.2-.04-2.75-.13-4.66-.09-1.91-.19-4.16-.31-6.73-.12-2.57-.22-4.8-.31-6.68-.09-1.88-.13-3.45-.13-4.71Z"/>
          </g>
        </g>
      </g>
    </g>
  </g>
</svg>