<?xml version="1.0" encoding="UTF-8"?>
<svg id="Layer_2" data-name="Layer 2" xmlns="http://www.w3.org/2000/svg" xmlns:xlink="http://www.w3.org/1999/xlink" viewBox="0 0 337.98 409.43">
  <defs>
    <style>
      .cls-1 {
        clip-path: url(#clippath-1);
      }

      .cls-2 {
        fill: #2e1b10;
      }

      .cls-3 {
        clip-path: url(#clippath);
      }

      .cls-4, .cls-5 {
        fill: none;
      }

      .cls-6 {
        fill: url(#linear-gradient);
      }

      .cls-6, .cls-5 {
        stroke: #3b2314;
        stroke-miterlimit: 10;
        stroke-width: 6px;
      }
    </style>
    <clipPath id="clippath">
      <path id="Form_big" data-name="Form big" class="cls-5" d="M166.27,3.1H19.82C.54,3.1,3.11,21.39,3.11,21.39c0,0-1.54,253.78,30.06,308.36,31.6,54.58,113.05,76.68,133.09,76.68s101.49-22.1,133.09-76.68c31.6-54.58,30.06-308.36,30.06-308.36,0,0,2.57-18.28-16.7-18.28H166.27Z"/>
    </clipPath>
    <linearGradient id="linear-gradient" x1="-1.5" y1="211.29" x2="325.03" y2="211.29" gradientTransform="translate(4.5 -14.51)" gradientUnits="userSpaceOnUse">
      <stop offset="0" stop-color="#fbcdab"/>
      <stop offset="1" stop-color="#fde4d9"/>
    </linearGradient>
    <clipPath id="clippath-1">
      <polygon class="cls-4" points="202.3 23.39 250.42 71.51 250.42 139.57 202.3 187.69 134.24 187.69 86.12 139.57 86.12 71.51 134.24 23.39 202.3 23.39"/>
    </clipPath>
  </defs>
  <g id="International_north" data-name="International north">
    <g id="Liberated_Horse_copy_3" data-name="Liberated Horse copy 3">
      <path id="Shadow" class="cls-2" d="M169.02,0H17.45C-2.49,0,.17,18.5,.17,18.5c0,0-1.6,256.77,31.11,311.99,32.7,55.22,116.99,77.58,137.73,77.58s105.03-22.36,137.73-77.58c32.71-55.22,31.11-311.99,31.11-311.99,0,0,2.66-18.5-17.28-18.5H169.02Z"/>
      <g>
        <g class="cls-3">
          <rect id="Color_gradient" data-name="Color gradient" class="cls-6" x="3" y="-56.19" width="326.53" height="505.92"/>
        </g>
        <path id="Form_big-2" data-name="Form big" class="cls-5" d="M166.27,3.1H19.82C.54,3.1,3.11,21.39,3.11,21.39c0,0-1.54,253.78,30.06,308.36,31.6,54.58,113.05,76.68,133.09,76.68s101.49-22.1,133.09-76.68c31.6-54.58,30.06-308.36,30.06-308.36,0,0,2.57-18.28-16.7-18.28H166.27Z"/>
      </g>
      <g id="Pieces_copy_33" data-name="Pieces copy 33">
        <g id="Liberated_Horse_copy_20" data-name="Liberated Horse copy 20">
          <g id="LH_move_copy_20" data-name="LH move copy 20">
            <g id="Arrows_copy_34" data-name="Arrows copy 34">
              <polygon class="cls-2" points="183.52 174.48 168.27 200.9 153.01 174.48 183.52 174.48"/>
            </g>
            <g id="squares_copy_24" data-name="squares copy 24">
              <rect class="cls-2" x="159.89" y="58.97" width="14.25" height="14.25" transform="translate(2.18 137.46) rotate(-45)"/>
              <rect class="cls-2" x="159.89" y="31.82" width="14.25" height="14.25" transform="translate(21.38 129.51) rotate(-45)"/>
            </g>
            <g id="Lines">
              <g class="cls-1">
                <rect class="cls-2" x="163.28" y="105.54" width="9.1" height="82.18"/>
              </g>
            </g>
            <rect id="Center" class="cls-2" x="148.86" y="86.25" width="37.93" height="37.93"/>
          </g>
          <g>
            <path class="cls-2" d="M174.46,247.01c0-8.97,.39-14.05,1.17-15.25,.78-1.25,2.9-2.72,6.37-4.39,3.59-1.67,6.34-2.63,8.25-2.87,.48,.6,1.06,1.33,1.75,2.2,.69,.87,1.54,1.87,2.56,3,6.1,6.64,16.2,11.09,30.31,13.36v-5.38c0-2.93,.3-4.99,.9-6.19,.54-1.2,2.63-2.63,6.28-4.3,3.71-1.61,6.58-2.51,8.61-2.69-.78,15.01-1.36,27.34-1.75,36.99-.39,9.65-.58,16.72-.58,21.21,0,3.83,.45,16.11,1.35,36.86,0,1.55,.13,3.51,.4,5.87,.27,2.36,.64,5.16,1.12,8.38,1.38,4.3,2.06,6.19,2.06,5.65,0,1.08-1.97,2.51-5.92,4.3-4,1.85-6.85,2.9-8.52,3.14-2.09-1.43-3.47-8.52-4.12-21.25-.48-10.22-.85-18.24-1.12-24.03-.27-5.8-.4-9.48-.4-11.03,0-10.22,.45-23.17,1.35-38.83-13.69,0-25.32-2.45-34.88-7.35v12.55c0,1.02-2.03,2.48-6.1,4.39-4,1.97-6.75,2.96-8.25,2.96-.06,0-.27-.06-.63-.18-.06-3.65-.1-6.89-.13-9.73-.03-2.84-.04-5.31-.04-7.4Z"/>
            <path class="cls-2" d="M92.41,231.67c0-1.2,2.06-2.63,6.19-4.3,4.12-1.74,7.09-2.69,8.88-2.87l1.97,14.53c.6,4.12,1.08,9.04,1.43,14.75,.36,5.71,.63,12.27,.81,19.68,6.58-2.63,16.53-6.31,29.86-11.03,.48-5.08,1.03-10.18,1.66-15.29,.63-5.11,1.27-10.3,1.93-15.56,1.32-1.85,3.62-3.5,6.9-4.93,3.23-1.43,6.13-2.15,8.7-2.15-.78,2.75-2,12.2-3.68,28.34-1.2,11.3-2.09,21.39-2.69,30.27-.6,8.88-.9,16.63-.9,23.27,0,5.02,.09,9.4,.27,13.14,.18,3.74,.42,6.86,.72,9.37,.9,6.87,1.35,10.49,1.35,10.85,0,1.08-2.15,2.57-6.46,4.48-3.53,1.44-6.37,2.33-8.52,2.69-1.44-12.2-2.15-23.76-2.15-34.7,0-13.75,.81-28.55,2.42-44.39-.96-.18-1.82-.27-2.6-.27-3.95,0-12.88,2.96-26.81,8.88,0,41.43-.24,62.47-.72,63.13-3.59,4.13-8.64,6.55-15.16,7.26l-.45-.18c.6-2.21,.9-7.32,.9-15.33,0-3.77,.09-9.45,.27-17.04,.06-3.83,.11-7.15,.13-9.95,.03-2.81,.04-5.17,.04-7.08,0-7.89-.13-15.48-.4-22.78-.27-7.3-.64-14.35-1.12-21.16-.12-1.67-.33-3.78-.63-6.32-.3-2.54-.66-5.55-1.08-9.01-.72-3.71-1.08-5.8-1.08-6.28Z"/>
          </g>
        </g>
      </g>
    </g>
  </g>
</svg>