<?xml version="1.0" encoding="UTF-8"?>
<svg id="Layer_2" data-name="Layer 2" xmlns="http://www.w3.org/2000/svg" xmlns:xlink="http://www.w3.org/1999/xlink" viewBox="0 0 337.98 409.43">
  <defs>
    <style>
      .cls-1 {
        clip-path: url(#clippath-1);
      }

      .cls-2 {
        fill: #2e1b10;
      }

      .cls-3 {
        clip-path: url(#clippath);
      }

      .cls-4, .cls-5 {
        fill: none;
      }

      .cls-6 {
        fill: url(#linear-gradient);
      }

      .cls-6, .cls-5 {
        stroke: #3b2314;
        stroke-miterlimit: 10;
        stroke-width: 6px;
      }
    </style>
    <clipPath id="clippath">
      <path id="Form_big" data-name="Form big" class="cls-5" d="M166.27,3.1H19.82C.54,3.1,3.11,21.39,3.11,21.39c0,0-1.54,253.78,30.06,308.36,31.6,54.58,113.05,76.68,133.09,76.68s101.49-22.1,133.09-76.68c31.6-54.58,30.06-308.36,30.06-308.36,0,0,2.57-18.28-16.7-18.28H166.27Z"/>
    </clipPath>
    <linearGradient id="linear-gradient" x1="-1.5" y1="211.29" x2="325.03" y2="211.29" gradientTransform="translate(4.5 -14.51)" gradientUnits="userSpaceOnUse">
      <stop offset="0" stop-color="#fbcdab"/>
      <stop offset="1" stop-color="#fde4d9"/>
    </linearGradient>
    <clipPath id="clippath-1">
      <polygon class="cls-4" points="202.3 23.39 250.42 71.51 250.42 139.57 202.3 187.69 134.24 187.69 86.12 139.57 86.12 71.51 134.24 23.39 202.3 23.39"/>
    </clipPath>
  </defs>
  <g id="International_north" data-name="International north">
    <g id="Oxcart_copy_3" data-name="Oxcart copy 3">
      <path id="Shadow" class="cls-2" d="M169.02,0H17.45C-2.49,0,.17,18.5,.17,18.5c0,0-1.6,256.77,31.11,311.99,32.7,55.22,116.99,77.58,137.73,77.58s105.03-22.36,137.73-77.58c32.71-55.22,31.11-311.99,31.11-311.99,0,0,2.66-18.5-17.28-18.5H169.02Z"/>
      <g>
        <g class="cls-3">
          <rect id="Color_gradient" data-name="Color gradient" class="cls-6" x="3" y="-56.19" width="326.53" height="505.92"/>
        </g>
        <path id="Form_big-2" data-name="Form big" class="cls-5" d="M166.27,3.1H19.82C.54,3.1,3.11,21.39,3.11,21.39c0,0-1.54,253.78,30.06,308.36,31.6,54.58,113.05,76.68,133.09,76.68s101.49-22.1,133.09-76.68c31.6-54.58,30.06-308.36,30.06-308.36,0,0,2.57-18.28-16.7-18.28H166.27Z"/>
      </g>
      <g id="Pieces_copy_33" data-name="Pieces copy 33">
        <g id="Oxcart_copy_21" data-name="Oxcart copy 21">
          <g id="OC_move_copy_21" data-name="OC move copy 21">
            <g id="Arrows_copy_34" data-name="Arrows copy 34">
              <polygon class="cls-2" points="183.52 174.48 168.27 200.9 153.01 174.48 183.52 174.48"/>
            </g>
            <g id="Lines">
              <g class="cls-1">
                <rect class="cls-2" x="163.28" y="105.54" width="9.1" height="82.18"/>
              </g>
            </g>
            <rect id="Center" class="cls-2" x="148.86" y="86.25" width="37.93" height="37.93"/>
          </g>
          <g>
            <path class="cls-2" d="M176.08,232.3c1.02-1.43,3.5-3.11,7.44-5.02,3.89-1.85,6.82-2.78,8.79-2.78,.48,0,.75,.72,.81,2.15,6.1,3.95,15.22,5.92,27.35,5.92,1.79,0,3.63-.05,5.52-.13,1.88-.09,3.81-.2,5.78-.31,2.87-1.32,5.23-2.06,7.08-2.24,0,1.13-.07,3.06-.22,5.78-.15,2.72-.37,6.29-.67,10.72-.48,7.05-.85,14.12-1.12,21.21-.27,7.08-.4,14.21-.4,21.39,0,18.65,.87,30.31,2.6,34.97,.06,.12,.21,.43,.45,.94,.24,.51,.6,1.18,1.08,2.02,.72,1.14,1.08,2.15,1.08,3.05s-2.18,2.45-6.55,4.66c-4.36,2.21-7.14,3.11-8.34,2.69-5.14,.96-11.43,2.23-18.88,3.81-7.44,1.58-16.16,3.51-26.14,5.78l-.63-1.17c.72-31.75,1.08-48.13,1.08-49.14,0-11.78-.34-22.87-1.03-33.27-.69-10.4-1.72-20.24-3.09-29.5l-1.97-1.52Zm18.56,7.09c.84,7.83,1.48,15.9,1.93,24.21,.45,8.31,.67,16.92,.67,25.83,0,30.55-.57,47.23-1.7,50.04,2.15-.6,5.65-1.41,10.49-2.42,4.84-1.02,11.09-2.3,18.74-3.86-.42-1.2-.78-2.98-1.08-5.34-.3-2.36-.51-5.34-.63-8.92-.48-8.91-.85-15.86-1.12-20.85-.27-4.99-.4-8.09-.4-9.28,0-6.34,.2-13.6,.58-21.79,.39-8.19,.97-17.46,1.75-27.8-7.23,.72-13,1.08-17.31,1.08-1.79,0-3.68-.08-5.65-.22-1.97-.15-4.07-.37-6.28-.67Z"/>
            <path class="cls-2" d="M94.11,241.36c0-4.6,.6-7.86,1.79-9.78,.84-1.38,3.08-2.87,6.73-4.48,3.65-1.67,6.4-2.54,8.25-2.6,3.83,4.72,9.89,7.08,18.2,7.08,3.11,0,7.35-.54,12.73-1.61,5.14-3.41,9.6-5.23,13.36-5.47,.3,.18,.45,.39,.45,.63,0-.54-.15-.15-.45,1.17-.06,.6-.42,6.69-1.08,18.29-.48,9.27-.85,17.44-1.12,24.53-.27,7.08-.4,13.23-.4,18.43,0,12.25,.18,21.58,.54,27.98,.12,2.09,.39,4.65,.81,7.67,.42,3.02,.99,6.56,1.7,10.63,.72,1.85,1.44,3.83,2.15,5.92,0,1.02-2.09,2.45-6.28,4.3-3.95,1.73-6.73,2.69-8.34,2.87-1.49-.72-2.51-3.98-3.05-9.77-10.76,4-25.44,7.26-44.03,9.77l-.63-.27c0-.12,.51-.54,1.52-1.26,3.17-2.45,5.11-4.93,5.83-7.44,.3-1.14,.54-4.01,.72-8.61,0-2.57,.69-4.87,2.06-6.91,.96-1.38,3.29-2.84,6.99-4.39,1.02-.42,2.21-.87,3.59-1.34,1.38-.48,2.93-.96,4.66-1.43-.06,10.82-3.38,18.98-9.95,24.48,3.29-.6,7.32-1.41,12.11-2.42,4.78-1.02,10.34-2.24,16.68-3.68-.66-9.51-1.15-17.83-1.48-24.98-.33-7.14-.49-13.17-.49-18.07,0-8.55,.17-17.35,.49-26.41s.82-18.52,1.48-28.38c-11.36,2.15-19.94,3.23-25.74,3.23-1.49,0-3.11-.09-4.84-.27,.18,1.67,.99,5.14,2.42,10.4,1.02,4.36,1.53,7.89,1.53,10.58,0,1.02-2.12,2.48-6.37,4.39-3.71,1.55-6.52,2.57-8.43,3.05-.12-.24-.28-1-.49-2.29-.21-1.29-.46-3.06-.76-5.34-.06-.6-.24-1.63-.54-3.09-.3-1.47-.72-3.45-1.25-5.96-.72-3.77-1.08-6.82-1.08-9.15Z"/>
          </g>
        </g>
      </g>
    </g>
  </g>
</svg>