<?xml version="1.0" encoding="UTF-8"?>
<svg id="Layer_2" data-name="Layer 2" xmlns="http://www.w3.org/2000/svg" xmlns:xlink="http://www.w3.org/1999/xlink" width="337" height="409" viewBox="0 0 337.98 409.43">
  <defs>
    <style>
      .cls-1 {
        clip-path: url(#clippath-1);
      }

      .cls-2 {
        fill: #2e1b10;
      }

      .cls-3 {
        clip-path: url(#clippath);
      }

      .cls-4, .cls-5 {
        fill: none;
      }

      .cls-6 {
        fill: url(#linear-gradient);
      }

      .cls-6, .cls-7, .cls-5 {
        stroke-miterlimit: 10;
      }

      .cls-6, .cls-5 {
        stroke: #3b2314;
        stroke-width: 6px;
      }

      .cls-7 {
        fill: #00aeb7;
        stroke: #007a72;
        stroke-width: 4px;
      }
    </style>
    <clipPath id="clippath">
      <path id="Form_big" data-name="Form big" class="cls-5" d="M166.27,3.1H19.82C.54,3.1,3.11,21.39,3.11,21.39c0,0-1.54,253.78,30.06,308.36,31.6,54.58,113.05,76.68,133.09,76.68s101.49-22.1,133.09-76.68c31.6-54.58,30.06-308.36,30.06-308.36,0,0,2.57-18.28-16.7-18.28H166.27Z"/>
    </clipPath>
    <linearGradient id="linear-gradient" x1="-1.5" y1="211.29" x2="325.03" y2="211.29" gradientTransform="translate(4.5 -14.51)" gradientUnits="userSpaceOnUse">
      <stop offset="0" stop-color="#fbcdab"/>
      <stop offset="1" stop-color="#fde4d9"/>
    </linearGradient>
    <clipPath id="clippath-1">
      <polygon class="cls-4" points="202.3 23.39 250.42 71.51 250.42 139.57 202.3 187.69 134.24 187.69 86.12 139.57 86.12 71.51 134.24 23.39 202.3 23.39"/>
    </clipPath>
  </defs>
  <g id="International_north" data-name="International north">
    <g id="Plodding_Ox_copy_3" data-name="Plodding Ox copy 3">
      <path id="Shadow" class="cls-2" d="M169.02,0H17.45C-2.49,0,.17,18.5,.17,18.5c0,0-1.6,256.77,31.11,311.99,32.7,55.22,116.99,77.58,137.73,77.58s105.03-22.36,137.73-77.58c32.71-55.22,31.11-311.99,31.11-311.99,0,0,2.66-18.5-17.28-18.5H169.02Z"/>
      <g>
        <g class="cls-3">
          <rect id="Color_gradient" data-name="Color gradient" class="cls-6" x="3" y="-56.19" width="326.53" height="505.92"/>
        </g>
        <path id="Form_big-2" data-name="Form big" class="cls-5" d="M166.27,3.1H19.82C.54,3.1,3.11,21.39,3.11,21.39c0,0-1.54,253.78,30.06,308.36,31.6,54.58,113.05,76.68,133.09,76.68s101.49-22.1,133.09-76.68c31.6-54.58,30.06-308.36,30.06-308.36,0,0,2.57-18.28-16.7-18.28H166.27Z"/>
      </g>
      <g id="Pieces_copy_33" data-name="Pieces copy 33">
        <g id="Plodding_Ox_copy_13" data-name="Plodding Ox copy 13">
          <g id="PO_move_copy_13" data-name="PO move copy 13">
            <g id="Lines">
              <g class="cls-1">
                <g>
                  <rect class="cls-7" x="163.28" y="-10.24" width="9.1" height="231.58" transform="translate(-25.47 149.6) rotate(-45)"/>
                  <rect class="cls-7" x="52.04" y="101" width="231.58" height="9.1" transform="translate(-25.48 149.57) rotate(-45)"/>
                  <rect class="cls-7" x="85.95" y="100.99" width="163.75" height="9.1"/>
                  <rect class="cls-7" x="163.28" y="23.36" width="9.1" height="164.36"/>
                </g>
              </g>
            </g>
            <rect id="Center" class="cls-7" x="148.86" y="86.25" width="37.93" height="37.93"/>
          </g>
          <g>
            <path class="cls-7" d="M173.3,330.14c0-2.51,.06-5.58,.18-9.19,.12-3.62,.3-7.85,.54-12.69,.24-4.84,.42-9.06,.54-12.64,.12-3.59,.18-6.64,.18-9.15,0-.66-.01-1.48-.04-2.47-.03-.99-.07-2.17-.13-3.54-.06-1.38-.1-2.57-.13-3.59-.03-1.02-.04-1.85-.04-2.51,0-1.2,2.09-2.72,6.28-4.57,1.85-.78,3.48-1.38,4.89-1.79,1.41-.42,2.59-.69,3.54-.81,6.88,4.9,17.61,7.35,32.19,7.35h.45c.12-1.38,.24-3.59,.36-6.64,.12-3.05,.3-7,.54-11.84,.24-3.83,.4-7.28,.49-10.36,.09-3.08,.13-5.81,.13-8.2,0-2.81,.3-4.81,.9-6.01,.54-1.2,2.63-2.63,6.28-4.3,3.71-1.61,6.52-2.51,8.43-2.69,0,1.31-.07,3.53-.22,6.64-.15,3.11-.37,7.17-.67,12.2-.6,9.03-1.03,16.9-1.3,23.63-.27,6.73-.4,12.42-.4,17.08,0,7.11,.04,13.27,.13,18.47,.09,5.2,.25,9.51,.49,12.91,.12,4,.84,9.8,2.15,17.4,1.73,5.56,2.6,7.8,2.6,6.73,0,1.08-2.09,2.54-6.28,4.39-4.18,1.97-7,2.96-8.43,2.96-1.31,0-2.48-3.83-3.5-11.48-.24,.18-.93,.48-2.06,.9-1.13,.42-8.91,2.27-23.32,5.56-14.65,3.35-22.06,5.02-22.24,5.02-.24,0-.6-.51-1.08-1.52-.96-2.93-1.43-8.01-1.43-15.25Zm14.89-11.03c0,7.05,.66,13.78,1.97,20.18,3.71-.84,8.3-1.9,13.77-3.18,5.47-1.29,11.91-2.77,19.33-4.44-.66-13.15-1.12-23.91-1.39-32.28-.27-8.37-.37-14.47-.31-18.29-3.23,.3-6.23,.54-9.01,.72-2.78,.18-5.42,.27-7.94,.27-5.86,0-10.76-.36-14.71-1.08,0,1.97-.07,4.53-.22,7.67-.15,3.14-.37,6.89-.67,11.25-.54,8.31-.81,14.71-.81,19.19Z"/>
            <path class="cls-7" d="M94.02,232.3c1.02-1.43,3.5-3.11,7.44-5.02,3.89-1.85,6.82-2.78,8.79-2.78,.48,0,.75,.72,.81,2.15,6.1,3.95,15.21,5.92,27.35,5.92,1.79,0,3.63-.04,5.52-.13,1.88-.09,3.81-.2,5.78-.31,2.87-1.32,5.23-2.06,7.08-2.24,0,1.13-.07,3.06-.22,5.78-.15,2.72-.37,6.29-.67,10.72-.48,7.05-.85,14.12-1.12,21.21-.27,7.08-.4,14.21-.4,21.39,0,18.65,.87,30.31,2.6,34.97,.06,.12,.21,.43,.45,.94,.24,.51,.6,1.18,1.08,2.02,.72,1.14,1.08,2.15,1.08,3.05s-2.18,2.45-6.55,4.66c-4.36,2.21-7.14,3.11-8.34,2.69-5.14,.96-11.43,2.23-18.88,3.81-7.44,1.58-16.16,3.51-26.14,5.78l-.63-1.16c.72-31.75,1.08-48.13,1.08-49.14,0-11.78-.34-22.87-1.03-33.27-.69-10.4-1.72-20.24-3.09-29.5l-1.97-1.52Zm18.56,7.08c.84,7.83,1.48,15.9,1.93,24.21,.45,8.31,.67,16.92,.67,25.83,0,30.55-.57,47.23-1.7,50.04,2.15-.6,5.65-1.41,10.49-2.42,4.84-1.02,11.09-2.3,18.74-3.86-.42-1.2-.78-2.98-1.08-5.34-.3-2.36-.51-5.34-.63-8.92-.48-8.91-.85-15.86-1.12-20.85-.27-4.99-.4-8.09-.4-9.28,0-6.34,.19-13.6,.58-21.79,.39-8.19,.97-17.46,1.75-27.8-7.23,.72-13,1.08-17.31,1.08-1.79,0-3.68-.08-5.65-.22-1.97-.15-4.07-.37-6.28-.67Z"/>
          </g>
        </g>
      </g>
    </g>
  </g>
</svg>