<?xml version="1.0" encoding="utf-8"?>
<!-- Generator: Adobe Illustrator 27.0.0, SVG Export Plug-In . SVG Version: 6.00 Build 0)  -->
<svg version="1.1" id="Layer_2_00000079454866134493910670000004868709272487517352_"
	 xmlns="http://www.w3.org/2000/svg" xmlns:xlink="http://www.w3.org/1999/xlink" x="0px" y="0px" width="337" height="409"  viewBox="0 0 338 409.4"
	 style="enable-background:new 0 0 338 409.4;" xml:space="preserve">
<style type="text/css">
	.st0{fill:#2E1B10;}
	.st1{clip-path:url(#SVGID_00000170996182723435765860000015641258588243442359_);}
	
		.st2{fill:url(#Color_gradient_00000042725245881491800620000006153105697266916238_);stroke:#3B2314;stroke-width:6;stroke-miterlimit:10;}
	.st3{fill:none;stroke:#3B2314;stroke-width:6;stroke-miterlimit:10;}
</style>
<g id="north_small_copy">
	<path id="Shadow" class="st0" d="M169,0.2H21.9C2.5,0.2,5.1,17.1,5.1,17.1S3.6,251.5,35.3,301.9s113.6,70.8,133.7,70.8
		s102-20.4,133.7-70.8c31.8-50.4,30.2-284.8,30.2-284.8s2.6-16.9-16.8-16.9L169,0.2L169,0.2z"/>
	<g>
		<g>
			<g>
				<defs>
					<path id="SVGID_1_" d="M166,3.2H23.5C4.8,3.2,7.3,20,7.3,20S5.8,252.5,36.5,302.5s110,70.2,129.5,70.2s98.8-20.2,129.5-70.2
						S324.8,20,324.8,20s2.5-16.8-16.2-16.8C308.6,3.2,166,3.2,166,3.2z"/>
				</defs>
				<clipPath id="SVGID_00000067944472936441128860000006774814124622927778_">
					<use xlink:href="#SVGID_1_"  style="overflow:visible;"/>
				</clipPath>
				<g style="clip-path:url(#SVGID_00000067944472936441128860000006774814124622927778_);">
					
						<linearGradient id="Color_gradient_00000093173230662172251090000013715270040162704514_" gradientUnits="userSpaceOnUse" x1="7.1" y1="326.5" x2="324.8" y2="326.5" gradientTransform="matrix(1 0 0 1 0 -132)">
						<stop  offset="0" style="stop-color:#FBCDAB"/>
						<stop  offset="1" style="stop-color:#FDE4D9"/>
					</linearGradient>
					
						<rect id="Color_gradient" x="7.1" y="-55" style="fill:url(#Color_gradient_00000093173230662172251090000013715270040162704514_);stroke:#3B2314;stroke-width:6;stroke-miterlimit:10;" width="317.7" height="499"/>
				</g>
			</g>
		</g>
		<path id="Form_small-2_00000170984476293630136880000010621261710605834931_" class="st3" d="M166,3.2H23.5C4.8,3.2,7.3,20,7.3,20
			S5.8,252.5,36.5,302.5s110,70.2,129.5,70.2s98.8-20.2,129.5-70.2S324.8,20,324.8,20s2.5-16.8-16.2-16.8C308.6,3.2,166,3.2,166,3.2
			z"/>
	</g>
	<g id="Orientation_copy_2">
		<rect x="150.6" y="45.5" class="st0" width="37.9" height="37.9"/>
		<rect x="164.6" y="83.4" class="st0" width="10" height="80.1"/>
	</g>
	<g>
		<path class="st0" d="M176.2,211.6c0-13.8,1.3-22.4,3.8-25.9c0.8-1.2,3.1-2.6,6.7-4.3c3.6-1.6,6.3-2.4,8.2-2.4
			c3.1,4.8,8.7,7.2,16.9,7.2c1.3,0,2.7,0,4-0.1c1.4-0.1,2.8-0.3,4.3-0.5c0.3-1.2,2.4-2.5,6.2-4s6.6-2.3,8.6-2.5c0,0.6,0,1.4-0.1,2.3
			c-0.1,0.9-0.2,2.1-0.3,3.4s-0.2,2.4-0.3,3.4s-0.1,1.8-0.1,2.4c0,1.1,0.3,2.9,1,5.2s1,4.1,1,5.2c0,0.8-2.1,2.2-6.5,4.1
			c-1.9,0.8-3.6,1.4-5,1.9s-2.5,0.8-3.4,0.9c-1.4-2.8-2.1-6.1-2.1-10.1c0-1.7,0.2-4,0.5-6.9c-10,2-17.4,3-22.1,3c-1,0-1.9,0-2.8-0.1
			c-0.9-0.1-1.9-0.2-2.8-0.3c-0.2,2.1-0.4,4.2-0.5,6.4s-0.1,4.4-0.1,6.7c0,2.9,0,5.9,0.1,9.2s0.2,6.8,0.5,10.6
			c3.1,2.4,8.6,3.7,16.3,3.7c2.9,0,5.8-0.1,8.8-0.3s6.1-0.4,9.4-0.7c3.5-1.6,6.5-2.6,8.9-3.1v0.2c0,0.7-0.1,1.9-0.2,3.7
			c-0.1,1.8-0.4,4.2-0.7,7.2c-0.4,4.1-0.7,8.1-0.9,12.1s-0.3,7.8-0.3,11.5c0,9.8,0.5,17.2,1.5,22.1c0.1,0.7,0.7,2.7,1.9,5.8
			c0.8,2.5,1.2,4.4,1.2,5.7c0,0.8-2,2.3-6,4.3s-6.7,3-8,3c-1.9,0-3.3-3.2-4.1-9.6c-20.1,6.4-33.5,9.6-40.4,9.6
			c-0.8,0-1.4-0.1-1.9-0.3c0.1-0.1,0.3-0.3,0.5-0.5s0.6-0.5,1-0.8c3.9-3.2,6-7,6.5-11.5c0.2-5.8,0.9-9.6,2.1-11.5
			c1-1.6,3.3-3,6.7-4.5c1-0.4,2.1-0.9,3.4-1.4s2.9-1,4.8-1.4c-0.2,11.1-3.5,19.3-9.9,24.8c3.1-0.7,6.8-1.5,11.3-2.5
			s9.7-2.2,15.7-3.5c-0.5-4.7-0.8-8.6-1.1-11.9c-0.2-3.3-0.4-6-0.4-8c0-7.6,0.7-18.6,2.1-33c-3.3,0.6-7,1-11.2,1.4
			c-4.1,0.3-8.8,0.4-13.9,0.4c-7.5,0-13.5-1-18.2-2.9c0-1.2,0-2.8-0.1-4.7s-0.2-4.2-0.3-6.7c-0.1-2.6-0.2-4.8-0.3-6.7
			C176.3,214.5,176.3,212.9,176.2,211.6L176.2,211.6z"/>
		<path class="st0" d="M89.5,284.6c0-2.5,0.1-5.6,0.2-9.2s0.3-7.9,0.5-12.7s0.4-9.1,0.5-12.6c0.1-3.6,0.2-6.6,0.2-9.1
			c0-0.7,0-1.5,0-2.5s-0.1-2.2-0.1-3.5c-0.1-1.4-0.1-2.6-0.1-3.6s0-1.9,0-2.5c0-1.2,2.1-2.7,6.3-4.6c1.8-0.8,3.5-1.4,4.9-1.8
			c1.4-0.4,2.6-0.7,3.5-0.8c6.9,4.9,17.6,7.4,32.2,7.4h0.4c0.1-1.4,0.2-3.6,0.4-6.6s0.3-7,0.5-11.8c0.2-3.8,0.4-7.3,0.5-10.4
			c0.1-3.1,0.1-5.8,0.1-8.2c0-2.8,0.3-4.8,0.9-6c0.5-1.2,2.6-2.6,6.3-4.3c3.7-1.6,6.5-2.5,8.4-2.7c0,1.3-0.1,3.5-0.2,6.6
			s-0.4,7.2-0.7,12.2c-0.6,9-1,16.9-1.3,23.6s-0.4,12.4-0.4,17.1c0,7.1,0,13.3,0.1,18.5s0.2,9.5,0.5,12.9c0.1,4,0.8,9.8,2.1,17.4
			c1.7,5.6,2.6,7.8,2.6,6.7c0,1.1-2.1,2.5-6.3,4.4c-4.2,2-7,3-8.4,3c-1.3,0-2.5-3.8-3.5-11.5c-0.2,0.2-0.9,0.5-2.1,0.9
			c-1.1,0.4-8.9,2.3-23.3,5.6c-14.7,3.4-22.1,5-22.2,5c-0.2,0-0.6-0.5-1.1-1.5C90,296.9,89.5,291.9,89.5,284.6L89.5,284.6z
			 M104.4,273.6c0,7,0.7,13.8,2,20.2c3.7-0.8,8.3-1.9,13.8-3.2c5.5-1.3,11.9-2.8,19.3-4.4c-0.7-13.1-1.1-23.9-1.4-32.3
			s-0.4-14.5-0.3-18.3c-3.2,0.3-6.2,0.5-9,0.7s-5.4,0.3-7.9,0.3c-5.9,0-10.8-0.4-14.7-1.1c0,2-0.1,4.5-0.2,7.7s-0.4,6.9-0.7,11.2
			C104.7,262.7,104.4,269.1,104.4,273.6L104.4,273.6z"/>
	</g>
</g>
</svg>
