<?xml version="1.0" encoding="UTF-8"?>
<svg id="Layer_2" data-name="Layer 2" xmlns="http://www.w3.org/2000/svg" xmlns:xlink="http://www.w3.org/1999/xlink" viewBox="0 0 337.98 409.43">
  <defs>
    <style>
      .cls-1 {
        clip-path: url(#clippath-1);
      }

      .cls-2 {
        fill: #2e1b10;
      }

      .cls-3 {
        clip-path: url(#clippath);
      }

      .cls-4, .cls-5 {
        fill: none;
      }

      .cls-6 {
        fill: url(#linear-gradient);
      }

      .cls-6, .cls-5 {
        stroke: #3b2314;
        stroke-miterlimit: 10;
        stroke-width: 6px;
      }
    </style>
    <clipPath id="clippath">
      <path id="Form_big" data-name="Form big" class="cls-5" d="M166.27,3.1H19.82C.54,3.1,3.11,21.39,3.11,21.39c0,0-1.54,253.78,30.06,308.36,31.6,54.58,113.05,76.68,133.09,76.68s101.49-22.1,133.09-76.68c31.6-54.58,30.06-308.36,30.06-308.36,0,0,2.57-18.28-16.7-18.28H166.27Z"/>
    </clipPath>
    <linearGradient id="linear-gradient" x1="-1.5" y1="211.29" x2="325.03" y2="211.29" gradientTransform="translate(4.5 -14.51)" gradientUnits="userSpaceOnUse">
      <stop offset="0" stop-color="#fbcdab"/>
      <stop offset="1" stop-color="#fde4d9"/>
    </linearGradient>
    <clipPath id="clippath-1">
      <polygon class="cls-4" points="202.3 23.39 250.42 71.51 250.42 139.57 202.3 187.69 134.24 187.69 86.12 139.57 86.12 71.51 134.24 23.39 202.3 23.39"/>
    </clipPath>
  </defs>
  <g id="International_north" data-name="International north">
    <g id="Swallow_s_Wings_copy_3" data-name="Swallow&amp;apos;s Wings copy 3">
      <path id="Shadow" class="cls-2" d="M169.02,0H17.45C-2.49,0,.17,18.5,.17,18.5c0,0-1.6,256.77,31.11,311.99,32.7,55.22,116.99,77.58,137.73,77.58s105.03-22.36,137.73-77.58c32.71-55.22,31.11-311.99,31.11-311.99,0,0,2.66-18.5-17.28-18.5H169.02Z"/>
      <g>
        <g class="cls-3">
          <rect id="Color_gradient" data-name="Color gradient" class="cls-6" x="3" y="-56.19" width="326.53" height="505.92"/>
        </g>
        <path id="Form_big-2" data-name="Form big" class="cls-5" d="M166.27,3.1H19.82C.54,3.1,3.11,21.39,3.11,21.39c0,0-1.54,253.78,30.06,308.36,31.6,54.58,113.05,76.68,133.09,76.68s101.49-22.1,133.09-76.68c31.6-54.58,30.06-308.36,30.06-308.36,0,0,2.57-18.28-16.7-18.28H166.27Z"/>
      </g>
      <g id="Pieces_copy_33" data-name="Pieces copy 33">
        <g id="Swallow_s_Wings_copy_13" data-name="Swallow&amp;apos;s Wings copy 13">
          <g id="SW_move_copy_13" data-name="SW move copy 13">
            <g id="Arrows_copy_26" data-name="Arrows copy 26">
              <polygon class="cls-2" points="237.09 89.52 263.51 104.77 237.09 120.03 237.09 89.52"/>
              <polygon class="cls-2" points="98.79 121.01 72.37 105.75 98.79 90.5 98.79 121.01"/>
            </g>
            <g id="Lines">
              <g class="cls-1">
                <g>
                  <rect class="cls-2" x="85.95" y="100.99" width="163.75" height="9.1"/>
                  <rect class="cls-2" x="163.28" y="23.36" width="9.1" height="164.36"/>
                </g>
              </g>
            </g>
            <rect id="Center" class="cls-2" x="148.86" y="86.25" width="37.93" height="37.93"/>
          </g>
          <g>
            <path class="cls-2" d="M194.28,257.14c0-13.81,1.26-22.45,3.77-25.92,.84-1.2,3.08-2.63,6.72-4.3,3.59-1.61,6.31-2.42,8.16-2.42,3.05,4.78,8.7,7.17,16.95,7.17,1.32,0,2.66-.04,4.04-.13,1.38-.09,2.81-.26,4.3-.49,.3-1.2,2.36-2.54,6.19-4.04,3.77-1.5,6.64-2.33,8.61-2.51,0,.6-.04,1.36-.13,2.29-.09,.93-.19,2.05-.31,3.36-.12,1.31-.22,2.45-.31,3.41-.09,.96-.13,1.76-.13,2.42,0,1.13,.33,2.87,.99,5.2,.66,2.33,.99,4.06,.99,5.2,0,.84-2.15,2.21-6.46,4.12-1.91,.78-3.57,1.4-4.98,1.88-1.4,.48-2.52,.78-3.36,.9-1.37-2.75-2.06-6.13-2.06-10.13,0-1.73,.18-4.04,.54-6.9-10.04,1.97-17.4,2.96-22.06,2.96-.96,0-1.9-.04-2.83-.13-.93-.09-1.87-.19-2.83-.31-.24,2.09-.4,4.23-.49,6.41-.09,2.18-.13,4.41-.13,6.68,0,2.87,.04,5.95,.13,9.24,.09,3.29,.25,6.82,.49,10.58,3.11,2.45,8.55,3.68,16.32,3.68,2.87,0,5.81-.09,8.83-.27,3.02-.18,6.14-.42,9.37-.72,3.53-1.56,6.49-2.57,8.88-3.05v.18c0,.66-.07,1.88-.22,3.68-.15,1.79-.37,4.18-.67,7.17-.42,4.12-.73,8.14-.94,12.06-.21,3.92-.31,7.76-.31,11.52,0,9.8,.51,17.16,1.52,22.06,.06,.72,.69,2.66,1.88,5.83,.84,2.51,1.25,4.42,1.25,5.74,0,.84-2,2.27-6.01,4.3-4,2.03-6.67,3.05-7.98,3.05-1.91,0-3.29-3.2-4.12-9.59-20.09,6.4-33.54,9.59-40.36,9.59-.78,0-1.4-.09-1.88-.27,.12-.12,.3-.3,.54-.54,.24-.24,.57-.51,.99-.81,3.89-3.17,6.04-7,6.46-11.48,.18-5.8,.9-9.63,2.15-11.48,1.02-1.56,3.26-3.05,6.73-4.48,.96-.42,2.11-.87,3.45-1.35,1.34-.48,2.95-.96,4.8-1.43-.18,11.06-3.5,19.34-9.95,24.84,3.05-.66,6.82-1.48,11.3-2.47,4.48-.99,9.71-2.17,15.69-3.54-.48-4.66-.84-8.64-1.08-11.93-.24-3.29-.36-5.95-.36-7.98,0-7.59,.72-18.59,2.15-33-3.29,.6-7.01,1.04-11.16,1.35-4.15,.3-8.8,.45-13.95,.45-7.47,0-13.54-.96-18.2-2.87,0-1.2-.04-2.75-.13-4.66-.09-1.91-.19-4.16-.31-6.73-.12-2.57-.22-4.8-.31-6.68-.09-1.88-.13-3.45-.13-4.71Z"/>
            <path class="cls-2" d="M79.76,346.64c0-.3,.12-.7,.36-1.21,.24-.51,.36-.88,.36-1.12l.63-5.2c1.56-15.13,2.74-28.7,3.54-40.71,.81-12.02,1.21-22.63,1.21-31.83,0-4.72-.06-8.95-.18-12.69-.12-3.74-.3-7.04-.54-9.91-.72-8.37-1.08-12.35-1.08-11.93,0-.96,2-2.42,6.01-4.39,4.12-2.03,6.82-3.08,8.07-3.14,2.69,3.23,4.81,5.32,6.37,6.28,2.45,1.61,5.62,2.42,9.51,2.42,1.31,0,2.62-.04,3.9-.13,1.29-.09,2.53-.25,3.72-.49,.66-.66,1.56-1.41,2.69-2.24,1.14-.84,2.57-1.73,4.3-2.69,3.35-1.91,5.98-2.96,7.89-3.14,.12,2.15,2,4.21,5.65,6.19,3.59,1.97,6.76,2.96,9.51,2.96,.96,0,1.94-.05,2.96-.13,1.02-.09,2.03-.2,3.05-.31,0-1.5,2.06-3.26,6.19-5.29,3.77-2.03,6.73-3.17,8.88-3.41v4.75c0,2.51-.03,5.63-.09,9.37-.06,3.74-.15,8.15-.27,13.23-.12,5.08-.21,9.47-.27,13.18-.06,3.71-.09,6.82-.09,9.33,0,12.61,.25,23.81,.76,33.58s1.27,18.22,2.29,25.33c.54,3.41,.81,5.5,.81,6.28,0,1.02-2.15,2.51-6.46,4.48-3.95,1.73-6.76,2.69-8.43,2.87-1.08-1.79-2.03-12.2-2.87-31.21-.42-7.59-.73-14.21-.94-19.86-.21-5.65-.31-10.39-.31-14.21,0-5.14,.27-19.76,.81-43.85-8.73,2.45-15.87,3.59-21.43,3.41-.36,11.84-.54,23.05-.54,33.63,0,12.67,.27,23.85,.81,33.54,.54,9.69,1.32,17.96,2.33,24.84,.36,3.29,.54,5.38,.54,6.28,0,1.02-2.12,2.48-6.37,4.39-1.91,.84-3.56,1.53-4.93,2.06-1.37,.54-2.48,.87-3.32,.99-.42-.78-.75-2.96-.99-6.55-.96-14.41-1.67-26.44-2.15-36.09-.48-9.66-.72-17.11-.72-22.38,0-2.93,.06-8.12,.18-15.56,.12-7.44,.3-17.26,.54-29.46-6.93,2.39-14.02,3.62-21.25,3.68,.12,3.23,.22,6.41,.31,9.55,.09,3.14,.13,6.23,.13,9.28,0,14.17-.81,30.55-2.42,49.14-.6,5.2-1.4,13-2.42,23.41,0,1.97-.27,4.57-.81,7.8-.48,1.31-2.63,2.81-6.46,4.48-3.83,1.79-6.61,2.69-8.34,2.69-.42,0-.63-.09-.63-.27Z"/>
          </g>
        </g>
      </g>
    </g>
  </g>
</svg>