<?xml version="1.0" encoding="UTF-8"?>
<svg id="Layer_2" data-name="Layer 2" xmlns="http://www.w3.org/2000/svg" xmlns:xlink="http://www.w3.org/1999/xlink" viewBox="0 0 337.98 409.43">
  <defs>
    <style>
      .cls-1 {
        clip-path: url(#clippath-1);
      }

      .cls-2 {
        fill: #2e1b10;
      }

      .cls-3 {
        clip-path: url(#clippath);
      }

      .cls-4, .cls-5 {
        fill: none;
      }

      .cls-6 {
        fill: url(#linear-gradient);
      }

      .cls-6, .cls-7, .cls-5 {
        stroke-miterlimit: 10;
      }

      .cls-6, .cls-5 {
        stroke: #3b2314;
        stroke-width: 6px;
      }

      .cls-7 {
        fill: #00aeb7;
        stroke: #007a72;
        stroke-width: 4px;
      }
    </style>
    <clipPath id="clippath">
      <path id="Form_big" data-name="Form big" class="cls-5" d="M166.27,3.1H19.82C.54,3.1,3.11,21.39,3.11,21.39c0,0-1.54,253.78,30.06,308.36,31.6,54.58,113.05,76.68,133.09,76.68s101.49-22.1,133.09-76.68c31.6-54.58,30.06-308.36,30.06-308.36,0,0,2.57-18.28-16.7-18.28H166.27Z"/>
    </clipPath>
    <linearGradient id="linear-gradient" x1="-1.5" y1="211.29" x2="325.03" y2="211.29" gradientTransform="translate(4.5 -14.51)" gradientUnits="userSpaceOnUse">
      <stop offset="0" stop-color="#fbcdab"/>
      <stop offset="1" stop-color="#fde4d9"/>
    </linearGradient>
    <clipPath id="clippath-1">
      <polygon class="cls-4" points="202.3 23.39 250.42 71.51 250.42 139.57 202.3 187.69 134.24 187.69 86.12 139.57 86.12 71.51 134.24 23.39 202.3 23.39"/>
    </clipPath>
  </defs>
  <g id="International_north" data-name="International north">
    <g id="Violent_Wolf_copy_3" data-name="Violent Wolf copy 3">
      <path id="Shadow" class="cls-2" d="M169.02,0H17.45C-2.49,0,.17,18.5,.17,18.5c0,0-1.6,256.77,31.11,311.99,32.7,55.22,116.99,77.58,137.73,77.58s105.03-22.36,137.73-77.58c32.71-55.22,31.11-311.99,31.11-311.99,0,0,2.66-18.5-17.28-18.5H169.02Z"/>
      <g>
        <g class="cls-3">
          <rect id="Color_gradient" data-name="Color gradient" class="cls-6" x="3" y="-56.19" width="326.53" height="505.92"/>
        </g>
        <path id="Form_big-2" data-name="Form big" class="cls-5" d="M166.27,3.1H19.82C.54,3.1,3.11,21.39,3.11,21.39c0,0-1.54,253.78,30.06,308.36,31.6,54.58,113.05,76.68,133.09,76.68s101.49-22.1,133.09-76.68c31.6-54.58,30.06-308.36,30.06-308.36,0,0,2.57-18.28-16.7-18.28H166.27Z"/>
      </g>
      <g id="Pieces_copy_33" data-name="Pieces copy 33">
        <g id="Violent_Wolf_copy_19" data-name="Violent Wolf copy 19">
          <g id="VWP_move_copy_18" data-name="VWP move copy 18">
            <g id="Lines">
              <g class="cls-1">
                <g>
                  <rect class="cls-7" x="204.24" y="88.65" width="9.1" height="115.71" transform="translate(-42.44 190.57) rotate(-45)"/>
                  <rect class="cls-7" x="68.96" y="141.85" width="116.02" height="9.1" transform="translate(-66.33 132.65) rotate(-45)"/>
                  <rect class="cls-7" x="85.95" y="100.99" width="163.75" height="9.1"/>
                  <rect class="cls-7" x="163.28" y="23.36" width="9.1" height="164.36"/>
                </g>
              </g>
            </g>
            <rect id="Center" class="cls-7" x="148.86" y="86.25" width="37.93" height="37.93"/>
          </g>
          <g>
            <path class="cls-7" d="M189.35,346.46c0-1.32,.36-3.05,1.08-5.2,.6-1.56,1.03-2.75,1.3-3.59,.27-.84,.43-1.32,.49-1.43,.84-3.29,1.87-7.38,3.09-12.29,1.23-4.9,2.65-10.67,4.26-17.31,1.5-5.26,3.29-11.76,5.38-19.5,2.09-7.74,4.48-16.84,7.17-27.31,.3-2.99,.91-6.58,1.84-10.76,.93-4.19,2.17-9,3.72-14.44,2.81-5.92,8.25-9.3,16.32-10.13,.12,.96,.9,5.35,2.33,13.18,1.44,7.83,3.47,19.1,6.1,33.81,1.73,9.51,3.47,18.14,5.2,25.92,1.73,7.77,3.47,14.74,5.2,20.89,.96,3.23,1.84,6.02,2.65,8.38,.81,2.36,1.6,4.38,2.38,6.05,1.97,4.36,2.96,6.7,2.96,7,0,1.13-2.12,2.6-6.37,4.39-4.12,1.85-7,2.78-8.61,2.78l-.54-.72c-1.02-2.57-2.08-5.37-3.18-8.38-1.11-3.02-2.23-6.29-3.36-9.82-4.18-13.03-8.88-35.03-14.08-66l-14.26,53.27c-.48,1.85-1.02,4.14-1.61,6.86-.6,2.72-1.31,5.93-2.15,9.64-.24,2.09-.87,4.81-1.88,8.16-.78,1.25-2.96,2.72-6.55,4.39-3.77,1.73-6.49,2.6-8.16,2.6-.48,0-.72-.15-.72-.45Z"/>
            <path class="cls-7" d="M79.49,346.64c0-.3,.12-.7,.36-1.21,.24-.51,.36-.88,.36-1.12l.63-5.2c1.56-15.13,2.74-28.7,3.54-40.71,.81-12.02,1.21-22.63,1.21-31.84,0-4.72-.06-8.95-.18-12.69-.12-3.74-.3-7.04-.54-9.91-.72-8.37-1.08-12.35-1.08-11.93,0-.96,2-2.42,6.01-4.39,4.12-2.03,6.81-3.08,8.07-3.14,2.69,3.23,4.81,5.32,6.37,6.28,2.45,1.61,5.62,2.42,9.51,2.42,1.32,0,2.62-.04,3.9-.13,1.29-.09,2.53-.25,3.72-.49,.66-.66,1.55-1.41,2.69-2.24,1.14-.84,2.57-1.73,4.3-2.69,3.35-1.91,5.98-2.96,7.89-3.14,.12,2.15,2,4.21,5.65,6.19,3.59,1.97,6.76,2.96,9.51,2.96,.96,0,1.94-.04,2.96-.13,1.02-.09,2.03-.2,3.05-.31,0-1.5,2.06-3.26,6.19-5.29,3.77-2.03,6.73-3.17,8.88-3.41v4.75c0,2.51-.03,5.63-.09,9.37-.06,3.74-.15,8.14-.27,13.23-.12,5.08-.21,9.47-.27,13.18-.06,3.71-.09,6.82-.09,9.33,0,12.61,.25,23.81,.76,33.58,.51,9.77,1.27,18.22,2.29,25.33,.54,3.41,.81,5.5,.81,6.28,0,1.02-2.15,2.51-6.46,4.48-3.95,1.73-6.75,2.69-8.43,2.87-1.08-1.79-2.03-12.2-2.87-31.21-.42-7.59-.73-14.21-.94-19.86-.21-5.65-.31-10.39-.31-14.21,0-5.14,.27-19.76,.81-43.85-8.73,2.45-15.87,3.59-21.43,3.41-.36,11.84-.54,23.05-.54,33.63,0,12.67,.27,23.85,.81,33.54,.54,9.68,1.32,17.96,2.33,24.84,.36,3.29,.54,5.38,.54,6.28,0,1.02-2.12,2.48-6.37,4.39-1.91,.84-3.56,1.52-4.93,2.06-1.37,.54-2.48,.87-3.32,.99-.42-.78-.75-2.96-.99-6.55-.96-14.41-1.67-26.44-2.15-36.09-.48-9.66-.72-17.11-.72-22.38,0-2.93,.06-8.12,.18-15.56,.12-7.44,.3-17.26,.54-29.46-6.94,2.39-14.02,3.62-21.25,3.68,.12,3.23,.22,6.41,.31,9.55,.09,3.14,.13,6.23,.13,9.28,0,14.17-.81,30.55-2.42,49.14-.6,5.2-1.4,13-2.42,23.41,0,1.97-.27,4.57-.81,7.8-.48,1.31-2.63,2.81-6.46,4.48-3.83,1.79-6.61,2.69-8.34,2.69-.42,0-.63-.09-.63-.27Z"/>
          </g>
        </g>
      </g>
    </g>
  </g>
</svg>