<?xml version="1.0" encoding="UTF-8"?>
<svg id="Layer_2" data-name="Layer 2" xmlns="http://www.w3.org/2000/svg" xmlns:xlink="http://www.w3.org/1999/xlink" viewBox="0 0 337.92 409.43">
  <defs>
    <style>
      .cls-1 {
        clip-path: url(#clippath-1);
      }

      .cls-2 {
        fill: #2e1b10;
      }

      .cls-3 {
        clip-path: url(#clippath);
      }

      .cls-4, .cls-5 {
        fill: none;
      }

      .cls-6 {
        fill: url(#linear-gradient);
      }

      .cls-6, .cls-7, .cls-5 {
        stroke-miterlimit: 10;
      }

      .cls-6, .cls-5 {
        stroke: #3b2314;
        stroke-width: 6px;
      }

      .cls-7 {
        fill: #00aeb7;
        stroke: #007a72;
        stroke-width: 4px;
      }
    </style>
    <clipPath id="clippath">
      <path id="Form_big" data-name="Form big" class="cls-5" d="M166.71,406.32h146.45c19.27,0,16.7-18.28,16.7-18.28,0,0,1.54-253.78-30.06-308.36C268.2,25.1,186.75,3,166.71,3S65.22,25.1,33.62,79.68C2.02,134.26,3.56,388.04,3.56,388.04c0,0-2.57,18.28,16.7,18.28H166.71Z"/>
    </clipPath>
    <linearGradient id="linear-gradient" x1="3.44" y1="212.65" x2="329.98" y2="212.65" gradientUnits="userSpaceOnUse">
      <stop offset="0" stop-color="#fbcdab"/>
      <stop offset="1" stop-color="#fde4d9"/>
    </linearGradient>
    <clipPath id="clippath-1">
      <polygon class="cls-4" points="130.68 386.03 82.56 337.91 82.56 269.86 130.68 221.74 198.74 221.74 246.86 269.86 246.86 337.91 198.74 386.03 130.68 386.03"/>
    </clipPath>
  </defs>
  <g id="International_south_copy" data-name="International south copy">
    <g id="Bear_s_Eyes_copy_2" data-name="Bear&amp;apos;s Eyes copy 2">
      <path id="Shadow" class="cls-2" d="M168.96,409.43h151.56c19.94,0,17.28-18.5,17.28-18.5,0,0,1.6-256.77-31.11-311.99C273.99,23.73,189.7,1.36,168.96,1.36S63.93,23.73,31.23,78.94C-1.48,134.16,.12,390.93,.12,390.93c0,0-2.66,18.5,17.28,18.5H168.96Z"/>
      <g>
        <g class="cls-3">
          <rect id="Color_gradient" data-name="Color gradient" class="cls-6" x="3.44" y="-40.31" width="326.53" height="505.92"/>
        </g>
        <path id="Form_big-2" data-name="Form big" class="cls-5" d="M166.71,406.32h146.45c19.27,0,16.7-18.28,16.7-18.28,0,0,1.54-253.78-30.06-308.36C268.2,25.1,186.75,3,166.71,3S65.22,25.1,33.62,79.68C2.02,134.26,3.56,388.04,3.56,388.04c0,0-2.57,18.28,16.7,18.28H166.71Z"/>
      </g>
      <g id="Pieces_copy_32" data-name="Pieces copy 32">
        <g id="Bear_s_Eyes_copy_8" data-name="Bear&amp;apos;s Eyes copy 8">
          <g id="BE_move_copy_8" data-name="BE move copy 8">
            <g id="Lines">
              <g class="cls-1">
                <g>
                  <rect class="cls-7" x="160.6" y="188.1" width="9.1" height="231.58" transform="translate(-166.51 205.81) rotate(-45)"/>
                  <rect class="cls-7" x="49.36" y="299.34" width="231.58" height="9.1" transform="translate(-166.5 205.76) rotate(-45)"/>
                  <rect class="cls-7" x="83.28" y="299.34" width="163.75" height="9.1"/>
                  <rect class="cls-7" x="160.6" y="221.7" width="9.1" height="164.36"/>
                </g>
              </g>
            </g>
            <rect id="Center" class="cls-7" x="146.19" y="285.25" width="37.93" height="37.93"/>
          </g>
          <g>
            <path class="cls-7" d="M160.58,129.96c0,1.43-.25,4.81-.76,10.13-.51,5.32-1.27,12.61-2.29,21.88-.06,3.89-.75,9-2.06,15.33-.66,1.38-2.9,2.99-6.73,4.84-3.71,1.85-6.4,2.78-8.07,2.78,.6,0-2.42-.72-9.06-2.15-7.65-1.61-14.23-2.42-19.73-2.42-6.7,0-12.82,.96-18.38,2.87-.6,.3-1.38,.58-2.33,.85-.96,.27-2.12,.55-3.5,.85v-.27c0-.36,.13-.79,.4-1.3,.27-.51,.4-.91,.4-1.21l1.26-19.55c.48-7.47,.85-15.02,1.12-22.64,.27-7.62,.4-15.38,.4-23.27,0-10.82-.27-19.1-.81-24.84-.66-7.89-1.15-13.65-1.48-17.26-.33-3.62-.49-5.19-.49-4.71,0-1.08,2.15-2.57,6.46-4.48,3.77-1.67,6.55-2.63,8.34-2.87,.3,2.75,.58,5.26,.85,7.53,.27,2.27,.52,4.3,.76,6.1,1.38-.54,3.14-1.18,5.29-1.93,2.15-.75,4.72-1.6,7.71-2.56,1.85-.6,4.78-1.46,8.79-2.6,4-1.13,9.18-2.57,15.51-4.3,1.08-.36,2.42-.72,4.04-1.08,1.61-.36,3.47-.75,5.56-1.16-.48,1.02-1,2.29-1.57,3.81s-1.24,3.3-2.02,5.34c-2.27,6.16-3.41,12.64-3.41,19.46,0,5.86,.81,13.03,2.42,21.52,1.55,.66,3.62,.96,6.19,.9,1.38-.06,2.54-.05,3.5,.04,.96,.09,1.7,.2,2.24,.31,.96,4.25,1.43,9.59,1.43,16.05Zm-14.98,5.38c0-.6-.04-1.33-.13-2.2-.09-.87-.2-1.87-.31-3-.12-1.2-.21-2.2-.27-3-.06-.81-.09-1.45-.09-1.93,0-1.25-.06-2.06-.18-2.42-.18-.6-.73-1.11-1.66-1.52-.93-.42-1.99-.63-3.18-.63-.96,0-3.26,.36-6.9,1.08-6.58,1.25-11.42,2.63-14.53,4.12-2.15,1.14-4.27,2.26-6.37,3.36-2.09,1.11-4.16,2.23-6.19,3.36-.12,2.87-.28,6.37-.49,10.49-.21,4.12-.46,9-.76,14.62,0,2.15-.11,4.81-.31,7.98-.21,3.17-.52,6.91-.94,11.21,7.47-2.45,15.66-3.68,24.57-3.68,4.48,0,9.06,.36,13.72,1.08,2.69-20.86,4.04-33.84,4.04-38.92Zm-9.24-65.2c-3.65,1.56-8.07,3.17-13.27,4.84-5.2,1.67-11.24,3.44-18.12,5.29,.42,5.8,.73,11.15,.94,16.05,.21,4.9,.31,9.39,.31,13.45,0,1.14-.04,3.32-.13,6.55-.09,3.23-.19,7.56-.31,13,9.45-5.86,18.11-9.98,26.01-12.38-.66-3.59-1.15-6.92-1.48-10-.33-3.08-.49-5.96-.49-8.65,0-11.48,2.18-20.86,6.55-28.16Z"/>
            <path class="cls-7" d="M242.54,168.25c0,4.6-.6,7.86-1.79,9.77-.66,1.08-2.9,2.48-6.73,4.21-3.65,1.67-6.31,2.57-7.98,2.69-3.83-4.72-9.96-7.08-18.38-7.08-1.31,0-3.03,.13-5.16,.4-2.12,.27-4.68,.7-7.67,1.3-4.96,3.35-9.42,5.14-13.36,5.38,.12-2.27,.27-5.07,.45-8.38,.18-3.32,.39-7.22,.63-11.7,.48-8.91,.85-16.51,1.12-22.82,.27-6.31,.4-11.43,.4-15.38,0-2.75-.13-7.2-.4-13.36-.27-6.16-.64-14.11-1.12-23.85,0-1.55-.13-3.47-.4-5.74-.27-2.27-.64-4.96-1.12-8.07-.72-1.79-1.44-3.68-2.15-5.65,0-1.08,2.09-2.54,6.28-4.39,3.77-1.85,6.55-2.87,8.34-3.05,1.49,.96,2.51,4.27,3.05,9.95,12.2-4.48,24.12-7.62,35.78-9.42,2.75-.36,4.57-.54,5.47-.54h1.26c.6,0,1.31,.03,2.15,.09-.06,.18-.57,.66-1.52,1.44-3.41,2.87-5.41,5.5-6.01,7.89-.12,1.43-.21,2.88-.27,4.35-.06,1.47-.15,2.95-.27,4.44-.06,2.15-.75,4.25-2.06,6.28-.96,1.38-3.23,2.84-6.82,4.39-1.61,.66-4.27,1.58-7.98,2.78,.06-10.94,3.32-19.22,9.78-24.84-3.23,.66-7.23,1.54-12.02,2.65-4.78,1.11-10.43,2.44-16.95,3.99,1.25,17.22,1.88,31.66,1.88,43.31,.6,0,1.3,.05,2.11,.13,.81,.09,1.78,.2,2.91,.31,1.13,.12,2.14,.22,3,.31,.87,.09,1.6,.13,2.2,.13,1.38,0,3.06-.06,5.07-.18,2-.12,4.38-.3,7.13-.54,5.44-.54,9.54-.81,12.29-.81-.72,1.08-2.24,2.3-4.57,3.68-3.35,1.91-6.61,3.14-9.78,3.68-2.27,.36-5.1,.67-8.47,.94-3.38,.27-7.34,.52-11.88,.76-.12,7.35-.36,14.84-.72,22.46-.36,7.62-.78,15.44-1.25,23.45,11.36-2.15,19.67-3.23,24.93-3.23,.84,0,1.73,.04,2.69,.13,.96,.09,1.94,.2,2.96,.31-.18-1.37-.9-4.9-2.15-10.58-.48-2.21-.85-4.2-1.12-5.96-.27-1.76-.4-3.33-.4-4.71,0-1.02,2.09-2.45,6.28-4.3,2.09-.96,3.84-1.66,5.25-2.11,1.4-.45,2.47-.7,3.18-.76,.06,.3,.19,1.06,.4,2.29,.21,1.23,.49,2.95,.85,5.16,1.79,11.66,2.69,17.79,2.69,18.38Z"/>
          </g>
        </g>
      </g>
    </g>
  </g>
</svg>