<?xml version="1.0" encoding="UTF-8"?>
<svg id="Layer_2" data-name="Layer 2" xmlns="http://www.w3.org/2000/svg" xmlns:xlink="http://www.w3.org/1999/xlink" width="337" height="409"  viewBox="0 0 337.92 409.43">
  <defs>
    <style>
      .cls-1 {
        clip-path: url(#clippath-1);
      }

      .cls-2 {
        fill: #2e1b10;
      }

      .cls-3 {
        clip-path: url(#clippath);
      }

      .cls-4, .cls-5 {
        fill: none;
      }

      .cls-6 {
        fill: url(#linear-gradient);
      }

      .cls-6, .cls-5 {
        stroke: #3b2314;
        stroke-miterlimit: 10;
        stroke-width: 6px;
      }
    </style>
    <clipPath id="clippath">
      <path id="Form_big" data-name="Form big" class="cls-5" d="M166.71,406.32h146.45c19.27,0,16.7-18.28,16.7-18.28,0,0,1.54-253.78-30.06-308.36C268.2,25.1,186.75,3,166.71,3S65.22,25.1,33.62,79.68C2.02,134.26,3.56,388.04,3.56,388.04c0,0-2.57,18.28,16.7,18.28H166.71Z"/>
    </clipPath>
    <linearGradient id="linear-gradient" x1="3.44" y1="212.65" x2="329.98" y2="212.65" gradientUnits="userSpaceOnUse">
      <stop offset="0" stop-color="#fbcdab"/>
      <stop offset="1" stop-color="#fde4d9"/>
    </linearGradient>
    <clipPath id="clippath-1">
      <polygon class="cls-4" points="130.68 386.03 82.56 337.91 82.56 269.86 130.68 221.74 198.74 221.74 246.86 269.86 246.86 337.91 198.74 386.03 130.68 386.03"/>
    </clipPath>
  </defs>
  <g id="International_south_copy" data-name="International south copy">
    <g id="Crane_King_copy_2" data-name="Crane King copy 2">
      <path id="Shadow" class="cls-2" d="M168.96,409.43h151.56c19.94,0,17.28-18.5,17.28-18.5,0,0,1.6-256.77-31.11-311.99C273.99,23.73,189.7,1.36,168.96,1.36S63.93,23.73,31.23,78.94C-1.48,134.16,.12,390.93,.12,390.93c0,0-2.66,18.5,17.28,18.5H168.96Z"/>
      <g>
        <g class="cls-3">
          <rect id="Color_gradient" data-name="Color gradient" class="cls-6" x="3.44" y="-40.31" width="326.53" height="505.92"/>
        </g>
        <path id="Form_big-2" data-name="Form big" class="cls-5" d="M166.71,406.32h146.45c19.27,0,16.7-18.28,16.7-18.28,0,0,1.54-253.78-30.06-308.36C268.2,25.1,186.75,3,166.71,3S65.22,25.1,33.62,79.68C2.02,134.26,3.56,388.04,3.56,388.04c0,0-2.57,18.28,16.7,18.28H166.71Z"/>
      </g>
      <g id="Pieces_copy_32" data-name="Pieces copy 32">
        <g id="Crane_King_copy_13" data-name="Crane King copy 13">
          <g id="CK_move_copy_13" data-name="CK move copy 13">
            <g id="Lines">
              <g class="cls-1">
                <g>
                  <rect class="cls-2" x="160.6" y="188.1" width="9.1" height="231.58" transform="translate(-166.51 205.81) rotate(-45)"/>
                  <rect class="cls-2" x="49.36" y="299.34" width="231.58" height="9.1" transform="translate(-166.5 205.76) rotate(-45)"/>
                  <rect class="cls-2" x="83.28" y="299.34" width="163.75" height="9.1"/>
                  <rect class="cls-2" x="160.6" y="221.7" width="9.1" height="164.36"/>
                </g>
              </g>
            </g>
            <rect id="Center" class="cls-2" x="146.19" y="285.25" width="37.93" height="37.93"/>
          </g>
          <g>
            <path class="cls-2" d="M155.15,168.07c0,4.6-.6,7.86-1.79,9.78-.84,1.38-3.08,2.87-6.73,4.48-3.65,1.67-6.4,2.54-8.25,2.6-3.83-4.72-9.9-7.08-18.2-7.08-3.11,0-7.35,.54-12.73,1.61-5.14,3.41-9.6,5.23-13.36,5.47-.3-.18-.45-.39-.45-.63,0,.54,.15,.15,.45-1.17,.06-.6,.42-6.69,1.08-18.29,.48-9.27,.85-17.44,1.12-24.53,.27-7.08,.4-13.23,.4-18.43,0-12.25-.18-21.58-.54-27.98-.12-2.09-.39-4.65-.81-7.67-.42-3.02-.99-6.56-1.7-10.63-.72-1.85-1.43-3.83-2.15-5.92,0-1.02,2.09-2.45,6.28-4.3,3.95-1.73,6.73-2.69,8.34-2.87,1.49,.72,2.51,3.98,3.05,9.77,10.76-4,25.44-7.26,44.03-9.77l.63,.27c0,.12-.51,.54-1.52,1.26-3.17,2.45-5.11,4.93-5.83,7.44-.3,1.14-.54,4.01-.72,8.61,0,2.57-.69,4.87-2.06,6.91-.96,1.38-3.29,2.84-7,4.39-1.02,.42-2.21,.87-3.59,1.34-1.38,.48-2.93,.96-4.66,1.43,.06-10.82,3.38-18.98,9.95-24.48-3.29,.6-7.32,1.41-12.11,2.42-4.78,1.02-10.34,2.24-16.68,3.68,.66,9.51,1.15,17.83,1.48,24.98,.33,7.14,.49,13.17,.49,18.07,0,8.55-.16,17.35-.49,26.41-.33,9.06-.82,18.52-1.48,28.38,11.36-2.15,19.94-3.23,25.74-3.23,1.49,0,3.11,.09,4.84,.27-.18-1.67-.99-5.14-2.42-10.4-1.02-4.36-1.52-7.89-1.52-10.58,0-1.02,2.12-2.48,6.37-4.39,3.71-1.55,6.52-2.57,8.43-3.05,.12,.24,.28,1,.49,2.29,.21,1.29,.46,3.06,.76,5.34,.06,.6,.24,1.63,.54,3.09,.3,1.47,.72,3.45,1.26,5.96,.72,3.77,1.08,6.82,1.08,9.15Z"/>
            <path class="cls-2" d="M243.4,184.3c-2.09,3.17-7,5.56-14.71,7.17-.84-.9-3.08-5.68-6.73-14.35-7.35-17.28-16.86-31.06-28.52-41.34-.24,6.82-.54,13.71-.9,20.67-.36,6.96-.81,14.06-1.35,21.3-3.35,3.89-8.31,6.28-14.89,7.17,.24-4.48,.6-11.21,1.08-20.18,.54-10.22,.81-20.03,.81-29.41,0-5.5-.18-13.69-.54-24.57-.36-10.82-.54-19.01-.54-24.57,0-4.9-.48-8.52-1.43-10.85-1.44-4-2.15-5.89-2.15-5.65,0-1.2,2.09-2.63,6.28-4.3,1.67-.72,3.2-1.31,4.57-1.79,1.38-.48,2.66-.84,3.86-1.08,2.03,1.61,3.32,8.94,3.86,21.97,.42,5.86,.87,14.65,1.35,26.36,5.56-8.55,9.89-15.18,13-19.91,3.11-4.72,5.05-7.62,5.83-8.7,10.28-12.91,19.43-19.49,27.44-19.73-.12,.3-.75,.84-1.88,1.61-5.56,4.42-14.38,16.44-26.45,36.05-1.08,1.73-2.15,3.5-3.23,5.29-1.08,1.79-2.15,3.59-3.23,5.38-3.11,4.72-5.71,7.89-7.8,9.51,11,6.94,20.5,16.62,28.52,29.06,2.27,3.59,4.87,8.25,7.8,13.99,2.93,5.74,6.25,12.71,9.95,20.89Z"/>
          </g>
        </g>
      </g>
    </g>
  </g>
</svg>