<?xml version="1.0" encoding="UTF-8"?>
<svg id="Layer_2" data-name="Layer 2" xmlns="http://www.w3.org/2000/svg" xmlns:xlink="http://www.w3.org/1999/xlink" viewBox="0 0 337.92 409.43">
  <defs>
    <style>
      .cls-1 {
        clip-path: url(#clippath-1);
      }

      .cls-2 {
        fill: #2e1b10;
      }

      .cls-3 {
        clip-path: url(#clippath);
      }

      .cls-4, .cls-5 {
        fill: none;
      }

      .cls-6 {
        fill: url(#linear-gradient);
      }

      .cls-6, .cls-5 {
        stroke: #3b2314;
        stroke-miterlimit: 10;
        stroke-width: 6px;
      }
    </style>
    <clipPath id="clippath">
      <path id="Form_big" data-name="Form big" class="cls-5" d="M166.71,406.32h146.45c19.27,0,16.7-18.28,16.7-18.28,0,0,1.54-253.78-30.06-308.36C268.2,25.1,186.75,3,166.71,3S65.22,25.1,33.62,79.68C2.02,134.26,3.56,388.04,3.56,388.04c0,0-2.57,18.28,16.7,18.28H166.71Z"/>
    </clipPath>
    <linearGradient id="linear-gradient" x1="3.44" y1="212.65" x2="329.98" y2="212.65" gradientUnits="userSpaceOnUse">
      <stop offset="0" stop-color="#fbcdab"/>
      <stop offset="1" stop-color="#fde4d9"/>
    </linearGradient>
    <clipPath id="clippath-1">
      <polygon class="cls-4" points="130.68 386.03 82.56 337.91 82.56 269.86 130.68 221.74 198.74 221.74 246.86 269.86 246.86 337.91 198.74 386.03 130.68 386.03"/>
    </clipPath>
  </defs>
  <g id="International_south_copy" data-name="International south copy">
    <g id="Climbing_Monkey_copy_2" data-name="Climbing Monkey copy 2">
      <path id="Shadow" class="cls-2" d="M168.96,409.43h151.56c19.94,0,17.28-18.5,17.28-18.5,0,0,1.6-256.77-31.11-311.99C273.99,23.73,189.7,1.36,168.96,1.36S63.93,23.73,31.23,78.94C-1.48,134.16,.12,390.93,.12,390.93c0,0-2.66,18.5,17.28,18.5H168.96Z"/>
      <g>
        <g class="cls-3">
          <rect id="Color_gradient" data-name="Color gradient" class="cls-6" x="3.44" y="-40.31" width="326.53" height="505.92"/>
        </g>
        <path id="Form_big-2" data-name="Form big" class="cls-5" d="M166.71,406.32h146.45c19.27,0,16.7-18.28,16.7-18.28,0,0,1.54-253.78-30.06-308.36C268.2,25.1,186.75,3,166.71,3S65.22,25.1,33.62,79.68C2.02,134.26,3.56,388.04,3.56,388.04c0,0-2.57,18.28,16.7,18.28H166.71Z"/>
      </g>
      <g id="Pieces_copy_32" data-name="Pieces copy 32">
        <g id="Climbing_Monkey_copy_14" data-name="Climbing Monkey copy 14">
          <g id="CM_move_copy_14" data-name="CM move copy 14">
            <g id="Lines">
              <g class="cls-1">
                <g>
                  <rect class="cls-2" x="119.71" y="205.04" width="9.1" height="115.91" transform="translate(-149.57 164.89) rotate(-45)"/>
                  <rect class="cls-2" x="148.04" y="258.46" width="115.97" height="9.1" transform="translate(-125.63 222.69) rotate(-45)"/>
                  <rect class="cls-2" x="160.6" y="221.7" width="9.1" height="164.36"/>
                </g>
              </g>
            </g>
            <rect id="Center" class="cls-2" x="146.19" y="285.25" width="37.93" height="37.93"/>
          </g>
          <g>
            <path class="cls-2" d="M140,168.07c0,4.6-.6,7.86-1.79,9.78-.84,1.38-3.08,2.87-6.73,4.48-3.65,1.67-6.4,2.54-8.25,2.6-3.83-4.72-9.89-7.08-18.2-7.08-3.11,0-7.35,.54-12.73,1.61-5.14,3.41-9.59,5.23-13.36,5.47-.3-.18-.45-.39-.45-.63,0,.54,.15,.15,.45-1.17,.06-.6,.42-6.69,1.08-18.29,.48-9.27,.85-17.44,1.12-24.53,.27-7.08,.4-13.23,.4-18.43,0-12.25-.18-21.58-.54-27.98-.12-2.09-.39-4.65-.81-7.67-.42-3.02-.99-6.56-1.7-10.63-.72-1.85-1.44-3.83-2.15-5.92,0-1.02,2.09-2.45,6.28-4.3,3.95-1.73,6.73-2.69,8.34-2.87,1.49,.72,2.51,3.98,3.05,9.77,10.76-4,25.44-7.26,44.03-9.77l.63,.27c0,.12-.51,.54-1.52,1.26-3.17,2.45-5.11,4.93-5.83,7.44-.3,1.14-.54,4.01-.72,8.61,0,2.57-.69,4.87-2.06,6.91-.96,1.38-3.29,2.84-6.99,4.39-1.02,.42-2.21,.87-3.59,1.34-1.38,.48-2.93,.96-4.66,1.43,.06-10.82,3.38-18.98,9.95-24.48-3.29,.6-7.32,1.41-12.11,2.42-4.78,1.02-10.34,2.24-16.68,3.68,.66,9.51,1.15,17.83,1.48,24.98,.33,7.14,.49,13.17,.49,18.07,0,8.55-.17,17.35-.49,26.41-.33,9.06-.82,18.52-1.48,28.38,11.36-2.15,19.94-3.23,25.74-3.23,1.49,0,3.11,.09,4.84,.27-.18-1.67-.99-5.14-2.42-10.4-1.02-4.36-1.53-7.89-1.53-10.58,0-1.02,2.12-2.48,6.37-4.39,3.71-1.55,6.52-2.57,8.43-3.05,.12,.24,.28,1,.49,2.29,.21,1.29,.46,3.06,.76,5.34,.06,.6,.24,1.63,.54,3.09,.3,1.47,.72,3.45,1.26,5.96,.72,3.77,1.08,6.82,1.08,9.15Z"/>
            <path class="cls-2" d="M253.89,177.75c0,1.14-2.03,2.57-6.1,4.3-4.12,1.74-7.03,2.69-8.7,2.87l-1.7-14.71c-.66-6.34-1.15-13.75-1.48-22.24-.33-8.49-.49-18.12-.49-28.88,0-2.57,.01-5.75,.04-9.55,.03-3.8,.07-8.29,.13-13.5,.18-10.28,.27-17.99,.27-23.14,0-1.02,.09-1.88,.27-2.6-2.33,1.14-5.29,2.47-8.88,3.99-3.59,1.52-7.8,3.3-12.64,5.34-.12,8.73-.22,15.8-.31,21.21-.09,5.41-.13,9.25-.13,11.52,0,16.56,.45,31.42,1.35,44.57,.54,6.28,1.06,11.07,1.57,14.39,.51,3.32,.76,5.46,.76,6.41,0,1.2-2.09,2.63-6.28,4.3-4.3,1.74-7.26,2.69-8.88,2.87l-1.43-14.53c-.78-7.35-1.35-15.25-1.71-23.67-.36-8.43-.54-17.49-.54-27.17,0-3.47,.09-8.76,.27-15.87,.18-7.05,.27-12.38,.27-15.96,0-.72,.01-1.6,.04-2.65,.03-1.05,.07-2.26,.13-3.63,.06-1.38,.1-2.59,.13-3.63,.03-1.04,.04-1.93,.04-2.64,0-.84-.02-1.66-.04-2.47-.03-.81-.08-1.57-.13-2.29-4.66,2.27-11.75,5.41-21.25,9.42,.12,3.53,.22,6.71,.31,9.55,.09,2.84,.13,5.37,.13,7.58,0,9.86-1.44,33.36-4.3,70.49-.12,1.5-.27,3.11-.45,4.84-.18,1.73-.42,3.56-.72,5.47-.66,1.32-2.78,2.78-6.37,4.39-1.73,.78-3.33,1.41-4.8,1.88-1.47,.48-2.77,.78-3.9,.9,.3-2.27,.69-5.68,1.17-10.22,.48-4.54,1.02-10.31,1.61-17.31,1.97-21.76,2.96-39.52,2.96-53.27,0-4.48-.09-8.64-.27-12.46-.18-3.83-.42-7.38-.72-10.67-.72-7.77-1.08-11.6-1.08-11.48,0-1.13,2.15-2.57,6.46-4.3,3.53-1.44,6.34-2.33,8.43-2.69,.48,3.05,.93,7.41,1.34,13.09,.84-.18,1.9-.4,3.18-.67,1.29-.27,2.79-.58,4.53-.94,2.87-.78,7.56-2.84,14.08-6.19,6.16-3.17,10.88-4.93,14.17-5.29,.66,.12,.99,.48,.99,1.08,0,.66-.03,1.48-.09,2.47-.06,.99-.15,2.17-.27,3.54-.18,2.63-.27,4.6-.27,5.92,.84-.24,1.91-.49,3.23-.76,1.31-.27,2.84-.58,4.57-.94,1.37-.36,3.23-1.04,5.56-2.06,2.33-1.02,5.17-2.36,8.52-4.04,6.04-3.11,10.73-4.84,14.08-5.2,.42,.42,.63,1.08,.63,1.97,0,5.38-.18,13.3-.54,23.76-.12,5.26-.22,9.85-.31,13.76-.09,3.92-.13,7.22-.13,9.91,0,8.49,.13,16.46,.4,23.9,.27,7.44,.64,14.48,1.12,21.12,.42,6.28,.88,11.07,1.39,14.39,.51,3.32,.76,5.46,.76,6.41Z"/>
          </g>
        </g>
      </g>
    </g>
  </g>
</svg>