<?xml version="1.0" encoding="UTF-8"?>
<svg id="Layer_2" data-name="Layer 2" xmlns="http://www.w3.org/2000/svg" xmlns:xlink="http://www.w3.org/1999/xlink" width="337" height="409" viewBox="0 0 337.92 409.43">
  <defs>
    <style>
      .cls-1 {
        clip-path: url(#clippath-1);
      }

      .cls-2 {
        fill: #2e1b10;
      }

      .cls-3 {
        clip-path: url(#clippath);
      }

      .cls-4, .cls-5 {
        fill: none;
      }

      .cls-6 {
        fill: url(#linear-gradient);
      }

      .cls-6, .cls-5 {
        stroke: #3b2314;
        stroke-miterlimit: 10;
        stroke-width: 6px;
      }
    </style>
    <clipPath id="clippath">
      <path id="Form_big" data-name="Form big" class="cls-5" d="M166.71,406.32h146.45c19.27,0,16.7-18.28,16.7-18.28,0,0,1.54-253.78-30.06-308.36C268.2,25.1,186.75,3,166.71,3S65.22,25.1,33.62,79.68C2.02,134.26,3.56,388.04,3.56,388.04c0,0-2.57,18.28,16.7,18.28H166.71Z"/>
    </clipPath>
    <linearGradient id="linear-gradient" x1="3.44" y1="212.65" x2="329.98" y2="212.65" gradientUnits="userSpaceOnUse">
      <stop offset="0" stop-color="#fbcdab"/>
      <stop offset="1" stop-color="#fde4d9"/>
    </linearGradient>
    <clipPath id="clippath-1">
      <polygon class="cls-4" points="130.68 386.03 82.56 337.91 82.56 269.86 130.68 221.74 198.74 221.74 246.86 269.86 246.86 337.91 198.74 386.03 130.68 386.03"/>
    </clipPath>
  </defs>
  <g id="International_south_copy" data-name="International south copy">
    <g id="Flying_Goose_copy_2" data-name="Flying Goose copy 2">
      <path id="Shadow" class="cls-2" d="M168.96,409.43h151.56c19.94,0,17.28-18.5,17.28-18.5,0,0,1.6-256.77-31.11-311.99C273.99,23.73,189.7,1.36,168.96,1.36S63.93,23.73,31.23,78.94C-1.48,134.16,.12,390.93,.12,390.93c0,0-2.66,18.5,17.28,18.5H168.96Z"/>
      <g>
        <g class="cls-3">
          <rect id="Color_gradient" data-name="Color gradient" class="cls-6" x="3.44" y="-40.31" width="326.53" height="505.92"/>
        </g>
        <path id="Form_big-2" data-name="Form big" class="cls-5" d="M166.71,406.32h146.45c19.27,0,16.7-18.28,16.7-18.28,0,0,1.54-253.78-30.06-308.36C268.2,25.1,186.75,3,166.71,3S65.22,25.1,33.62,79.68C2.02,134.26,3.56,388.04,3.56,388.04c0,0-2.57,18.28,16.7,18.28H166.71Z"/>
      </g>
      <g id="Pieces_copy_32" data-name="Pieces copy 32">
        <g id="Flying_Goose_copy_17" data-name="Flying Goose copy 17">
          <g id="FG_move_copy_17" data-name="FG move copy 17">
            <g id="Lines">
              <g class="cls-1">
                <g>
                  <rect class="cls-2" x="119.71" y="205.04" width="9.1" height="115.91" transform="translate(-149.57 164.89) rotate(-45)"/>
                  <rect class="cls-2" x="148.04" y="258.46" width="115.97" height="9.1" transform="translate(-125.63 222.69) rotate(-45)"/>
                  <rect class="cls-2" x="160.6" y="221.7" width="9.1" height="164.36"/>
                </g>
              </g>
            </g>
            <rect id="Center" class="cls-2" x="146.19" y="285.25" width="37.93" height="37.93"/>
          </g>
          <g>
            <path class="cls-2" d="M155.38,62.61c-.18,.3-.69,.81-1.52,1.53-2.81,2.57-4.63,4.81-5.47,6.73-.72,1.91-1.08,4.6-1.08,8.07s-.63,6.22-1.88,7.89c-1.2,1.79-3.44,3.35-6.73,4.66-3.23,1.38-6.04,2.27-8.43,2.69,.3-11,3.62-19.22,9.95-24.66-3.23,.66-7.23,1.5-12.02,2.51-4.78,1.02-10.4,2.27-16.86,3.77,.66,9.87,1.15,18.55,1.48,26.05,.33,7.5,.49,13.92,.49,19.24,10.46-2.21,23.32-3.32,38.56-3.32l.18,.27c-.66,1.08-2.84,2.57-6.55,4.48-3.59,1.79-6.22,2.69-7.89,2.69-3.23,0-6.86,.13-10.9,.4-4.04,.27-8.56,.64-13.59,1.12-.66,32.82-1.5,49.98-2.51,51.47-1.08,1.5-3.29,3.02-6.64,4.57-3.35,1.43-6.22,2.15-8.61,2.15,1.43-6.34,2.15-12.97,2.15-19.91,0-4.24,.09-10.73,.27-19.46,.12-4.36,.21-8.16,.27-11.39,.06-3.23,.09-5.89,.09-7.98,0-4.12-.45-16.38-1.35-36.77,0-1.55-.13-3.5-.4-5.83-.27-2.33-.64-5.02-1.12-8.07-1.38-4.42-2.06-6.37-2.06-5.83,0-1.08,2.15-2.57,6.46-4.48,3.77-1.61,6.58-2.51,8.43-2.69,1.67,2.21,2.63,5.47,2.87,9.77,13.81-5.08,27.59-8.34,41.34-9.77,.72,.18,1.73,.21,3.05,.09Z"/>
            <path class="cls-2" d="M236.98,140.36c-.84,1.2-2.09,2.21-3.77,3.05,.3,3.47,.52,6.64,.67,9.51,.15,2.87,.22,5.44,.22,7.71,0,8.49-1.02,14.05-3.05,16.68-.9,1.38-2.99,2.9-6.28,4.57-1.67,.84-3.15,1.52-4.44,2.06-1.29,.54-2.41,.87-3.36,.99-.36-.12-1.38-1.08-3.05-2.87-3.29-3.29-8.61-4.93-15.96-4.93-2.87,0-7.14,.57-12.82,1.7-5.38,3.59-9.83,5.62-13.36,6.1-.06-.3-.09-.57-.09-.81v-.54c0,.42,.07,.16,.22-.76,.15-.93,.37-2.53,.67-4.8,.06-1.55,.12-3.47,.18-5.74,.06-2.27,.15-4.93,.27-7.98,.72-18.17,1.08-30.7,1.08-37.58,0-2.45-.04-5.23-.13-8.34-.09-3.11-.19-6.58-.31-10.4-.3-5.2-.51-9.36-.63-12.46-.12-3.11-.21-5.23-.27-6.37,.06-3.11-.3-7.71-1.08-13.81-.24-.6-.55-1.36-.94-2.29-.39-.93-.91-2.05-1.57-3.36,.54-1.31,2.63-2.78,6.28-4.39,3.59-1.67,6.46-2.6,8.61-2.78,1.55,2.09,2.51,5.44,2.87,10.04,18.29-6.69,32.58-10.04,42.87-10.04,.54,0,1.04,.18,1.52,.54-.12,.12-.3,.3-.54,.54-.24,.24-.57,.54-.99,.9-4.19,3.59-6.28,8.07-6.28,13.45v2.15c0,5.32-2.99,9.24-8.97,11.75-3.29,1.38-6.07,2.3-8.34,2.78,.24-11,3.56-19.25,9.95-24.75-3.23,.6-7.22,1.42-11.97,2.47-4.75,1.05-10.36,2.32-16.81,3.81,1.25,15.6,1.88,29.77,1.88,42.51,0,18.29-.63,36.35-1.88,54.16,11.54-2.15,19.76-3.23,24.66-3.23,1.19,0,2.39,.04,3.59,.13,1.2,.09,2.36,.25,3.5,.49v-3.23c0-2.33-.27-5.8-.81-10.4-.24-2.33-.42-4.36-.54-6.1-.12-1.73-.18-3.17-.18-4.3-1.73-.6-4.07-1.34-7-2.24-2.93-.9-6.52-1.97-10.76-3.23,.9-1.14,3.08-2.6,6.55-4.39,3.47-1.85,5.98-2.78,7.53-2.78,1.13,0,8.82,2.27,23.05,6.82Z"/>
          </g>
        </g>
      </g>
    </g>
  </g>
</svg>