<?xml version="1.0" encoding="UTF-8"?>
<svg id="Layer_2" data-name="Layer 2" xmlns="http://www.w3.org/2000/svg" xmlns:xlink="http://www.w3.org/1999/xlink" width="337" height="409" viewBox="0 0 337.92 409.43">
  <defs>
    <style>
      .cls-1 {
        fill: #f20000;
      }

      .cls-2 {
        clip-path: url(#clippath-1);
      }

      .cls-3 {
        fill: #2e1b10;
      }

      .cls-4 {
        clip-path: url(#clippath);
      }

      .cls-5, .cls-6 {
        fill: none;
      }

      .cls-7 {
        fill: url(#linear-gradient);
      }

      .cls-7, .cls-8, .cls-6 {
        stroke-miterlimit: 10;
      }

      .cls-7, .cls-6 {
        stroke: #3b2314;
        stroke-width: 6px;
      }

      .cls-8 {
        fill: #00aeb7;
        stroke: #007a72;
        stroke-width: 4px;
      }
    </style>
    <clipPath id="clippath">
      <path id="Form_big" data-name="Form big" class="cls-6" d="M166.71,406.32h146.45c19.27,0,16.7-18.28,16.7-18.28,0,0,1.54-253.78-30.06-308.36C268.2,25.1,186.75,3,166.71,3S65.22,25.1,33.62,79.68C2.02,134.26,3.56,388.04,3.56,388.04c0,0-2.57,18.28,16.7,18.28H166.71Z"/>
    </clipPath>
    <linearGradient id="linear-gradient" x1="3.44" y1="212.65" x2="329.98" y2="212.65" gradientUnits="userSpaceOnUse">
      <stop offset="0" stop-color="#fbcdab"/>
      <stop offset="1" stop-color="#fde4d9"/>
    </linearGradient>
    <clipPath id="clippath-1">
      <polygon class="cls-5" points="130.68 386.03 82.56 337.91 82.56 269.86 130.68 221.74 198.74 221.74 246.86 269.86 246.86 337.91 198.74 386.03 130.68 386.03"/>
    </clipPath>
  </defs>
  <g id="International_south_copy" data-name="International south copy">
    <g id="Fox_P_copy" data-name="Fox P copy">
      <path id="Shadow" class="cls-3" d="M168.96,409.43h151.56c19.94,0,17.28-18.5,17.28-18.5,0,0,1.6-256.77-31.11-311.99C273.99,23.73,189.7,1.36,168.96,1.36S63.93,23.73,31.23,78.94C-1.48,134.16,.12,390.93,.12,390.93c0,0-2.66,18.5,17.28,18.5H168.96Z"/>
      <g>
        <g class="cls-4">
          <rect id="Color_gradient" data-name="Color gradient" class="cls-7" x="3.44" y="-40.31" width="326.53" height="505.92"/>
        </g>
        <path id="Form_big-2" data-name="Form big" class="cls-6" d="M166.71,406.32h146.45c19.27,0,16.7-18.28,16.7-18.28,0,0,1.54-253.78-30.06-308.36C268.2,25.1,186.75,3,166.71,3S65.22,25.1,33.62,79.68C2.02,134.26,3.56,388.04,3.56,388.04c0,0-2.57,18.28,16.7,18.28H166.71Z"/>
      </g>
      <g id="Pieces_copy_32" data-name="Pieces copy 32">
        <g id="Fox_BLUE_copy_16" data-name="Fox BLUE copy 16">
          <g id="FOX_move_copy_16" data-name="FOX move copy 16">
            <g id="Lines">
              <g class="cls-2">
                <g>
                  <rect class="cls-8" x="160.6" y="188.1" width="9.1" height="231.58" transform="translate(-166.51 205.81) rotate(-45)"/>
                  <rect class="cls-8" x="49.36" y="299.34" width="231.58" height="9.1" transform="translate(-166.5 205.76) rotate(-45)"/>
                  <rect class="cls-8" x="160.6" y="221.7" width="9.1" height="164.36"/>
                </g>
              </g>
            </g>
            <g id="red_dots_copy_20" data-name="red dots copy 20">
              <rect class="cls-1" x="80.16" y="219.3" width="14.25" height="14.25" transform="translate(-134.54 128.04) rotate(-45)"/>
              <rect class="cls-1" x="157.59" y="219.23" width="14.25" height="14.25" transform="translate(-111.81 182.76) rotate(-45)"/>
              <rect class="cls-1" x="235.81" y="219.23" width="14.25" height="14.25" transform="translate(-88.9 238.08) rotate(-45)"/>
              <rect class="cls-1" x="239.81" y="378.99" width="14.25" height="14.25" transform="translate(-200.7 287.7) rotate(-45)"/>
              <rect class="cls-1" x="158.39" y="378.91" width="14.25" height="14.25" transform="translate(-224.49 230.11) rotate(-45)"/>
              <rect class="cls-1" x="76.16" y="378.91" width="14.25" height="14.25" transform="translate(-248.57 171.96) rotate(-45)"/>
            </g>
            <rect id="Center" class="cls-8" x="146.19" y="285.25" width="37.93" height="37.93"/>
          </g>
          <g>
            <path class="cls-8" d="M134.43,62.61c-.18,.3-.69,.81-1.52,1.53-2.81,2.57-4.63,4.81-5.47,6.73-.72,1.91-1.08,4.6-1.08,8.07s-.63,6.22-1.88,7.89c-1.2,1.79-3.44,3.35-6.73,4.66-3.23,1.38-6.04,2.27-8.43,2.69,.3-11,3.62-19.22,9.96-24.66-3.23,.66-7.23,1.5-12.02,2.51s-10.4,2.27-16.86,3.77c.66,9.87,1.15,18.55,1.48,26.05,.33,7.5,.49,13.92,.49,19.24,10.46-2.21,23.32-3.32,38.56-3.32l.18,.27c-.66,1.08-2.84,2.57-6.55,4.48-3.59,1.79-6.22,2.69-7.89,2.69-3.23,0-6.86,.13-10.9,.4-4.04,.27-8.56,.64-13.59,1.12-.66,32.82-1.5,49.98-2.51,51.47-1.08,1.5-3.29,3.02-6.64,4.57-3.35,1.43-6.22,2.15-8.61,2.15,1.43-6.34,2.15-12.97,2.15-19.91,0-4.24,.09-10.73,.27-19.46,.12-4.36,.21-8.16,.27-11.39,.06-3.23,.09-5.89,.09-7.98,0-4.12-.45-16.38-1.35-36.77,0-1.55-.13-3.5-.4-5.83-.27-2.33-.64-5.02-1.12-8.07-1.38-4.42-2.06-6.37-2.06-5.83,0-1.08,2.15-2.57,6.46-4.48,3.77-1.61,6.58-2.51,8.43-2.69,1.67,2.21,2.63,5.47,2.87,9.77,13.81-5.08,27.59-8.34,41.34-9.77,.72,.18,1.73,.21,3.05,.09Z"/>
            <path class="cls-8" d="M198.07,178.77c-.8,1.13-2.76,2.46-5.88,3.96-3.07,1.46-5.38,2.2-6.94,2.2-.38,0-.59-.57-.64-1.7-4.81-3.12-12.01-4.67-21.59-4.67-1.42,0-2.87,.04-4.35,.11-1.49,.07-3.01,.15-4.57,.25-2.27,1.04-4.13,1.63-5.59,1.77,0-.9,.06-2.42,.18-4.57,.12-2.15,.29-4.97,.53-8.46,.38-5.57,.67-11.15,.89-16.74,.21-5.59,.32-11.22,.32-16.89,0-14.73-.69-23.93-2.05-27.61-.05-.09-.17-.34-.35-.74-.19-.4-.47-.93-.85-1.59-.57-.9-.85-1.7-.85-2.41s1.72-1.93,5.17-3.68c3.44-1.75,5.64-2.45,6.58-2.12,4.06-.75,9.03-1.76,14.9-3.01,5.88-1.25,12.76-2.77,20.64-4.57l.5,.92c-.57,25.06-.85,38-.85,38.8,0,9.3,.27,18.05,.81,26.27,.54,8.21,1.36,15.98,2.44,23.29l1.56,1.2Zm-14.66-5.59c-.66-6.18-1.17-12.55-1.52-19.12-.35-6.56-.53-13.36-.53-20.39,0-24.12,.45-37.29,1.35-39.51-1.7,.47-4.46,1.11-8.28,1.91-3.82,.8-8.76,1.82-14.8,3.04,.33,.95,.61,2.35,.85,4.21,.24,1.87,.4,4.21,.5,7.05,.38,7.03,.67,12.52,.88,16.46,.21,3.94,.32,6.38,.32,7.33,0,5-.15,10.74-.46,17.2-.31,6.47-.77,13.78-1.38,21.95,5.71-.57,10.27-.85,13.66-.85,1.42,0,2.9,.06,4.46,.18,1.56,.12,3.21,.3,4.96,.53Z"/>
            <path class="cls-8" d="M263.56,88.64c-3.07,9.16-9.94,24.03-20.6,44.6,2.59,8.31,6.56,20.7,11.89,37.17,2.08,6.09,3.12,9.04,3.12,8.85,0,.85-1.68,2.03-5.03,3.54-3.35,1.42-5.66,2.12-6.94,2.12-.24,0-.35-.4-.35-1.2l-2.55-7.51c-.95-2.97-2.1-6.68-3.47-11.12-1.37-4.44-2.95-9.67-4.74-15.72-1.13,2.17-2.46,4.91-3.96,8.21-1.51,3.3-3.26,7.18-5.24,11.61-.71,2.69-1.98,6.11-3.82,10.27-.95,1.13-2.74,2.34-5.38,3.61-2.74,1.23-4.86,1.84-6.37,1.84,.19-4.11,7.2-19.54,21.03-46.3-5.71-16.28-11.59-28.84-17.63-37.67-3.07-4.62-4.6-6.89-4.6-6.8,0-.85,1.65-2.01,4.96-3.47,1.32-.61,2.51-1.12,3.58-1.52,1.06-.4,2.02-.7,2.87-.88l.42,.21c6.98,9.25,13.19,20.72,18.62,34.41,4.06-8.35,6.96-14.82,8.71-19.4,.33-1.32,.8-2.8,1.42-4.42,.61-1.63,1.39-3.43,2.34-5.42,.94-1.09,2.69-2.22,5.24-3.4,2.55-1.18,4.72-1.84,6.51-1.98v.35Z"/>
          </g>
        </g>
      </g>
    </g>
  </g>
</svg>