<?xml version="1.0" encoding="UTF-8"?>
<svg id="Layer_2" data-name="Layer 2" xmlns="http://www.w3.org/2000/svg" xmlns:xlink="http://www.w3.org/1999/xlink" viewBox="0 0 337.92 409.43">
  <defs>
    <style>
      .cls-1 {
        clip-path: url(#clippath-1);
      }

      .cls-2 {
        fill: #2e1b10;
      }

      .cls-3 {
        clip-path: url(#clippath);
      }

      .cls-4, .cls-5 {
        fill: none;
      }

      .cls-6 {
        fill: url(#linear-gradient);
      }

      .cls-6, .cls-7, .cls-5 {
        stroke-miterlimit: 10;
      }

      .cls-6, .cls-5 {
        stroke: #3b2314;
        stroke-width: 6px;
      }

      .cls-7 {
        fill: #00aeb7;
        stroke: #007a72;
        stroke-width: 4px;
      }
    </style>
    <clipPath id="clippath">
      <path id="Form_big" data-name="Form big" class="cls-5" d="M166.71,406.32h146.45c19.27,0,16.7-18.28,16.7-18.28,0,0,1.54-253.78-30.06-308.36C268.2,25.1,186.75,3,166.71,3S65.22,25.1,33.62,79.68C2.02,134.26,3.56,388.04,3.56,388.04c0,0-2.57,18.28,16.7,18.28H166.71Z"/>
    </clipPath>
    <linearGradient id="linear-gradient" x1="3.44" y1="212.65" x2="329.98" y2="212.65" gradientUnits="userSpaceOnUse">
      <stop offset="0" stop-color="#fbcdab"/>
      <stop offset="1" stop-color="#fde4d9"/>
    </linearGradient>
    <clipPath id="clippath-1">
      <polygon class="cls-4" points="130.68 386.03 82.56 337.91 82.56 269.86 130.68 221.74 198.74 221.74 246.86 269.86 246.86 337.91 198.74 386.03 130.68 386.03"/>
    </clipPath>
  </defs>
  <g id="International_south_copy" data-name="International south copy">
    <g id="Golden_Bird_copy_2" data-name="Golden Bird copy 2">
      <path id="Shadow" class="cls-2" d="M168.96,409.43h151.56c19.94,0,17.28-18.5,17.28-18.5,0,0,1.6-256.77-31.11-311.99C273.99,23.73,189.7,1.36,168.96,1.36S63.93,23.73,31.23,78.94C-1.48,134.16,.12,390.93,.12,390.93c0,0-2.66,18.5,17.28,18.5H168.96Z"/>
      <g>
        <g class="cls-3">
          <rect id="Color_gradient" data-name="Color gradient" class="cls-6" x="3.44" y="-40.31" width="326.53" height="505.92"/>
        </g>
        <path id="Form_big-2" data-name="Form big" class="cls-5" d="M166.71,406.32h146.45c19.27,0,16.7-18.28,16.7-18.28,0,0,1.54-253.78-30.06-308.36C268.2,25.1,186.75,3,166.71,3S65.22,25.1,33.62,79.68C2.02,134.26,3.56,388.04,3.56,388.04c0,0-2.57,18.28,16.7,18.28H166.71Z"/>
      </g>
      <g id="Pieces_copy_32" data-name="Pieces copy 32">
        <g id="Golden_Bird_copy_9" data-name="Golden Bird copy 9">
          <g id="GB_move_copy_9" data-name="GB move copy 9">
            <g id="Lines">
              <g class="cls-1">
                <g>
                  <rect class="cls-7" x="119.64" y="205.07" width="9.1" height="115.71" transform="translate(-149.55 164.84) rotate(-45)"/>
                  <rect class="cls-7" x="148" y="258.48" width="116.02" height="9.1" transform="translate(-125.65 222.69) rotate(-45)"/>
                  <rect class="cls-7" x="83.28" y="299.34" width="163.75" height="9.1"/>
                  <rect class="cls-7" x="160.6" y="221.7" width="9.1" height="164.36"/>
                </g>
              </g>
            </g>
            <rect id="Center" class="cls-7" x="146.19" y="285.25" width="37.93" height="37.93"/>
          </g>
          <g>
            <path class="cls-7" d="M153.4,140.36c-.84,1.2-2.09,2.21-3.77,3.05,.3,3.47,.52,6.64,.67,9.51,.15,2.87,.22,5.44,.22,7.71,0,8.49-1.02,14.05-3.05,16.68-.9,1.38-2.99,2.9-6.28,4.57-1.67,.84-3.15,1.52-4.44,2.06-1.29,.54-2.41,.87-3.36,.99-.36-.12-1.38-1.08-3.05-2.87-3.29-3.29-8.61-4.93-15.96-4.93-2.87,0-7.14,.57-12.82,1.7-5.38,3.59-9.83,5.62-13.36,6.1-.06-.3-.09-.57-.09-.81v-.54c0,.42,.07,.16,.22-.76,.15-.93,.37-2.53,.67-4.8,.06-1.55,.12-3.47,.18-5.74,.06-2.27,.15-4.93,.27-7.98,.72-18.17,1.08-30.7,1.08-37.58,0-2.45-.05-5.23-.13-8.34-.09-3.11-.19-6.58-.31-10.4-.3-5.2-.51-9.36-.63-12.46-.12-3.11-.21-5.23-.27-6.37,.06-3.11-.3-7.71-1.08-13.81-.24-.6-.55-1.36-.94-2.29-.39-.93-.91-2.05-1.57-3.36,.54-1.31,2.63-2.78,6.28-4.39,3.59-1.67,6.46-2.6,8.61-2.78,1.55,2.09,2.51,5.44,2.87,10.04,18.29-6.69,32.58-10.04,42.87-10.04,.54,0,1.05,.18,1.52,.54-.12,.12-.3,.3-.54,.54-.24,.24-.57,.54-.99,.9-4.19,3.59-6.28,8.07-6.28,13.45v2.15c0,5.32-2.99,9.24-8.97,11.75-3.29,1.38-6.07,2.3-8.34,2.78,.24-11,3.56-19.25,9.95-24.75-3.23,.6-7.22,1.42-11.97,2.47-4.75,1.05-10.36,2.32-16.81,3.81,1.26,15.6,1.88,29.77,1.88,42.51,0,18.29-.63,36.35-1.88,54.16,11.54-2.15,19.76-3.23,24.66-3.23,1.19,0,2.39,.04,3.59,.13,1.2,.09,2.36,.25,3.5,.49v-3.23c0-2.33-.27-5.8-.81-10.4-.24-2.33-.42-4.36-.54-6.1-.12-1.73-.18-3.17-.18-4.3-1.73-.6-4.07-1.34-6.99-2.24-2.93-.9-6.52-1.97-10.76-3.23,.9-1.14,3.08-2.6,6.55-4.39,3.47-1.85,5.98-2.78,7.53-2.78,1.14,0,8.82,2.27,23.05,6.82Z"/>
            <path class="cls-7" d="M244.69,129.96c0,1.43-.25,4.81-.76,10.13-.51,5.32-1.27,12.61-2.29,21.88-.06,3.89-.75,9-2.06,15.33-.66,1.38-2.9,2.99-6.73,4.84-3.71,1.85-6.4,2.78-8.07,2.78,.6,0-2.42-.72-9.06-2.15-7.65-1.61-14.23-2.42-19.73-2.42-6.7,0-12.82,.96-18.38,2.87-.6,.3-1.38,.58-2.33,.85-.96,.27-2.12,.55-3.5,.85v-.27c0-.36,.13-.79,.4-1.3,.27-.51,.4-.91,.4-1.21l1.26-19.55c.48-7.47,.85-15.02,1.12-22.64,.27-7.62,.4-15.38,.4-23.27,0-10.82-.27-19.1-.81-24.84-.66-7.89-1.15-13.65-1.48-17.26-.33-3.62-.49-5.19-.49-4.71,0-1.08,2.15-2.57,6.46-4.48,3.77-1.67,6.55-2.63,8.34-2.87,.3,2.75,.58,5.26,.85,7.53,.27,2.27,.52,4.3,.76,6.1,1.37-.54,3.14-1.18,5.29-1.93,2.15-.75,4.72-1.6,7.71-2.56,1.85-.6,4.78-1.46,8.79-2.6,4-1.13,9.18-2.57,15.51-4.3,1.08-.36,2.42-.72,4.04-1.08,1.61-.36,3.47-.75,5.56-1.16-.48,1.02-1,2.29-1.57,3.81-.57,1.52-1.24,3.3-2.02,5.34-2.27,6.16-3.41,12.64-3.41,19.46,0,5.86,.81,13.03,2.42,21.52,1.55,.66,3.62,.96,6.19,.9,1.37-.06,2.54-.04,3.5,.04,.96,.09,1.7,.2,2.24,.31,.96,4.25,1.43,9.59,1.43,16.05Zm-14.98,5.38c0-.6-.04-1.33-.13-2.2-.09-.87-.19-1.87-.31-3-.12-1.2-.21-2.2-.27-3-.06-.81-.09-1.45-.09-1.93,0-1.25-.06-2.06-.18-2.42-.18-.6-.73-1.11-1.66-1.52-.93-.42-1.99-.63-3.18-.63-.96,0-3.26,.36-6.91,1.08-6.58,1.25-11.42,2.63-14.53,4.12-2.15,1.14-4.28,2.26-6.37,3.36-2.09,1.11-4.16,2.23-6.19,3.36-.12,2.87-.28,6.37-.49,10.49-.21,4.12-.46,9-.76,14.62,0,2.15-.1,4.81-.31,7.98-.21,3.17-.52,6.91-.94,11.21,7.47-2.45,15.66-3.68,24.57-3.68,4.48,0,9.06,.36,13.72,1.08,2.69-20.86,4.04-33.84,4.04-38.92Zm-9.24-65.2c-3.65,1.56-8.07,3.17-13.27,4.84-5.2,1.67-11.24,3.44-18.12,5.29,.42,5.8,.73,11.15,.94,16.05,.21,4.9,.31,9.39,.31,13.45,0,1.14-.04,3.32-.13,6.55-.09,3.23-.19,7.56-.31,13,9.45-5.86,18.11-9.98,26.01-12.38-.66-3.59-1.15-6.92-1.48-10-.33-3.08-.49-5.96-.49-8.65,0-11.48,2.18-20.86,6.55-28.16Z"/>
          </g>
        </g>
      </g>
    </g>
  </g>
</svg>