<?xml version="1.0" encoding="UTF-8"?>
<svg id="Layer_2" data-name="Layer 2" xmlns="http://www.w3.org/2000/svg" xmlns:xlink="http://www.w3.org/1999/xlink" viewBox="0 0 337.92 409.43">
  <defs>
    <style>
      .cls-1 {
        fill: #f20000;
      }

      .cls-2 {
        fill: #2e1b10;
      }

      .cls-3 {
        clip-path: url(#clippath);
      }

      .cls-4 {
        fill: url(#linear-gradient);
      }

      .cls-4, .cls-5, .cls-6 {
        stroke-miterlimit: 10;
      }

      .cls-4, .cls-6 {
        stroke: #3b2314;
        stroke-width: 6px;
      }

      .cls-5 {
        fill: #00aeb7;
        stroke: #007a72;
        stroke-width: 4px;
      }

      .cls-6 {
        fill: none;
      }
    </style>
    <clipPath id="clippath">
      <path id="Form_big" data-name="Form big" class="cls-6" d="M166.71,406.32h146.45c19.27,0,16.7-18.28,16.7-18.28,0,0,1.54-253.78-30.06-308.36C268.2,25.1,186.75,3,166.71,3S65.22,25.1,33.62,79.68C2.02,134.26,3.56,388.04,3.56,388.04c0,0-2.57,18.28,16.7,18.28H166.71Z"/>
    </clipPath>
    <linearGradient id="linear-gradient" x1="3.44" y1="212.65" x2="329.98" y2="212.65" gradientUnits="userSpaceOnUse">
      <stop offset="0" stop-color="#fbcdab"/>
      <stop offset="1" stop-color="#fde4d9"/>
    </linearGradient>
  </defs>
  <g id="International_south_copy" data-name="International south copy">
    <g id="Heavenly_Horse_copy_2" data-name="Heavenly Horse copy 2">
      <path id="Shadow" class="cls-2" d="M168.96,409.43h151.56c19.94,0,17.28-18.5,17.28-18.5,0,0,1.6-256.77-31.11-311.99C273.99,23.73,189.7,1.36,168.96,1.36S63.93,23.73,31.23,78.94C-1.48,134.16,.12,390.93,.12,390.93c0,0-2.66,18.5,17.28,18.5H168.96Z"/>
      <g>
        <g class="cls-3">
          <rect id="Color_gradient" data-name="Color gradient" class="cls-4" x="3.44" y="-40.31" width="326.53" height="505.92"/>
        </g>
        <path id="Form_big-2" data-name="Form big" class="cls-6" d="M166.71,406.32h146.45c19.27,0,16.7-18.28,16.7-18.28,0,0,1.54-253.78-30.06-308.36C268.2,25.1,186.75,3,166.71,3S65.22,25.1,33.62,79.68C2.02,134.26,3.56,388.04,3.56,388.04c0,0-2.57,18.28,16.7,18.28H166.71Z"/>
      </g>
      <g id="Pieces_copy_32" data-name="Pieces copy 32">
        <g id="Heavenly_Horse_copy_11" data-name="Heavenly Horse copy 11">
          <g id="HH_move_copy_11" data-name="HH move copy 11">
            <g id="red_dots_copy_15" data-name="red dots copy 15">
              <rect class="cls-1" x="118.71" y="218.92" width="14.25" height="15.01" transform="translate(-123.25 155.3) rotate(-45)"/>
              <rect class="cls-1" x="196.7" y="218.73" width="14.25" height="15.24" transform="translate(-100.35 210.42) rotate(-45)"/>
              <rect class="cls-1" x="196.88" y="378.99" width="15.01" height="14.25" transform="translate(-213.16 257.61) rotate(-45)"/>
              <rect class="cls-1" x="118.78" y="378.91" width="15.24" height="14.25" transform="translate(-235.95 202.45) rotate(-45)"/>
              <g>
                <rect class="cls-1" x="160.85" y="273.07" width="8.6" height="8.6"/>
                <rect class="cls-1" x="160.85" y="259.57" width="8.6" height="8.6"/>
                <rect class="cls-1" x="160.85" y="246.82" width="8.6" height="8.6"/>
                <rect class="cls-1" x="148.35" y="234.82" width="8.6" height="8.6"/>
                <rect class="cls-1" x="171.98" y="234.82" width="8.6" height="8.6"/>
              </g>
              <g>
                <rect class="cls-1" x="160.16" y="326.49" width="8.6" height="8.6"/>
                <rect class="cls-1" x="160.16" y="339.99" width="8.6" height="8.6"/>
                <rect class="cls-1" x="160.16" y="352.74" width="8.6" height="8.6"/>
                <rect class="cls-1" x="172.66" y="364.74" width="8.6" height="8.6"/>
                <rect class="cls-1" x="149.04" y="364.74" width="8.6" height="8.6"/>
              </g>
            </g>
            <rect id="Center" class="cls-5" x="146.19" y="285.25" width="37.93" height="37.93"/>
          </g>
          <g>
            <path class="cls-5" d="M156,177.75c0,1.2-2.06,2.63-6.19,4.3-4.12,1.74-7.08,2.69-8.88,2.87l-1.97-14.53c-.6-4.12-1.08-9.04-1.43-14.75-.36-5.71-.63-12.27-.81-19.68-6.58,2.63-16.53,6.31-29.86,11.03-.48,5.08-1.03,10.18-1.66,15.29-.63,5.11-1.27,10.3-1.93,15.56-1.32,1.85-3.62,3.5-6.91,4.93-3.23,1.43-6.13,2.15-8.7,2.15,.78-2.75,2-12.2,3.68-28.34,1.2-11.3,2.09-21.39,2.69-30.27,.6-8.88,.9-16.63,.9-23.27,0-5.02-.09-9.4-.27-13.14-.18-3.74-.42-6.86-.72-9.37-.9-6.87-1.35-10.49-1.35-10.85,0-1.08,2.15-2.57,6.46-4.48,3.53-1.44,6.37-2.33,8.52-2.69,1.43,12.2,2.15,23.76,2.15,34.7,0,13.75-.81,28.55-2.42,44.39,.96,.18,1.82,.27,2.6,.27,3.95,0,12.88-2.96,26.81-8.88,0-41.43,.24-62.47,.72-63.13,3.59-4.13,8.64-6.55,15.16-7.26l.45,.18c-.6,2.21-.9,7.32-.9,15.33,0,3.77-.09,9.45-.27,17.04-.06,3.83-.1,7.15-.13,9.95-.03,2.81-.04,5.17-.04,7.09,0,7.89,.13,15.48,.4,22.78,.27,7.29,.64,14.35,1.12,21.16,.12,1.67,.33,3.78,.63,6.32,.3,2.54,.66,5.55,1.08,9.01,.72,3.71,1.08,5.8,1.08,6.28Z"/>
            <path class="cls-5" d="M242.63,177.75c0,1.2-2.06,2.63-6.19,4.3-4.12,1.74-7.08,2.69-8.88,2.87l-1.97-14.53c-.6-4.12-1.08-9.04-1.43-14.75-.36-5.71-.63-12.27-.81-19.68-6.58,2.63-16.53,6.31-29.86,11.03-.48,5.08-1.03,10.18-1.66,15.29-.63,5.11-1.27,10.3-1.93,15.56-1.32,1.85-3.62,3.5-6.91,4.93-3.23,1.43-6.13,2.15-8.7,2.15,.78-2.75,2-12.2,3.68-28.34,1.2-11.3,2.09-21.39,2.69-30.27,.6-8.88,.9-16.63,.9-23.27,0-5.02-.09-9.4-.27-13.14-.18-3.74-.42-6.86-.72-9.37-.9-6.87-1.35-10.49-1.35-10.85,0-1.08,2.15-2.57,6.46-4.48,3.53-1.44,6.37-2.33,8.52-2.69,1.43,12.2,2.15,23.76,2.15,34.7,0,13.75-.81,28.55-2.42,44.39,.96,.18,1.82,.27,2.6,.27,3.95,0,12.88-2.96,26.81-8.88,0-41.43,.24-62.47,.72-63.13,3.59-4.13,8.64-6.55,15.16-7.26l.45,.18c-.6,2.21-.9,7.32-.9,15.33,0,3.77-.09,9.45-.27,17.04-.06,3.83-.1,7.15-.13,9.95-.03,2.81-.05,5.17-.05,7.09,0,7.89,.13,15.48,.4,22.78,.27,7.29,.64,14.35,1.12,21.16,.12,1.67,.33,3.78,.63,6.32,.3,2.54,.66,5.55,1.08,9.01,.72,3.71,1.08,5.8,1.08,6.28Z"/>
          </g>
        </g>
      </g>
    </g>
  </g>
</svg>