<?xml version="1.0" encoding="UTF-8"?>
<svg id="Layer_2" data-name="Layer 2" xmlns="http://www.w3.org/2000/svg" xmlns:xlink="http://www.w3.org/1999/xlink" viewBox="0 0 337.92 409.43">
  <defs>
    <style>
      .cls-1 {
        clip-path: url(#clippath-1);
      }

      .cls-2 {
        fill: #2e1b10;
      }

      .cls-3 {
        clip-path: url(#clippath);
      }

      .cls-4, .cls-5 {
        fill: none;
      }

      .cls-6 {
        fill: url(#linear-gradient);
      }

      .cls-6, .cls-5 {
        stroke: #3b2314;
        stroke-miterlimit: 10;
        stroke-width: 6px;
      }
    </style>
    <clipPath id="clippath">
      <path id="Form_big" data-name="Form big" class="cls-5" d="M166.71,406.32h146.45c19.27,0,16.7-18.28,16.7-18.28,0,0,1.54-253.78-30.06-308.36C268.2,25.1,186.75,3,166.71,3S65.22,25.1,33.62,79.68C2.02,134.26,3.56,388.04,3.56,388.04c0,0-2.57,18.28,16.7,18.28H166.71Z"/>
    </clipPath>
    <linearGradient id="linear-gradient" x1="3.44" y1="212.65" x2="329.98" y2="212.65" gradientUnits="userSpaceOnUse">
      <stop offset="0" stop-color="#fbcdab"/>
      <stop offset="1" stop-color="#fde4d9"/>
    </linearGradient>
    <clipPath id="clippath-1">
      <polygon class="cls-4" points="130.68 386.03 82.56 337.91 82.56 269.86 130.68 221.74 198.74 221.74 246.86 269.86 246.86 337.91 198.74 386.03 130.68 386.03"/>
    </clipPath>
  </defs>
  <g id="International_south_copy" data-name="International south copy">
    <g id="Liberated_Horse_copy_2" data-name="Liberated Horse copy 2">
      <path id="Shadow" class="cls-2" d="M168.96,409.43h151.56c19.94,0,17.28-18.5,17.28-18.5,0,0,1.6-256.77-31.11-311.99C273.99,23.73,189.7,1.36,168.96,1.36S63.93,23.73,31.23,78.94C-1.48,134.16,.12,390.93,.12,390.93c0,0-2.66,18.5,17.28,18.5H168.96Z"/>
      <g>
        <g class="cls-3">
          <rect id="Color_gradient" data-name="Color gradient" class="cls-6" x="3.44" y="-40.31" width="326.53" height="505.92"/>
        </g>
        <path id="Form_big-2" data-name="Form big" class="cls-5" d="M166.71,406.32h146.45c19.27,0,16.7-18.28,16.7-18.28,0,0,1.54-253.78-30.06-308.36C268.2,25.1,186.75,3,166.71,3S65.22,25.1,33.62,79.68C2.02,134.26,3.56,388.04,3.56,388.04c0,0-2.57,18.28,16.7,18.28H166.71Z"/>
      </g>
      <g id="Pieces_copy_32" data-name="Pieces copy 32">
        <g id="Liberated_Horse_copy_19" data-name="Liberated Horse copy 19">
          <g id="LH_move_copy_19" data-name="LH move copy 19">
            <g id="Arrows_copy_33" data-name="Arrows copy 33">
              <polygon class="cls-2" points="149.46 234.95 164.71 208.53 179.96 234.95 149.46 234.95"/>
            </g>
            <g id="squares_copy_23" data-name="squares copy 23">
              <rect class="cls-2" x="158.84" y="336.21" width="14.25" height="14.25" transform="translate(-194.16 217.91) rotate(-45)"/>
              <rect class="cls-2" x="158.84" y="363.36" width="14.25" height="14.25" transform="translate(-213.36 225.86) rotate(-45)"/>
            </g>
            <g id="Lines">
              <g class="cls-1">
                <rect class="cls-2" x="160.6" y="221.7" width="9.1" height="82.18"/>
              </g>
            </g>
            <rect id="Center" class="cls-2" x="146.19" y="285.25" width="37.93" height="37.93"/>
          </g>
          <g>
            <path class="cls-2" d="M158.52,162.42c0,8.97-.39,14.05-1.17,15.25-.78,1.25-2.9,2.72-6.37,4.39-3.59,1.67-6.34,2.63-8.25,2.87-.48-.6-1.06-1.33-1.75-2.2-.69-.87-1.54-1.87-2.56-3-6.1-6.64-16.2-11.09-30.31-13.36v5.38c0,2.93-.3,4.99-.9,6.19-.54,1.2-2.63,2.63-6.28,4.3-3.71,1.61-6.58,2.51-8.61,2.69,.78-15.01,1.36-27.34,1.75-36.99,.39-9.65,.58-16.72,.58-21.21,0-3.83-.45-16.11-1.35-36.86,0-1.55-.13-3.51-.4-5.87-.27-2.36-.64-5.16-1.12-8.38-1.38-4.3-2.06-6.19-2.06-5.65,0-1.08,1.97-2.51,5.92-4.3,4-1.85,6.85-2.9,8.52-3.14,2.09,1.43,3.47,8.52,4.12,21.25,.48,10.22,.85,18.24,1.12,24.03,.27,5.8,.4,9.48,.4,11.03,0,10.22-.45,23.17-1.35,38.83,13.69,0,25.32,2.45,34.88,7.35v-12.55c0-1.02,2.03-2.48,6.1-4.39,4-1.97,6.75-2.96,8.25-2.96,.06,0,.27,.06,.63,.18,.06,3.65,.1,6.89,.13,9.73,.03,2.84,.04,5.31,.04,7.4Z"/>
            <path class="cls-2" d="M240.57,177.75c0,1.2-2.06,2.63-6.19,4.3-4.12,1.74-7.08,2.69-8.88,2.87l-1.97-14.53c-.6-4.12-1.08-9.04-1.43-14.75-.36-5.71-.63-12.27-.81-19.68-6.58,2.63-16.53,6.31-29.86,11.03-.48,5.08-1.03,10.18-1.66,15.29-.63,5.11-1.27,10.3-1.93,15.56-1.32,1.85-3.62,3.5-6.9,4.93-3.23,1.43-6.13,2.15-8.7,2.15,.78-2.75,2-12.2,3.68-28.34,1.2-11.3,2.09-21.39,2.69-30.27,.6-8.88,.9-16.63,.9-23.27,0-5.02-.09-9.4-.27-13.14-.18-3.74-.42-6.86-.72-9.37-.9-6.87-1.35-10.49-1.35-10.85,0-1.08,2.15-2.57,6.46-4.48,3.53-1.44,6.37-2.33,8.52-2.69,1.44,12.2,2.15,23.76,2.15,34.7,0,13.75-.81,28.55-2.42,44.39,.96,.18,1.82,.27,2.6,.27,3.95,0,12.88-2.96,26.81-8.88,0-41.43,.24-62.47,.72-63.13,3.59-4.13,8.64-6.55,15.16-7.26l.45,.18c-.6,2.21-.9,7.32-.9,15.33,0,3.77-.09,9.45-.27,17.04-.06,3.83-.11,7.15-.13,9.95-.03,2.81-.05,5.17-.05,7.08,0,7.89,.13,15.48,.4,22.78,.27,7.29,.64,14.35,1.12,21.16,.12,1.67,.33,3.78,.63,6.32,.3,2.54,.66,5.55,1.08,9.01,.72,3.71,1.08,5.8,1.08,6.28Z"/>
          </g>
        </g>
      </g>
    </g>
  </g>
</svg>