<?xml version="1.0" encoding="UTF-8"?>
<svg id="Layer_2" data-name="Layer 2" xmlns="http://www.w3.org/2000/svg" xmlns:xlink="http://www.w3.org/1999/xlink" viewBox="0 0 337.92 409.43">
  <defs>
    <style>
      .cls-1 {
        clip-path: url(#clippath-1);
      }

      .cls-2 {
        fill: #2e1b10;
      }

      .cls-3 {
        clip-path: url(#clippath);
      }

      .cls-4, .cls-5 {
        fill: none;
      }

      .cls-6 {
        fill: url(#linear-gradient);
      }

      .cls-6, .cls-7, .cls-5 {
        stroke-miterlimit: 10;
      }

      .cls-6, .cls-5 {
        stroke: #3b2314;
        stroke-width: 6px;
      }

      .cls-7 {
        fill: #00aeb7;
        stroke: #007a72;
        stroke-width: 4px;
      }
    </style>
    <clipPath id="clippath">
      <path id="Form_big" data-name="Form big" class="cls-5" d="M166.71,406.32h146.45c19.27,0,16.7-18.28,16.7-18.28,0,0,1.54-253.78-30.06-308.36C268.2,25.1,186.75,3,166.71,3S65.22,25.1,33.62,79.68C2.02,134.26,3.56,388.04,3.56,388.04c0,0-2.57,18.28,16.7,18.28H166.71Z"/>
    </clipPath>
    <linearGradient id="linear-gradient" x1="3.44" y1="212.65" x2="329.98" y2="212.65" gradientUnits="userSpaceOnUse">
      <stop offset="0" stop-color="#fbcdab"/>
      <stop offset="1" stop-color="#fde4d9"/>
    </linearGradient>
    <clipPath id="clippath-1">
      <polygon class="cls-4" points="130.68 386.03 82.56 337.91 82.56 269.86 130.68 221.74 198.74 221.74 246.86 269.86 246.86 337.91 198.74 386.03 130.68 386.03"/>
    </clipPath>
  </defs>
  <g id="International_south_copy" data-name="International south copy">
    <g id="Roaming_Boar_copy_2" data-name="Roaming Boar copy 2">
      <path id="Shadow" class="cls-2" d="M168.96,409.43h151.56c19.94,0,17.28-18.5,17.28-18.5,0,0,1.6-256.77-31.11-311.99C273.99,23.73,189.7,1.36,168.96,1.36S63.93,23.73,31.23,78.94C-1.48,134.16,.12,390.93,.12,390.93c0,0-2.66,18.5,17.28,18.5H168.96Z"/>
      <g>
        <g class="cls-3">
          <rect id="Color_gradient" data-name="Color gradient" class="cls-6" x="3.44" y="-40.31" width="326.53" height="505.92"/>
        </g>
        <path id="Form_big-2" data-name="Form big" class="cls-5" d="M166.71,406.32h146.45c19.27,0,16.7-18.28,16.7-18.28,0,0,1.54-253.78-30.06-308.36C268.2,25.1,186.75,3,166.71,3S65.22,25.1,33.62,79.68C2.02,134.26,3.56,388.04,3.56,388.04c0,0-2.57,18.28,16.7,18.28H166.71Z"/>
      </g>
      <g id="Pieces_copy_32" data-name="Pieces copy 32">
        <g id="Roaming_Boar_copy_7" data-name="Roaming Boar copy 7">
          <g id="RB_move_copy_7" data-name="RB move copy 7">
            <g id="Lines">
              <g class="cls-1">
                <g>
                  <rect class="cls-7" x="160.6" y="188.1" width="9.1" height="231.58" transform="translate(-166.51 205.81) rotate(-45)"/>
                  <rect class="cls-7" x="49.36" y="299.34" width="231.58" height="9.1" transform="translate(-166.5 205.76) rotate(-45)"/>
                  <rect class="cls-7" x="83.28" y="299.34" width="163.75" height="9.1"/>
                  <rect class="cls-7" x="160.6" y="221.7" width="9.1" height="83.36"/>
                </g>
              </g>
            </g>
            <rect id="Center" class="cls-7" x="146.19" y="285.25" width="37.93" height="37.93"/>
          </g>
          <g>
            <path class="cls-7" d="M156,80.37c0,2.39-.06,5.35-.18,8.88-.12,3.53-.3,7.68-.54,12.46-.24,4.72-.42,8.85-.54,12.38-.12,3.53-.18,6.49-.18,8.88,0,.66,.01,1.5,.05,2.51,.03,1.02,.07,2.21,.13,3.59,.06,1.38,.1,2.57,.13,3.59,.03,1.02,.04,1.85,.04,2.51,0,1.02-2,2.51-6.01,4.48-4.01,1.91-6.7,2.87-8.07,2.87-.24,0-.51-.03-.81-.09-5.98-4.3-13.93-6.73-23.85-7.26,1.91,7.29,6.4,15.87,13.45,25.74,10.88,15.48,18.59,24.78,23.14,27.89,.6,.36,.9,.6,.9,.72,0,.84-2.03,2.24-6.1,4.21-3.95,1.91-6.7,3.02-8.25,3.32l-.81-.36c-7.17-7.17-13.42-14.17-18.74-20.98-5.32-6.82-9.78-13.54-13.36-20.18-.12,6.94-.48,14.35-1.08,22.24-.84,1.55-3.08,3.08-6.73,4.57-1.79,.78-4.51,1.64-8.16,2.6,0-1.2,.07-3.33,.22-6.41,.15-3.08,.37-7.16,.67-12.24,.48-8.13,.85-15.45,1.12-21.97,.27-6.52,.4-12.32,.4-17.4s-.54-17.82-1.61-37.49c-.06-1.55-.21-3.47-.45-5.74-.24-2.27-.57-4.96-.99-8.07-.42-2.09-.88-3.63-1.39-4.62-.51-.99-.76-1.36-.76-1.12,0-1.08,2.09-2.54,6.28-4.39,4.18-1.97,7-2.96,8.43-2.96,1.25,0,2.39,3.83,3.41,11.48,4.66-1.67,12.17-3.47,22.51-5.38,10.28-1.85,17.96-3.71,23.05-5.56,1.26-.36,1.97-.54,2.15-.54,.24,0,.6,.51,1.08,1.52,.96,3.05,1.43,8.49,1.43,16.32Zm-14.89,10.58c0-7.23-.66-14.11-1.97-20.62-3.71,.84-8.3,1.9-13.77,3.18-5.47,1.29-11.91,2.77-19.33,4.44,.66,13.15,1.12,23.93,1.39,32.33,.27,8.4,.37,14.51,.31,18.34,7.41-.72,13.06-1.08,16.95-1.08,5.2,0,10.07,.42,14.62,1.25,0-2.03,.07-4.6,.22-7.71,.15-3.11,.37-6.82,.67-11.12,.3-4.18,.52-7.85,.67-10.99,.15-3.14,.22-5.81,.22-8.03Z"/>
            <path class="cls-7" d="M242.63,129.96c0,1.43-.26,4.81-.76,10.13-.51,5.32-1.27,12.61-2.29,21.88-.06,3.89-.75,9-2.06,15.33-.66,1.38-2.9,2.99-6.73,4.84-3.71,1.85-6.4,2.78-8.07,2.78,.6,0-2.42-.72-9.06-2.15-7.65-1.61-14.23-2.42-19.73-2.42-6.7,0-12.82,.96-18.38,2.87-.6,.3-1.38,.58-2.33,.85-.96,.27-2.12,.55-3.5,.85v-.27c0-.36,.13-.79,.4-1.3,.27-.51,.4-.91,.4-1.21l1.25-19.55c.48-7.47,.85-15.02,1.12-22.64,.27-7.62,.4-15.38,.4-23.27,0-10.82-.27-19.1-.81-24.84-.66-7.89-1.15-13.65-1.48-17.26-.33-3.62-.49-5.19-.49-4.71,0-1.08,2.15-2.57,6.46-4.48,3.77-1.67,6.55-2.63,8.34-2.87,.3,2.75,.58,5.26,.85,7.53,.27,2.27,.52,4.3,.76,6.1,1.38-.54,3.14-1.18,5.29-1.93,2.15-.75,4.72-1.6,7.71-2.56,1.85-.6,4.78-1.46,8.79-2.6,4-1.13,9.18-2.57,15.51-4.3,1.08-.36,2.42-.72,4.04-1.08,1.61-.36,3.47-.75,5.56-1.17-.48,1.02-1,2.29-1.57,3.81-.57,1.52-1.24,3.3-2.02,5.34-2.27,6.16-3.41,12.64-3.41,19.46,0,5.86,.81,13.03,2.42,21.52,1.55,.66,3.62,.96,6.19,.9,1.38-.06,2.54-.04,3.5,.04,.96,.09,1.71,.2,2.24,.31,.96,4.25,1.44,9.59,1.44,16.05Zm-14.98,5.38c0-.6-.04-1.33-.13-2.2-.09-.87-.19-1.87-.31-3-.12-1.2-.21-2.2-.27-3-.06-.81-.09-1.45-.09-1.93,0-1.25-.06-2.06-.18-2.42-.18-.6-.73-1.11-1.66-1.52-.93-.42-1.99-.63-3.18-.63-.96,0-3.26,.36-6.91,1.08-6.58,1.25-11.42,2.63-14.53,4.12-2.15,1.14-4.28,2.26-6.37,3.36-2.09,1.11-4.16,2.23-6.19,3.36-.12,2.87-.28,6.37-.49,10.49-.21,4.12-.46,9-.76,14.62,0,2.15-.1,4.81-.31,7.98-.21,3.17-.52,6.91-.94,11.21,7.47-2.45,15.66-3.68,24.57-3.68,4.48,0,9.06,.36,13.72,1.08,2.69-20.86,4.04-33.84,4.04-38.92Zm-9.24-65.2c-3.65,1.56-8.07,3.17-13.27,4.84-5.2,1.67-11.24,3.44-18.11,5.29,.42,5.8,.73,11.15,.94,16.05,.21,4.9,.31,9.39,.31,13.45,0,1.14-.04,3.32-.13,6.55-.09,3.23-.2,7.56-.31,13,9.45-5.86,18.12-9.98,26.01-12.38-.66-3.59-1.15-6.92-1.48-10-.33-3.08-.49-5.96-.49-8.65,0-11.48,2.18-20.86,6.55-28.16Z"/>
          </g>
        </g>
      </g>
    </g>
  </g>
</svg>