<?xml version="1.0" encoding="UTF-8"?>
<svg id="Layer_2" data-name="Layer 2" xmlns="http://www.w3.org/2000/svg" xmlns:xlink="http://www.w3.org/1999/xlink" width="337" height="409" viewBox="0 0 337.92 409.43">
  <defs>
    <style>
      .cls-1 {
        clip-path: url(#clippath-1);
      }

      .cls-2 {
        fill: #2e1b10;
      }

      .cls-3 {
        clip-path: url(#clippath);
      }

      .cls-4, .cls-5 {
        fill: none;
      }

      .cls-6 {
        fill: url(#linear-gradient);
      }

      .cls-6, .cls-7, .cls-5 {
        stroke-miterlimit: 10;
      }

      .cls-6, .cls-5 {
        stroke: #3b2314;
        stroke-width: 6px;
      }

      .cls-7 {
        fill: #00aeb7;
        stroke: #007a72;
        stroke-width: 4px;
      }
    </style>
    <clipPath id="clippath">
      <path id="Form_big" data-name="Form big" class="cls-5" d="M166.71,406.32h146.45c19.27,0,16.7-18.28,16.7-18.28,0,0,1.54-253.78-30.06-308.36C268.2,25.1,186.75,3,166.71,3S65.22,25.1,33.62,79.68C2.02,134.26,3.56,388.04,3.56,388.04c0,0-2.57,18.28,16.7,18.28H166.71Z"/>
    </clipPath>
    <linearGradient id="linear-gradient" x1="3.44" y1="212.65" x2="329.98" y2="212.65" gradientUnits="userSpaceOnUse">
      <stop offset="0" stop-color="#fbcdab"/>
      <stop offset="1" stop-color="#fde4d9"/>
    </linearGradient>
    <clipPath id="clippath-1">
      <polygon class="cls-4" points="130.68 386.03 82.56 337.91 82.56 269.86 130.68 221.74 198.74 221.74 246.86 269.86 246.86 337.91 198.74 386.03 130.68 386.03"/>
    </clipPath>
  </defs>
  <g id="International_south_copy" data-name="International south copy">
    <g id="Raiding_Falcon_copy_2" data-name="Raiding Falcon copy 2">
      <path id="Shadow" class="cls-2" d="M168.96,409.43h151.56c19.94,0,17.28-18.5,17.28-18.5,0,0,1.6-256.77-31.11-311.99C273.99,23.73,189.7,1.36,168.96,1.36S63.93,23.73,31.23,78.94C-1.48,134.16,.12,390.93,.12,390.93c0,0-2.66,18.5,17.28,18.5H168.96Z"/>
      <g>
        <g class="cls-3">
          <rect id="Color_gradient" data-name="Color gradient" class="cls-6" x="3.44" y="-40.31" width="326.53" height="505.92"/>
        </g>
        <path id="Form_big-2" data-name="Form big" class="cls-5" d="M166.71,406.32h146.45c19.27,0,16.7-18.28,16.7-18.28,0,0,1.54-253.78-30.06-308.36C268.2,25.1,186.75,3,166.71,3S65.22,25.1,33.62,79.68C2.02,134.26,3.56,388.04,3.56,388.04c0,0-2.57,18.28,16.7,18.28H166.71Z"/>
      </g>
      <g id="Pieces_copy_32" data-name="Pieces copy 32">
        <g id="Raiding_Falcon_copy_8" data-name="Raiding Falcon copy 8">
          <g id="RF_move_copy_8" data-name="RF move copy 8">
            <g id="Lines">
              <g class="cls-1">
                <g>
                  <rect class="cls-7" x="119.64" y="205.07" width="9.1" height="115.71" transform="translate(-149.55 164.84) rotate(-45)"/>
                  <rect class="cls-7" x="148" y="258.48" width="116.02" height="9.1" transform="translate(-125.65 222.69) rotate(-45)"/>
                  <rect class="cls-7" x="83.28" y="299.34" width="163.75" height="9.1"/>
                  <rect class="cls-7" x="160.6" y="221.7" width="9.1" height="164.36"/>
                </g>
              </g>
            </g>
            <g id="Arrows_copy_22" data-name="Arrows copy 22">
              <polygon class="cls-7" points="180.94 373.25 165.69 399.67 150.44 373.25 180.94 373.25"/>
              <polygon class="cls-7" points="149.46 234.95 164.71 208.53 179.96 234.95 149.46 234.95"/>
            </g>
            <rect id="Center" class="cls-7" x="146.19" y="285.25" width="37.93" height="37.93"/>
          </g>
          <g>
            <path class="cls-7" d="M163.63,80.37c0,2.39-.06,5.35-.18,8.88-.12,3.53-.3,7.68-.54,12.46-.24,4.72-.42,8.85-.54,12.38-.12,3.53-.18,6.49-.18,8.88,0,.66,.01,1.5,.04,2.51,.03,1.02,.07,2.21,.13,3.59,.06,1.38,.1,2.57,.13,3.59,.03,1.02,.04,1.85,.04,2.51,0,1.02-2,2.51-6.01,4.48-4.01,1.91-6.7,2.87-8.07,2.87-.24,0-.51-.03-.81-.09-5.98-4.3-13.93-6.73-23.85-7.26,1.91,7.29,6.4,15.87,13.45,25.74,10.88,15.48,18.59,24.78,23.14,27.89,.6,.36,.9,.6,.9,.72,0,.84-2.03,2.24-6.1,4.21-3.95,1.91-6.7,3.02-8.25,3.32l-.81-.36c-7.17-7.17-13.42-14.17-18.74-20.98-5.32-6.82-9.78-13.54-13.36-20.18-.12,6.94-.48,14.35-1.08,22.24-.84,1.55-3.08,3.08-6.73,4.57-1.79,.78-4.51,1.64-8.16,2.6,0-1.2,.07-3.33,.22-6.41,.15-3.08,.37-7.16,.67-12.24,.48-8.13,.85-15.45,1.12-21.97,.27-6.52,.4-12.32,.4-17.4s-.54-17.82-1.61-37.49c-.06-1.55-.21-3.47-.45-5.74-.24-2.27-.57-4.96-.99-8.07-.42-2.09-.88-3.63-1.39-4.62-.51-.99-.76-1.36-.76-1.12,0-1.08,2.09-2.54,6.28-4.39,4.18-1.97,7-2.96,8.43-2.96,1.25,0,2.39,3.83,3.41,11.48,4.66-1.67,12.17-3.47,22.51-5.38,10.28-1.85,17.96-3.71,23.05-5.56,1.26-.36,1.97-.54,2.15-.54,.24,0,.6,.51,1.08,1.52,.96,3.05,1.44,8.49,1.44,16.32Zm-14.89,10.58c0-7.23-.66-14.11-1.97-20.62-3.71,.84-8.3,1.9-13.77,3.18-5.47,1.29-11.91,2.77-19.33,4.44,.66,13.15,1.12,23.93,1.39,32.33,.27,8.4,.37,14.51,.31,18.34,7.41-.72,13.06-1.08,16.95-1.08,5.2,0,10.07,.42,14.62,1.25,0-2.03,.07-4.6,.22-7.71,.15-3.11,.37-6.82,.67-11.12,.3-4.18,.52-7.85,.67-10.99,.15-3.14,.22-5.81,.22-8.03Z"/>
            <path class="cls-7" d="M239.49,62.61c-.18,.3-.69,.81-1.52,1.53-2.81,2.57-4.63,4.81-5.47,6.73-.72,1.91-1.08,4.6-1.08,8.07s-.63,6.22-1.88,7.89c-1.2,1.79-3.44,3.35-6.73,4.66-3.23,1.38-6.04,2.27-8.43,2.69,.3-11,3.62-19.22,9.95-24.66-3.23,.66-7.23,1.5-12.02,2.51-4.78,1.02-10.4,2.27-16.86,3.77,.66,9.87,1.15,18.55,1.48,26.05,.33,7.5,.49,13.92,.49,19.24,10.46-2.21,23.32-3.32,38.56-3.32l.18,.27c-.66,1.08-2.84,2.57-6.55,4.48-3.59,1.79-6.22,2.69-7.89,2.69-3.23,0-6.86,.13-10.9,.4-4.04,.27-8.56,.64-13.59,1.12-.66,32.82-1.5,49.98-2.51,51.47-1.08,1.5-3.29,3.02-6.64,4.57-3.35,1.43-6.22,2.15-8.61,2.15,1.43-6.34,2.15-12.97,2.15-19.91,0-4.24,.09-10.73,.27-19.46,.12-4.36,.21-8.16,.27-11.39,.06-3.23,.09-5.89,.09-7.98,0-4.12-.45-16.38-1.35-36.77,0-1.55-.13-3.5-.4-5.83-.27-2.33-.64-5.02-1.12-8.07-1.38-4.42-2.06-6.37-2.06-5.83,0-1.08,2.15-2.57,6.46-4.48,3.77-1.61,6.58-2.51,8.43-2.69,1.67,2.21,2.63,5.47,2.87,9.77,13.81-5.08,27.59-8.34,41.34-9.77,.72,.18,1.73,.21,3.05,.09Z"/>
          </g>
        </g>
      </g>
    </g>
  </g>
</svg>