<?xml version="1.0" encoding="UTF-8"?>
<svg id="Layer_2" data-name="Layer 2" xmlns="http://www.w3.org/2000/svg" xmlns:xlink="http://www.w3.org/1999/xlink" viewBox="0 0 337.92 409.43">
  <defs>
    <style>
      .cls-1 {
        clip-path: url(#clippath-1);
      }

      .cls-2 {
        fill: #2e1b10;
      }

      .cls-3 {
        clip-path: url(#clippath);
      }

      .cls-4, .cls-5 {
        fill: none;
      }

      .cls-6 {
        fill: url(#linear-gradient);
      }

      .cls-6, .cls-5 {
        stroke: #3b2314;
        stroke-miterlimit: 10;
        stroke-width: 6px;
      }
    </style>
    <clipPath id="clippath">
      <path id="Form_big" data-name="Form big" class="cls-5" d="M166.71,406.32h146.45c19.27,0,16.7-18.28,16.7-18.28,0,0,1.54-253.78-30.06-308.36C268.2,25.1,186.75,3,166.71,3S65.22,25.1,33.62,79.68C2.02,134.26,3.56,388.04,3.56,388.04c0,0-2.57,18.28,16.7,18.28H166.71Z"/>
    </clipPath>
    <linearGradient id="linear-gradient" x1="3.44" y1="212.65" x2="329.98" y2="212.65" gradientUnits="userSpaceOnUse">
      <stop offset="0" stop-color="#fbcdab"/>
      <stop offset="1" stop-color="#fde4d9"/>
    </linearGradient>
    <clipPath id="clippath-1">
      <polygon class="cls-4" points="130.68 386.03 82.56 337.91 82.56 269.86 130.68 221.74 198.74 221.74 246.86 269.86 246.86 337.91 198.74 386.03 130.68 386.03"/>
    </clipPath>
  </defs>
  <g id="International_south_copy" data-name="International south copy">
    <g id="Strutting_Crow_copy_2" data-name="Strutting Crow copy 2">
      <path id="Shadow" class="cls-2" d="M168.96,409.43h151.56c19.94,0,17.28-18.5,17.28-18.5,0,0,1.6-256.77-31.11-311.99C273.99,23.73,189.7,1.36,168.96,1.36S63.93,23.73,31.23,78.94C-1.48,134.16,.12,390.93,.12,390.93c0,0-2.66,18.5,17.28,18.5H168.96Z"/>
      <g>
        <g class="cls-3">
          <rect id="Color_gradient" data-name="Color gradient" class="cls-6" x="3.44" y="-40.31" width="326.53" height="505.92"/>
        </g>
        <path id="Form_big-2" data-name="Form big" class="cls-5" d="M166.71,406.32h146.45c19.27,0,16.7-18.28,16.7-18.28,0,0,1.54-253.78-30.06-308.36C268.2,25.1,186.75,3,166.71,3S65.22,25.1,33.62,79.68C2.02,134.26,3.56,388.04,3.56,388.04c0,0-2.57,18.28,16.7,18.28H166.71Z"/>
      </g>
      <g id="Pieces_copy_32" data-name="Pieces copy 32">
        <g id="Strutting_Crow_copy_10" data-name="Strutting Crow copy 10">
          <g id="SC_move_copy_10" data-name="SC move copy 10">
            <g id="Lines">
              <g class="cls-1">
                <g>
                  <rect class="cls-2" x="201.67" y="287.23" width="9.1" height="115.43" transform="translate(-183.52 246.88) rotate(-45)"/>
                  <rect class="cls-2" x="66.42" y="340.5" width="115.14" height="9.1" transform="translate(-207.66 188.71) rotate(-45)"/>
                  <rect class="cls-2" x="160.6" y="221.7" width="9.1" height="82.18"/>
                </g>
              </g>
            </g>
            <rect id="Center" class="cls-2" x="146.19" y="285.25" width="37.93" height="37.93"/>
          </g>
          <g>
            <path class="cls-2" d="M154.93,152.29c0,13.81-1.26,22.45-3.77,25.92-.84,1.2-3.08,2.63-6.73,4.3-3.59,1.61-6.31,2.42-8.16,2.42-3.05-4.78-8.7-7.17-16.95-7.17-1.32,0-2.66,.04-4.04,.13-1.38,.09-2.81,.26-4.3,.49-.3,1.2-2.36,2.54-6.19,4.04-3.77,1.5-6.64,2.33-8.61,2.51,0-.6,.04-1.36,.13-2.29,.09-.93,.19-2.05,.31-3.36,.12-1.31,.22-2.45,.31-3.41,.09-.96,.13-1.76,.13-2.42,0-1.13-.33-2.87-.99-5.2-.66-2.33-.99-4.06-.99-5.2,0-.84,2.15-2.21,6.46-4.12,1.91-.78,3.57-1.4,4.98-1.88,1.4-.48,2.53-.78,3.36-.9,1.38,2.75,2.06,6.13,2.06,10.13,0,1.73-.18,4.04-.54,6.9,10.04-1.97,17.4-2.96,22.06-2.96,.96,0,1.9,.04,2.83,.13,.93,.09,1.87,.19,2.82,.31,.24-2.09,.4-4.23,.49-6.41,.09-2.18,.13-4.41,.13-6.68,0-2.87-.04-5.95-.13-9.24-.09-3.29-.25-6.82-.49-10.58-3.11-2.45-8.55-3.68-16.32-3.68-2.87,0-5.82,.09-8.83,.27-3.02,.18-6.14,.42-9.37,.72-3.53,1.56-6.49,2.57-8.88,3.05v-.18c0-.66,.07-1.88,.22-3.68,.15-1.79,.37-4.18,.67-7.17,.42-4.13,.73-8.15,.94-12.06,.21-3.92,.31-7.76,.31-11.52,0-9.8-.51-17.16-1.52-22.06-.06-.72-.69-2.66-1.88-5.83-.84-2.51-1.25-4.42-1.25-5.74,0-.84,2-2.27,6.01-4.3,4-2.03,6.67-3.05,7.98-3.05,1.91,0,3.29,3.2,4.12,9.59,20.09-6.4,33.54-9.59,40.35-9.59,.78,0,1.4,.09,1.88,.27-.12,.12-.3,.3-.54,.54-.24,.24-.57,.51-.99,.81-3.89,3.17-6.04,6.99-6.46,11.48-.18,5.8-.9,9.63-2.15,11.48-1.02,1.55-3.26,3.05-6.73,4.48-.96,.42-2.11,.87-3.45,1.35-1.34,.48-2.95,.96-4.8,1.43,.18-11.06,3.5-19.34,9.96-24.84-3.05,.66-6.82,1.48-11.3,2.47-4.48,.99-9.72,2.17-15.69,3.54,.48,4.66,.84,8.64,1.08,11.93,.24,3.29,.36,5.95,.36,7.98,0,7.59-.72,18.59-2.15,33,3.29-.6,7.01-1.04,11.17-1.34,4.15-.3,8.8-.45,13.94-.45,7.47,0,13.54,.96,18.21,2.87,0,1.2,.04,2.75,.13,4.66,.09,1.91,.19,4.16,.31,6.73,.12,2.57,.22,4.8,.31,6.68,.09,1.88,.13,3.45,.13,4.71Z"/>
            <path class="cls-2" d="M236.98,168.07c0,4.6-.6,7.86-1.79,9.78-.84,1.38-3.08,2.87-6.73,4.48-3.65,1.67-6.4,2.54-8.25,2.6-3.83-4.72-9.9-7.08-18.2-7.08-3.11,0-7.35,.54-12.73,1.61-5.14,3.41-9.59,5.23-13.36,5.47-.3-.18-.45-.39-.45-.63,0,.54,.15,.15,.45-1.17,.06-.6,.42-6.69,1.08-18.29,.48-9.27,.85-17.44,1.12-24.53,.27-7.08,.4-13.23,.4-18.43,0-12.25-.18-21.58-.54-27.98-.12-2.09-.39-4.65-.81-7.67-.42-3.02-.99-6.56-1.7-10.63-.72-1.85-1.43-3.83-2.15-5.92,0-1.02,2.09-2.45,6.28-4.3,3.95-1.73,6.73-2.69,8.34-2.87,1.49,.72,2.51,3.98,3.05,9.77,10.76-4,25.44-7.26,44.03-9.77l.63,.27c0,.12-.51,.54-1.52,1.26-3.17,2.45-5.11,4.93-5.83,7.44-.3,1.14-.54,4.01-.72,8.61,0,2.57-.69,4.87-2.06,6.91-.96,1.38-3.29,2.84-7,4.39-1.02,.42-2.21,.87-3.59,1.34-1.38,.48-2.93,.96-4.66,1.43,.06-10.82,3.38-18.98,9.95-24.48-3.29,.6-7.32,1.41-12.11,2.42-4.78,1.02-10.34,2.24-16.68,3.68,.66,9.51,1.15,17.83,1.48,24.98,.33,7.14,.49,13.17,.49,18.07,0,8.55-.17,17.35-.49,26.41-.33,9.06-.82,18.52-1.48,28.38,11.36-2.15,19.94-3.23,25.74-3.23,1.49,0,3.11,.09,4.84,.27-.18-1.67-.99-5.14-2.42-10.4-1.02-4.36-1.52-7.89-1.52-10.58,0-1.02,2.12-2.48,6.37-4.39,3.71-1.55,6.52-2.57,8.43-3.05,.12,.24,.28,1,.49,2.29,.21,1.29,.46,3.06,.76,5.34,.06,.6,.24,1.63,.54,3.09,.3,1.47,.72,3.45,1.26,5.96,.72,3.77,1.08,6.82,1.08,9.15Z"/>
          </g>
        </g>
      </g>
    </g>
  </g>
</svg>