<?xml version="1.0" encoding="UTF-8"?>
<svg id="Layer_2" data-name="Layer 2" xmlns="http://www.w3.org/2000/svg" xmlns:xlink="http://www.w3.org/1999/xlink" viewBox="0 0 337.92 409.43">
  <defs>
    <style>
      .cls-1 {
        clip-path: url(#clippath-1);
      }

      .cls-2 {
        fill: #2e1b10;
      }

      .cls-3 {
        clip-path: url(#clippath);
      }

      .cls-4, .cls-5 {
        fill: none;
      }

      .cls-6 {
        fill: url(#linear-gradient);
      }

      .cls-6, .cls-5 {
        stroke: #3b2314;
        stroke-miterlimit: 10;
        stroke-width: 6px;
      }
    </style>
    <clipPath id="clippath">
      <path id="Form_big" data-name="Form big" class="cls-5" d="M166.71,406.32h146.45c19.27,0,16.7-18.28,16.7-18.28,0,0,1.54-253.78-30.06-308.36C268.2,25.1,186.75,3,166.71,3S65.22,25.1,33.62,79.68C2.02,134.26,3.56,388.04,3.56,388.04c0,0-2.57,18.28,16.7,18.28H166.71Z"/>
    </clipPath>
    <linearGradient id="linear-gradient" x1="3.44" y1="212.65" x2="329.98" y2="212.65" gradientUnits="userSpaceOnUse">
      <stop offset="0" stop-color="#fbcdab"/>
      <stop offset="1" stop-color="#fde4d9"/>
    </linearGradient>
    <clipPath id="clippath-1">
      <polygon class="cls-4" points="130.68 386.03 82.56 337.91 82.56 269.86 130.68 221.74 198.74 221.74 246.86 269.86 246.86 337.91 198.74 386.03 130.68 386.03"/>
    </clipPath>
  </defs>
  <g id="International_south_copy" data-name="International south copy">
    <g id="Swooping_Owl_copy_2" data-name="Swooping Owl copy 2">
      <path id="Shadow" class="cls-2" d="M168.96,409.43h151.56c19.94,0,17.28-18.5,17.28-18.5,0,0,1.6-256.77-31.11-311.99C273.99,23.73,189.7,1.36,168.96,1.36S63.93,23.73,31.23,78.94C-1.48,134.16,.12,390.93,.12,390.93c0,0-2.66,18.5,17.28,18.5H168.96Z"/>
      <g>
        <g class="cls-3">
          <rect id="Color_gradient" data-name="Color gradient" class="cls-6" x="3.44" y="-40.31" width="326.53" height="505.92"/>
        </g>
        <path id="Form_big-2" data-name="Form big" class="cls-5" d="M166.71,406.32h146.45c19.27,0,16.7-18.28,16.7-18.28,0,0,1.54-253.78-30.06-308.36C268.2,25.1,186.75,3,166.71,3S65.22,25.1,33.62,79.68C2.02,134.26,3.56,388.04,3.56,388.04c0,0-2.57,18.28,16.7,18.28H166.71Z"/>
      </g>
      <g id="Pieces_copy_32" data-name="Pieces copy 32">
        <g id="Swooping_Owl_copy_11" data-name="Swooping Owl copy 11">
          <g id="SO_move_copy_11" data-name="SO move copy 11">
            <g id="Lines">
              <g class="cls-1">
                <g>
                  <rect class="cls-2" x="201.67" y="287.23" width="9.1" height="115.43" transform="translate(-183.52 246.88) rotate(-45)"/>
                  <rect class="cls-2" x="66.42" y="340.5" width="115.14" height="9.1" transform="translate(-207.66 188.71) rotate(-45)"/>
                  <rect class="cls-2" x="160.6" y="221.7" width="9.1" height="82.18"/>
                </g>
              </g>
            </g>
            <rect id="Center" class="cls-2" x="146.19" y="285.25" width="37.93" height="37.93"/>
          </g>
          <g>
            <path class="cls-2" d="M154.03,152.29c0,13.81-1.26,22.45-3.77,25.92-.84,1.2-3.08,2.63-6.72,4.3-3.59,1.61-6.31,2.42-8.16,2.42-3.05-4.78-8.7-7.17-16.95-7.17-1.32,0-2.66,.04-4.04,.13-1.38,.09-2.81,.26-4.3,.49-.3,1.2-2.36,2.54-6.19,4.04-3.77,1.5-6.64,2.33-8.61,2.51,0-.6,.04-1.36,.13-2.29,.09-.93,.19-2.05,.31-3.36,.12-1.31,.22-2.45,.31-3.41,.09-.96,.13-1.76,.13-2.42,0-1.13-.33-2.87-.99-5.2-.66-2.33-.99-4.06-.99-5.2,0-.84,2.15-2.21,6.46-4.12,1.91-.78,3.57-1.4,4.98-1.88,1.4-.48,2.52-.78,3.36-.9,1.37,2.75,2.06,6.13,2.06,10.13,0,1.73-.18,4.04-.54,6.9,10.04-1.97,17.4-2.96,22.06-2.96,.96,0,1.9,.04,2.83,.13,.93,.09,1.87,.19,2.83,.31,.24-2.09,.4-4.23,.49-6.41,.09-2.18,.13-4.41,.13-6.68,0-2.87-.04-5.95-.13-9.24-.09-3.29-.25-6.82-.49-10.58-3.11-2.45-8.55-3.68-16.32-3.68-2.87,0-5.81,.09-8.83,.27-3.02,.18-6.14,.42-9.37,.72-3.53,1.56-6.49,2.57-8.88,3.05v-.18c0-.66,.07-1.88,.22-3.68,.15-1.79,.37-4.18,.67-7.17,.42-4.13,.73-8.15,.94-12.06,.21-3.92,.31-7.76,.31-11.52,0-9.8-.51-17.16-1.52-22.06-.06-.72-.69-2.66-1.88-5.83-.84-2.51-1.25-4.42-1.25-5.74,0-.84,2-2.27,6.01-4.3,4-2.03,6.67-3.05,7.98-3.05,1.91,0,3.29,3.2,4.12,9.59,20.09-6.4,33.54-9.59,40.36-9.59,.78,0,1.4,.09,1.88,.27-.12,.12-.3,.3-.54,.54-.24,.24-.57,.51-.99,.81-3.89,3.17-6.04,6.99-6.46,11.48-.18,5.8-.9,9.63-2.15,11.48-1.02,1.55-3.26,3.05-6.73,4.48-.96,.42-2.11,.87-3.45,1.35-1.34,.48-2.95,.96-4.8,1.43,.18-11.06,3.5-19.34,9.95-24.84-3.05,.66-6.82,1.48-11.3,2.47-4.48,.99-9.71,2.17-15.69,3.54,.48,4.66,.84,8.64,1.08,11.93,.24,3.29,.36,5.95,.36,7.98,0,7.59-.72,18.59-2.15,33,3.29-.6,7.01-1.04,11.16-1.34,4.15-.3,8.8-.45,13.95-.45,7.47,0,13.54,.96,18.2,2.87,0,1.2,.04,2.75,.13,4.66,.09,1.91,.19,4.16,.31,6.73,.12,2.57,.22,4.8,.31,6.68,.09,1.88,.13,3.45,.13,4.71Z"/>
            <path class="cls-2" d="M237.97,177.13c-1.02,1.43-3.5,3.11-7.44,5.02-3.89,1.85-6.82,2.78-8.79,2.78-.48,0-.75-.72-.81-2.15-6.1-3.95-15.21-5.92-27.35-5.92-1.79,0-3.63,.04-5.52,.13-1.88,.09-3.81,.2-5.78,.31-2.87,1.32-5.23,2.06-7.08,2.24,0-1.13,.07-3.06,.22-5.78,.15-2.72,.37-6.29,.67-10.72,.48-7.05,.85-14.12,1.12-21.21,.27-7.08,.4-14.21,.4-21.39,0-18.65-.87-30.31-2.6-34.97-.06-.12-.21-.43-.45-.94-.24-.51-.6-1.18-1.08-2.02-.72-1.14-1.08-2.15-1.08-3.05s2.18-2.45,6.55-4.66c4.36-2.21,7.14-3.11,8.34-2.69,5.14-.96,11.43-2.23,18.88-3.81,7.44-1.58,16.16-3.51,26.14-5.78l.63,1.16c-.72,31.75-1.08,48.13-1.08,49.14,0,11.78,.34,22.87,1.03,33.27,.69,10.4,1.72,20.24,3.09,29.5l1.97,1.52Zm-18.56-7.08c-.84-7.83-1.48-15.9-1.93-24.21-.45-8.31-.67-16.92-.67-25.83,0-30.55,.57-47.23,1.7-50.04-2.15,.6-5.65,1.41-10.49,2.42-4.84,1.02-11.09,2.3-18.74,3.86,.42,1.2,.78,2.98,1.08,5.34,.3,2.36,.51,5.34,.63,8.92,.48,8.91,.85,15.86,1.12,20.85,.27,4.99,.4,8.09,.4,9.28,0,6.34-.19,13.6-.58,21.79-.39,8.19-.97,17.46-1.75,27.8,7.23-.72,13-1.08,17.31-1.08,1.79,0,3.68,.08,5.65,.22,1.97,.15,4.07,.37,6.28,.67Z"/>
          </g>
        </g>
      </g>
    </g>
  </g>
</svg>