<?xml version="1.0" encoding="utf-8"?>
<!-- Generator: Adobe Illustrator 27.0.0, SVG Export Plug-In . SVG Version: 6.00 Build 0)  -->
<svg version="1.1" id="Layer_2_00000079454866134493910670000004868709272487517352_"
	 xmlns="http://www.w3.org/2000/svg" xmlns:xlink="http://www.w3.org/1999/xlink" x="0px" y="0px" width="337" height="409" viewBox="0 0 338 409.4"
	 style="enable-background:new 0 0 338 409.4;" xml:space="preserve">
<style type="text/css">
	.st0{fill:#2E1B10;}
	.st1{clip-path:url(#SVGID_00000155143612914634145070000017290066818483487899_);}
	
		.st2{fill:url(#Color_gradient_00000175287014383451912730000005124233236028596866_);stroke:#3B2314;stroke-width:6;stroke-miterlimit:10;}
	.st3{fill:none;stroke:#3B2314;stroke-width:6;stroke-miterlimit:10;}
</style>
<g id="south_small_copy">
	<path id="Shadow_00000065044630946383550930000009084583732744934819_" class="st0" d="M169,409.8h147.1
		c19.4,0,16.8-16.9,16.8-16.9s1.5-234.4-30.2-284.8C270.9,57.7,189.1,37.2,169,37.2S67,57.7,35.3,108.1S5.1,392.9,5.1,392.9
		s-2.6,16.9,16.8,16.9H169z"/>
	<g>
		<g>
			<g>
				<defs>
					<path id="SVGID_1_" d="M166,406.8h142.5c18.8,0,16.2-16.8,16.2-16.8s1.5-232.5-29.2-282.5S185.5,37.2,166,37.2
						S67.2,57.5,36.5,107.5S7.2,390,7.2,390s-2.5,16.8,16.2,16.8H166z"/>
				</defs>
				<clipPath id="SVGID_00000042732840475191888150000014768281493248426687_">
					<use xlink:href="#SVGID_1_"  style="overflow:visible;"/>
				</clipPath>
				<g style="clip-path:url(#SVGID_00000042732840475191888150000014768281493248426687_);">
					
						<linearGradient id="Color_gradient_00000004535828401752223480000017760710247396223884_" gradientUnits="userSpaceOnUse" x1="7.1" y1="363.5" x2="324.8" y2="363.5" gradientTransform="matrix(1 0 0 1 0 -148)">
						<stop  offset="0" style="stop-color:#FBCDAB"/>
						<stop  offset="1" style="stop-color:#FDE4D9"/>
					</linearGradient>
					
						<rect id="Color_gradient_00000168102438158006623300000003129330887049570187_" x="7.1" y="-34" style="fill:url(#Color_gradient_00000004535828401752223480000017760710247396223884_);stroke:#3B2314;stroke-width:6;stroke-miterlimit:10;" width="317.7" height="499"/>
				</g>
			</g>
		</g>
		<path id="Form_small-2" class="st3" d="M166,406.8h142.5c18.8,0,16.2-16.8,16.2-16.8s1.5-232.5-29.2-282.5S185.5,37.2,166,37.2
			S67.2,57.5,36.5,107.5S7.2,390,7.2,390s-2.5,16.8,16.2,16.8H166z"/>
	</g>
	<g id="Orientation_copy_3">
		<rect x="143.4" y="326.6" class="st0" width="37.9" height="37.9"/>
		<rect x="157.4" y="246.5" class="st0" width="10" height="80.1"/>
	</g>
	<g>
		<path class="st0" d="M155.8,198.4c0,13.8-1.3,22.4-3.8,25.9c-0.8,1.2-3.1,2.6-6.7,4.3c-3.6,1.6-6.3,2.4-8.2,2.4
			c-3.1-4.8-8.7-7.2-16.9-7.2c-1.3,0-2.7,0-4,0.1c-1.4,0.1-2.8,0.3-4.3,0.5c-0.3,1.2-2.4,2.5-6.2,4c-3.8,1.5-6.6,2.3-8.6,2.5
			c0-0.6,0-1.4,0.1-2.3s0.2-2.1,0.3-3.4c0.1-1.3,0.2-2.4,0.3-3.4s0.1-1.8,0.1-2.4c0-1.1-0.3-2.9-1-5.2s-1-4.1-1-5.2
			c0-0.8,2.2-2.2,6.5-4.1c1.9-0.8,3.6-1.4,5-1.9s2.5-0.8,3.4-0.9c1.4,2.8,2.1,6.1,2.1,10.1c0,1.7-0.2,4-0.5,6.9c10-2,17.4-3,22.1-3
			c1,0,1.9,0,2.8,0.1c0.9,0.1,1.9,0.2,2.8,0.3c0.2-2.1,0.4-4.2,0.5-6.4s0.1-4.4,0.1-6.7c0-2.9,0-5.9-0.1-9.2s-0.2-6.8-0.5-10.6
			c-3.1-2.4-8.6-3.7-16.3-3.7c-2.9,0-5.8,0.1-8.8,0.3s-6.1,0.4-9.4,0.7c-3.5,1.6-6.5,2.6-8.9,3.1v0c0-0.7,0.1-1.9,0.2-3.7
			c0.2-1.8,0.4-4.2,0.7-7.2c0.4-4.1,0.7-8.1,0.9-12.1c0.2-3.9,0.3-7.8,0.3-11.5c0-9.8-0.5-17.2-1.5-22.1c-0.1-0.7-0.7-2.7-1.9-5.8
			c-0.8-2.5-1.3-4.4-1.3-5.7c0-0.8,2-2.3,6-4.3s6.7-3.1,8-3.1c1.9,0,3.3,3.2,4.1,9.6c20.1-6.4,33.5-9.6,40.3-9.6
			c0.8,0,1.4,0.1,1.9,0.3c-0.1,0.1-0.3,0.3-0.5,0.5s-0.6,0.5-1,0.8c-3.9,3.2-6,7-6.5,11.5c-0.2,5.8-0.9,9.6-2.1,11.5
			c-1,1.6-3.3,3.1-6.7,4.5c-1,0.4-2.1,0.9-3.4,1.3c-1.3,0.5-2.9,1-4.8,1.4c0.2-11.1,3.5-19.3,9.9-24.8c-3.1,0.7-6.8,1.5-11.3,2.5
			s-9.7,2.2-15.7,3.5c0.5,4.7,0.8,8.6,1.1,11.9c0.2,3.3,0.4,5.9,0.4,8c0,7.6-0.7,18.6-2.2,33c3.3-0.6,7-1,11.2-1.3s8.8-0.4,13.9-0.4
			c7.5,0,13.5,1,18.2,2.9c0,1.2,0,2.8,0.1,4.7s0.2,4.2,0.3,6.7c0.1,2.6,0.2,4.8,0.3,6.7C155.7,195.5,155.7,197.1,155.8,198.4
			L155.8,198.4z"/>
		<path class="st0" d="M242.5,125.4c0,2.5-0.1,5.6-0.2,9.2c-0.1,3.6-0.3,7.8-0.5,12.7c-0.2,4.8-0.4,9.1-0.5,12.6
			c-0.1,3.6-0.2,6.6-0.2,9.1c0,0.7,0,1.5,0,2.5s0.1,2.2,0.1,3.5c0.1,1.4,0.1,2.6,0.1,3.6s0,1.9,0,2.5c0,1.2-2.1,2.7-6.3,4.6
			c-1.9,0.8-3.5,1.4-4.9,1.8c-1.4,0.4-2.6,0.7-3.5,0.8c-6.9-4.9-17.6-7.4-32.2-7.4H194c-0.1,1.4-0.2,3.6-0.4,6.6s-0.3,7-0.5,11.8
			c-0.2,3.8-0.4,7.3-0.5,10.4c-0.1,3.1-0.1,5.8-0.1,8.2c0,2.8-0.3,4.8-0.9,6c-0.5,1.2-2.6,2.6-6.3,4.3c-3.7,1.6-6.5,2.5-8.4,2.7
			c0-1.3,0.1-3.5,0.2-6.6s0.4-7.2,0.7-12.2c0.6-9,1-16.9,1.3-23.6c0.3-6.7,0.4-12.4,0.4-17.1c0-7.1,0-13.3-0.1-18.5
			s-0.2-9.5-0.5-12.9c-0.1-4-0.8-9.8-2.1-17.4c-1.7-5.6-2.6-7.8-2.6-6.7c0-1.1,2.1-2.5,6.3-4.4c4.2-2,7-3,8.4-3
			c1.3,0,2.5,3.8,3.5,11.5c0.2-0.2,0.9-0.5,2.1-0.9s8.9-2.3,23.3-5.6c14.6-3.3,22.1-5,22.2-5c0.2,0,0.6,0.5,1.1,1.5
			C242,113,242.5,118.1,242.5,125.4L242.5,125.4z M227.6,136.4c0-7.1-0.7-13.8-2-20.2c-3.7,0.8-8.3,1.9-13.8,3.2
			c-5.5,1.3-11.9,2.8-19.3,4.4c0.7,13.2,1.1,23.9,1.4,32.3s0.4,14.5,0.3,18.3c3.2-0.3,6.2-0.5,9-0.7s5.4-0.3,7.9-0.3
			c5.9,0,10.8,0.4,14.7,1.1c0-2,0.1-4.5,0.2-7.7s0.4-6.9,0.7-11.2C227.3,147.3,227.6,140.9,227.6,136.4L227.6,136.4z"/>
	</g>
</g>
</svg>
