<?xml version="1.0" encoding="UTF-8"?>
<svg id="Layer_2" data-name="Layer 2" xmlns="http://www.w3.org/2000/svg" xmlns:xlink="http://www.w3.org/1999/xlink" width="337" height="409" viewBox="0 0 337.92 409.43">
  <defs>
    <style>
      .cls-1 {
        clip-path: url(#clippath-1);
      }

      .cls-2 {
        fill: #2e1b10;
      }

      .cls-3 {
        clip-path: url(#clippath);
      }

      .cls-4, .cls-5 {
        fill: none;
      }

      .cls-6 {
        fill: url(#linear-gradient);
      }

      .cls-6, .cls-7, .cls-5 {
        stroke-miterlimit: 10;
      }

      .cls-6, .cls-5 {
        stroke: #3b2314;
        stroke-width: 6px;
      }

      .cls-7 {
        fill: #00aeb7;
        stroke: #007a72;
        stroke-width: 4px;
      }
    </style>
    <clipPath id="clippath">
      <path id="Form_big" data-name="Form big" class="cls-5" d="M166.71,406.32h146.45c19.27,0,16.7-18.28,16.7-18.28,0,0,1.54-253.78-30.06-308.36C268.2,25.1,186.75,3,166.71,3S65.22,25.1,33.62,79.68C2.02,134.26,3.56,388.04,3.56,388.04c0,0-2.57,18.28,16.7,18.28H166.71Z"/>
    </clipPath>
    <linearGradient id="linear-gradient" x1="3.44" y1="212.65" x2="329.98" y2="212.65" gradientUnits="userSpaceOnUse">
      <stop offset="0" stop-color="#fbcdab"/>
      <stop offset="1" stop-color="#fde4d9"/>
    </linearGradient>
    <clipPath id="clippath-1">
      <polygon class="cls-4" points="130.68 386.03 82.56 337.91 82.56 269.86 130.68 221.74 198.74 221.74 246.86 269.86 246.86 337.91 198.74 386.03 130.68 386.03"/>
    </clipPath>
  </defs>
  <g id="International_south_copy" data-name="International south copy">
    <g id="Violent_Stag_P_copy" data-name="Violent Stag P copy">
      <path id="Shadow" class="cls-2" d="M168.96,409.43h151.56c19.94,0,17.28-18.5,17.28-18.5,0,0,1.6-256.77-31.11-311.99C273.99,23.73,189.7,1.36,168.96,1.36S63.93,23.73,31.23,78.94C-1.48,134.16,.12,390.93,.12,390.93c0,0-2.66,18.5,17.28,18.5H168.96Z"/>
      <g>
        <g class="cls-3">
          <rect id="Color_gradient" data-name="Color gradient" class="cls-6" x="3.44" y="-40.31" width="326.53" height="505.92"/>
        </g>
        <path id="Form_big-2" data-name="Form big" class="cls-5" d="M166.71,406.32h146.45c19.27,0,16.7-18.28,16.7-18.28,0,0,1.54-253.78-30.06-308.36C268.2,25.1,186.75,3,166.71,3S65.22,25.1,33.62,79.68C2.02,134.26,3.56,388.04,3.56,388.04c0,0-2.57,18.28,16.7,18.28H166.71Z"/>
      </g>
      <g id="Pieces_copy_32" data-name="Pieces copy 32">
        <g id="Violent_Stag_BLUE_copy_5" data-name="Violent Stag BLUE copy 5">
          <g id="VSP_move_copy_5" data-name="VSP move copy 5">
            <g id="Lines">
              <g class="cls-1">
                <g>
                  <rect class="cls-7" x="160.6" y="188.1" width="9.1" height="231.58" transform="translate(-166.51 205.81) rotate(-45)"/>
                  <rect class="cls-7" x="49.36" y="299.34" width="231.58" height="9.1" transform="translate(-166.5 205.76) rotate(-45)"/>
                  <rect class="cls-7" x="160.6" y="221.7" width="9.1" height="84.06"/>
                </g>
              </g>
            </g>
            <rect id="Center" class="cls-7" x="146.19" y="285.25" width="37.93" height="37.93"/>
          </g>
          <g>
            <path class="cls-7" d="M160.85,62.97c0,1.32-.36,3.05-1.08,5.2-.6,1.56-1.03,2.75-1.3,3.59-.27,.84-.43,1.32-.49,1.43-.84,3.29-1.87,7.38-3.09,12.29-1.23,4.9-2.65,10.67-4.26,17.31-1.5,5.26-3.29,11.76-5.38,19.5-2.09,7.74-4.48,16.84-7.17,27.31-.3,2.99-.91,6.58-1.84,10.76-.93,4.19-2.17,9-3.72,14.44-2.81,5.92-8.25,9.3-16.32,10.13-.12-.96-.9-5.35-2.33-13.18-1.43-7.83-3.47-19.1-6.1-33.81-1.73-9.51-3.47-18.14-5.2-25.92-1.73-7.77-3.47-14.74-5.2-20.89-.96-3.23-1.84-6.02-2.65-8.38-.81-2.36-1.6-4.38-2.38-6.05-1.97-4.36-2.96-6.7-2.96-7,0-1.13,2.12-2.6,6.37-4.39,4.13-1.85,7-2.78,8.61-2.78l.54,.72c1.02,2.57,2.08,5.37,3.18,8.38,1.11,3.02,2.23,6.29,3.36,9.82,4.18,13.03,8.88,35.03,14.08,66l14.26-53.27c.48-1.85,1.02-4.14,1.61-6.86,.6-2.72,1.31-5.93,2.15-9.64,.24-2.09,.87-4.81,1.88-8.16,.78-1.25,2.96-2.72,6.55-4.39,3.77-1.73,6.49-2.6,8.16-2.6,.48,0,.72,.15,.72,.45Z"/>
            <path class="cls-7" d="M236.27,152.29c0,13.81-1.26,22.45-3.77,25.92-.84,1.2-3.08,2.63-6.73,4.3-3.59,1.61-6.31,2.42-8.16,2.42-3.05-4.78-8.7-7.17-16.95-7.17-1.32,0-2.66,.04-4.04,.13-1.38,.09-2.81,.26-4.3,.49-.3,1.2-2.36,2.54-6.19,4.04-3.77,1.5-6.64,2.33-8.61,2.51,0-.6,.04-1.36,.13-2.29,.09-.93,.19-2.05,.31-3.36,.12-1.31,.22-2.45,.31-3.41,.09-.96,.13-1.76,.13-2.42,0-1.13-.33-2.87-.99-5.2-.66-2.33-.99-4.06-.99-5.2,0-.84,2.15-2.21,6.46-4.12,1.91-.78,3.57-1.4,4.98-1.88,1.4-.48,2.52-.78,3.36-.9,1.37,2.75,2.06,6.13,2.06,10.13,0,1.73-.18,4.04-.54,6.9,10.04-1.97,17.4-2.96,22.06-2.96,.95,0,1.9,.04,2.82,.13,.93,.09,1.87,.19,2.83,.31,.24-2.09,.4-4.23,.49-6.41,.09-2.18,.13-4.41,.13-6.68,0-2.87-.04-5.95-.13-9.24-.09-3.29-.25-6.82-.49-10.58-3.11-2.45-8.55-3.68-16.32-3.68-2.87,0-5.82,.09-8.83,.27-3.02,.18-6.14,.42-9.37,.72-3.53,1.56-6.49,2.57-8.88,3.05v-.18c0-.66,.07-1.88,.22-3.68,.15-1.79,.37-4.18,.67-7.17,.42-4.13,.73-8.15,.94-12.06,.21-3.92,.31-7.76,.31-11.52,0-9.8-.51-17.16-1.52-22.06-.06-.72-.69-2.66-1.88-5.83-.84-2.51-1.26-4.42-1.26-5.74,0-.84,2-2.27,6.01-4.3,4-2.03,6.67-3.05,7.98-3.05,1.91,0,3.29,3.2,4.12,9.59,20.09-6.4,33.54-9.59,40.35-9.59,.78,0,1.4,.09,1.88,.27-.12,.12-.3,.3-.54,.54s-.57,.51-.99,.81c-3.89,3.17-6.04,6.99-6.46,11.48-.18,5.8-.9,9.63-2.15,11.48-1.02,1.55-3.26,3.05-6.73,4.48-.96,.42-2.11,.87-3.45,1.35-1.34,.48-2.95,.96-4.8,1.43,.18-11.06,3.5-19.34,9.95-24.84-3.05,.66-6.82,1.48-11.3,2.47-4.48,.99-9.72,2.17-15.69,3.54,.48,4.66,.84,8.64,1.08,11.93,.24,3.29,.36,5.95,.36,7.98,0,7.59-.72,18.59-2.15,33,3.29-.6,7.01-1.04,11.17-1.34,4.15-.3,8.8-.45,13.94-.45,7.47,0,13.54,.96,18.2,2.87,0,1.2,.04,2.75,.13,4.66,.09,1.91,.19,4.16,.31,6.73,.12,2.57,.22,4.8,.31,6.68,.09,1.88,.13,3.45,.13,4.71Z"/>
          </g>
        </g>
      </g>
    </g>
  </g>
</svg>