<?xml version="1.0" encoding="UTF-8"?>
<svg id="Layer_2" data-name="Layer 2" xmlns="http://www.w3.org/2000/svg" xmlns:xlink="http://www.w3.org/1999/xlink" width="337" height="409" viewBox="0 0 350.43 450.26">
  <defs>
    <style>
      .cls-1 {
        fill: #2e1b10;
      }

      .cls-2 {
        fill: #3b2314;
      }

      .cls-3 {
        fill: url(#linear-gradient);
      }
    </style>
    <linearGradient id="linear-gradient" x1="-1431.34" y1="242.2" x2="-1430.34" y2="242.2" gradientTransform="translate(483619.44 82056.32) scale(337.87 -337.87)" gradientUnits="userSpaceOnUse">
      <stop offset="0" stop-color="#fbcdab"/>
      <stop offset="1" stop-color="#fde4d9"/>
    </linearGradient>
  </defs>
  <g id="Falcon">
    <g id="north_Falcon_ENG" data-name="north Falcon ENG">
      <g id="piece">
        <path class="cls-1" d="M174.83,.2h156.83c20.63,0,17.88,20.37,17.88,20.37,0,0,1.65,282.83-32.19,343.65-33.84,60.82-121.06,85.46-142.52,85.46s-108.68-24.63-142.52-85.46C-1.53,303.4,.12,20.57,.12,20.57,.12,20.57-2.63,.2,18,.2H174.83Z"/>
        <path class="cls-3" d="M347.43,20.87c0,1.39-.12,2.27-.12,2.27,0,0,1.6,279.54-31.1,339.66-32.7,60.12-116.98,84.46-137.71,84.46s-105.01-24.35-137.71-84.46C8.09,302.68,9.68,23.14,9.68,23.14c0,0-.13-.96-.12-2.46h0c.04-5.39,1.82-17.68,17.4-17.68H330.04c15.53,0,17.35,12.21,17.4,17.61v.26Z"/>
        <path class="cls-2" d="M347.43,20.87h-3c0,.61-.03,1.1-.05,1.44-.01,.17-.02,.29-.03,.37v.08s0,.01,0,.01l1.32,.16-1.32-.17h0s1.32,.17,1.32,.17l-1.32-.17-.03,.2v.2s0,.55,0,1.61c0,1.06,0,2.63,0,4.66,0,20.81-.33,90.43-4.38,161.61-2.02,35.59-4.98,71.58-9.28,102.01-2.15,15.21-4.63,29.04-7.48,40.7-2.85,11.66-6.09,21.16-9.61,27.62-7.96,14.63-19.09,27.15-31.69,37.69-18.89,15.82-41.06,27.17-60.39,34.53-9.67,3.68-18.62,6.36-26.08,8.11-3.73,.88-7.08,1.52-9.95,1.94-2.86,.42-5.25,.62-6.97,.62-2.31,0-5.77-.35-10-1.12-7.42-1.33-17.26-3.9-28.23-7.81-16.46-5.86-35.5-14.74-52.99-26.97-17.5-12.23-33.43-27.81-43.87-47-3.52-6.46-6.77-15.96-9.61-27.62-5-20.41-8.85-47.43-11.77-76.97C13.24,168.13,12.67,56.73,12.67,29.42c0-2.03,0-3.6,0-4.66,0-1.06,0-1.6,0-1.61v-.21s-.03-.2-.03-.2h0c-.01-.1-.09-.82-.09-1.91v-.12h0v-.03c0-1.19,.12-2.77,.47-4.41,.27-1.23,.68-2.5,1.27-3.69,.9-1.78,2.16-3.35,4.09-4.54,1.93-1.18,4.62-2.04,8.57-2.04H330.04c3.49,0,6.01,.68,7.87,1.65,1.4,.73,2.46,1.64,3.32,2.68,1.28,1.55,2.09,3.42,2.57,5.28,.48,1.86,.62,3.69,.63,5.03v.23h0s3,0,3,0h3v-.27h0c-.01-1.52-.15-3.49-.63-5.66-.36-1.63-.91-3.36-1.78-5.08-1.29-2.57-3.32-5.11-6.32-6.94C338.72,1.08,334.84,0,330.04,0,320.07,0,282.18,0,246.79,0,229.1,0,212.02,0,199.37,0,193.05,0,187.83,0,184.19,0,180.56,0,178.51,0,178.5,0,178.5,0,46.9,0,26.96,0c-4.28,0-7.83,.85-10.68,2.35-2.13,1.12-3.85,2.58-5.17,4.2-1.99,2.43-3.11,5.14-3.74,7.63-.63,2.49-.79,4.78-.81,6.47v.03h3l-3-.03v.19c0,1.58,.13,2.59,.14,2.7l2.97-.39-3-.02s-.01,2.22-.01,6.3c0,20.88,.33,90.57,4.39,161.96,2.03,35.7,4.99,71.81,9.32,102.51,2.17,15.35,4.68,29.35,7.6,41.29,2.93,11.95,6.24,21.82,10.17,29.06,8.4,15.43,20.06,28.5,33.11,39.43,19.58,16.39,42.29,27.99,62.11,35.53,9.91,3.77,19.1,6.53,26.84,8.35,3.87,.91,7.38,1.59,10.44,2.04,3.07,.45,5.69,.68,7.85,.68,2.88,0,6.59-.41,11.06-1.21,7.82-1.41,17.92-4.05,29.18-8.06,16.89-6.01,36.36-15.09,54.41-27.71,18.04-12.62,34.68-28.8,45.7-49.05,3.93-7.24,7.24-17.11,10.17-29.06,5.11-20.89,8.97-48.1,11.91-77.8,8.83-89.07,9.4-200.54,9.4-227.95,0-4.08-.01-6.29-.01-6.3l-3,.02,2.98,.38c.01-.1,.14-1.1,.14-2.65h0s-3,0-3,0Z"/>
      </g>
      <polygon id="moves" class="cls-1" points="263.7 88.74 263.7 79.64 200.79 79.64 200.79 71.66 243.35 29.1 236.92 22.66 194.69 64.9 168.96 64.9 127.17 23.11 120.74 29.54 162.86 71.66 162.86 79.64 100.12 79.64 100.12 88.74 162.86 88.74 162.86 96.72 120.74 138.84 127.17 145.27 169.62 102.82 177.28 102.82 177.28 166.34 186.37 166.34 186.37 102.82 194.03 102.82 236.92 145.71 243.35 139.28 200.79 96.72 200.79 88.74 263.7 88.74"/>
      <path id="title" class="cls-1" d="M129.5,344.37c0-2.45,.02-5.49,.04-9.1,.03-3.62,.08-7.85,.13-12.69,.06-4.84,.1-9.07,.13-12.69,.03-3.62,.04-6.62,.04-9.01,0-1.73-.01-3.72-.04-5.96-.03-2.24-.07-4.8-.13-7.67,13.99-5.92,22.87-8.88,26.63-8.88,.36,0,.76,.04,1.21,.13,.45,.09,.97,.19,1.57,.31-1.61,15.84-2.42,30.91-2.42,45.2,0,3.41,.04,6.46,.13,9.15,.09,2.69,.19,5.08,.31,7.17-6.34,2.21-11.85,4.18-16.55,5.92-4.69,1.73-8.56,3.23-11.61,4.48,.36-1.61,.54-3.74,.54-6.37Zm-18.74-98.82c.12,1.02,.3,2.3,.54,3.86,2.39,14.11,3.59,33.66,3.59,58.65,0,4.9-.03,10.04-.09,15.42-.06,5.38-.15,11.06-.27,17.04-.12,5.98-.22,10.24-.31,12.78-.09,2.54-.13,3.39-.13,2.56,0,.78,.27,1.67,.81,2.69,1.56-.12,3.63-.63,6.23-1.52s5.73-2.12,9.37-3.68c4.12-1.85,7.52-3.3,10.18-4.35,2.66-1.05,4.68-1.72,6.05-2.02,4.72-.96,8.28-1.58,10.67-1.88,0,.66,.13,2.09,.4,4.3,.27,2.21,.64,5.26,1.12,9.15,2.09-.3,4.96-1.2,8.61-2.69,4.25-1.91,6.37-3.41,6.37-4.48,0-.42-.13-2.02-.4-4.8-.27-2.78-.64-6.8-1.12-12.06-.36-5.2-.54-11.12-.54-17.76,0-7.06,.27-15.02,.81-23.9,.54-8.88,1.32-18.76,2.33-29.64,1.73-15.6,2.93-24.63,3.59-27.08-2.03,.12-4.78,.93-8.25,2.42-3.53,1.49-5.89,2.93-7.08,4.3-.66,5.14-1.27,10.21-1.84,15.2-.57,4.99-1.09,9.94-1.57,14.84-13.45,4.9-23.5,8.76-30.13,11.57-.24-7.47-.54-13.99-.9-19.55-.36-5.56-.81-10.25-1.35-14.08-1.26-8.73-1.88-12.97-1.88-12.73,0-.18,.08-.42,.22-.72,.15-.3,.22-.57,.22-.81,0-.3-.21-.45-.63-.45-1.49,0-4.3,.93-8.43,2.78-4.24,1.91-6.37,3.38-6.37,4.39,0,.48,.06,1.22,.18,2.24Zm82.86,112.99c13.75-1.43,27.53-4.69,41.34-9.77,.24,4.3,1.2,7.56,2.87,9.77,1.85-.18,4.66-1.08,8.43-2.69,4.3-1.91,6.46-3.41,6.46-4.48,0,.54-.69-1.41-2.06-5.83-.48-3.05-.85-5.74-1.12-8.07-.27-2.33-.4-4.28-.4-5.83-.9-20.39-1.35-32.64-1.35-36.77,0-2.09,.03-4.75,.09-7.98,.06-3.23,.15-7.03,.27-11.39,.18-8.73,.27-15.22,.27-19.46,0-6.94,.72-13.57,2.15-19.91-2.39,0-5.26,.72-8.61,2.15-3.35,1.55-5.56,3.08-6.64,4.57-1.02,1.49-1.85,18.65-2.51,51.47-5.02,.48-9.55,.85-13.59,1.12-4.04,.27-7.67,.4-10.9,.4-1.67,0-4.3,.9-7.89,2.69-3.71,1.91-5.89,3.41-6.55,4.48l.18,.27c15.24,0,28.1-1.11,38.56-3.32,0,5.32,.17,11.73,.49,19.24,.33,7.5,.82,16.19,1.48,26.05-6.46,1.49-12.08,2.75-16.86,3.77-4.78,1.02-8.79,1.85-12.02,2.51,6.34-5.44,9.66-13.66,9.95-24.66-2.39,.42-5.2,1.31-8.43,2.69-3.29,1.31-5.53,2.87-6.73,4.66-1.26,1.67-1.88,4.3-1.88,7.89s-.36,6.16-1.08,8.07c-.84,1.91-2.66,4.15-5.47,6.73-.84,.72-1.35,1.22-1.52,1.52,1.32-.12,2.33-.09,3.05,.09Z"/>
    </g>
  </g>
</svg>