<?xml version="1.0" encoding="UTF-8"?>
<svg id="Layer_2" data-name="Layer 2" xmlns="http://www.w3.org/2000/svg" xmlns:xlink="http://www.w3.org/1999/xlink" width="337" height="409" viewBox="0 0 350.43 450.26">
  <defs>
    <style>
      .cls-1 {
        fill: #007a72;
      }

      .cls-2 {
        fill: #2e1b10;
      }

      .cls-3 {
        fill: #00aeb7;
      }

      .cls-4 {
        fill: #3b2314;
      }

      .cls-5 {
        fill: url(#linear-gradient);
      }
    </style>
    <linearGradient id="linear-gradient" x1="-2308.34" y1="246.2" x2="-2307.34" y2="246.2" gradientTransform="translate(779932.54 -82957.51) scale(337.87)" gradientUnits="userSpaceOnUse">
      <stop offset="0" stop-color="#fbcdab"/>
      <stop offset="1" stop-color="#fde4d9"/>
    </linearGradient>
  </defs>
  <g id="Mountain_Hawk_Eagle" data-name="Mountain Hawk Eagle">
    <g id="north_Mountain_Hawk_Eagle_ENG" data-name="north Mountain Hawk Eagle ENG">
      <g id="piece">
        <path class="cls-2" d="M174.83,.2h156.83c20.63,0,17.88,20.37,17.88,20.37,0,0,1.65,282.83-32.19,343.65-33.84,60.82-121.06,85.46-142.52,85.46s-108.68-24.63-142.52-85.46C-1.53,303.4,.12,20.57,.12,20.57,.12,20.57-2.63,.2,18,.2H174.83Z"/>
        <path class="cls-5" d="M347.43,20.87c0,1.39-.12,2.27-.12,2.27,0,0,1.6,279.54-31.1,339.66-32.7,60.12-116.98,84.46-137.71,84.46s-105.01-24.35-137.71-84.46C8.09,302.68,9.68,23.14,9.68,23.14c0,0-.13-.96-.12-2.46h0c.04-5.39,1.82-17.68,17.4-17.68H330.04c15.53,0,17.35,12.21,17.4,17.61v.26Z"/>
        <path class="cls-4" d="M347.43,20.87h-3c0,.61-.03,1.1-.05,1.44-.01,.17-.02,.29-.03,.37v.08s-.01,.01-.01,.01l1.34,.16-1.34-.17h0s1.34,.17,1.34,.17l-1.34-.17-.03,.2v.2s0,.55,0,1.61c0,1.06,0,2.62,0,4.66,0,20.81-.33,90.43-4.38,161.61-2.02,35.59-4.98,71.58-9.28,102.01-2.15,15.21-4.63,29.04-7.48,40.7-2.85,11.66-6.09,21.16-9.61,27.62-7.96,14.63-19.09,27.15-31.69,37.69-18.89,15.82-41.06,27.17-60.39,34.53-9.66,3.68-18.62,6.36-26.08,8.11-3.73,.88-7.08,1.52-9.95,1.94-2.86,.42-5.25,.62-6.98,.62-2.31,0-5.77-.35-10-1.12-7.42-1.33-17.26-3.9-28.23-7.81-16.46-5.86-35.5-14.74-52.99-26.97-17.5-12.23-33.43-27.81-43.86-47-3.52-6.46-6.77-15.96-9.61-27.62-5-20.41-8.84-47.43-11.77-76.96C13.24,168.13,12.67,56.73,12.67,29.42c0-2.03,0-3.6,0-4.66,0-1.06,0-1.6,0-1.61v-.21s-.03-.2-.03-.2h0c-.01-.1-.09-.82-.09-1.91v-.1s0-.03,0-.03v-.02c0-1.19,.12-2.77,.47-4.41,.27-1.23,.68-2.5,1.27-3.69,.9-1.78,2.16-3.35,4.09-4.54,1.93-1.18,4.62-2.04,8.57-2.04H330.04c3.49,0,6.01,.68,7.87,1.65,1.4,.73,2.46,1.64,3.32,2.68,1.28,1.55,2.09,3.42,2.57,5.28,.48,1.86,.62,3.69,.63,5.03v.23h0s3,0,3,0h3v-.29h0c-.01-1.5-.15-3.47-.62-5.64-.36-1.63-.91-3.36-1.78-5.08-1.29-2.57-3.32-5.11-6.32-6.94C338.72,1.08,334.84,0,330.04,0,320.07,0,282.18,0,246.79,0,229.1,0,212.02,0,199.37,0,193.05,0,187.83,0,184.19,0,180.56,0,178.51,0,178.5,0,178.5,0,46.9,0,26.96,0c-4.28,0-7.83,.85-10.68,2.35-2.13,1.12-3.85,2.58-5.17,4.2-1.99,2.43-3.11,5.14-3.74,7.63-.63,2.49-.79,4.78-.81,6.47v.03h3l-3-.06c0,.1,0,.17,0,.21,0,1.58,.13,2.6,.14,2.7l2.97-.39-3-.02s-.01,2.22-.01,6.3c0,20.88,.33,90.57,4.39,161.96,2.03,35.7,4.99,71.81,9.32,102.51,2.17,15.35,4.68,29.35,7.6,41.29,2.93,11.95,6.24,21.82,10.17,29.06,8.4,15.43,20.06,28.5,33.11,39.43,19.58,16.39,42.29,27.99,62.11,35.53,9.91,3.77,19.1,6.53,26.84,8.35,3.87,.91,7.38,1.59,10.44,2.04,3.07,.45,5.69,.68,7.85,.68,2.88,0,6.59-.41,11.06-1.21,7.82-1.41,17.92-4.05,29.18-8.06,16.89-6.01,36.36-15.09,54.41-27.71,18.04-12.62,34.68-28.8,45.7-49.05,3.93-7.24,7.24-17.11,10.17-29.06,5.11-20.89,8.97-48.1,11.91-77.8,8.83-89.07,9.4-200.54,9.4-227.95,0-4.07-.01-6.29-.01-6.29l-3,.02,2.98,.38c.01-.1,.14-1.1,.14-2.65h0s-3,0-3,0Z"/>
      </g>
      <g id="moves">
        <rect class="cls-3" x="148.61" y="85.41" width="14.25" height="14.25"/>
        <polygon class="cls-1" points="148.61 99.66 149.11 99.66 149.11 85.91 162.36 85.91 162.36 99.16 148.61 99.16 148.61 99.66 149.11 99.66 148.61 99.66 148.61 100.16 163.36 100.16 163.36 84.91 148.11 84.91 148.11 100.16 148.61 100.16 148.61 99.66"/>
        <rect class="cls-3" x="134.36" y="71.16" width="14.25" height="14.25"/>
        <polygon class="cls-1" points="134.36 85.41 134.86 85.41 134.86 71.66 148.11 71.66 148.11 84.91 134.36 84.91 134.36 85.41 134.86 85.41 134.36 85.41 134.36 85.91 149.11 85.91 149.11 70.66 133.86 70.66 133.86 85.91 134.36 85.91 134.36 85.41"/>
        <rect class="cls-3" x="215.04" y="71.16" width="14.25" height="14.25"/>
        <polygon class="cls-1" points="229.29 85.41 229.29 84.91 215.54 84.91 215.54 71.66 228.79 71.66 228.79 85.41 229.29 85.41 229.29 84.91 229.29 85.41 229.79 85.41 229.79 70.66 214.54 70.66 214.54 85.91 229.79 85.91 229.79 85.41 229.29 85.41"/>
        <rect class="cls-3" x="200.79" y="85.41" width="14.25" height="14.25"/>
        <polygon class="cls-1" points="200.79 99.66 201.29 99.66 201.29 85.91 214.54 85.91 214.54 99.16 200.79 99.16 200.79 99.66 201.29 99.66 200.79 99.66 200.79 100.16 215.54 100.16 215.54 84.91 200.29 84.91 200.29 100.16 200.79 100.16 200.79 99.66"/>
        <polygon class="cls-3" points="162.86 114.41 162.86 99.66 177.28 99.66 177.28 49.59 166.04 49.59 181.29 23.17 196.54 49.59 186.38 49.59 186.38 99.66 200.79 99.66 200.79 114.41 263.7 114.41 263.7 123.5 200.79 123.5 200.79 131.49 233.86 164.56 241.91 156.51 249.8 185.97 220.33 178.08 227.43 170.99 194.03 137.59 186.38 137.59 186.38 201.1 177.28 201.1 177.28 137.59 169.63 137.59 136.4 170.82 144.18 178.61 114.71 186.5 122.61 157.03 129.96 164.39 162.86 131.49 162.86 123.5 100.12 123.5 100.12 114.41 162.86 114.41"/>
        <polygon class="cls-1" points="162.86 114.41 163.36 114.41 163.36 100.16 177.78 100.16 177.78 49.09 166.9 49.09 181.29 24.17 195.67 49.09 185.88 49.09 185.88 100.16 200.29 100.16 200.29 114.91 263.2 114.91 263.2 123 200.29 123 200.29 131.69 233.86 165.26 241.65 157.47 249.09 185.26 221.29 177.82 228.14 170.99 194.23 137.09 185.88 137.09 185.88 200.6 177.78 200.6 177.78 137.09 169.42 137.09 135.69 170.82 143.21 178.35 115.42 185.79 122.87 157.99 129.96 165.09 163.36 131.69 163.36 123 100.62 123 100.62 114.91 163.36 114.91 163.36 114.41 162.86 114.41 162.86 113.91 99.62 113.91 99.62 124 162.36 124 162.36 131.28 129.96 163.68 122.35 156.06 114 187.2 145.14 178.87 137.1 170.82 169.83 138.09 176.78 138.09 176.78 201.6 186.88 201.6 186.88 138.09 193.82 138.09 226.72 170.99 219.36 178.33 250.5 186.67 242.17 155.54 233.86 163.85 201.29 131.28 201.29 124 264.2 124 264.2 113.91 201.29 113.91 201.29 99.16 186.88 99.16 186.88 50.09 197.4 50.09 181.29 22.17 165.17 50.09 176.78 50.09 176.78 99.16 162.36 99.16 162.36 114.41 162.86 114.41 162.86 113.91 162.86 114.41"/>
      </g>
      <g id="title">
        <path class="cls-3" d="M129.59,345.18c0-2.45,.02-5.49,.04-9.1,.03-3.62,.08-7.85,.13-12.69,.06-4.84,.1-9.07,.13-12.69,.03-3.62,.04-6.62,.04-9.01,0-1.73-.01-3.72-.04-5.96-.03-2.24-.07-4.8-.13-7.67,13.99-5.92,22.87-8.88,26.63-8.88,.36,0,.76,.04,1.21,.13,.45,.09,.97,.19,1.57,.31-1.61,15.84-2.42,30.91-2.42,45.2,0,3.41,.04,6.46,.13,9.15,.09,2.69,.19,5.08,.31,7.17-6.34,2.21-11.85,4.18-16.55,5.92-4.69,1.73-8.56,3.23-11.61,4.48,.36-1.61,.54-3.74,.54-6.37Zm-18.74-98.82c.12,1.02,.3,2.3,.54,3.86,2.39,14.11,3.59,33.66,3.59,58.65,0,4.9-.03,10.04-.09,15.42-.06,5.38-.15,11.06-.27,17.04-.12,5.98-.22,10.24-.31,12.78-.09,2.54-.13,3.39-.13,2.56,0,.78,.27,1.67,.81,2.69,1.56-.12,3.63-.63,6.23-1.52s5.73-2.12,9.37-3.68c4.12-1.85,7.52-3.3,10.18-4.35,2.66-1.05,4.68-1.72,6.05-2.02,4.72-.96,8.28-1.58,10.67-1.88,0,.66,.13,2.09,.4,4.3,.27,2.21,.64,5.26,1.12,9.15,2.09-.3,4.96-1.2,8.61-2.69,4.25-1.91,6.37-3.41,6.37-4.48,0-.42-.13-2.02-.4-4.8-.27-2.78-.64-6.8-1.12-12.06-.36-5.2-.54-11.12-.54-17.76,0-7.06,.27-15.02,.81-23.9,.54-8.88,1.32-18.76,2.33-29.64,1.73-15.6,2.93-24.63,3.59-27.08-2.03,.12-4.78,.93-8.25,2.42-3.53,1.49-5.89,2.93-7.08,4.3-.66,5.14-1.27,10.21-1.84,15.2-.57,4.99-1.09,9.94-1.57,14.84-13.45,4.9-23.5,8.76-30.13,11.57-.24-7.47-.54-13.99-.9-19.55-.36-5.56-.81-10.25-1.35-14.08-1.26-8.73-1.88-12.97-1.88-12.73,0-.18,.08-.42,.22-.72,.15-.3,.22-.57,.22-.81,0-.3-.21-.45-.63-.45-1.49,0-4.3,.93-8.43,2.78-4.24,1.91-6.37,3.38-6.37,4.39,0,.48,.06,1.22,.18,2.24Zm82.86,112.99c13.75-1.43,27.53-4.69,41.34-9.77,.24,4.3,1.2,7.56,2.87,9.77,1.85-.18,4.66-1.08,8.43-2.69,4.3-1.91,6.46-3.41,6.46-4.48,0,.54-.69-1.41-2.06-5.83-.48-3.05-.85-5.74-1.12-8.07-.27-2.33-.4-4.28-.4-5.83-.9-20.39-1.35-32.64-1.35-36.77,0-2.09,.03-4.75,.09-7.98,.06-3.23,.15-7.03,.27-11.39,.18-8.73,.27-15.22,.27-19.46,0-6.94,.72-13.57,2.15-19.91-2.39,0-5.26,.72-8.61,2.15-3.35,1.55-5.56,3.08-6.64,4.57-1.02,1.49-1.85,18.65-2.51,51.47-5.02,.48-9.55,.85-13.59,1.12-4.04,.27-7.67,.4-10.9,.4-1.67,0-4.3,.9-7.89,2.69-3.71,1.91-5.89,3.41-6.55,4.48l.18,.27c15.24,0,28.1-1.11,38.56-3.32,0,5.32,.17,11.73,.49,19.24,.33,7.5,.82,16.19,1.48,26.05-6.46,1.49-12.08,2.75-16.86,3.77-4.78,1.02-8.79,1.85-12.02,2.51,6.34-5.44,9.66-13.66,9.95-24.66-2.39,.42-5.2,1.31-8.43,2.69-3.29,1.31-5.53,2.87-6.73,4.66-1.26,1.67-1.88,4.3-1.88,7.89s-.36,6.16-1.08,8.07c-.84,1.91-2.66,4.15-5.47,6.73-.84,.72-1.35,1.22-1.52,1.52,1.32-.12,2.33-.09,3.05,.09Z"/>
        <path class="cls-1" d="M129.59,345.18h2.5c0-2.44,.02-5.47,.04-9.08,.03-3.61,.08-7.84,.13-12.68,.06-4.84,.1-9.08,.13-12.7,.03-3.62,.04-6.63,.04-9.03,0-1.75-.01-3.75-.04-6-.03-2.25-.07-4.81-.14-7.69l-2.5,.05,.97,2.3c6.96-2.94,12.63-5.14,16.97-6.59,4.31-1.45,7.41-2.12,8.69-2.09,.15,0,.4,.02,.72,.09,.45,.09,.97,.19,1.56,.31l.5-2.45-2.49-.25c-1.62,15.92-2.43,31.07-2.43,45.45,0,3.43,.04,6.5,.14,9.23,.09,2.71,.2,5.12,.32,7.23l2.5-.14-.82-2.36c-6.35,2.21-11.88,4.19-16.59,5.93-4.71,1.74-8.61,3.24-11.7,4.52l.95,2.31,2.44,.54c.42-1.89,.6-4.16,.6-6.91h-5c0,2.52-.18,4.49-.48,5.82l-1.04,4.68,4.43-1.82c3.01-1.24,6.85-2.72,11.53-4.45,4.67-1.73,10.18-3.7,16.5-5.9l1.78-.62-.11-1.88c-.12-2.07-.22-4.44-.31-7.12-.09-2.66-.13-5.68-.13-9.06,0-14.2,.8-29.18,2.41-44.94l.23-2.25-2.22-.45c-.6-.12-1.13-.23-1.57-.31-.58-.11-1.13-.18-1.7-.18-2.49,.02-5.71,.84-10.27,2.35-4.54,1.51-10.3,3.75-17.33,6.73l-1.56,.66,.04,1.69c.06,2.86,.1,5.41,.13,7.65,.03,2.23,.04,4.21,.04,5.93,0,2.38-.01,5.38-.04,8.99-.03,3.61-.07,7.84-.13,12.68-.06,4.85-.1,9.08-.13,12.7-.03,3.62-.04,6.66-.04,9.12h2.5Zm-18.74-98.82l-2.48,.29c.13,1.06,.31,2.37,.55,3.94v.05s0,0,0,0c2.35,13.87,3.55,33.32,3.55,58.23,0,4.89-.03,10.02-.09,15.4-.06,5.37-.15,11.04-.27,17.02-.12,5.97-.22,10.23-.31,12.74-.03,.95-.06,1.67-.08,2.13,0,.23-.02,.4-.02,.5v.05s1.97,.19,1.97,.19l-1.96-.32c-.02,.1-.02,.12-.02,.13l1.98,.19-1.96-.32,2.4,.39-2.33-.69c-.05,.19-.06,.25-.07,.3l2.4,.39-2.33-.69,2.39,.71-2.17-1.23c-.16,.29-.19,.42-.22,.52l2.39,.71-2.17-1.23,2.17,1.23-1.68-1.85c-.3,.27-.41,.48-.5,.62l2.17,1.23-1.68-1.85,1.68,1.85v-2.5c-.81,0-1.4,.39-1.68,.65l1.68,1.85v-2.5s0,2.5,0,2.5l1.93-1.58c-.22-.28-.86-.9-1.93-.92v2.5l1.93-1.58-1.93,1.58,2.41-.65c-.07-.15-.03-.32-.48-.93l-1.93,1.58,2.41-.65-2.27,.61,2.35-.15c-.02-.07,.02-.02-.08-.46l-2.27,.61,2.35-.15-.25,.02h.25s0-.02,0-.02l-.25,.02h.25s0-.14,0-.14h-5c0,1.36,.44,2.61,1.1,3.86l.77,1.45,1.64-.13c1.92-.15,4.13-.72,6.85-1.65,2.68-.92,5.85-2.17,9.54-3.74l.04-.02h0c4.1-1.85,7.47-3.28,10.07-4.31,2.59-1.02,4.55-1.66,5.67-1.9l-.53-2.44,.5,2.45c4.69-.95,8.21-1.57,10.49-1.85l-.31-2.48h-2.5c0,.94,.15,2.34,.42,4.61,.27,2.21,.64,5.26,1.12,9.15l.31,2.53,2.52-.36c2.46-.36,5.45-1.32,9.2-2.85h.02s.06-.03,.06-.03c2.21-1,3.9-1.89,5.19-2.79,.65-.46,1.2-.91,1.68-1.49,.46-.57,.95-1.35,.97-2.48,0-.74-.15-2.2-.42-5.04-.27-2.77-.64-6.79-1.12-12.05l-2.49,.23,2.49-.17c-.35-5.13-.53-10.99-.53-17.58,0-6.99,.27-14.91,.8-23.75,.54-8.84,1.31-18.7,2.33-29.56l-2.49-.23,2.48,.28c.87-7.79,1.6-13.94,2.19-18.42,.59-4.46,1.07-7.37,1.33-8.29l.9-3.34-3.46,.2c-2.55,.16-5.48,1.07-9.09,2.62-3.67,1.58-6.27,3.04-7.98,4.96l-.5,.57-.1,.75c-.66,5.15-1.27,10.23-1.84,15.23-.57,5-1.09,9.97-1.57,14.88l2.49,.24-.86-2.35c-13.47,4.91-23.54,8.77-30.25,11.62l.98,2.3,2.5-.08c-.24-7.49-.54-14.04-.9-19.63-.36-5.6-.81-10.35-1.36-14.27-.61-4.26-1.07-7.44-1.39-9.57-.16-1.06-.28-1.86-.36-2.41-.04-.27-.08-.48-.1-.64l-.04-.23s-.02-.08-.04-.19c-.02-.06-.03-.12-.09-.28-.04-.09-.08-.2-.23-.45-.09-.13-.2-.29-.47-.53-.26-.22-.78-.59-1.62-.6v2.5h1.06l1.39,.43s.06-.17,.06-.43h-1.44l1.39,.43-.25-.08,.24,.1v-.02s-.24-.08-.24-.08l.24,.1,.03-.06c.26-.53,.48-1.16,.49-1.92,.05-.7-.4-1.85-1.2-2.37-.78-.53-1.43-.57-1.92-.58-2.4,.06-5.17,1.12-9.45,3-2.2,1-3.89,1.88-5.17,2.75-.64,.45-1.19,.88-1.67,1.45-.46,.55-.98,1.31-1,2.47,0,.68,.07,1.47,.2,2.53l2.48-.29,2.48-.29c-.12-.97-.16-1.67-.16-1.95h-1.55l1.41,.66c.06-.12,.14-.35,.14-.66h-1.55l1.41,.66-.53-.25,.46,.38s.02-.02,.07-.12l-.53-.25,.46,.38c.08-.22,1.99-1.55,5.1-2.9,3.96-1.82,6.82-2.62,7.4-2.56v-1.73l-.98,1.38c.57,.38,.91,.34,.98,.35v-1.73l-.98,1.38,1.21-1.7h-2.1c-.05,.4,.29,1.32,.89,1.7l1.21-1.7h-2.1s1.07,0,1.07,0l-1.03-.29s-.03,.15-.03,.29h1.07l-1.03-.29,.4,.11-.38-.15v.04s.38,.11,.38,.11l-.38-.15v.02c-.23,.49-.47,.96-.5,1.83v2.5h2.5v-2.5l-1.62,1.9c.26,.22,.78,.59,1.62,.6v-2.5l-1.62,1.9,1.62-1.9-2.25,1.09c.09,.14,.12,.34,.63,.81l1.62-1.9-2.25,1.09,2.16-1.05-2.33,.55c.03,.08-.03,.03,.18,.5l2.16-1.05-2.33,.55,1.27-.3-1.28,.25v.05s1.28-.3,1.28-.3l-1.28,.25c.08,.36,.72,4.71,1.85,12.54,.52,3.73,.97,8.37,1.32,13.88,.36,5.52,.65,12.02,.89,19.47l.12,3.64,3.36-1.42c6.56-2.78,16.58-6.63,30.01-11.52l1.48-.54,.15-1.57c.48-4.89,1-9.82,1.57-14.8,.57-4.98,1.18-10.03,1.83-15.17l-2.48-.32,1.89,1.64c.68-.83,2.81-2.24,6.17-3.64,3.33-1.45,5.91-2.15,7.42-2.23l-.15-2.5-2.41-.65c-.4,1.53-.84,4.36-1.45,8.93-.6,4.54-1.34,10.71-2.2,18.53v.04s0,0,0,0c-1.02,10.9-1.8,20.81-2.34,29.72-.54,8.92-.81,16.93-.81,24.05,0,6.68,.18,12.65,.54,17.93v.07s0-.02,0-.02c.48,5.26,.85,9.29,1.12,12.08,.27,2.72,.4,4.46,.39,4.56h1.46l-1.34-.6c-.05,.11-.12,.32-.12,.6h1.46l-1.34-.6,.48,.22-.42-.33s-.02,.02-.06,.11l.48,.22-.42-.33c-.08,.23-1.97,1.57-5.08,2.92l1.03,2.28-.95-2.31c-3.54,1.46-6.29,2.29-8.02,2.53l.35,2.47,2.48-.3c-.48-3.89-.85-6.94-1.12-9.14-.27-2.16-.39-3.63-.39-4v-2.83l-2.81,.35c-2.51,.31-6.1,.95-10.86,1.91h-.03c-1.63,.36-3.71,1.07-6.44,2.14-2.72,1.07-6.14,2.53-10.29,4.4l1.02,2.28-.98-2.3c-3.61,1.54-6.69,2.74-9.21,3.61-2.48,.86-4.42,1.31-5.61,1.4l.19,2.49,2.21-1.17c-.42-.79-.52-1.33-.52-1.52h-5c0,.12,0,.22,0,.31,0,.05,0,.1,.01,.19,0,.05,0,.11,.04,.27,.02,.09,.03,.19,.14,.46,.06,.14,.13,.33,.39,.65,.22,.29,.86,.9,1.93,.92,.81,0,1.4-.39,1.68-.65,.55-.55,.56-.79,.65-.95,.18-.54,.12-.5,.15-.61,.04-.34,.04-.51,.06-1.03,.02-.49,.05-1.16,.08-2.04,.09-2.57,.2-6.83,.31-12.82,.12-5.99,.21-11.67,.27-17.06,.06-5.39,.09-10.54,.09-15.45,0-25.07-1.19-44.72-3.62-59.07l-2.46,.42,2.47-.38c-.24-1.54-.41-2.8-.53-3.77l-2.48,.29Zm82.86,112.99l.26,2.49c13.97-1.46,27.95-4.77,41.94-9.92l-.86-2.35-2.5,.14c.26,4.59,1.26,8.33,3.37,11.14l.84,1.12,1.39-.13c2.38-.25,5.28-1.23,9.17-2.88h.03c2.23-1.01,3.95-1.9,5.25-2.8,.65-.46,1.21-.91,1.7-1.49,.47-.57,.97-1.36,.99-2.49h-2.75l-2.17-.58c-.09,.38-.07,.49-.08,.58h2.25l-2.17-.58,2.37,.64-1.91-1.54c-.33,.43-.4,.71-.46,.91l2.37,.64-1.91-1.54,1.93,1.56v-2.49c-.8-.03-1.64,.5-1.93,.92l1.93,1.56v0l1.47-1.99c-.24-.17-.68-.47-1.47-.48v2.48l1.47-1.99-1.39,1.88,1.97-1.27c-.08-.1-.13-.25-.58-.61l-1.39,1.88,1.97-1.27-1.36,.88,1.45-.73s-.03-.06-.09-.15l-1.36,.88,1.45-.73-.03-.08c-.23-.55-.86-2.43-1.76-5.33l-2.39,.74,2.47-.39c-.47-3.02-.84-5.68-1.11-7.97-.26-2.27-.39-4.13-.39-5.54v-.11c-.9-20.37-1.35-32.66-1.35-36.66,0-2.07,.03-4.72,.09-7.94,.06-3.22,.15-7.01,.27-11.37,.18-8.76,.27-15.25,.27-19.53,0-6.76,.7-13.21,2.09-19.36l.69-3.05h-3.13c-2.89,0-6.05,.84-9.59,2.35l-.05,.02h-.02c-3.53,1.67-6.04,3.26-7.61,5.39l-.03,.05h0c-.33,.52-.41,.84-.52,1.19-.34,1.22-.53,2.88-.76,5.49-.65,7.73-1.2,23.06-1.66,46.16l2.5,.05-.24-2.49c-5,.48-9.51,.85-13.52,1.12-3.99,.27-7.57,.4-10.73,.4-2.52,.05-5.25,1.11-9.01,2.95h-.03c-1.91,1-3.46,1.89-4.68,2.73-1.22,.86-2.14,1.57-2.85,2.69l-.83,1.36,1.81,2.71h1.34c15.37,0,28.38-1.11,39.08-3.37l-.52-2.45h-2.5c0,5.37,.17,11.82,.5,19.34,.33,7.53,.82,16.23,1.48,26.11l2.49-.17-.56-2.44c-6.45,1.49-12.05,2.74-16.82,3.76-4.78,1.02-8.78,1.85-12,2.51l.5,2.45,1.63,1.9c7-5.99,10.54-15.05,10.82-26.49l.08-3.06-3.01,.53c-2.66,.47-5.63,1.43-8.98,2.85l.98,2.3-.93-2.32c-3.54,1.43-6.23,3.16-7.88,5.6l2.08,1.39-2-1.5c-1.76,2.39-2.37,5.53-2.38,9.39,0,3.29-.36,5.74-.92,7.19l2.34,.88-2.29-1c-.58,1.36-2.19,3.45-4.87,5.88l1.69,1.84-1.63-1.9c-.92,.82-1.46,1.24-2.04,2.14l-2.51,4.22,4.89-.44c.46-.04,.87-.06,1.21-.06,.5,0,.86,.05,1.01,.09l.42,.11,.44-.05-.26-2.49,.6-2.43c-.71-.17-1.43-.23-2.22-.23-.52,0-1.07,.03-1.66,.08l.23,2.49,2.15,1.28-.89-.53,.83,.62,.06-.09-.89-.53,.83,.62,.06-.06c.14-.16,.5-.5,1.01-.93l.04-.03,.02-.02c2.94-2.71,4.98-5.1,6.07-7.57l.02-.05,.03-.07c.88-2.38,1.23-5.31,1.23-8.95-.02-3.31,.63-5.44,1.38-6.39l.04-.06,.04-.06c.74-1.15,2.54-2.53,5.57-3.73l.06-.03h-.01c3.11-1.32,5.76-2.16,7.88-2.52l-.43-2.46-2.5-.07c-.31,10.56-3.4,17.94-9.08,22.83l-7.3,6.27,9.43-1.92c3.24-.66,7.25-1.5,12.04-2.52,4.8-1.02,10.44-2.28,16.9-3.78l2.07-.48-.14-2.12c-.66-9.85-1.15-18.52-1.48-25.99-.33-7.48-.49-13.86-.49-19.13v-3.08l-3.02,.64c-10.22,2.16-22.92,3.27-38.04,3.26v2.5l2.08-1.39-.18-.27-2.08,1.39,2.13,1.31,.06-.08c.4-.51,2.37-1.91,5.5-3.49l-1.15-2.22,1.12,2.24c3.42-1.74,5.95-2.47,6.77-2.43,3.3,0,6.98-.14,11.06-.41,4.06-.27,8.62-.65,13.66-1.13l2.22-.21,.04-2.23c.33-16.4,.7-28.88,1.12-37.41,.21-4.27,.43-7.55,.65-9.81,.11-1.13,.23-2,.33-2.57,.05-.28,.1-.49,.13-.58v-.04s-1.16-.4-1.16-.4l1.02,.69c.16-.25,.16-.29,.16-.29l-1.18-.4,1.02,.69-2.07-1.41,2.03,1.46c.58-.86,2.49-2.32,5.66-3.77l-1.05-2.27,.98,2.3c3.15-1.36,5.74-1.96,7.62-1.95v-2.5l-2.44-.55c-1.48,6.53-2.21,13.35-2.21,20.46,0,4.21-.09,10.69-.27,19.41-.12,4.35-.21,8.16-.27,11.39-.06,3.24-.09,5.91-.09,8.03,0,4.25,.45,16.47,1.35,36.88l2.5-.11h-2.5c0,1.7,.14,3.72,.42,6.12,.27,2.38,.65,5.1,1.13,8.17l.03,.18,.06,.18c.62,1.99,1.1,3.48,1.45,4.51,.18,.52,.32,.92,.46,1.25,.07,.17,.13,.31,.24,.52,.06,.11,.12,.23,.3,.45,.09,.11,.21,.25,.47,.45,.25,.18,.7,.48,1.5,.5,.81,.03,1.65-.5,1.95-.93,.49-.66,.48-.98,.53-1.2,.03-.22,.03-.34,.03-.45h-3.53l-1.35-.61c-.05,.11-.12,.33-.12,.61h1.47l-1.35-.61,.49,.22-.42-.34s-.02,.02-.06,.11l.49,.22-.42-.34c-.08,.23-2.01,1.58-5.16,2.93l1.02,2.28-.98-2.3c-3.64,1.57-6.36,2.39-7.69,2.5l.24,2.49,1.99-1.51c-1.24-1.61-2.15-4.39-2.37-8.41l-.19-3.37-3.17,1.17c-13.63,5.01-27.2,8.22-40.74,9.63l.26,2.49,.6-2.43-.6,2.43Z"/>
      </g>
    </g>
  </g>
</svg>