<?xml version="1.0" encoding="UTF-8"?>
<svg id="Layer_2" data-name="Layer 2" xmlns="http://www.w3.org/2000/svg" xmlns:xlink="http://www.w3.org/1999/xlink" width="350" height="450" viewBox="0 0 350.43 450.26">
  <defs>
    <style>
      .cls-1 {
        fill: #2e1b10;
      }

      .cls-2 {
        fill: #3b2314;
      }

      .cls-3 {
        fill: url(#linear-gradient);
      }
    </style>
    <linearGradient id="linear-gradient" x1="-520.34" y1="236.2" x2="-519.34" y2="236.2" gradientTransform="translate(175818.43 -79578.83) scale(337.87)" gradientUnits="userSpaceOnUse">
      <stop offset="0" stop-color="#fbcdab"/>
      <stop offset="1" stop-color="#fde4d9"/>
    </linearGradient>
  </defs>
  <g id="Phoenix">
    <g id="north_Phoenix_ENG" data-name="north Phoenix ENG">
      <g id="piece">
        <path class="cls-1" d="M174.83,.2h156.83c20.63,0,17.88,20.37,17.88,20.37,0,0,1.65,282.83-32.19,343.65-33.84,60.82-121.06,85.46-142.52,85.46s-108.68-24.63-142.52-85.46C-1.53,303.4,.12,20.57,.12,20.57,.12,20.57-2.63,.2,18,.2H174.83Z"/>
        <path class="cls-3" d="M347.32,23.14s1.6,279.54-31.1,339.66c-32.7,60.12-116.98,84.46-137.71,84.46s-105.01-24.35-137.71-84.46C8.09,302.68,9.68,23.14,9.68,23.14c0,0-.13-.96-.12-2.46h0c.04-5.39,1.82-17.68,17.4-17.68H330.04c15.53,0,17.35,12.21,17.4,17.61v.25c0,1.39-.12,2.27-.12,2.27Z"/>
        <path class="cls-2" d="M347.32,23.14l-3,.02s0,.55,0,1.61,0,2.62,0,4.66c0,20.81-.33,90.43-4.38,161.61-2.02,35.59-4.98,71.58-9.28,102.01-2.15,15.21-4.63,29.04-7.48,40.7-2.85,11.66-6.09,21.16-9.61,27.62-7.96,14.63-19.09,27.15-31.69,37.69-18.89,15.82-41.06,27.17-60.39,34.53-9.67,3.68-18.62,6.36-26.08,8.11-3.73,.88-7.08,1.52-9.95,1.94-2.86,.42-5.25,.62-6.98,.62-2.31,0-5.77-.35-10-1.12-7.42-1.33-17.26-3.9-28.23-7.81-16.46-5.86-35.5-14.74-52.99-26.97-17.5-12.23-33.43-27.81-43.87-47-3.52-6.46-6.77-15.96-9.61-27.62-5-20.41-8.85-47.43-11.77-76.97C13.24,168.13,12.67,56.73,12.67,29.42c0-2.03,0-3.6,0-4.66s0-1.6,0-1.61v-.21s-.03-.2-.03-.2h0c-.01-.1-.09-.82-.09-1.91v-.13s0-.01,0-.01v0c0-1.19,.12-2.77,.47-4.41,.27-1.23,.68-2.5,1.27-3.69,.9-1.78,2.16-3.35,4.09-4.54,1.93-1.18,4.62-2.04,8.57-2.04H330.04c3.49,0,6.01,.68,7.87,1.65,1.4,.73,2.46,1.64,3.32,2.68,1.28,1.55,2.09,3.42,2.57,5.28,.48,1.86,.62,3.69,.63,5.03v-.03s0,.25,0,.25h0c0,.61-.03,1.11-.05,1.44-.01,.17-.02,.29-.03,.37v.08s0,.01,0,.01l1.33,.16-1.33-.17h0s1.33,.17,1.33,.17l-1.33-.17-.03,.2v.2s3-.02,3-.02l2.98,.38c.01-.1,.14-1.1,.14-2.65v-.28h0c-.01-1.51-.15-3.48-.62-5.65-.36-1.63-.91-3.36-1.78-5.08-1.29-2.57-3.32-5.11-6.32-6.94C338.72,1.08,334.84,0,330.04,0,320.07,0,282.18,0,246.79,0,229.1,0,212.02,0,199.37,0,193.05,0,187.83,0,184.19,0,180.56,0,178.51,0,178.5,0,178.5,0,46.9,0,26.96,0c-4.28,0-7.83,.85-10.68,2.35-2.13,1.12-3.85,2.58-5.17,4.2-1.99,2.43-3.11,5.14-3.74,7.63-.63,2.49-.79,4.78-.81,6.47h0v0s0,.18,0,.18c0,1.58,.13,2.59,.14,2.7l2.97-.39-3-.02s-.01,2.22-.01,6.3c0,20.88,.33,90.57,4.39,161.96,2.03,35.7,4.99,71.81,9.32,102.51,2.17,15.35,4.68,29.35,7.6,41.29,2.93,11.95,6.24,21.82,10.17,29.06,8.4,15.43,20.06,28.5,33.11,39.43,19.58,16.39,42.29,27.99,62.11,35.53,9.91,3.77,19.1,6.53,26.84,8.35,3.87,.91,7.38,1.59,10.44,2.04,3.07,.45,5.69,.68,7.85,.68,2.88,0,6.59-.41,11.06-1.21,7.82-1.41,17.92-4.05,29.18-8.06,16.89-6.01,36.36-15.09,54.41-27.71,18.04-12.62,34.68-28.8,45.7-49.05,3.93-7.24,7.24-17.11,10.17-29.06,5.11-20.89,8.97-48.1,11.91-77.8,8.83-89.07,9.4-200.54,9.4-227.95,0-4.07-.01-6.29-.01-6.29l-3,.02,2.98,.38-2.98-.38Z"/>
      </g>
      <polygon id="move" class="cls-1" points="162.86 100.28 162.86 92.29 120.74 50.17 127.18 43.74 168.97 85.53 177.28 85.53 177.28 22.67 186.38 22.67 186.38 85.53 194.69 85.53 236.92 43.3 243.35 49.73 200.79 92.3 200.79 100.28 263.7 100.28 263.7 109.37 200.79 109.37 200.79 117.35 243.35 159.92 236.92 166.35 194.03 123.46 186.38 123.46 186.38 186.97 177.28 186.97 177.28 123.46 169.63 123.46 127.18 165.91 120.74 159.48 162.86 117.36 162.86 109.37 100.12 109.37 100.12 100.28 162.86 100.28"/>
      <g id="title">
        <path class="cls-1" d="M188.55,341.77c0-2.51,.06-5.58,.18-9.19,.12-3.62,.3-7.85,.54-12.69,.24-4.84,.42-9.06,.54-12.65,.12-3.59,.18-6.64,.18-9.15,0-.66-.01-1.48-.04-2.47-.03-.99-.07-2.17-.13-3.54-.06-1.38-.1-2.57-.13-3.59-.03-1.02-.04-1.85-.04-2.51,0-1.2,2.09-2.72,6.28-4.57,1.85-.78,3.48-1.38,4.89-1.79,1.41-.42,2.59-.69,3.54-.81,6.88,4.9,17.61,7.35,32.19,7.35h.45c.12-1.38,.24-3.59,.36-6.64,.12-3.05,.3-7,.54-11.84,.24-3.83,.4-7.28,.49-10.36,.09-3.08,.13-5.81,.13-8.21,0-2.81,.3-4.81,.9-6.01,.54-1.2,2.63-2.63,6.28-4.3,3.71-1.61,6.52-2.51,8.43-2.69,0,1.31-.07,3.53-.22,6.64-.15,3.11-.37,7.17-.67,12.2-.6,9.03-1.03,16.9-1.3,23.63s-.4,12.42-.4,17.08c0,7.11,.04,13.27,.13,18.47,.09,5.2,.25,9.51,.49,12.91,.12,4,.84,9.8,2.15,17.4,1.73,5.56,2.6,7.8,2.6,6.73,0,1.08-2.09,2.54-6.28,4.39-4.18,1.97-7,2.96-8.43,2.96-1.31,0-2.48-3.83-3.5-11.48-.24,.18-.93,.48-2.06,.9-1.13,.42-8.91,2.27-23.32,5.56-14.65,3.35-22.06,5.02-22.24,5.02-.24,0-.6-.51-1.08-1.52-.96-2.93-1.43-8.01-1.43-15.25Zm14.89-11.03c0,7.05,.66,13.78,1.97,20.18,3.71-.84,8.3-1.9,13.77-3.18,5.47-1.29,11.91-2.77,19.33-4.44-.66-13.15-1.12-23.91-1.39-32.28-.27-8.37-.37-14.47-.31-18.29-3.23,.3-6.23,.54-9.01,.72-2.78,.18-5.43,.27-7.94,.27-5.86,0-10.76-.36-14.71-1.08,0,1.97-.07,4.53-.22,7.67-.15,3.14-.37,6.89-.67,11.25-.54,8.31-.81,14.71-.81,19.19Z"/>
        <path class="cls-1" d="M106.5,243.3c0-1.2,2.06-2.63,6.19-4.3,4.12-1.74,7.08-2.69,8.88-2.87l1.97,14.53c.6,4.12,1.08,9.04,1.43,14.75,.36,5.71,.63,12.27,.81,19.68,6.58-2.63,16.53-6.31,29.86-11.03,.48-5.08,1.03-10.18,1.66-15.29,.63-5.11,1.27-10.3,1.93-15.56,1.32-1.85,3.62-3.5,6.91-4.93,3.23-1.43,6.13-2.15,8.7-2.15-.78,2.75-2,12.2-3.68,28.34-1.2,11.3-2.09,21.39-2.69,30.27s-.9,16.64-.9,23.27c0,5.02,.09,9.4,.27,13.14,.18,3.74,.42,6.86,.72,9.37,.9,6.87,1.34,10.49,1.34,10.85,0,1.08-2.15,2.57-6.46,4.48-3.53,1.44-6.37,2.33-8.52,2.69-1.44-12.2-2.15-23.76-2.15-34.7,0-13.75,.81-28.55,2.42-44.39-.96-.18-1.82-.27-2.6-.27-3.95,0-12.88,2.96-26.81,8.88,0,41.43-.24,62.47-.72,63.13-3.59,4.13-8.64,6.55-15.16,7.26l-.45-.18c.6-2.21,.9-7.32,.9-15.33,0-3.77,.09-9.45,.27-17.04,.06-3.83,.11-7.15,.13-9.95,.03-2.81,.04-5.17,.04-7.08,0-7.89-.13-15.48-.4-22.78-.27-7.29-.64-14.35-1.12-21.16-.12-1.67-.33-3.78-.63-6.32-.3-2.54-.66-5.55-1.08-9.01-.72-3.71-1.08-5.8-1.08-6.28Z"/>
      </g>
    </g>
  </g>
</svg>