<?xml version="1.0" encoding="UTF-8"?>
<svg id="Layer_2" data-name="Layer 2" xmlns="http://www.w3.org/2000/svg" xmlns:xlink="http://www.w3.org/1999/xlink" width="337" height="409" viewBox="0 0 350.43 450.26">
  <defs>
    <style>
      .cls-1 {
        fill: #f20000;
      }

      .cls-2 {
        fill: #2e1b10;
      }

      .cls-3 {
        fill: #3b2314;
      }

      .cls-4 {
        fill: url(#linear-gradient);
      }
    </style>
    <linearGradient id="linear-gradient" x1="-4066.34" y1="248.2" x2="-4065.34" y2="248.2" gradientTransform="translate(1373910.56 -83633.26) scale(337.87)" gradientUnits="userSpaceOnUse">
      <stop offset="0" stop-color="#fbcdab"/>
      <stop offset="1" stop-color="#fde4d9"/>
    </linearGradient>
  </defs>
  <g id="Pheasant">
    <g id="north_Pheasant_ENG" data-name="north Pheasant ENG">
      <g id="piece">
        <path class="cls-2" d="M174.83,.2h156.83c20.63,0,17.88,20.37,17.88,20.37,0,0,1.65,282.83-32.19,343.65-33.84,60.82-121.06,85.46-142.52,85.46s-108.68-24.63-142.52-85.46C-1.53,303.4,.12,20.57,.12,20.57,.12,20.57-2.63,.2,18,.2H174.83Z"/>
        <path class="cls-4" d="M347.43,20.87c0,1.39-.12,2.27-.12,2.27,0,0,1.6,279.54-31.1,339.66-32.7,60.12-116.98,84.46-137.71,84.46s-105.01-24.35-137.71-84.46C8.09,302.68,9.68,23.14,9.68,23.14c0,0-.13-.96-.12-2.46h0c.04-5.39,1.82-17.68,17.4-17.68H330.04c15.53,0,17.35,12.21,17.4,17.61v.26Z"/>
        <path class="cls-3" d="M347.43,20.87h-3c0,.61-.03,1.1-.05,1.44-.01,.17-.02,.29-.03,.37v.08s0,.01,0,.01l1.34,.16-1.34-.17h0s1.34,.17,1.34,.17l-1.34-.17-.03,.2v.2s0,.55,0,1.6c0,1.06,0,2.62,0,4.65,0,20.81-.33,90.42-4.38,161.61-2.02,35.59-4.98,71.58-9.28,102.01-2.15,15.21-4.63,29.04-7.48,40.7-2.85,11.66-6.09,21.16-9.61,27.62-7.96,14.63-19.09,27.15-31.69,37.69-18.89,15.82-41.06,27.17-60.39,34.53-9.67,3.68-18.62,6.36-26.08,8.11-3.73,.88-7.08,1.52-9.95,1.94-2.86,.42-5.25,.62-6.97,.62-2.31,0-5.77-.35-10-1.12-7.42-1.33-17.26-3.9-28.23-7.81-16.46-5.86-35.5-14.74-52.99-26.97-17.5-12.23-33.43-27.81-43.86-47-3.52-6.46-6.77-15.96-9.61-27.62-5-20.41-8.84-47.43-11.77-76.96C13.24,168.13,12.67,56.73,12.67,29.42c0-2.03,0-3.6,0-4.66,0-1.06,0-1.6,0-1.61v-.21s-.03-.2-.03-.2h0c-.01-.1-.09-.82-.09-1.91v-.1s0-.02,0-.02v-.03c0-1.19,.12-2.77,.47-4.41,.27-1.23,.68-2.5,1.27-3.69,.9-1.78,2.16-3.35,4.09-4.54,1.93-1.18,4.62-2.04,8.57-2.04H330.04c3.49,0,6.01,.68,7.87,1.65,1.4,.73,2.46,1.64,3.32,2.68,1.28,1.55,2.09,3.42,2.57,5.28,.48,1.86,.62,3.69,.63,5.03v.23h0s3,0,3,0h3v-.29h0c-.01-1.5-.15-3.47-.62-5.64-.36-1.63-.91-3.36-1.78-5.08-1.29-2.57-3.32-5.11-6.32-6.94C338.72,1.08,334.84,0,330.04,0,320.07,0,282.18,0,246.79,0,229.1,0,212.02,0,199.37,0,193.05,0,187.83,0,184.19,0,180.56,0,178.51,0,178.5,0,178.5,0,46.9,0,26.96,0c-4.28,0-7.83,.85-10.68,2.35-2.13,1.12-3.85,2.58-5.17,4.2-1.99,2.43-3.11,5.14-3.74,7.63-.63,2.49-.79,4.78-.81,6.47v.03h3l-3-.06c0,.1,0,.17,0,.21,0,1.58,.13,2.6,.14,2.7l2.97-.39-3-.02s-.01,2.22-.01,6.3c0,20.88,.33,90.57,4.39,161.96,2.03,35.7,4.99,71.81,9.33,102.51,2.17,15.35,4.68,29.35,7.6,41.29,2.93,11.95,6.24,21.82,10.17,29.06,8.4,15.43,20.06,28.5,33.11,39.43,19.58,16.39,42.29,27.99,62.11,35.53,9.91,3.77,19.1,6.53,26.84,8.35,3.87,.91,7.38,1.59,10.44,2.04,3.07,.45,5.69,.68,7.85,.68,2.88,0,6.59-.41,11.06-1.21,7.82-1.41,17.92-4.05,29.18-8.06,16.89-6.01,36.36-15.09,54.41-27.71,18.04-12.62,34.68-28.8,45.7-49.05,3.93-7.24,7.24-17.11,10.17-29.06,5.11-20.89,8.97-48.1,11.92-77.8,8.83-89.07,9.4-200.54,9.4-227.95,0-4.07-.01-6.29-.01-6.29l-3,.02,2.98,.38c.01-.1,.14-1.1,.14-2.65h0s-3,0-3,0Z"/>
      </g>
      <g id="moves">
        <rect class="cls-1" x="174.87" y="149.14" width="14.25" height="14.25" transform="translate(-57.19 174.46) rotate(-45)"/>
        <polygon class="cls-2" points="120.47 24.07 126.91 17.64 168.7 59.43 194.42 59.43 236.65 17.2 243.08 23.63 200.52 66.19 200.52 97.36 162.59 97.36 162.59 66.18 120.47 24.07"/>
      </g>
      <path id="title" class="cls-2" d="M114.48,356.92c3.89-.48,6.85-.84,8.88-1.08,5.44-.6,10.19-1.09,14.26-1.48,4.07-.39,7.47-.73,10.22-1.03,0,3.47,.33,5.2,.99,5.2,1.14,0,3.59-.87,7.35-2.6,3.17-1.5,5.44-2.75,6.82-3.77,3.23-.12,6.02-.21,8.38-.27,2.36-.06,4.32-.12,5.87-.18v.09c2.87-.48,6.1-1.38,9.69-2.69,4.36-1.67,6.78-3.26,7.26-4.75-.54-.24-1.43-.36-2.69-.36-6.46,0-16.11,.63-28.97,1.88-.9-8.73-1.35-18.47-1.35-29.23,0-16.68,1.17-35,3.5-54.97,1.97-16.86,2.96-25.38,2.96-25.56-2.03,.18-4.81,1.11-8.34,2.78-3.53,1.67-5.65,3.14-6.37,4.39-.72,3.29-1.08,5.86-1.08,7.71-.66,6.1-1.29,12.17-1.88,18.2-.6,6.04-1.2,12.11-1.79,18.2-1.44,14.23-2.15,26.37-2.15,36.41,0,3.77,.1,7.62,.31,11.57,.21,3.95,.52,7.98,.94,12.11-2.51,.24-4.99,.46-7.44,.67-2.45,.21-4.93,.46-7.44,.76-5.08,.6-9.56,2.03-13.45,4.3-2.21,1.08-3.74,2.18-4.57,3.32l.09,.36Zm95.6-45.38c.3-4.36,.52-8.12,.67-11.25,.15-3.14,.22-5.69,.22-7.67,3.95,.72,8.85,1.08,14.71,1.08,2.51,0,5.16-.09,7.94-.27,2.78-.18,5.78-.42,9.01-.72-.06,3.83,.04,9.92,.31,18.29,.27,8.37,.73,19.13,1.39,32.28-7.41,1.67-13.85,3.15-19.33,4.44-5.47,1.29-10.06,2.35-13.77,3.18-1.31-6.4-1.97-13.12-1.97-20.18,0-4.48,.27-10.88,.81-19.19Zm-14.26,45.47c.48,1.02,.84,1.52,1.08,1.52,.18,0,7.59-1.67,22.24-5.02,14.41-3.29,22.18-5.14,23.32-5.56,1.14-.42,1.82-.72,2.06-.9,1.02,7.65,2.18,11.48,3.5,11.48,1.43,0,4.25-.99,8.43-2.96,4.19-1.85,6.28-3.32,6.28-4.39,0,1.08-.87-1.17-2.6-6.73-1.31-7.59-2.03-13.39-2.15-17.4-.24-3.41-.4-7.71-.49-12.91-.09-5.2-.13-11.36-.13-18.47,0-4.66,.13-10.36,.4-17.08s.7-14.6,1.3-23.63c.3-5.02,.52-9.09,.67-12.2,.15-3.11,.22-5.32,.22-6.64-1.91,.18-4.72,1.08-8.43,2.69-3.65,1.67-5.74,3.11-6.28,4.3-.6,1.2-.9,3.2-.9,6.01,0,2.39-.04,5.13-.13,8.21-.09,3.08-.25,6.53-.49,10.36-.24,4.84-.42,8.79-.54,11.84-.12,3.05-.24,5.26-.36,6.64h-.45c-14.59,0-25.32-2.45-32.19-7.35-.96,.12-2.14,.39-3.54,.81-1.4,.42-3.03,1.02-4.89,1.79-4.18,1.85-6.28,3.38-6.28,4.57,0,.66,.02,1.49,.04,2.51,.03,1.02,.08,2.21,.13,3.59,.06,1.37,.1,2.56,.13,3.54,.03,.99,.04,1.81,.04,2.47,0,2.51-.06,5.56-.18,9.15-.12,3.59-.3,7.8-.54,12.64-.24,4.84-.42,9.07-.54,12.69-.12,3.62-.18,6.68-.18,9.19,0,7.23,.48,12.32,1.44,15.25Z"/>
    </g>
  </g>
</svg>