<?xml version="1.0" encoding="UTF-8"?>
<svg id="Layer_2" data-name="Layer 2" xmlns="http://www.w3.org/2000/svg" xmlns:xlink="http://www.w3.org/1999/xlink" width="337" height="409" viewBox="0 0 349.66 449.48">
  <defs>
    <style>
      .cls-1 {
        fill: #2e1b10;
      }

      .cls-2 {
        fill: url(#linear-gradient);
      }
    </style>
    <linearGradient id="linear-gradient" x1="-5829.34" y1="249" x2="-5828.34" y2="249" gradientTransform="translate(1969577.95 -83905.06) scale(337.87)" gradientUnits="userSpaceOnUse">
      <stop offset="0" stop-color="#fbcdab"/>
      <stop offset="1" stop-color="#fde4d9"/>
    </linearGradient>
  </defs>
  <g id="Quail_right_" data-name="Quail (right)">
    <g id="north_Quail_right_ENG" data-name="north Quail (right) ENG">
      <g id="piece">
        <path class="cls-1" d="M174.83,0h156.83c20.63,0,17.88,20.37,17.88,20.37,0,0,1.65,282.83-32.19,343.65-33.84,60.82-121.06,85.46-142.52,85.46s-108.68-24.63-142.52-85.46C-1.53,303.2,.12,20.37,.12,20.37,.12,20.37-2.63,0,18,0H174.83Z"/>
        <path class="cls-2" d="M347.43,20.67c0,1.39-.12,2.27-.12,2.27,0,0,1.6,279.54-31.1,339.66-32.7,60.12-116.98,84.46-137.71,84.46s-105.01-24.35-137.71-84.46C8.09,302.48,9.68,22.94,9.68,22.94c0,0-.13-.96-.12-2.46h0c.04-5.39,1.82-17.68,17.4-17.68H330.04c15.53,0,17.35,12.21,17.4,17.61v.26Z"/>
      </g>
      <polygon id="moves" class="cls-1" points="114.88 34.81 121.32 28.38 163.11 70.17 188.83 70.17 221.73 37.26 213.62 29.15 243.08 21.26 235.19 50.72 228.17 43.7 194.93 76.94 194.93 108.1 180.52 108.1 180.52 158.4 191.66 158.4 176.41 184.82 161.16 158.4 171.42 158.4 171.42 108.1 157 108.1 157 76.93 114.88 34.81"/>
      <path id="title" class="cls-1" d="M138.38,272.61c2.57,0,5.29-.08,8.16-.22,2.87-.15,5.92-.37,9.15-.67-.78,10.34-1.36,19.64-1.75,27.89-.39,8.25-.58,15.54-.58,21.88,0,1.2,.13,4.29,.4,9.28,.27,4.99,.64,11.88,1.12,20.67,.12,3.59,.33,6.56,.63,8.92,.3,2.36,.66,4.14,1.08,5.34-13.15,2.57-22.84,4.72-29.06,6.46,1.02-2.51,1.52-18.68,1.52-48.52,0-9.45-.22-18.44-.67-26.99-.45-8.55-1.09-16.74-1.93-24.57,3.23,.36,7.21,.54,11.93,.54Zm-28.52-6.28c.66,4.66,1.26,9.58,1.79,14.75,.54,5.17,.96,10.72,1.26,16.63,.36,5.5,.72,16.02,1.08,31.57,.24,6.1,.4,11.06,.49,14.89,.09,3.83,.13,6.58,.13,8.25,0,8.85-.36,17.9-1.08,27.17,9.98-2.33,18.7-4.3,26.14-5.92,7.44-1.61,13.74-2.9,18.88-3.86,.9,.24,3.62-.66,8.16-2.69,4.48-2.09,6.73-3.53,6.73-4.3v-.18c-1.02-4.01-1.84-7.44-2.47-10.31-.63-2.87-1-5.2-1.12-6.99-1.08-13.45-1.61-24.12-1.61-32.01,0-4.48,.13-9.58,.4-15.29,.27-5.71,.64-12.09,1.12-19.15,.3-4.36,.52-7.89,.67-10.58,.15-2.69,.22-4.6,.22-5.74-1.85,.24-4.21,.96-7.08,2.15-2.03,.12-4.29,.22-6.77,.31-2.48,.09-5.22,.13-8.21,.13,.66-2.09,1.21-3.92,1.66-5.47,.45-1.55,.82-2.84,1.12-3.86,1.91-4.42,3.65-8.26,5.2-11.52,1.56-3.26,2.93-5.96,4.12-8.12v-.18l-.27-.09c-2.21,.18-4.84,1.02-7.89,2.51-3.17,1.55-5.35,2.96-6.55,4.21-3.95,4.54-7.35,11.57-10.22,21.07-3.95-.9-7.56-2.42-10.85-4.57-.06-1.32-.33-1.97-.81-1.97-2.09,0-5.08,.9-8.97,2.69-3.83,1.85-6.25,3.56-7.26,5.11l1.97,1.35Zm92.41,76.81c.15-3.14,.37-6.8,.67-10.99,.3-4.3,.52-8.01,.67-11.12,.15-3.11,.22-5.68,.22-7.71,4.54,.84,9.42,1.26,14.62,1.26,3.89,0,9.54-.36,16.95-1.08-.06,3.83,.04,9.94,.31,18.34,.27,8.4,.73,19.18,1.39,32.33-7.41,1.67-13.85,3.15-19.33,4.44-5.47,1.29-10.06,2.35-13.77,3.18-1.31-6.52-1.97-13.39-1.97-20.63,0-2.21,.08-4.89,.22-8.03Zm-13.68,34.93c.48,1.02,.84,1.52,1.08,1.52,.18,0,.9-.18,2.15-.54,5.08-1.85,12.76-3.71,23.05-5.56,10.34-1.91,17.85-3.71,22.51-5.38,1.02,7.65,2.15,11.48,3.41,11.48,1.43,0,4.25-.99,8.43-2.96,4.19-1.85,6.28-3.32,6.28-4.39,0,.24-.25-.13-.76-1.12-.51-.99-.97-2.53-1.39-4.62-.42-3.11-.75-5.8-.99-8.07-.24-2.27-.39-4.19-.45-5.74-1.08-19.67-1.61-32.16-1.61-37.48s.13-10.88,.4-17.4c.27-6.52,.64-13.84,1.12-21.97,.3-5.08,.52-9.16,.67-12.24,.15-3.08,.22-5.22,.22-6.41-3.65,.96-6.37,1.82-8.16,2.6-3.65,1.49-5.89,3.02-6.73,4.57-.6,7.89-.96,15.3-1.08,22.24-3.59-6.64-8.04-13.36-13.36-20.18-5.32-6.82-11.57-13.81-18.74-20.98l-.81-.36c-1.55,.3-4.3,1.41-8.25,3.32-4.06,1.97-6.1,3.38-6.1,4.21,0,.12,.3,.36,.9,.72,4.54,3.11,12.26,12.41,23.14,27.89,7.06,9.86,11.54,18.44,13.45,25.74-9.92-.54-17.88-2.96-23.85-7.26-.3-.06-.57-.09-.81-.09-1.37,0-4.06,.96-8.07,2.87-4,1.97-6.01,3.47-6.01,4.48,0,.66,.02,1.49,.04,2.51,.03,1.02,.08,2.21,.13,3.59,.06,1.37,.1,2.57,.13,3.59,.03,1.02,.04,1.85,.04,2.51,0,2.39-.06,5.35-.18,8.88-.12,3.53-.3,7.65-.54,12.38-.24,4.78-.42,8.94-.54,12.46-.12,3.53-.18,6.49-.18,8.88,0,7.83,.48,13.27,1.44,16.32Z"/>
    </g>
  </g>
</svg>