<?xml version="1.0" encoding="UTF-8"?>
<svg id="Layer_2" data-name="Layer 2" xmlns="http://www.w3.org/2000/svg" xmlns:xlink="http://www.w3.org/1999/xlink" width="337" height="409" viewBox="0 0 350.43 450.68">
  <defs>
    <style>
      .cls-1 {
        fill: #2e1b10;
      }

      .cls-2 {
        fill: #3b2314;
      }

      .cls-3 {
        fill: url(#linear-gradient);
      }
    </style>
    <linearGradient id="linear-gradient" x1="-3187.34" y1="-233.8" x2="-3186.34" y2="-233.8" gradientTransform="translate(1076921.55 -78770.53) scale(337.87 -337.87)" gradientUnits="userSpaceOnUse">
      <stop offset="0" stop-color="#fbcdab"/>
      <stop offset="1" stop-color="#fde4d9"/>
    </linearGradient>
  </defs>
  <g id="Crane">
    <g id="south_Crane_ENG" data-name="south Crane ENG">
      <g id="piece">
        <path class="cls-1" d="M174.83,450.68h156.83c20.63,0,17.88-20.37,17.88-20.37,0,0,1.65-282.83-32.19-343.65C283.51,25.83,196.29,1.2,174.83,1.2S66.15,25.83,32.31,86.65C-1.53,147.48,.12,430.3,.12,430.3c0,0-2.75,20.37,17.88,20.37H174.83Z"/>
        <path class="cls-3" d="M347.43,429.39c0-1.39-.12-2.27-.12-2.27,0,0,1.6-279.54-31.1-339.66C283.51,27.35,199.24,3,178.5,3S73.49,27.35,40.79,87.46C8.09,147.58,9.68,427.12,9.68,427.12c0,0-.13,.96-.12,2.46h0c.04,5.39,1.82,17.68,17.4,17.68H330.04c15.53,0,17.35-12.21,17.4-17.61v-.26Z"/>
        <path class="cls-2" d="M347.43,429.39h3c0-1.55-.13-2.56-.14-2.65l-2.98,.38,3,.02s.01-2.22,.01-6.29c0-20.88-.33-90.57-4.39-161.96-2.03-35.7-4.99-71.81-9.32-102.51-2.17-15.35-4.68-29.35-7.6-41.29-2.93-11.95-6.24-21.82-10.17-29.06-8.4-15.43-20.06-28.5-33.11-39.43-19.58-16.39-42.29-27.99-62.11-35.53-9.91-3.77-19.1-6.53-26.84-8.35-3.87-.91-7.38-1.59-10.44-2.04-3.07-.45-5.69-.68-7.85-.68-2.88,0-6.59,.41-11.06,1.21-7.82,1.41-17.92,4.05-29.18,8.06-16.89,6.01-36.36,15.09-54.41,27.71-18.04,12.62-34.68,28.8-45.7,49.05-3.93,7.24-7.24,17.11-10.17,29.06-5.11,20.89-8.97,48.1-11.92,77.8-8.83,89.07-9.4,200.54-9.4,227.95,0,4.08,.01,6.29,.01,6.3l3-.02-2.97-.39c-.01,.1-.14,1.12-.14,2.7,0,.04,0,.11,0,.21l3-.06h-3v.03c.01,1.5,.14,3.48,.61,5.65,.36,1.63,.9,3.37,1.76,5.09,1.28,2.58,3.31,5.13,6.31,6.97,3,1.85,6.89,2.94,11.71,2.93H330.04c4.27,0,7.81-.85,10.65-2.33,2.13-1.11,3.85-2.57,5.17-4.18,1.99-2.42,3.11-5.12,3.75-7.61,.64-2.49,.81-4.78,.82-6.47v-.28h0s-3,0-3,0h-3v.23c0,1.19-.12,2.77-.48,4.41-.27,1.23-.68,2.5-1.28,3.67-.9,1.77-2.16,3.33-4.09,4.52-1.93,1.18-4.62,2.03-8.55,2.03-9.97,0-47.85,0-83.25,0-17.7,0-34.77,0-47.42,0-6.32,0-11.54,0-15.18,0-3.64,0-5.69,0-5.69,0,0,0-131.6,0-151.54,0-3.5,0-6.02-.68-7.89-1.66-1.4-.74-2.47-1.65-3.32-2.69-1.28-1.55-2.09-3.43-2.56-5.3-.48-1.86-.61-3.7-.62-5.03h0s0-.03,0-.03v-.02s0-.1,0-.1c0-.62,.03-1.13,.05-1.46,.01-.17,.02-.29,.03-.37v-.08s0,0,0,0l.03-.2v-.21s0-.55,0-1.61,0-2.63,0-4.66c0-20.82,.33-90.43,4.38-161.62,2.02-35.59,4.98-71.58,9.28-102.01,2.15-15.21,4.63-29.04,7.48-40.7,2.85-11.66,6.09-21.16,9.61-27.62,7.95-14.63,19.09-27.15,31.69-37.69,18.89-15.82,41.06-27.17,60.39-34.53,9.67-3.68,18.62-6.36,26.08-8.11,3.73-.88,7.08-1.52,9.95-1.94,2.86-.42,5.25-.62,6.98-.62,2.31,0,5.77,.35,10,1.12,7.42,1.33,17.26,3.9,28.23,7.81,16.46,5.86,35.5,14.74,52.99,26.97,17.5,12.23,33.43,27.81,43.87,47,3.52,6.46,6.77,15.96,9.61,27.62,5,20.41,8.84,47.43,11.77,76.97,8.79,88.64,9.37,200.05,9.37,227.36,0,2.03,0,3.6,0,4.66,0,1.06,0,1.6,0,1.61v.2s.02,.2,.02,.2l1.33-.17-1.33,.16h0s1.33-.16,1.33-.16l-1.33,.16s.09,.75,.09,1.9h0s3,0,3,0Z"/>
      </g>
      <polygon id="moves" class="cls-1" points="200.96 358.36 243.08 400.47 236.64 406.9 194.85 365.11 186.54 365.11 186.54 427.97 177.44 427.97 177.44 365.11 169.13 365.11 126.9 407.34 120.47 400.91 163.03 358.35 163.03 333.29 120.47 290.72 126.9 284.29 169.79 327.18 177.44 327.18 177.44 263.67 186.54 263.67 186.54 327.18 194.19 327.18 236.64 284.73 243.08 291.16 200.96 333.28 200.96 358.36"/>
      <path id="title" class="cls-1" d="M241.82,129.58c-.15,3.14-.37,6.8-.67,10.99-.3,4.3-.52,8.01-.67,11.12-.15,3.11-.22,5.68-.22,7.71-4.54-.84-9.42-1.26-14.62-1.26-3.89,0-9.54,.36-16.95,1.08,.06-3.83-.04-9.94-.31-18.34-.27-8.4-.73-19.18-1.39-32.33,7.41-1.67,13.85-3.15,19.33-4.44,5.47-1.29,10.06-2.35,13.77-3.18,1.31,6.52,1.97,13.39,1.97,20.63,0,2.21-.08,4.89-.22,8.03Zm13.68-34.93c-.48-1.02-.84-1.52-1.08-1.52-.18,0-.9,.18-2.15,.54-5.08,1.85-12.76,3.71-23.05,5.56-10.34,1.91-17.85,3.71-22.51,5.38-1.02-7.65-2.15-11.48-3.41-11.48-1.43,0-4.25,.99-8.43,2.96-4.19,1.85-6.28,3.32-6.28,4.39,0-.24,.25,.13,.76,1.12,.51,.99,.97,2.53,1.39,4.62,.42,3.11,.75,5.8,.99,8.07,.24,2.27,.39,4.19,.45,5.74,1.08,19.67,1.61,32.16,1.61,37.48s-.13,10.88-.4,17.4c-.27,6.52-.64,13.84-1.12,21.97-.3,5.08-.52,9.16-.67,12.24-.15,3.08-.22,5.22-.22,6.41,3.65-.96,6.37-1.82,8.16-2.6,3.65-1.49,5.89-3.02,6.73-4.57,.6-7.89,.96-15.3,1.08-22.24,3.59,6.64,8.04,13.36,13.36,20.18,5.32,6.82,11.57,13.81,18.74,20.98l.81,.36c1.55-.3,4.3-1.41,8.25-3.32,4.06-1.97,6.1-3.38,6.1-4.21,0-.12-.3-.36-.9-.72-4.54-3.11-12.26-12.41-23.14-27.89-7.06-9.86-11.54-18.44-13.45-25.74,9.92,.54,17.88,2.96,23.85,7.26,.3,.06,.57,.09,.81,.09,1.37,0,4.06-.96,8.07-2.87,4-1.97,6.01-3.47,6.01-4.48,0-.66-.02-1.49-.04-2.51-.03-1.02-.08-2.21-.13-3.59-.06-1.37-.1-2.57-.13-3.59-.03-1.02-.04-1.85-.04-2.51,0-2.39,.06-5.35,.18-8.88,.12-3.53,.3-7.65,.54-12.38,.24-4.78,.42-8.94,.54-12.46,.12-3.53,.18-6.49,.18-8.88,0-7.83-.48-13.27-1.44-16.32Zm-81.88,94.88c-.54-2.51-.96-4.5-1.26-5.96-.3-1.46-.48-2.5-.54-3.09-.3-2.27-.55-4.05-.76-5.34-.21-1.28-.37-2.05-.49-2.29-1.91,.48-4.72,1.5-8.43,3.05-4.25,1.91-6.37,3.38-6.37,4.39,0,2.69,.51,6.22,1.52,10.58,1.43,5.26,2.24,8.73,2.42,10.4-1.73-.18-3.35-.27-4.84-.27-5.8,0-14.38,1.08-25.74,3.23,.66-9.86,1.15-19.33,1.48-28.38,.33-9.06,.49-17.86,.49-26.41,0-4.9-.17-10.93-.49-18.07-.33-7.14-.82-15.47-1.48-24.98,6.34-1.43,11.9-2.66,16.68-3.68,4.78-1.02,8.82-1.82,12.11-2.42-6.58,5.5-9.9,13.66-9.95,24.48,1.73-.48,3.29-.96,4.66-1.43,1.38-.48,2.57-.93,3.59-1.35,3.71-1.55,6.04-3.02,6.99-4.39,1.37-2.03,2.06-4.33,2.06-6.9,.18-4.6,.42-7.47,.72-8.61,.72-2.51,2.66-4.99,5.83-7.44,1.02-.72,1.52-1.13,1.52-1.26l-.63-.27c-18.59,2.51-33.27,5.77-44.03,9.77-.54-5.8-1.56-9.06-3.05-9.77-1.61,.18-4.39,1.14-8.34,2.87-4.19,1.85-6.28,3.29-6.28,4.3,.72,2.09,1.44,4.07,2.15,5.92,.72,4.07,1.28,7.61,1.7,10.63,.42,3.02,.69,5.58,.81,7.67,.36,6.4,.54,15.72,.54,27.98,0,5.2-.13,11.34-.4,18.43s-.64,15.26-1.12,24.53c-.66,11.6-1.02,17.7-1.08,18.29-.3,1.32-.45,1.7-.45,1.17,0,.24,.15,.45,.45,.63,3.77-.24,8.22-2.06,13.36-5.47,5.38-1.08,9.62-1.61,12.73-1.61,8.31,0,14.38,2.36,18.2,7.08,1.85-.06,4.6-.93,8.25-2.6,3.65-1.61,5.89-3.11,6.73-4.48,1.2-1.91,1.79-5.17,1.79-9.78,0-2.33-.36-5.38-1.08-9.15Z"/>
    </g>
  </g>
</svg>