<?xml version="1.0" encoding="UTF-8"?>
<svg id="Layer_2" data-name="Layer 2" xmlns="http://www.w3.org/2000/svg" xmlns:xlink="http://www.w3.org/1999/xlink" width="337" height="409" viewBox="0 0 350.43 450.68">
  <defs>
    <style>
      .cls-1 {
        fill: #2e1b10;
      }

      .cls-2 {
        fill: #3b2314;
      }

      .cls-3 {
        fill: url(#linear-gradient);
      }
    </style>
    <linearGradient id="linear-gradient" x1="-1431.34" y1="-237.8" x2="-1430.34" y2="-237.8" gradientTransform="translate(483619.44 80572.31) scale(337.87)" gradientUnits="userSpaceOnUse">
      <stop offset="0" stop-color="#fbcdab"/>
      <stop offset="1" stop-color="#fde4d9"/>
    </linearGradient>
  </defs>
  <g id="Falcon">
    <g id="south_Falcon_ENG" data-name="south Falcon ENG">
      <g id="piece">
        <path class="cls-1" d="M174.83,450.68h156.83c20.63,0,17.88-20.37,17.88-20.37,0,0,1.65-282.83-32.19-343.65C283.51,25.83,196.29,1.2,174.83,1.2S66.15,25.83,32.31,86.65C-1.53,147.48,.12,430.3,.12,430.3c0,0-2.75,20.37,17.88,20.37H174.83Z"/>
        <path class="cls-3" d="M347.43,429.39c0-1.39-.12-2.27-.12-2.27,0,0,1.6-279.54-31.1-339.66C283.51,27.35,199.24,3,178.5,3S73.49,27.35,40.79,87.46C8.09,147.58,9.68,427.12,9.68,427.12c0,0-.13,.96-.12,2.46h0c.04,5.39,1.82,17.68,17.4,17.68H330.04c15.53,0,17.35-12.21,17.4-17.61v-.26Z"/>
        <path class="cls-2" d="M347.43,429.39h3c0-1.55-.13-2.56-.14-2.65l-2.98,.38,3,.02s.01-2.22,.01-6.3c0-20.88-.33-90.57-4.39-161.96-2.03-35.7-4.99-71.81-9.32-102.51-2.17-15.35-4.68-29.35-7.6-41.29-2.93-11.95-6.24-21.82-10.17-29.06-8.4-15.43-20.06-28.5-33.11-39.43-19.58-16.39-42.29-27.99-62.11-35.53-9.91-3.77-19.1-6.53-26.84-8.35-3.87-.91-7.38-1.59-10.44-2.04-3.07-.45-5.69-.68-7.85-.68-2.88,0-6.59,.41-11.06,1.21-7.82,1.41-17.92,4.05-29.18,8.06-16.89,6.01-36.36,15.09-54.41,27.71-18.04,12.62-34.68,28.8-45.7,49.05-3.93,7.24-7.24,17.11-10.17,29.06-5.11,20.89-8.97,48.1-11.92,77.8-8.83,89.07-9.4,200.54-9.4,227.95,0,4.08,.01,6.29,.01,6.3l3-.02-2.97-.39c-.01,.1-.14,1.12-.14,2.7v.19s3-.03,3-.03h-3v.03c.01,1.5,.14,3.48,.61,5.65,.36,1.63,.9,3.37,1.76,5.09,1.28,2.58,3.31,5.13,6.31,6.97,3,1.85,6.89,2.94,11.71,2.93H330.04c4.27,0,7.81-.85,10.65-2.33,2.13-1.11,3.85-2.57,5.17-4.18,1.99-2.42,3.11-5.12,3.75-7.61,.64-2.49,.81-4.78,.82-6.47v-.28h0s-3,0-3,0h-3v.23c0,1.19-.12,2.77-.48,4.41-.27,1.23-.68,2.5-1.28,3.67-.9,1.77-2.16,3.33-4.09,4.52-1.93,1.18-4.62,2.03-8.55,2.03-9.97,0-47.85,0-83.25,0-17.7,0-34.77,0-47.42,0-6.32,0-11.54,0-15.18,0-3.64,0-5.69,0-5.69,0,0,0-131.6,0-151.54,0-3.5,0-6.02-.68-7.89-1.66-1.4-.74-2.47-1.65-3.32-2.69-1.28-1.55-2.09-3.43-2.56-5.3-.48-1.86-.61-3.7-.62-5.03h0s0-.02,0-.02h0s0-.13,0-.13c0-.62,.03-1.12,.05-1.46,.01-.17,.02-.29,.03-.37v-.08s0,0,0,0l.03-.2v-.21s0-.55,0-1.61c0-1.06,0-2.62,0-4.66,0-20.81,.33-90.43,4.38-161.61,2.02-35.59,4.98-71.58,9.28-102.01,2.15-15.21,4.63-29.04,7.48-40.7,2.85-11.66,6.09-21.16,9.61-27.62,7.95-14.63,19.09-27.15,31.69-37.69,18.89-15.82,41.06-27.17,60.39-34.53,9.66-3.68,18.62-6.36,26.08-8.11,3.73-.88,7.08-1.52,9.95-1.94,2.86-.42,5.25-.62,6.98-.62,2.31,0,5.77,.35,10,1.12,7.42,1.33,17.26,3.9,28.23,7.81,16.46,5.86,35.5,14.74,52.99,26.97,17.5,12.23,33.43,27.81,43.87,47,3.52,6.46,6.77,15.96,9.61,27.62,5,20.41,8.84,47.43,11.77,76.97,8.79,88.64,9.37,200.05,9.37,227.36,0,2.03,0,3.6,0,4.66,0,1.06,0,1.6,0,1.61v.2s.02,.2,.02,.2l1.33-.17-1.33,.16h0s1.33-.16,1.33-.16l-1.33,.16s.09,.75,.09,1.9h0s3,0,3,0Z"/>
      </g>
      <polygon id="moves" class="cls-1" points="263.7 350.36 263.7 341.26 200.95 341.26 200.95 333.28 243.07 291.16 236.64 284.73 194.19 327.18 186.54 327.18 186.54 263.66 177.44 263.66 177.44 327.18 169.79 327.18 126.9 284.29 120.46 290.72 163.02 333.28 163.02 341.26 100.12 341.26 100.12 350.36 163.02 350.36 163.02 358.34 120.46 400.91 126.9 407.34 169.13 365.11 194.85 365.11 236.64 406.9 243.07 400.46 200.95 358.34 200.95 350.36 263.7 350.36"/>
      <path id="title" class="cls-1" d="M233.79,107.3c0,2.45-.02,5.49-.04,9.1-.03,3.62-.08,7.85-.13,12.69-.06,4.84-.1,9.07-.13,12.69-.03,3.62-.04,6.62-.04,9.01,0,1.73,.01,3.72,.04,5.96,.03,2.24,.07,4.8,.13,7.67-13.99,5.92-22.87,8.88-26.63,8.88-.36,0-.76-.04-1.21-.13-.45-.09-.97-.19-1.57-.31,1.61-15.84,2.42-30.91,2.42-45.2,0-3.41-.04-6.46-.13-9.15-.09-2.69-.19-5.08-.31-7.17,6.34-2.21,11.85-4.18,16.55-5.92,4.69-1.73,8.56-3.23,11.61-4.48-.36,1.61-.54,3.74-.54,6.37Zm18.74,98.82c-.12-1.02-.3-2.3-.54-3.86-2.39-14.11-3.59-33.66-3.59-58.65,0-4.9,.03-10.04,.09-15.42,.06-5.38,.15-11.06,.27-17.04,.12-5.98,.22-10.24,.31-12.78,.09-2.54,.13-3.39,.13-2.56,0-.78-.27-1.67-.81-2.69-1.56,.12-3.63,.63-6.23,1.52s-5.73,2.12-9.37,3.68c-4.12,1.85-7.52,3.3-10.18,4.35-2.66,1.05-4.68,1.72-6.05,2.02-4.72,.96-8.28,1.58-10.67,1.88,0-.66-.13-2.09-.4-4.3-.27-2.21-.64-5.26-1.12-9.15-2.09,.3-4.96,1.2-8.61,2.69-4.25,1.91-6.37,3.41-6.37,4.48,0,.42,.13,2.02,.4,4.8,.27,2.78,.64,6.8,1.12,12.06,.36,5.2,.54,11.12,.54,17.76,0,7.06-.27,15.02-.81,23.9-.54,8.88-1.32,18.76-2.33,29.64-1.73,15.6-2.93,24.63-3.59,27.08,2.03-.12,4.78-.93,8.25-2.42,3.53-1.49,5.89-2.93,7.08-4.3,.66-5.14,1.27-10.21,1.84-15.2,.57-4.99,1.09-9.94,1.57-14.84,13.45-4.9,23.5-8.76,30.13-11.57,.24,7.47,.54,13.99,.9,19.55,.36,5.56,.81,10.25,1.35,14.08,1.26,8.73,1.88,12.97,1.88,12.73,0,.18-.08,.42-.22,.72-.15,.3-.22,.57-.22,.81,0,.3,.21,.45,.63,.45,1.49,0,4.3-.93,8.43-2.78,4.24-1.91,6.37-3.38,6.37-4.39,0-.48-.06-1.22-.18-2.24Zm-82.86-112.99c-13.75,1.43-27.53,4.69-41.34,9.77-.24-4.3-1.2-7.56-2.87-9.77-1.85,.18-4.66,1.08-8.43,2.69-4.3,1.91-6.46,3.41-6.46,4.48,0-.54,.69,1.41,2.06,5.83,.48,3.05,.85,5.74,1.12,8.07,.27,2.33,.4,4.28,.4,5.83,.9,20.39,1.35,32.64,1.35,36.77,0,2.09-.03,4.75-.09,7.98-.06,3.23-.15,7.03-.27,11.39-.18,8.73-.27,15.22-.27,19.46,0,6.94-.72,13.57-2.15,19.91,2.39,0,5.26-.72,8.61-2.15,3.35-1.55,5.56-3.08,6.64-4.57,1.02-1.49,1.85-18.65,2.51-51.47,5.02-.48,9.55-.85,13.59-1.12,4.04-.27,7.67-.4,10.9-.4,1.67,0,4.3-.9,7.89-2.69,3.71-1.91,5.89-3.41,6.55-4.48l-.18-.27c-15.24,0-28.1,1.11-38.56,3.32,0-5.32-.17-11.73-.49-19.24-.33-7.5-.82-16.19-1.48-26.05,6.46-1.49,12.08-2.75,16.86-3.77,4.78-1.02,8.79-1.85,12.02-2.51-6.34,5.44-9.66,13.66-9.95,24.66,2.39-.42,5.2-1.31,8.43-2.69,3.29-1.31,5.53-2.87,6.73-4.66,1.26-1.67,1.88-4.3,1.88-7.89s.36-6.16,1.08-8.07c.84-1.91,2.66-4.15,5.47-6.73,.84-.72,1.35-1.22,1.52-1.52-1.32,.12-2.33,.09-3.05-.09Z"/>
    </g>
  </g>
</svg>