<?xml version="1.0" encoding="UTF-8"?>
<svg id="Layer_2" data-name="Layer 2" xmlns="http://www.w3.org/2000/svg" xmlns:xlink="http://www.w3.org/1999/xlink" width="350" height="450" viewBox="0 0 350.43 450.68">
  <defs>
    <style>
      .cls-1 {
        fill: #2e1b10;
      }

      .cls-2 {
        fill: #3b2314;
      }

      .cls-3 {
        fill: url(#linear-gradient);
      }
    </style>
    <linearGradient id="linear-gradient" x1="-520.34" y1="-243.8" x2="-519.34" y2="-243.8" gradientTransform="translate(175818.43 -82149.28) scale(337.87 -337.87)" gradientUnits="userSpaceOnUse">
      <stop offset="0" stop-color="#fbcdab"/>
      <stop offset="1" stop-color="#fde4d9"/>
    </linearGradient>
  </defs>
  <g id="Phoenix">
    <g id="south_Phoenix_ENG" data-name="south Phoenix ENG">
      <g id="piece">
        <path class="cls-1" d="M174.83,450.68h156.83c20.63,0,17.88-20.37,17.88-20.37,0,0,1.65-282.83-32.19-343.65C283.51,25.83,196.29,1.2,174.83,1.2S66.15,25.83,32.31,86.65C-1.53,147.48,.12,430.3,.12,430.3c0,0-2.75,20.37,17.88,20.37H174.83Z"/>
        <path class="cls-3" d="M347.32,427.12s1.6-279.54-31.1-339.66C283.51,27.35,199.24,3,178.5,3S73.49,27.35,40.79,87.46C8.09,147.58,9.68,427.12,9.68,427.12c0,0-.13,.96-.12,2.46h0c.04,5.39,1.82,17.68,17.4,17.68H330.04c15.53,0,17.35-12.21,17.4-17.61v-.25c0-1.39-.12-2.27-.12-2.27Z"/>
        <path class="cls-2" d="M347.32,427.12l3,.02s.01-2.22,.01-6.3c0-20.88-.33-90.57-4.39-161.96-2.03-35.7-4.99-71.81-9.32-102.51-2.17-15.35-4.68-29.35-7.6-41.29-2.93-11.95-6.24-21.82-10.17-29.06-8.4-15.43-20.06-28.5-33.11-39.43-19.58-16.39-42.29-27.99-62.11-35.53-9.91-3.77-19.1-6.53-26.84-8.35-3.87-.91-7.38-1.59-10.44-2.04-3.07-.45-5.69-.68-7.85-.68-2.88,0-6.59,.41-11.06,1.21-7.82,1.41-17.92,4.05-29.18,8.06-16.89,6.01-36.36,15.09-54.41,27.71-18.04,12.62-34.68,28.8-45.7,49.05-3.93,7.24-7.24,17.11-10.17,29.06-5.11,20.89-8.97,48.1-11.92,77.8-8.83,89.07-9.4,200.54-9.4,227.95,0,4.08,.01,6.29,.01,6.3l3-.02-2.97-.39c-.01,.1-.14,1.12-.14,2.7v.18s0-.03,0-.03h0v.02h0c.01,1.52,.14,3.49,.61,5.66,.36,1.63,.9,3.37,1.76,5.09,1.28,2.58,3.31,5.13,6.31,6.97,3,1.85,6.89,2.94,11.71,2.93H330.04c4.27,0,7.81-.85,10.65-2.33,2.13-1.11,3.85-2.57,5.17-4.18,1.99-2.42,3.11-5.12,3.75-7.61,.64-2.49,.81-4.78,.82-6.47h0v-.28h0c0-1.55-.13-2.56-.14-2.66l-2.98,.38,3,.02-3-.02-2.98,.38,1.33-.17-1.33,.16h0s1.33-.16,1.33-.16l-1.33,.16s.09,.75,.09,1.9v.22c0,1.19-.12,2.77-.48,4.41-.27,1.23-.68,2.5-1.28,3.67-.9,1.77-2.16,3.33-4.09,4.52-1.93,1.18-4.62,2.03-8.55,2.03-9.97,0-47.85,0-83.25,0-17.7,0-34.77,0-47.42,0-6.32,0-11.54,0-15.18,0-3.64,0-5.69,0-5.69,0,0,0-131.6,0-151.54,0-3.5,0-6.02-.68-7.89-1.66-1.4-.74-2.47-1.65-3.32-2.69-1.28-1.55-2.09-3.43-2.56-5.3-.48-1.86-.61-3.7-.62-5.03v.02s0-.01,0-.01h0s0-.03,0-.03v-.13c0-.62,.03-1.12,.05-1.46,.01-.17,.02-.29,.03-.37v-.08s0,0,0,0l.03-.2v-.21s0-.55,0-1.61,0-2.62,0-4.66c0-20.81,.33-90.43,4.38-161.61,2.02-35.59,4.98-71.58,9.28-102.01,2.15-15.21,4.63-29.04,7.48-40.7,2.85-11.66,6.09-21.16,9.61-27.62,7.95-14.63,19.09-27.15,31.69-37.69,18.89-15.82,41.06-27.17,60.39-34.53,9.66-3.68,18.62-6.36,26.08-8.11,3.73-.88,7.08-1.52,9.95-1.94,2.86-.42,5.25-.62,6.98-.62,2.31,0,5.77,.35,10,1.12,7.42,1.33,17.26,3.9,28.23,7.81,16.46,5.86,35.5,14.74,52.99,26.97,17.5,12.23,33.43,27.81,43.87,47,3.52,6.46,6.77,15.96,9.61,27.62,5,20.41,8.84,47.43,11.77,76.97,8.79,88.64,9.37,200.05,9.37,227.36,0,2.03,0,3.6,0,4.66s0,1.6,0,1.61v.2s.02,.2,.02,.2l2.98-.38Z"/>
      </g>
      <polygon id="move" class="cls-1" points="200.96 350.36 200.96 358.35 243.08 400.47 236.64 406.9 194.85 365.11 186.54 365.11 186.54 427.97 177.44 427.97 177.44 365.11 169.13 365.11 126.9 407.34 120.47 400.91 163.03 358.34 163.03 350.36 100.12 350.36 100.12 341.27 163.03 341.27 163.03 333.29 120.47 290.72 126.9 284.29 169.79 327.18 177.44 327.18 177.44 263.67 186.54 263.67 186.54 327.18 194.19 327.18 236.64 284.73 243.08 291.16 200.96 333.28 200.96 341.27 263.7 341.27 263.7 350.36 200.96 350.36"/>
      <g>
        <path class="cls-1" d="M173.4,94.66c-.48-1.02-.84-1.53-1.08-1.53-.18,0-7.59,1.68-22.24,5.03-14.4,3.28-22.18,5.14-23.31,5.56-1.14,.41-1.83,.71-2.06,.89-1.02-7.65-2.19-11.48-3.5-11.48-1.44,0-4.25,.99-8.43,2.96-3.88,1.72-5.93,3.1-6.22,4.15,.22-.09,1.06,2.23,2.54,6.97,1.32,7.6,2.03,13.4,2.15,17.4,.24,3.41,.41,7.71,.5,12.91,.09,5.21,.13,11.36,.13,18.48,0,4.66-.13,10.36-.4,17.08-.27,6.73-.71,14.6-1.3,23.63-.3,5.02-.53,9.09-.67,12.2-.15,3.11-.23,5.32-.23,6.63,1.91-.18,4.72-1.07,8.43-2.69,3.65-1.67,5.74-3.11,6.28-4.3,.59-1.2,.89-3.2,.89-6.01,0-2.39,.05-5.13,.14-8.21,.09-3.07,.25-6.53,.49-10.35,.24-4.85,.42-8.79,.54-11.84s.24-5.26,.36-6.64h.45c14.58,0,25.32,2.46,32.19,7.36,.96-.12,2.14-.39,3.54-.81,1.41-.42,3.04-1.02,4.89-1.79,4.18-1.86,6.28-3.38,6.28-4.58,0-.65-.02-1.49-.05-2.51-.03-1.01-.07-2.21-.13-3.59-.06-1.37-.11-2.55-.13-3.54-.04-.98-.05-1.8-.05-2.46,0-2.51,.06-5.56,.18-9.15,.12-3.59,.3-7.8,.54-12.65,.24-4.84,.42-9.07,.54-12.68,.11-3.62,.17-6.69,.17-9.2,0-7.23-.47-12.31-1.43-15.24Zm-14.26,45.46c-.3,4.37-.52,8.12-.67,11.26s-.23,5.69-.23,7.67c-3.94-.72-8.84-1.08-14.7-1.08-2.51,0-5.16,.09-7.94,.27-2.78,.18-5.78,.42-9.01,.72,.06-3.83-.05-9.93-.32-18.3-.26-8.37-.73-19.13-1.39-32.28,7.42-1.67,13.86-3.15,19.33-4.44,5.47-1.28,10.06-2.35,13.77-3.18,1.31,6.39,1.97,13.12,1.97,20.17,0,4.49-.27,10.89-.81,19.19Z"/>
        <path class="cls-1" d="M256.89,208.37c0,1.2-2.06,2.63-6.19,4.3-4.12,1.74-7.08,2.69-8.88,2.87l-1.97-14.52c-.6-4.13-1.08-9.05-1.43-14.76-.36-5.7-.63-12.27-.81-19.68-6.58,2.63-16.53,6.31-29.86,11.03-.48,5.08-1.04,10.18-1.66,15.29-.63,5.11-1.27,10.3-1.93,15.56-1.32,1.85-3.62,3.5-6.91,4.93-3.22,1.43-6.13,2.15-8.7,2.15,.78-2.75,2.01-12.19,3.68-28.34,1.2-11.29,2.09-21.38,2.69-30.26,.6-8.88,.9-16.64,.9-23.27,0-5.02-.09-9.4-.27-13.14-.18-3.74-.42-6.86-.72-9.37-.89-6.88-1.34-10.49-1.34-10.85,0-1.08,2.15-2.57,6.45-4.49,3.53-1.43,6.37-2.33,8.52-2.69,1.44,12.2,2.16,23.77,2.16,34.71,0,13.75-.81,28.55-2.43,44.39,.96,.18,1.83,.27,2.6,.27,3.95,0,12.89-2.96,26.82-8.88,0-41.43,.24-62.47,.72-63.13,3.58-4.13,8.63-6.55,15.15-7.27l.45,.18c-.6,2.22-.9,7.33-.9,15.34,0,3.76-.09,9.44-.27,17.04-.06,3.82-.1,7.14-.13,9.95-.03,2.81-.05,5.17-.05,7.09,0,7.89,.14,15.48,.41,22.77,.27,7.3,.64,14.35,1.12,21.17,.12,1.67,.33,3.78,.63,6.32,.3,2.54,.65,5.54,1.07,9.01,.72,3.71,1.08,5.8,1.08,6.28Z"/>
      </g>
    </g>
  </g>
</svg>