<?xml version="1.0" encoding="UTF-8"?>
<svg id="Layer_2" data-name="Layer 2" xmlns="http://www.w3.org/2000/svg" xmlns:xlink="http://www.w3.org/1999/xlink" width="337" height="409" viewBox="0 0 350.43 450.68">
  <defs>
    <style>
      .cls-1 {
        fill: #2e1b10;
      }

      .cls-2 {
        fill: #3b2314;
      }

      .cls-3 {
        fill: url(#linear-gradient);
      }
    </style>
    <linearGradient id="linear-gradient" x1="-4952.34" y1="-233.8" x2="-4951.34" y2="-233.8" gradientTransform="translate(1673264.68 -78770.53) scale(337.87 -337.87)" gradientUnits="userSpaceOnUse">
      <stop offset="0" stop-color="#fbcdab"/>
      <stop offset="1" stop-color="#fde4d9"/>
    </linearGradient>
  </defs>
  <g id="Quail_left_" data-name="Quail (left)">
    <g id="south_Quail_left_ENG" data-name="south Quail (left) ENG">
      <g id="piece">
        <path class="cls-1" d="M174.83,450.68h156.83c20.63,0,17.88-20.37,17.88-20.37,0,0,1.65-282.83-32.19-343.65C283.51,25.83,196.29,1.2,174.83,1.2S66.15,25.83,32.31,86.65C-1.53,147.48,.12,430.3,.12,430.3c0,0-2.75,20.37,17.88,20.37H174.83Z"/>
        <path class="cls-3" d="M347.43,429.39c0-1.39-.12-2.27-.12-2.27,0,0,1.6-279.54-31.1-339.66C283.51,27.35,199.24,3,178.5,3S73.49,27.35,40.79,87.46C8.09,147.58,9.68,427.12,9.68,427.12c0,0-.13,.96-.12,2.46h0c.04,5.39,1.82,17.68,17.4,17.68H330.04c15.53,0,17.35-12.21,17.4-17.61v-.26Z"/>
        <path class="cls-2" d="M347.43,429.39h3c0-1.55-.13-2.55-.14-2.65l-2.98,.38,3,.02s.01-2.22,.01-6.29c0-20.88-.33-90.57-4.39-161.95-2.03-35.7-4.99-71.81-9.32-102.51-2.17-15.35-4.68-29.35-7.6-41.29-2.93-11.95-6.24-21.82-10.17-29.06-8.4-15.43-20.06-28.5-33.11-39.43-19.58-16.39-42.29-27.99-62.11-35.53-9.91-3.77-19.1-6.53-26.84-8.35-3.87-.91-7.38-1.59-10.44-2.04-3.07-.45-5.69-.68-7.85-.68-2.88,0-6.59,.41-11.06,1.21-7.82,1.41-17.92,4.05-29.18,8.06-16.89,6.01-36.36,15.09-54.41,27.71-18.04,12.62-34.68,28.8-45.7,49.05-3.93,7.24-7.24,17.11-10.17,29.06-5.11,20.89-8.97,48.1-11.92,77.8-8.83,89.07-9.4,200.54-9.4,227.95,0,4.08,.01,6.29,.01,6.3l3-.02-2.97-.39c-.01,.1-.14,1.12-.14,2.7,0,.03,0,.11,0,.24l3-.08h-3v.03c.01,1.5,.14,3.48,.61,5.65,.36,1.63,.9,3.37,1.76,5.09,1.28,2.58,3.31,5.13,6.31,6.97,3,1.85,6.89,2.94,11.71,2.93H330.04c4.27,0,7.81-.85,10.65-2.33,2.13-1.11,3.85-2.57,5.17-4.18,1.99-2.42,3.11-5.12,3.75-7.61,.64-2.49,.8-4.78,.82-6.47v-.28h0s-3,0-3,0h-3v.23c0,1.19-.12,2.77-.48,4.41-.27,1.23-.68,2.5-1.28,3.67-.9,1.77-2.16,3.33-4.09,4.52-1.93,1.18-4.62,2.03-8.55,2.03-9.97,0-47.85,0-83.25,0-17.7,0-34.77,0-47.42,0-6.32,0-11.54,0-15.18,0-3.64,0-5.69,0-5.69,0,0,0-131.6,0-151.54,0-3.5,0-6.02-.68-7.89-1.66-1.4-.74-2.47-1.65-3.32-2.69-1.28-1.55-2.09-3.43-2.56-5.3-.48-1.86-.61-3.7-.62-5.03v.02h0v-.1s-.42,.01-.42,.01h.42s-.42,0-.42,0h.42v-.09c0-.62,.03-1.12,.05-1.46,.01-.17,.02-.29,.03-.37v-.08s0,0,0,0l.03-.2v-.21s0-.55,0-1.61c0-1.06,0-2.62,0-4.66,0-20.81,.33-90.43,4.38-161.62,2.02-35.59,4.98-71.58,9.28-102.01,2.15-15.21,4.63-29.04,7.48-40.7,2.85-11.66,6.09-21.16,9.61-27.62,7.95-14.63,19.09-27.15,31.69-37.69,18.89-15.82,41.06-27.17,60.39-34.53,9.67-3.68,18.62-6.36,26.08-8.11,3.73-.88,7.08-1.52,9.95-1.94,2.86-.42,5.25-.62,6.98-.62,2.31,0,5.77,.35,10,1.12,7.42,1.33,17.26,3.9,28.23,7.81,16.46,5.86,35.5,14.74,52.99,26.97,17.5,12.23,33.43,27.81,43.87,47,3.52,6.46,6.77,15.96,9.61,27.62,5,20.41,8.85,47.43,11.77,76.97,8.79,88.65,9.37,200.05,9.37,227.36,0,2.03,0,3.6,0,4.65s0,1.6,0,1.6v.2s.02,.2,.02,.2l1.34-.17-1.34,.16h0s1.34-.16,1.34-.16l-1.34,.16s.09,.75,.09,1.9h0s3,0,3,0Z"/>
      </g>
      <polygon id="moves" class="cls-1" points="220.4 405.37 227.75 398.01 194.85 365.11 169.13 365.11 126.9 407.34 120.47 400.91 163.03 358.34 163.03 327.18 177.44 327.18 177.44 276.88 166.3 276.88 181.55 250.46 196.8 276.88 186.54 276.88 186.54 327.18 200.96 327.18 200.96 358.35 234.19 391.58 241.97 383.79 249.87 413.26 220.4 405.37"/>
      <path id="title" class="cls-1" d="M225.23,200.12c-2.57,0-5.29,.08-8.16,.22-2.87,.15-5.92,.37-9.15,.67,.78-10.34,1.36-19.64,1.75-27.89,.39-8.25,.58-15.54,.58-21.88,0-1.2-.13-4.29-.4-9.28-.27-4.99-.64-11.88-1.12-20.67-.12-3.59-.33-6.56-.63-8.92-.3-2.36-.66-4.14-1.08-5.34,13.15-2.57,22.84-4.72,29.06-6.46-1.02,2.51-1.52,18.68-1.52,48.52,0,9.45,.22,18.44,.67,26.99,.45,8.55,1.09,16.74,1.93,24.57-3.23-.36-7.21-.54-11.93-.54Zm28.52,6.28c-.66-4.66-1.26-9.58-1.79-14.75-.54-5.17-.96-10.72-1.26-16.63-.36-5.5-.72-16.02-1.08-31.57-.24-6.1-.4-11.06-.49-14.89-.09-3.83-.13-6.58-.13-8.25,0-8.85,.36-17.9,1.08-27.17-9.98,2.33-18.7,4.3-26.14,5.92-7.44,1.61-13.74,2.9-18.88,3.86-.9-.24-3.62,.66-8.16,2.69-4.48,2.09-6.73,3.53-6.73,4.3v.18c1.02,4.01,1.84,7.44,2.47,10.31,.63,2.87,1,5.2,1.12,6.99,1.08,13.45,1.61,24.12,1.61,32.01,0,4.48-.13,9.58-.4,15.29-.27,5.71-.64,12.09-1.12,19.15-.3,4.36-.52,7.89-.67,10.58-.15,2.69-.22,4.6-.22,5.74,1.85-.24,4.21-.96,7.08-2.15,2.03-.12,4.29-.22,6.77-.31,2.48-.09,5.22-.13,8.21-.13-.66,2.09-1.21,3.92-1.66,5.47-.45,1.55-.82,2.84-1.12,3.86-1.91,4.42-3.65,8.26-5.2,11.52-1.56,3.26-2.93,5.96-4.12,8.12v.18l.27,.09c2.21-.18,4.84-1.02,7.89-2.51,3.17-1.55,5.35-2.96,6.55-4.21,3.95-4.54,7.35-11.57,10.22-21.07,3.95,.9,7.56,2.42,10.85,4.57,.06,1.32,.33,1.97,.81,1.97,2.09,0,5.08-.9,8.97-2.69,3.83-1.85,6.25-3.56,7.26-5.11l-1.97-1.35Zm-77.35-20.76c-.03-2.84-.08-6.08-.13-9.73-.36-.12-.57-.18-.63-.18-1.5,0-4.25,.99-8.25,2.96-4.07,1.91-6.1,3.38-6.1,4.39v12.55c-9.57-4.9-21.19-7.35-34.88-7.35,.9-15.66,1.35-28.61,1.35-38.83,0-1.55-.13-5.23-.4-11.03-.27-5.8-.64-13.81-1.12-24.03-.66-12.73-2.03-19.82-4.12-21.25-1.67,.24-4.51,1.29-8.52,3.14-3.95,1.79-5.92,3.23-5.92,4.3,0-.54,.69,1.35,2.06,5.65,.48,3.23,.85,6.02,1.12,8.38,.27,2.36,.4,4.32,.4,5.87,.9,20.75,1.35,33.03,1.35,36.86,0,4.48-.19,11.55-.58,21.21-.39,9.66-.97,21.99-1.75,36.99,2.03-.18,4.9-1.08,8.61-2.69,3.65-1.67,5.74-3.11,6.28-4.3,.6-1.2,.9-3.26,.9-6.19v-5.38c14.11,2.27,24.21,6.73,30.31,13.36,1.02,1.14,1.87,2.14,2.56,3,.69,.87,1.27,1.6,1.75,2.2,1.91-.24,4.66-1.2,8.25-2.87,3.47-1.67,5.59-3.14,6.37-4.39,.78-1.2,1.17-6.28,1.17-15.25,0-2.09-.02-4.56-.04-7.4Z"/>
    </g>
  </g>
</svg>