<?xml version="1.0" encoding="UTF-8"?>
<svg id="Layer_2" data-name="Layer 2" xmlns="http://www.w3.org/2000/svg" xmlns:xlink="http://www.w3.org/1999/xlink" width="337" height="409" viewBox="0 0 350.43 450.68">
  <defs>
    <style>
      .cls-1 {
        fill: #2e1b10;
      }

      .cls-2 {
        fill: #3b2314;
      }

      .cls-3 {
        fill: url(#linear-gradient);
      }
    </style>
    <linearGradient id="linear-gradient" x1="-6727.34" y1="-230.8" x2="-6726.34" y2="-230.8" gradientTransform="translate(2272986.52 -77756.92) scale(337.87 -337.87)" gradientUnits="userSpaceOnUse">
      <stop offset="0" stop-color="#fbcdab"/>
      <stop offset="1" stop-color="#fde4d9"/>
    </linearGradient>
  </defs>
  <g id="Swallow">
    <g id="south_Swallow_ENG" data-name="south Swallow ENG">
      <g id="piece">
        <path class="cls-1" d="M174.83,450.68h156.83c20.63,0,17.88-20.37,17.88-20.37,0,0,1.65-282.83-32.19-343.65C283.51,25.83,196.29,1.2,174.83,1.2S66.15,25.83,32.31,86.65C-1.53,147.48,.12,430.3,.12,430.3c0,0-2.75,20.37,17.88,20.37H174.83Z"/>
        <path class="cls-3" d="M347.43,429.39c0-1.39-.12-2.27-.12-2.27,0,0,1.6-279.54-31.1-339.66C283.51,27.35,199.24,3,178.5,3S73.49,27.35,40.79,87.46C8.09,147.58,9.68,427.12,9.68,427.12c0,0-.13,.96-.12,2.46h0c.04,5.39,1.82,17.68,17.4,17.68H330.04c15.53,0,17.35-12.21,17.4-17.61v-.26Z"/>
        <path class="cls-2" d="M347.43,429.39h3c0-1.55-.13-2.55-.14-2.65l-2.98,.38,3,.02s.01-2.22,.01-6.29c0-20.88-.33-90.57-4.39-161.95-2.03-35.7-4.99-71.81-9.32-102.51-2.17-15.35-4.68-29.35-7.6-41.29-2.93-11.95-6.24-21.82-10.17-29.06-8.4-15.43-20.06-28.5-33.11-39.43-19.58-16.39-42.29-27.99-62.11-35.53-9.91-3.77-19.1-6.53-26.84-8.35-3.87-.91-7.38-1.59-10.44-2.04-3.07-.45-5.69-.68-7.85-.68-2.88,0-6.59,.41-11.06,1.21-7.82,1.41-17.92,4.05-29.18,8.06-16.89,6.01-36.36,15.09-54.41,27.71-18.04,12.62-34.68,28.8-45.7,49.05-3.93,7.24-7.24,17.11-10.17,29.06-5.11,20.89-8.97,48.1-11.92,77.8-8.83,89.07-9.4,200.54-9.4,227.95,0,4.08,.01,6.29,.01,6.3l3-.02-2.97-.39c-.01,.1-.14,1.12-.14,2.7,0,.03,0,.11,0,.24l3-.08h-3v.03c.01,1.5,.14,3.48,.61,5.65,.36,1.63,.9,3.37,1.76,5.09,1.28,2.58,3.31,5.13,6.31,6.97,3,1.85,6.89,2.94,11.71,2.93H330.04c4.27,0,7.81-.85,10.65-2.33,2.13-1.11,3.85-2.57,5.17-4.18,1.99-2.42,3.11-5.12,3.75-7.61,.64-2.49,.8-4.78,.82-6.47v-.28h0s-3,0-3,0h-3v.23c0,1.19-.12,2.77-.48,4.41-.27,1.23-.68,2.5-1.28,3.67-.9,1.77-2.16,3.33-4.09,4.52-1.93,1.18-4.62,2.03-8.55,2.03-9.97,0-47.85,0-83.25,0-17.7,0-34.77,0-47.42,0-6.32,0-11.54,0-15.18,0-3.64,0-5.69,0-5.69,0,0,0-131.6,0-151.54,0-3.5,0-6.02-.68-7.89-1.66-1.4-.74-2.47-1.65-3.32-2.69-1.28-1.55-2.09-3.43-2.56-5.3-.48-1.86-.61-3.7-.62-5.03v.02h0v-.1s-.42,.01-.42,.01h.42s-.42,0-.42,0h.42v-.09c0-.62,.03-1.12,.05-1.46,.01-.17,.02-.29,.03-.37v-.08s0,0,0,0l.03-.2v-.21s0-.55,0-1.61c0-1.06,0-2.62,0-4.66,0-20.81,.33-90.43,4.38-161.62,2.02-35.59,4.98-71.58,9.28-102.01,2.15-15.21,4.63-29.04,7.48-40.7,2.85-11.66,6.09-21.16,9.61-27.62,7.95-14.63,19.09-27.15,31.69-37.69,18.89-15.82,41.06-27.17,60.39-34.53,9.67-3.68,18.62-6.36,26.08-8.11,3.73-.88,7.08-1.52,9.95-1.94,2.86-.42,5.25-.62,6.98-.62,2.31,0,5.77,.35,10,1.12,7.42,1.33,17.26,3.9,28.23,7.81,16.46,5.86,35.5,14.74,52.99,26.97,17.5,12.23,33.43,27.81,43.87,47,3.52,6.46,6.77,15.96,9.61,27.62,5,20.41,8.85,47.43,11.77,76.97,8.79,88.65,9.37,200.05,9.37,227.36,0,2.03,0,3.6,0,4.65s0,1.6,0,1.6v.2s.02,.2,.02,.2l1.33-.17-1.33,.16h0s1.33-.16,1.33-.16l-1.33,.16s.09,.75,.09,1.9h0s3,0,3,0Z"/>
      </g>
      <polygon id="moves" class="cls-1" points="200.96 327.18 200.96 365.11 163.03 365.11 163.03 327.18 177.44 327.18 177.44 263.63 186.54 263.63 186.54 327.18 200.96 327.18"/>
      <path id="title" class="cls-1" d="M267.29,93.13c-1.73,0-4.51,.9-8.34,2.69-3.83,1.67-5.98,3.17-6.46,4.48-.54,3.23-.81,5.83-.81,7.8-1.02,10.4-1.82,18.2-2.42,23.41-1.61,18.59-2.42,34.97-2.42,49.14,0,3.05,.04,6.14,.13,9.28,.09,3.14,.19,6.32,.31,9.55-7.23,.06-14.32,1.29-21.25,3.68,.24-12.2,.42-22.02,.54-29.46,.12-7.44,.18-12.63,.18-15.56,0-5.26-.24-12.72-.72-22.37-.48-9.65-1.2-21.69-2.15-36.09-.24-3.59-.57-5.77-.99-6.55-.84,.12-1.94,.45-3.32,.99-1.38,.54-3.02,1.23-4.93,2.06-4.25,1.91-6.37,3.38-6.37,4.39,0,.9,.18,2.99,.54,6.28,1.02,6.88,1.79,15.16,2.33,24.84s.81,20.87,.81,33.54c0,10.58-.18,21.79-.54,33.63-5.56-.18-12.7,.96-21.43,3.41,.54-24.09,.81-38.71,.81-43.85,0-3.83-.11-8.56-.31-14.21-.21-5.65-.52-12.27-.94-19.86-.84-19.01-1.79-29.41-2.87-31.21-1.67,.18-4.48,1.14-8.43,2.87-4.3,1.97-6.46,3.47-6.46,4.48,0,.78,.27,2.87,.81,6.28,1.02,7.12,1.78,15.56,2.29,25.33,.51,9.77,.76,20.97,.76,33.58,0,2.51-.03,5.62-.09,9.33-.06,3.71-.15,8.1-.27,13.18-.12,5.08-.21,9.49-.27,13.23-.06,3.74-.09,6.86-.09,9.37v4.75c2.15-.24,5.11-1.38,8.88-3.41,4.13-2.03,6.19-3.79,6.19-5.29,1.02-.12,2.03-.22,3.05-.31,1.02-.09,2-.13,2.96-.13,2.75,0,5.92,.99,9.51,2.96,3.65,1.97,5.53,4.04,5.65,6.19,1.91-.18,4.54-1.22,7.89-3.14,1.73-.96,3.17-1.85,4.3-2.69,1.14-.84,2.03-1.58,2.69-2.24,1.2-.24,2.44-.4,3.72-.49,1.29-.09,2.59-.13,3.9-.13,3.89,0,7.05,.81,9.51,2.42,1.55,.96,3.68,3.05,6.37,6.28,1.26-.06,3.95-1.11,8.07-3.14,4-1.97,6.01-3.44,6.01-4.39,0,.42-.36-3.56-1.08-11.93-.24-2.87-.42-6.17-.54-9.91-.12-3.74-.18-7.97-.18-12.69,0-9.21,.4-19.82,1.21-31.83s1.99-25.59,3.54-40.71l.63-5.2c0-.24,.12-.61,.36-1.12,.24-.51,.36-.91,.36-1.21,0-.18-.21-.27-.63-.27Zm-110.35,85.06c-.09-1.88-.19-4.11-.31-6.68-.12-2.57-.22-4.81-.31-6.73-.09-1.91-.13-3.47-.13-4.66-4.66-1.91-10.73-2.87-18.2-2.87-5.14,0-9.79,.15-13.94,.45-4.16,.3-7.88,.75-11.17,1.34,1.44-14.41,2.15-25.41,2.15-33,0-2.03-.12-4.69-.36-7.98-.24-3.29-.6-7.26-1.08-11.93,5.98-1.37,11.21-2.56,15.69-3.54,4.48-.99,8.25-1.81,11.3-2.47-6.46,5.5-9.77,13.78-9.95,24.84,1.85-.48,3.45-.96,4.8-1.43,1.35-.48,2.5-.93,3.45-1.35,3.47-1.44,5.71-2.93,6.73-4.48,1.26-1.85,1.97-5.68,2.15-11.48,.42-4.48,2.57-8.31,6.46-11.48,.42-.3,.75-.57,.99-.81l.54-.54c-.48-.18-1.11-.27-1.88-.27-6.82,0-20.27,3.2-40.35,9.6-.84-6.4-2.21-9.6-4.12-9.6-1.32,0-3.98,1.02-7.98,3.05-4.01,2.03-6.01,3.47-6.01,4.3,0,1.32,.42,3.23,1.26,5.74,1.2,3.17,1.82,5.11,1.88,5.83,1.02,4.9,1.52,12.26,1.52,22.06,0,3.77-.1,7.61-.31,11.52-.21,3.92-.52,7.94-.94,12.06-.3,2.99-.52,5.38-.67,7.17-.15,1.79-.22,3.02-.22,3.68v.18c2.39-.48,5.35-1.49,8.88-3.05,3.23-.3,6.35-.54,9.37-.72,3.02-.18,5.96-.27,8.83-.27,7.77,0,13.21,1.23,16.32,3.68,.24,3.77,.4,7.29,.49,10.58,.09,3.29,.13,6.37,.13,9.24,0,2.27-.04,4.5-.13,6.68-.09,2.18-.25,4.32-.49,6.41-.96-.12-1.9-.22-2.82-.31-.93-.09-1.87-.13-2.82-.13-4.66,0-12.02,.99-22.06,2.96,.36-2.87,.54-5.17,.54-6.9,0-4-.69-7.38-2.06-10.13-.84,.12-1.96,.42-3.36,.9-1.41,.48-3.06,1.11-4.98,1.88-4.3,1.91-6.46,3.29-6.46,4.12,0,1.14,.33,2.87,.99,5.2,.66,2.33,.99,4.07,.99,5.2,0,.66-.04,1.47-.13,2.42-.09,.96-.19,2.09-.31,3.41-.12,1.32-.22,2.44-.31,3.36-.09,.93-.13,1.69-.13,2.29,1.97-.18,4.84-1.02,8.61-2.51,3.83-1.49,5.89-2.84,6.19-4.04,1.49-.24,2.93-.4,4.3-.49,1.37-.09,2.72-.13,4.04-.13,8.25,0,13.9,2.39,16.95,7.17,1.85,0,4.57-.81,8.16-2.42,3.65-1.67,5.89-3.11,6.73-4.3,2.51-3.47,3.77-12.11,3.77-25.92,0-1.26-.04-2.82-.13-4.71Z"/>
    </g>
  </g>
</svg>