<?xml version="1.0" encoding="UTF-8"?>
<svg id="Layer_2" data-name="Layer 2" xmlns="http://www.w3.org/2000/svg" xmlns:xlink="http://www.w3.org/1999/xlink" width="337" height="409" viewBox="0 0 350.43 450.68">
  <defs>
    <style>
      .cls-1 {
        fill: #007a72;
      }

      .cls-2 {
        fill: #f20000;
      }

      .cls-3 {
        fill: #2e1b10;
      }

      .cls-4 {
        fill: #00aeb7;
      }

      .cls-5 {
        fill: #3b2314;
      }

      .cls-6 {
        fill: url(#linear-gradient);
      }
    </style>
    <linearGradient id="linear-gradient" x1="-7653.34" y1="-233.8" x2="-7652.34" y2="-233.8" gradientTransform="translate(2585855.49 -78770.53) scale(337.87 -337.87)" gradientUnits="userSpaceOnUse">
      <stop offset="0" stop-color="#fbcdab"/>
      <stop offset="1" stop-color="#fde4d9"/>
    </linearGradient>
  </defs>
  <g id="Wild_goose" data-name="Wild goose">
    <g id="south_Wild_goose_ENG" data-name="south Wild goose ENG">
      <g id="piece">
        <path class="cls-3" d="M174.83,450.68h156.83c20.63,0,17.88-20.37,17.88-20.37,0,0,1.65-282.83-32.19-343.65C283.51,25.83,196.29,1.2,174.83,1.2S66.15,25.83,32.31,86.65C-1.53,147.48,.12,430.3,.12,430.3c0,0-2.75,20.37,17.88,20.37H174.83Z"/>
        <path class="cls-6" d="M347.43,429.39c0-1.39-.12-2.27-.12-2.27,0,0,1.6-279.54-31.1-339.66C283.51,27.35,199.24,3,178.5,3S73.49,27.35,40.79,87.46C8.09,147.58,9.68,427.12,9.68,427.12c0,0-.13,.96-.12,2.46h0c.04,5.39,1.82,17.68,17.4,17.68H330.04c15.53,0,17.35-12.21,17.4-17.61v-.26Z"/>
        <path class="cls-5" d="M347.43,429.39h3c0-1.55-.13-2.56-.14-2.65l-2.98,.38,3,.02s.01-2.22,.01-6.3c0-20.88-.33-90.57-4.39-161.96-2.03-35.7-4.99-71.81-9.32-102.51-2.17-15.35-4.68-29.35-7.6-41.29-2.93-11.95-6.24-21.82-10.17-29.06-8.4-15.43-20.06-28.5-33.11-39.43-19.58-16.39-42.29-27.99-62.11-35.53-9.91-3.77-19.1-6.53-26.84-8.35-3.87-.91-7.38-1.59-10.44-2.04-3.07-.45-5.69-.68-7.85-.68-2.88,0-6.59,.41-11.06,1.21-7.82,1.41-17.92,4.05-29.18,8.06-16.89,6.01-36.36,15.09-54.41,27.71-18.04,12.62-34.67,28.8-45.7,49.05-3.93,7.24-7.24,17.11-10.17,29.06-5.11,20.89-8.97,48.1-11.92,77.8-8.83,89.07-9.4,200.54-9.4,227.95,0,4.08,.01,6.29,.01,6.3l3-.02-2.97-.39c-.01,.1-.14,1.12-.14,2.7,0,.03,0,.11,0,.24l3-.08h-3v.03c.01,1.5,.14,3.48,.61,5.65,.35,1.63,.9,3.37,1.76,5.09,1.28,2.58,3.31,5.13,6.31,6.97,3,1.85,6.89,2.94,11.71,2.93H330.04c4.27,0,7.81-.85,10.65-2.33,2.13-1.11,3.85-2.57,5.17-4.18,1.99-2.42,3.11-5.12,3.75-7.61,.64-2.49,.8-4.78,.82-6.47v-.28h0s-3,0-3,0h-3v.23c0,1.19-.12,2.77-.48,4.41-.27,1.23-.68,2.5-1.28,3.67-.9,1.77-2.16,3.33-4.09,4.52-1.93,1.18-4.62,2.03-8.55,2.03-9.97,0-47.85,0-83.25,0-17.7,0-34.77,0-47.42,0-6.32,0-11.54,0-15.18,0-3.64,0-5.69,0-5.69,0,0,0-131.6,0-151.54,0-3.5,0-6.02-.68-7.89-1.66-1.4-.74-2.47-1.65-3.32-2.69-1.28-1.55-2.09-3.43-2.56-5.3-.48-1.86-.61-3.7-.62-5.03h0s0-.04,0-.04v-.03s-.42,.01-.42,.01h.42s-.42,0-.42,0h.42v-.09c0-.62,.03-1.12,.05-1.46,.01-.17,.02-.29,.03-.37v-.08s0,0,0,0l.03-.2v-.21s0-.55,0-1.61c0-1.06,0-2.63,0-4.66,0-20.82,.33-90.43,4.38-161.62,2.02-35.59,4.98-71.58,9.28-102.01,2.15-15.21,4.63-29.04,7.48-40.7,2.85-11.66,6.09-21.16,9.61-27.62,7.95-14.63,19.09-27.15,31.69-37.69,18.89-15.82,41.06-27.17,60.39-34.53,9.67-3.68,18.62-6.36,26.08-8.11,3.73-.88,7.08-1.52,9.95-1.94,2.86-.42,5.25-.62,6.98-.62,2.31,0,5.77,.35,10,1.12,7.42,1.33,17.26,3.9,28.23,7.81,16.46,5.86,35.5,14.74,52.99,26.97,17.5,12.23,33.43,27.81,43.87,47,3.52,6.46,6.77,15.96,9.61,27.62,5,20.41,8.84,47.43,11.77,76.96,8.79,88.64,9.37,200.05,9.37,227.36,0,2.03,0,3.6,0,4.66s0,1.6,0,1.61v.2s.02,.2,.02,.2l1.35-.17-1.35,.17h0s1.35-.17,1.35-.17l-1.35,.17s.09,.75,.09,1.9h0s3,0,3,0Z"/>
      </g>
      <g id="moves">
        <rect class="cls-2" x="97" y="261.23" width="14.25" height="14.25" transform="translate(-159.26 152.23) rotate(-45)"/>
        <rect class="cls-2" x="252.65" y="261.15" width="14.25" height="14.25" transform="translate(-113.61 262.27) rotate(-45)"/>
        <rect class="cls-2" x="175.23" y="420.84" width="14.25" height="14.25" transform="translate(-249.21 254.29) rotate(-45)"/>
        <rect class="cls-4" x="163.02" y="327.18" width="37.93" height="37.93"/>
        <polygon class="cls-1" points="163.02 327.18 163.02 327.68 200.45 327.68 200.45 364.61 163.52 364.61 163.52 327.18 163.02 327.18 163.02 327.68 163.02 327.18 162.52 327.18 162.52 365.61 201.45 365.61 201.45 326.68 162.52 326.68 162.52 327.18 163.02 327.18"/>
      </g>
      <g id="title">
        <path class="cls-4" d="M267.29,93.13c-1.73,0-4.51,.9-8.34,2.69-3.83,1.67-5.98,3.17-6.46,4.48-.54,3.23-.81,5.83-.81,7.8-1.02,10.4-1.82,18.2-2.42,23.41-1.61,18.59-2.42,34.97-2.42,49.14,0,3.05,.04,6.14,.13,9.28,.09,3.14,.19,6.32,.31,9.55-7.23,.06-14.32,1.29-21.25,3.68,.24-12.2,.42-22.02,.54-29.46,.12-7.44,.18-12.63,.18-15.56,0-5.26-.24-12.72-.72-22.37-.48-9.65-1.2-21.69-2.15-36.09-.24-3.59-.57-5.77-.99-6.55-.84,.12-1.94,.45-3.32,.99-1.38,.54-3.02,1.23-4.93,2.06-4.25,1.91-6.37,3.38-6.37,4.39,0,.9,.18,2.99,.54,6.28,1.02,6.88,1.79,15.16,2.33,24.84s.81,20.87,.81,33.54c0,10.58-.18,21.79-.54,33.63-5.56-.18-12.7,.96-21.43,3.41,.54-24.09,.81-38.71,.81-43.85,0-3.83-.11-8.56-.31-14.21-.21-5.65-.52-12.27-.94-19.86-.84-19.01-1.79-29.41-2.87-31.21-1.67,.18-4.48,1.14-8.43,2.87-4.3,1.97-6.46,3.47-6.46,4.48,0,.78,.27,2.87,.81,6.28,1.02,7.12,1.78,15.56,2.29,25.33,.51,9.77,.76,20.97,.76,33.58,0,2.51-.03,5.62-.09,9.33-.06,3.71-.15,8.1-.27,13.18-.12,5.08-.21,9.49-.27,13.23-.06,3.74-.09,6.86-.09,9.37v4.75c2.15-.24,5.11-1.38,8.88-3.41,4.13-2.03,6.19-3.79,6.19-5.29,1.02-.12,2.03-.22,3.05-.31,1.02-.09,2-.13,2.96-.13,2.75,0,5.92,.99,9.51,2.96,3.65,1.97,5.53,4.04,5.65,6.19,1.91-.18,4.54-1.22,7.89-3.14,1.73-.96,3.17-1.85,4.3-2.69,1.14-.84,2.03-1.58,2.69-2.24,1.2-.24,2.44-.4,3.72-.49,1.29-.09,2.59-.13,3.9-.13,3.89,0,7.05,.81,9.51,2.42,1.55,.96,3.68,3.05,6.37,6.28,1.26-.06,3.95-1.11,8.07-3.14,4-1.97,6.01-3.44,6.01-4.39,0,.42-.36-3.56-1.08-11.93-.24-2.87-.42-6.17-.54-9.91-.12-3.74-.18-7.97-.18-12.69,0-9.21,.4-19.82,1.21-31.83s1.99-25.59,3.54-40.71l.63-5.2c0-.24,.12-.61,.36-1.12,.24-.51,.36-.91,.36-1.21,0-.18-.21-.27-.63-.27Zm-110.35,85.06c-.09-1.88-.19-4.11-.31-6.68-.12-2.57-.22-4.81-.31-6.73-.09-1.91-.13-3.47-.13-4.66-4.66-1.91-10.73-2.87-18.2-2.87-5.14,0-9.79,.15-13.94,.45-4.16,.3-7.88,.75-11.17,1.34,1.44-14.41,2.15-25.41,2.15-33,0-2.03-.12-4.69-.36-7.98-.24-3.29-.6-7.26-1.08-11.93,5.98-1.37,11.21-2.56,15.69-3.54,4.48-.99,8.25-1.81,11.3-2.47-6.46,5.5-9.77,13.78-9.95,24.84,1.85-.48,3.45-.96,4.8-1.43,1.35-.48,2.5-.93,3.45-1.35,3.47-1.44,5.71-2.93,6.73-4.48,1.26-1.85,1.97-5.68,2.15-11.48,.42-4.48,2.57-8.31,6.46-11.48,.42-.3,.75-.57,.99-.81l.54-.54c-.48-.18-1.11-.27-1.88-.27-6.82,0-20.27,3.2-40.35,9.6-.84-6.4-2.21-9.6-4.12-9.6-1.32,0-3.98,1.02-7.98,3.05-4.01,2.03-6.01,3.47-6.01,4.3,0,1.32,.42,3.23,1.26,5.74,1.2,3.17,1.82,5.11,1.88,5.83,1.02,4.9,1.52,12.26,1.52,22.06,0,3.77-.1,7.61-.31,11.52-.21,3.92-.52,7.94-.94,12.06-.3,2.99-.52,5.38-.67,7.17-.15,1.79-.22,3.02-.22,3.68v.18c2.39-.48,5.35-1.49,8.88-3.05,3.23-.3,6.35-.54,9.37-.72,3.02-.18,5.96-.27,8.83-.27,7.77,0,13.21,1.23,16.32,3.68,.24,3.77,.4,7.29,.49,10.58,.09,3.29,.13,6.37,.13,9.24,0,2.27-.04,4.5-.13,6.68-.09,2.18-.25,4.32-.49,6.41-.96-.12-1.9-.22-2.82-.31-.93-.09-1.87-.13-2.82-.13-4.66,0-12.02,.99-22.06,2.96,.36-2.87,.54-5.17,.54-6.9,0-4-.69-7.38-2.06-10.13-.84,.12-1.96,.42-3.36,.9-1.41,.48-3.06,1.11-4.98,1.88-4.3,1.91-6.46,3.29-6.46,4.12,0,1.14,.33,2.87,.99,5.2,.66,2.33,.99,4.07,.99,5.2,0,.66-.04,1.47-.13,2.42-.09,.96-.19,2.09-.31,3.41-.12,1.32-.22,2.44-.31,3.36-.09,.93-.13,1.69-.13,2.29,1.97-.18,4.84-1.02,8.61-2.51,3.83-1.49,5.89-2.84,6.19-4.04,1.49-.24,2.93-.4,4.3-.49,1.37-.09,2.72-.13,4.04-.13,8.25,0,13.9,2.39,16.95,7.17,1.85,0,4.57-.81,8.16-2.42,3.65-1.67,5.89-3.11,6.73-4.3,2.51-3.47,3.77-12.11,3.77-25.92,0-1.26-.04-2.82-.13-4.71Z"/>
        <path class="cls-1" d="M267.29,93.13v-2.5c-2.54,.04-5.41,1.09-9.4,2.93l1.06,2.26-1-2.29c-2.01,.88-3.62,1.72-4.91,2.61-1.27,.91-2.31,1.8-2.9,3.31l-.08,.22-.04,.22c-.55,3.31-.84,6.02-.84,8.21h2.5l-2.49-.24c-1.02,10.39-1.82,18.19-2.42,23.36v.06s0,.01,0,.01c-1.62,18.65-2.43,35.1-2.43,49.36,0,3.07,.04,6.19,.14,9.35,.09,3.15,.19,6.34,.31,9.57l2.5-.09-.02-2.5c-7.5,.06-14.87,1.34-22.05,3.81l.81,2.36,2.5,.05c.24-12.2,.42-22.02,.54-29.47,.12-7.45,.18-12.64,.18-15.6,0-5.33-.24-12.82-.72-22.5-.48-9.67-1.2-21.72-2.15-36.14-.12-1.84-.27-3.33-.45-4.53-.2-1.22-.34-2.06-.83-3.03l-.83-1.54-1.73,.25c-1.16,.17-2.39,.56-3.87,1.13-1.42,.55-3.09,1.25-5.02,2.1h-.03c-2.2,1.01-3.89,1.89-5.17,2.77-.64,.45-1.19,.89-1.67,1.45-.46,.55-.98,1.31-1,2.47,0,1.16,.19,3.21,.55,6.55v.06s.01,.03,.01,.03c1,6.77,1.77,14.98,2.31,24.61,.54,9.62,.8,20.76,.8,33.4,0,10.55-.18,21.74-.54,33.55l2.5,.08,.08-2.5c-.41-.01-.82-.02-1.25-.02-5.73,0-12.68,1.2-20.95,3.52l.68,2.41,2.5,.06c.54-24.1,.81-38.7,.81-43.91,0-3.87-.11-8.64-.32-14.31-.21-5.67-.53-12.3-.94-19.91l-2.5,.14,2.5-.11c-.42-9.53-.87-16.91-1.35-22.18-.24-2.64-.49-4.75-.76-6.37-.31-1.66-.47-2.68-1.11-3.83l-.82-1.37-1.59,.17c-2.26,.27-5.1,1.3-9.17,3.07l-.04,.02c-2.23,1.02-3.94,1.93-5.23,2.82-.65,.45-1.2,.9-1.68,1.46-.46,.55-.98,1.31-1.01,2.48,.02,1.2,.3,3.18,.84,6.67l2.47-.39-2.48,.35c1,7.02,1.76,15.39,2.26,25.11s.76,20.87,.76,33.45c0,2.49-.03,5.59-.09,9.29-.06,3.7-.15,8.09-.27,13.16-.12,5.09-.21,9.5-.27,13.25-.06,3.75-.09,6.88-.09,9.41v7.54l2.77-.31c2.75-.32,5.87-1.59,9.79-3.69l-1.19-2.2,1.1,2.24c2.17-1.07,3.87-2.09,5.16-3.19,1.24-1.09,2.37-2.37,2.42-4.34h-2.5l.29,2.48c.99-.12,1.99-.22,2.98-.31,.95-.08,1.86-.13,2.74-.13,2.14,0,4.95,.8,8.3,2.65h.02c1.66,.9,2.83,1.79,3.49,2.52,.67,.75,.83,1.24,.85,1.62l.14,2.59,2.58-.24c2.58-.27,5.38-1.47,8.9-3.46l-1.24-2.17,1.21,2.19c1.8-.99,3.32-1.94,4.58-2.87,1.2-.89,2.18-1.7,2.98-2.49l-1.77-1.77,.49,2.45c1.09-.22,2.22-.37,3.41-.45,1.23-.08,2.47-.13,3.73-.13,3.55,0,6.2,.74,8.13,2.01l.03,.02,.03,.02c1.08,.64,3.16,2.61,5.76,5.75l.79,.95,1.24-.06c1.2-.08,2.27-.44,3.75-1,1.45-.57,3.21-1.36,5.31-2.4,2.08-1.03,3.67-1.92,4.88-2.8,.6-.45,1.12-.88,1.58-1.43,.43-.54,.93-1.26,.95-2.41h-2.74l-2.25-.21c-.01,.13,0,.17,0,.21h2.26l-2.25-.21,2.46,.23-2.39-.63c-.06,.25-.06,.33-.07,.4l2.46,.23-2.39-.63,2.41,.64-2.14-1.28c-.2,.35-.23,.52-.27,.65l2.41,.64-2.14-1.28,2.14,1.28-1.55-1.96c-.33,.27-.49,.5-.6,.68l2.14,1.28-1.55-1.96,1.55,1.96v-2.5c-.64,0-1.23,.27-1.55,.54l1.55,1.96v0l1.65-1.87c-.27-.24-.83-.62-1.65-.62v2.5l1.65-1.87-1.65,1.87,2.29-.99c-.09-.15-.11-.37-.64-.88l-1.65,1.87,2.29-.99-2.21,.96,2.37-.42c-.03-.08,.03-.03-.16-.53l-2.21,.96,2.37-.42-1.41,.25,1.42-.2v-.05s-1.42,.25-1.42,.25l1.42-.2c-.05-.32-.42-4.42-1.05-11.76-.23-2.81-.41-6.07-.53-9.78-.12-3.7-.18-7.91-.18-12.61,0-9.13,.4-19.69,1.21-31.67,.8-11.98,1.98-25.52,3.54-40.63l-2.49-.26,2.48,.3,.65-5.34v-.16h-.97l.94,.3s.02,0,.03-.3h-.97l.94,.3s.06-.17,.15-.36c.31-.69,.58-1.31,.6-2.28,.01-.53-.2-1.2-.57-1.66-.57-.7-1.17-.89-1.56-1-.41-.1-.71-.11-1-.12v3.67l-.51,1.2c.45,.17,.51,.12,.51,.13v-1.33l-.51,1.2,.87-2.03-1.74,1.36c.31,.4,.65,.58,.87,.68l.87-2.03-1.74,1.36,1.82-1.42h-2.31c-.01,.44,.17,1.03,.49,1.42l1.82-1.42h-2.31s.64,0,.64,0l-.62-.19s-.01,0-.01,.19h.64l-.62-.19s-.06,.16-.14,.33c-.29,.67-.56,1.16-.6,2.18h2.5l-2.48-.3-.63,5.24h0c-1.56,15.15-2.74,28.75-3.55,40.8-.81,12.06-1.22,22.72-1.22,32,0,4.74,.06,9,.18,12.77,.12,3.77,.3,7.11,.55,10.04,.34,3.99,.6,6.98,.78,8.98,.09,1,.16,1.75,.21,2.26,.02,.26,.04,.45,.06,.6l.03,.22s.01,.09,.03,.19c.01,.06,.02,.12,.08,.3,.04,.1,.07,.22,.23,.49,.09,.14,.2,.32,.48,.58,.27,.24,.83,.62,1.66,.63,.64,0,1.23-.27,1.55-.54,.61-.52,.68-.85,.78-1.04,.21-.63,.14-.63,.17-.77,0-.09,0-.14,0-.18h-3.42l-1.44-.67c-.05,.12-.14,.35-.14,.67h1.58l-1.44-.67,.54,.25-.47-.37s-.02,.02-.07,.12l.54,.25-.47-.37c-.08,.21-1.88,1.54-4.82,2.94-2.02,1-3.67,1.74-4.91,2.22-1.22,.49-2.11,.68-2.17,.66l.12,2.5,1.92-1.6c-2.79-3.32-4.95-5.53-6.98-6.81l-1.31,2.13,1.37-2.09c-2.97-1.95-6.66-2.83-10.88-2.83-1.37,0-2.73,.04-4.08,.14-1.39,.1-2.73,.28-4.04,.54l-.74,.15-.54,.54c-.53,.53-1.34,1.21-2.4,2-1.01,.75-2.36,1.6-4.03,2.51l-.03,.02c-3.18,1.84-5.64,2.73-6.88,2.82l.23,2.49,2.5-.14c-.1-1.78-.94-3.39-2.15-4.71-1.22-1.33-2.82-2.46-4.8-3.54h.02c-3.82-2.09-7.35-3.25-10.71-3.26-1.04,0-2.1,.05-3.18,.14-1.04,.09-2.08,.2-3.12,.32l-2.21,.26v2.22h.67l-.64-.21s-.03,.11-.03,.21h.67l-.64-.21,.11,.04-.1-.05h0s.11,.05,.11,.05l-.1-.05s-.36,.55-1.18,1.14c-.81,.61-2.04,1.34-3.65,2.13l-.06,.03-.03,.02c-3.61,1.97-6.41,2.97-7.97,3.12l.28,2.49h2.5v-4.75c0-2.49,.03-5.6,.09-9.33,.06-3.73,.15-8.13,.27-13.21,.12-5.09,.21-9.49,.27-13.2,.06-3.72,.09-6.84,.09-9.37,0-12.65-.26-23.88-.77-33.71-.51-9.83-1.28-18.34-2.31-25.56v-.04c-.54-3.33-.8-5.54-.78-5.89h-1.55l1.41,.67c.06-.12,.14-.35,.14-.67h-1.55l1.41,.67-.5-.24,.44,.35s.02-.01,.07-.12l-.5-.24,.44,.35c.1-.24,2.05-1.6,5.2-3l-1.04-2.27,1.01,2.29c3.83-1.7,6.6-2.58,7.69-2.67l-.27-2.49-2.14,1.29v.02c.3,.73,.85,4.04,1.27,9.06,.44,5.07,.86,12.06,1.25,20.95v.03c.42,7.58,.73,14.19,.94,19.82,.21,5.63,.31,10.34,.31,14.12,0,5.08-.27,19.71-.81,43.79l-.08,3.38,3.25-.91c7.99-2.25,14.56-3.34,19.6-3.33,.37,0,.72,0,1.08,.02l2.51,.08,.08-2.51c.36-11.86,.54-23.1,.54-33.7,0-12.71-.27-23.93-.81-33.68-.54-9.74-1.32-18.09-2.35-25.07l-2.47,.37,2.48-.27c-.36-3.24-.53-5.38-.52-6.01h-1.54l1.41,.66c.06-.12,.14-.35,.14-.66h-1.54l1.41,.66-.53-.25,.46,.38s.02-.02,.07-.12l-.53-.25,.46,.38c.08-.22,1.99-1.55,5.1-2.9l-1.03-2.28,1,2.29c1.89-.83,3.51-1.5,4.84-2.02,1.27-.5,2.24-.77,2.76-.84l-.36-2.47-2.2,1.18h0s0,0,0,0h0s0,0,0,0h0c.18,.43,.51,2.5,.7,5.53,.96,14.4,1.67,26.42,2.15,36.05,.48,9.63,.71,17.06,.71,22.25,0,2.9-.06,8.08-.18,15.52-.12,7.44-.3,17.26-.54,29.45l-.07,3.58,3.39-1.17c6.69-2.3,13.49-3.48,20.46-3.54l2.57-.02-.1-2.57c-.12-3.22-.22-6.4-.31-9.53-.09-3.12-.13-6.19-.13-9.21,0-14.07,.8-30.39,2.41-48.93l-2.49-.22,2.48,.28c.6-5.23,1.41-13.04,2.43-23.45v-.12s.01-.12,.01-.12c0-1.75,.25-4.25,.77-7.39l-2.47-.41,2.35,.85-.32-.12,.31,.16,.02-.04-.32-.12,.31,.16s.07-.12,.27-.31c.61-.62,2.3-1.67,4.85-2.77h.03s.03-.03,.03-.03c3.66-1.75,6.35-2.5,7.28-2.45v-2.5Zm-110.35,85.06l2.5-.12c-.09-1.88-.19-4.11-.31-6.68-.12-2.57-.22-4.81-.31-6.73-.09-1.89-.13-3.41-.13-4.55v-1.68l-1.55-.64c-5.1-2.09-11.47-3.05-19.15-3.06-5.19,0-9.9,.15-14.12,.46-4.23,.31-8.03,.76-11.43,1.38l.45,2.46,2.49,.25c1.44-14.45,2.16-25.5,2.16-33.25,0-2.13-.12-4.84-.36-8.16-.24-3.32-.6-7.32-1.08-12l-2.49,.25,.56,2.44c5.97-1.37,11.2-2.55,15.67-3.54,4.48-.99,8.24-1.81,11.29-2.46l-.53-2.44-1.62-1.9c-7.12,6.05-10.67,15.2-10.83,26.7l-.05,3.28,3.18-.82c1.91-.49,3.57-.99,5.01-1.5,1.38-.49,2.59-.96,3.62-1.41l-1-2.29,.96,2.31c3.67-1.55,6.29-3.1,7.86-5.42l-2.09-1.37,2.07,1.4c1.8-2.8,2.34-6.81,2.58-12.8l-2.5-.08,2.49,.23c.38-3.81,2.08-6.91,5.55-9.77l-1.58-1.94,1.46,2.03c.49-.35,.91-.69,1.3-1.07l.54-.54,2.74-2.75-3.63-1.36c-.9-.33-1.79-.42-2.76-.43-7.49,.04-20.9,3.3-41.11,9.71l.76,2.38,2.48-.32c-.44-3.33-1-5.88-1.84-7.86-.43-.99-.93-1.86-1.69-2.6-.73-.74-1.88-1.32-3.08-1.31-1.27,.02-2.4,.38-3.88,.93-1.46,.56-3.18,1.35-5.24,2.39-2.07,1.05-3.65,1.95-4.83,2.8-.59,.43-1.09,.84-1.55,1.34-.42,.51-.96,1.15-1,2.39,.01,1.83,.51,3.88,1.38,6.53l.02,.06v.03c.6,1.56,1.05,2.81,1.34,3.72,.15,.45,.26,.82,.32,1.08,.03,.13,.06,.23,.07,.3v.07s.23-.03,.23-.03l-.22,.02h0s.22-.02,.22-.02l-.22,.02v.15s.04,.15,.04,.15c.96,4.59,1.48,11.84,1.47,21.55,0,3.72-.1,7.52-.31,11.39-.21,3.87-.52,7.85-.93,11.94-.3,3-.53,5.4-.68,7.22-.15,1.83-.23,3.06-.23,3.88v3.23l2.99-.6c2.67-.54,5.76-1.61,9.4-3.21l-1.01-2.29,.23,2.49c3.2-.3,6.3-.53,9.29-.71,2.97-.18,5.87-.27,8.69-.27,7.52-.03,12.5,1.29,14.77,3.14l1.55-1.96-2.5,.16c.24,3.74,.4,7.24,.49,10.49,.09,3.27,.13,6.32,.13,9.17,0,2.24-.04,4.43-.13,6.58-.09,2.12-.25,4.2-.48,6.23l2.48,.28,.31-2.48c-.98-.12-1.94-.23-2.89-.32-1.01-.1-2.03-.15-3.07-.15-5,0-12.42,1.02-22.54,3l.48,2.45,2.48,.31c.37-2.93,.56-5.31,.56-7.21,0-4.29-.73-8.06-2.33-11.25l-.81-1.61-1.79,.26c-1.1,.16-2.32,.5-3.81,1-1.47,.5-3.17,1.14-5.11,1.93l-.04,.02h-.03c-2.22,1-3.91,1.85-5.17,2.66-.64,.41-1.17,.8-1.66,1.29-.45,.5-1.06,1.14-1.11,2.47,.01,1.59,.4,3.43,1.08,5.88,.63,2.21,.9,3.85,.89,4.52,0,.55-.04,1.29-.12,2.19-.09,.96-.2,2.1-.31,3.42-.12,1.31-.22,2.43-.31,3.35-.09,.98-.15,1.81-.15,2.53v2.74l2.73-.25c2.43-.23,5.42-1.14,9.3-2.68,2-.78,3.59-1.54,4.86-2.36,1.23-.84,2.33-1.68,2.83-3.39l-2.42-.61,.39,2.47c1.43-.23,2.79-.38,4.08-.47,1.32-.08,2.61-.13,3.87-.13,3.89,0,7.03,.57,9.45,1.6,2.42,1.03,4.14,2.47,5.39,4.42l.74,1.16h1.37c2.55-.03,5.43-.97,9.19-2.64h.02c3.8-1.81,6.21-3.13,7.73-5.15l-2.05-1.43,2.02,1.47c1.68-2.38,2.6-5.68,3.27-10.19,.65-4.5,.97-10.21,.97-17.2,0-1.31-.05-2.92-.14-4.83l-2.5,.12-2.5,.12c.09,1.86,.13,3.39,.13,4.59,0,6.83-.31,12.34-.92,16.48-.58,4.13-1.55,6.88-2.38,7.97l-.03,.04h0c-.16,.36-2.23,1.91-5.72,3.46h.02c-3.42,1.55-5.98,2.22-7.13,2.19v2.5l2.11-1.34c-1.8-2.83-4.43-4.98-7.66-6.34-3.23-1.37-7.04-1.99-11.4-1.99-1.37,0-2.77,.05-4.2,.14-1.46,.1-2.98,.27-4.54,.52l-1.63,.26-.4,1.6,.79,.2-.7-.42s-.06,.1-.09,.22l.79,.2-.7-.42-.03,.04c-.25,.35-1.95,1.45-4.73,2.5-3.66,1.46-6.41,2.22-7.93,2.35l.23,2.49h2.5c0-.47,.04-1.17,.12-2.05,.09-.93,.19-2.06,.31-3.37,.12-1.31,.22-2.45,.31-3.4,.09-1.01,.15-1.88,.15-2.65-.01-1.59-.4-3.43-1.08-5.88-.64-2.22-.9-3.84-.89-4.52h-1.79l1.57,.87c.08-.14,.21-.43,.21-.87h-1.79l1.57,.87-.65-.36,.55,.51s.03-.02,.1-.15l-.65-.36,.55,.51c.04-.06,.6-.51,1.5-1.01,.91-.52,2.18-1.14,3.78-1.85l-1.02-2.28,.94,2.32c1.88-.76,3.5-1.38,4.84-1.83,1.31-.45,2.33-.71,2.91-.79l-.36-2.47-2.24,1.12c1.16,2.31,1.8,5.29,1.8,9.02,0,1.57-.17,3.79-.52,6.59l-.43,3.43,3.39-.67c9.96-1.96,17.25-2.92,21.58-2.91,.88,0,1.74,.04,2.58,.12,.9,.09,1.82,.19,2.76,.31l2.51,.31,.29-2.51c.25-2.15,.41-4.35,.51-6.59,.09-2.22,.14-4.48,.14-6.78,0-2.9-.04-6-.14-9.3-.09-3.32-.26-6.88-.5-10.67l-.07-1.12-.88-.69c-3.95-3.05-9.85-4.18-17.87-4.21-2.92,0-5.92,.09-8.98,.27-3.05,.18-6.2,.42-9.45,.72l-.41,.04-.37,.16c-3.42,1.51-6.25,2.47-8.36,2.89l.49,2.45h2.5v-.18c0-.49,.07-1.71,.22-3.47,.15-1.77,.37-4.15,.67-7.13,.42-4.16,.74-8.22,.95-12.18,.21-3.96,.32-7.84,.32-11.66,0-9.9-.5-17.35-1.58-22.57l-2.45,.51,2.49-.21c-.09-.83-.3-1.49-.63-2.56-.33-1.03-.8-2.34-1.41-3.95l-2.34,.88,2.37-.79c-.8-2.37-1.14-4.14-1.13-4.95h-1.73l1.56,.79c.06-.13,.17-.39,.18-.79h-1.73l1.56,.79-.6-.3,.52,.43s.02-.02,.08-.13l-.6-.3,.52,.43c.11-.22,1.95-1.54,4.9-3,1.95-.99,3.56-1.72,4.76-2.18,1.18-.47,2.05-.62,2.09-.6v-.81l-.33,.74c.08,.04,.22,.07,.33,.07v-.81l-.33,.74,.13-.28-.21,.24,.09,.05,.13-.28-.21,.24c.07,.03,.57,.72,.96,2.03,.41,1.3,.8,3.16,1.1,5.51l.39,2.96,2.85-.91c19.96-6.38,33.46-9.51,39.6-9.48,.58,0,.95,.08,1,.11l.88-2.34-1.77-1.77-.54,.54c-.09,.09-.33,.3-.67,.54l-.06,.04-.06,.05c-4.31,3.48-6.91,8.02-7.37,13.18v.08s0,.08,0,.08c-.12,5.6-1.01,9.25-1.72,10.15l-.02,.03c-.46,.79-2.32,2.22-5.59,3.54l-.05,.02c-.88,.39-1.98,.82-3.29,1.28-1.25,.45-2.79,.91-4.58,1.37l.62,2.42,2.5,.04c.2-10.61,3.28-18.02,9.08-22.98l7.57-6.45-9.72,2.1c-3.05,.66-6.82,1.48-11.31,2.47-4.49,.99-9.73,2.17-15.72,3.55l-2.15,.49,.22,2.2c.48,4.65,.83,8.6,1.07,11.85,.24,3.25,.35,5.86,.35,7.8,0,7.44-.71,18.39-2.14,32.75l-.33,3.3,3.26-.59c3.18-.58,6.81-1.02,10.9-1.31,4.08-.29,8.67-.44,13.77-.44,7.26,0,13.03,.94,17.26,2.68l.95-2.31h-2.5c0,1.26,.05,2.84,.14,4.78,.09,1.91,.19,4.15,.31,6.73,.12,2.57,.22,4.8,.31,6.68l2.5-.12Z"/>
      </g>
    </g>
  </g>
</svg>