{
  "asset": {
    "version": "2.0",
    "generator": "THREE.GLTFExporter r181"
  },
  "scenes": [
    {
      "name": "AuxScene",
      "nodes": [
        0
      ]
    }
  ],
  "scene": 0,
  "nodes": [
    {
      "mesh": 0
    }
  ],
  "bufferViews": [
    {
      "buffer": 0,
      "byteOffset": 0,
      "byteLength": 7296,
      "target": 34962,
      "byteStride": 12
    },
    {
      "buffer": 0,
      "byteOffset": 7296,
      "byteLength": 9440,
      "target": 34962,
      "byteStride": 8
    },
    {
      "buffer": 0,
      "byteOffset": 16736,
      "byteLength": 7296,
      "target": 34962,
      "byteStride": 12
    },
    {
      "buffer": 0,
      "byteOffset": 24032,
      "byteLength": 7080,
      "target": 34963
    }
  ],
  "buffers": [
    {
      "byteLength": 31112,
      "uri": "data:application/octet-stream;base64,"
    }
  ],
  "accessors": [
    {
      "bufferView": 0,
      "componentType": 5126,
      "count": 608,
      "max": [
        0.7668690085411072,
        3.9827799797058105,
        0.7668690085411072
      ],
      "min": [
        -0.7668690085411072,
        0.005855000112205744,
        -0.7668690085411072
      ],
      "type": "VEC3"
    },
    {
      "bufferView": 1,
      "componentType": 5126,
      "count": 1180,
      "max": [
        0.9961090087890625,
        0.9927380084991455
      ],
      "min": [
        0.004747000057250261,
        0.0013160000089555979
      ],
      "type": "VEC2"
    },
    {
      "bufferView": 2,
      "componentType": 5126,
      "count": 608,
      "max": [
        0.9983348846435547,
        0.9747913479804993,
        0.9983348846435547
      ],
      "min": [
        -0.9983348846435547,
        -0.9998617172241211,
        -0.9993045330047607
      ],
      "type": "VEC3"
    },
    {
      "bufferView": 3,
      "componentType": 5123,
      "count": 3540,
      "max": [
        607
      ],
      "min": [
        0
      ],
      "type": "SCALAR"
    }
  ],
  "materials": [
    {
      "pbrMetallicRoughness": {
        "metallicFactor": 0.1,
        "roughnessFactor": 0.8
      }
    }
  ],
  "meshes": [
    {
      "primitives": [
        {
          "mode": 4,
          "attributes": {
            "POSITION": 0,
            "TEXCOORD_0": 1,
            "NORMAL": 2
          },
          "indices": 3,
          "material": 0
        }
      ]
    }
  ]
}