{
  "asset": {
    "version": "2.0",
    "generator": "THREE.GLTFExporter r181"
  },
  "scenes": [
    {
      "name": "AuxScene",
      "nodes": [
        0
      ]
    }
  ],
  "scene": 0,
  "nodes": [
    {
      "name": "ContentRoot",
      "children": [
        1
      ]
    },
    {
      "name": "bomb",
      "extras": {
        "nodeId": "f02568a4-b90f-4b46-b421-6247ff22fd99"
      },
      "children": [
        2
      ]
    },
    {
      "name": "ContentRoot",
      "extras": {
        "nodeId": "4985eed6-c095-4638-89b9-cd79f662d2ed"
      },
      "children": [
        3
      ]
    },
    {
      "name": "bomb",
      "extras": {
        "nodeId": "b6464c3b-0531-468b-982f-526d70299b0a"
      },
      "children": [
        4
      ]
    },
    {
      "name": "ContentRoot_1",
      "extras": {
        "nodeId": "0786bf5b-2323-4563-81e1-be5fe042ae7b"
      },
      "children": [
        5,
        6,
        7,
        8
      ]
    },
    {
      "matrix": [
        1,
        0,
        0,
        0,
        0,
        0.11482492526675518,
        0,
        0,
        0,
        0,
        1,
        0,
        0,
        0.10030743134272649,
        0,
        1
      ],
      "name": "Cylinder",
      "extras": {
        "nodeId": "7aadc85f-f19a-4113-8e8d-7e35d24e338d"
      },
      "mesh": 0
    },
    {
      "matrix": [
        0.6930392617587611,
        0,
        0,
        0,
        0,
        0.7662068931014583,
        0,
        0,
        0,
        0,
        0.7289697729534049,
        0,
        0,
        0.611597590732149,
        0,
        1
      ],
      "name": "Sphere",
      "extras": {
        "nodeId": "082aed2d-93ee-4400-a6f7-962e22ba0d5a"
      },
      "mesh": 1
    },
    {
      "matrix": [
        0.1314629984847139,
        -0.1058356003952293,
        0,
        0,
        0.3550186394887864,
        0.4409840799397339,
        0,
        0,
        0,
        0,
        0.17678898322999484,
        0,
        0.14219635791047758,
        0.8429763983770769,
        0,
        1
      ],
      "name": "Cylinder_1",
      "extras": {
        "nodeId": "2ca08129-f163-4ec1-be2a-7f3785d6d5d4"
      },
      "mesh": 2
    },
    {
      "matrix": [
        0.031109288187873316,
        -0.025192197622058626,
        0,
        0,
        0.34334710986460326,
        0.42399175925401084,
        0,
        0,
        0,
        0,
        0.0468933398947169,
        0,
        0.22936631816005484,
        0.9530537667101386,
        0.006756432527288192,
        1
      ],
      "name": "Cylinder_2",
      "extras": {
        "nodeId": "7fac1b27-bfb5-4cb1-880a-a93d232636ca"
      },
      "mesh": 3
    }
  ],
  "bufferViews": [
    {
      "buffer": 0,
      "byteOffset": 0,
      "byteLength": 3504,
      "target": 34962,
      "byteStride": 12
    },
    {
      "buffer": 0,
      "byteOffset": 3504,
      "byteLength": 3504,
      "target": 34962,
      "byteStride": 12
    },
    {
      "buffer": 0,
      "byteOffset": 7008,
      "byteLength": 2336,
      "target": 34962,
      "byteStride": 8
    },
    {
      "buffer": 0,
      "byteOffset": 9344,
      "byteLength": 1152,
      "target": 34963
    },
    {
      "buffer": 0,
      "byteOffset": 10496,
      "byteLength": 19404,
      "target": 34962,
      "byteStride": 12
    },
    {
      "buffer": 0,
      "byteOffset": 29900,
      "byteLength": 19404,
      "target": 34962,
      "byteStride": 12
    },
    {
      "buffer": 0,
      "byteOffset": 49304,
      "byteLength": 12936,
      "target": 34962,
      "byteStride": 8
    },
    {
      "buffer": 0,
      "byteOffset": 62240,
      "byteLength": 17856,
      "target": 34963
    },
    {
      "buffer": 0,
      "byteOffset": 80096,
      "byteLength": 3504,
      "target": 34962,
      "byteStride": 12
    },
    {
      "buffer": 0,
      "byteOffset": 83600,
      "byteLength": 3504,
      "target": 34962,
      "byteStride": 12
    },
    {
      "buffer": 0,
      "byteOffset": 87104,
      "byteLength": 2336,
      "target": 34962,
      "byteStride": 8
    },
    {
      "buffer": 0,
      "byteOffset": 89440,
      "byteLength": 1152,
      "target": 34963
    },
    {
      "buffer": 0,
      "byteOffset": 90592,
      "byteLength": 3504,
      "target": 34962,
      "byteStride": 12
    },
    {
      "buffer": 0,
      "byteOffset": 94096,
      "byteLength": 3504,
      "target": 34962,
      "byteStride": 12
    },
    {
      "buffer": 0,
      "byteOffset": 97600,
      "byteLength": 2336,
      "target": 34962,
      "byteStride": 8
    },
    {
      "buffer": 0,
      "byteOffset": 99936,
      "byteLength": 1152,
      "target": 34963
    }
  ],
  "buffers": [
    {
      "byteLength": 101088,
      "uri": "data:application/octet-stream;base64,"
    }
  ],
  "accessors": [
    {
      "bufferView": 0,
      "componentType": 5126,
      "count": 292,
      "max": [
        0.6000000238418579,
        0.699999988079071,
        0.6000000238418579
      ],
      "min": [
        -0.6000000238418579,
        -0.699999988079071,
        -0.6000000238418579
      ],
      "type": "VEC3"
    },
    {
      "bufferView": 1,
      "componentType": 5126,
      "count": 292,
      "max": [
        1,
        1,
        1
      ],
      "min": [
        -1,
        -1,
        -1
      ],
      "type": "VEC3"
    },
    {
      "bufferView": 2,
      "componentType": 5126,
      "count": 292,
      "max": [
        1,
        1
      ],
      "min": [
        0,
        0
      ],
      "type": "VEC2"
    },
    {
      "bufferView": 3,
      "componentType": 5123,
      "count": 576,
      "max": [
        291
      ],
      "min": [
        0
      ],
      "type": "SCALAR"
    },
    {
      "bufferView": 4,
      "componentType": 5126,
      "count": 1617,
      "max": [
        0.75,
        0.75,
        0.75
      ],
      "min": [
        -0.75,
        -0.75,
        -0.75
      ],
      "type": "VEC3"
    },
    {
      "bufferView": 5,
      "componentType": 5126,
      "count": 1617,
      "max": [
        1,
        1,
        1
      ],
      "min": [
        -1,
        -1,
        -1
      ],
      "type": "VEC3"
    },
    {
      "bufferView": 6,
      "componentType": 5126,
      "count": 1617,
      "max": [
        1.0104166269302368,
        1
      ],
      "min": [
        -0.010416666977107525,
        0
      ],
      "type": "VEC2"
    },
    {
      "bufferView": 7,
      "componentType": 5123,
      "count": 8928,
      "max": [
        1616
      ],
      "min": [
        0
      ],
      "type": "SCALAR"
    },
    {
      "bufferView": 8,
      "componentType": 5126,
      "count": 292,
      "max": [
        0.6000000238418579,
        0.699999988079071,
        0.6000000238418579
      ],
      "min": [
        -0.6000000238418579,
        -0.699999988079071,
        -0.6000000238418579
      ],
      "type": "VEC3"
    },
    {
      "bufferView": 9,
      "componentType": 5126,
      "count": 292,
      "max": [
        1,
        1,
        1
      ],
      "min": [
        -1,
        -1,
        -1
      ],
      "type": "VEC3"
    },
    {
      "bufferView": 10,
      "componentType": 5126,
      "count": 292,
      "max": [
        1,
        1
      ],
      "min": [
        0,
        0
      ],
      "type": "VEC2"
    },
    {
      "bufferView": 11,
      "componentType": 5123,
      "count": 576,
      "max": [
        291
      ],
      "min": [
        0
      ],
      "type": "SCALAR"
    },
    {
      "bufferView": 12,
      "componentType": 5126,
      "count": 292,
      "max": [
        0.6000000238418579,
        0.699999988079071,
        0.6000000238418579
      ],
      "min": [
        -0.6000000238418579,
        -0.699999988079071,
        -0.6000000238418579
      ],
      "type": "VEC3"
    },
    {
      "bufferView": 13,
      "componentType": 5126,
      "count": 292,
      "max": [
        1,
        1,
        1
      ],
      "min": [
        -1,
        -1,
        -1
      ],
      "type": "VEC3"
    },
    {
      "bufferView": 14,
      "componentType": 5126,
      "count": 292,
      "max": [
        1,
        1
      ],
      "min": [
        0,
        0
      ],
      "type": "VEC2"
    },
    {
      "bufferView": 15,
      "componentType": 5123,
      "count": 576,
      "max": [
        291
      ],
      "min": [
        0
      ],
      "type": "SCALAR"
    }
  ],
  "materials": [
    {
      "pbrMetallicRoughness": {
        "baseColorFactor": [
          0.003936288246501441,
          0.003936288246501441,
          0.004896726811930505,
          1
        ],
        "metallicFactor": 0,
        "roughnessFactor": 0.95
      }
    },
    {
      "pbrMetallicRoughness": {
        "baseColorFactor": [
          0.003936288246501441,
          0.003936288246501441,
          0.004896726811930505,
          1
        ],
        "metallicFactor": 0,
        "roughnessFactor": 0.95
      }
    },
    {
      "pbrMetallicRoughness": {
        "baseColorFactor": [
          0.003936288246501441,
          0.003936288246501441,
          0.004896726811930505,
          1
        ],
        "metallicFactor": 0,
        "roughnessFactor": 0.95
      }
    },
    {
      "pbrMetallicRoughness": {
        "baseColorFactor": [
          0.003936637016199602,
          0.003936637016199602,
          0.00489714357324663,
          1
        ],
        "metallicFactor": 0,
        "roughnessFactor": 0.95
      }
    }
  ],
  "meshes": [
    {
      "primitives": [
        {
          "mode": 4,
          "attributes": {
            "POSITION": 0,
            "NORMAL": 1,
            "TEXCOORD_0": 2
          },
          "indices": 3,
          "material": 0
        }
      ]
    },
    {
      "primitives": [
        {
          "mode": 4,
          "attributes": {
            "POSITION": 4,
            "NORMAL": 5,
            "TEXCOORD_0": 6
          },
          "indices": 7,
          "material": 1
        }
      ]
    },
    {
      "primitives": [
        {
          "mode": 4,
          "attributes": {
            "POSITION": 8,
            "NORMAL": 9,
            "TEXCOORD_0": 10
          },
          "indices": 11,
          "material": 2
        }
      ]
    },
    {
      "primitives": [
        {
          "mode": 4,
          "attributes": {
            "POSITION": 12,
            "NORMAL": 13,
            "TEXCOORD_0": 14
          },
          "indices": 15,
          "material": 3
        }
      ]
    }
  ]
}